<svg width="78" height="88" viewBox="0 0 78 88" fill="none" xmlns="http://www.w3.org/2000/svg">
<g clip-path="url(#clip0_81_4457)">
<path d="M40.2031 0C40.662 0.16058 41.1209 0.302809 41.5546 0.481741C43.1151 1.09673 44.3995 2.25698 45.1691 3.74709C45.9388 5.23719 46.1415 6.95591 45.7396 8.58414C45.6938 8.77683 45.6616 8.97182 45.6066 9.24022L49.0001 11.2039C54.3431 14.2916 59.6853 17.3831 65.0268 20.4785C65.5821 20.802 65.901 20.7974 66.4035 20.3363C67.4234 19.3818 68.7119 18.7632 70.0947 18.5642C71.4775 18.3653 72.8881 18.5955 74.1358 19.2237C76.763 20.5175 78.1993 23.1235 77.9767 26.2066C77.7909 28.792 75.781 31.2672 73.1217 32.0609C72.493 32.249 72.3484 32.5197 72.3507 33.1253C72.3691 40.3652 72.3691 47.605 72.3507 54.8449C72.3507 55.423 72.4999 55.6753 73.0827 55.8496C75.758 56.6502 77.7656 59.0819 77.9767 61.6741C78.2291 64.7641 76.7653 67.4251 74.1014 68.7189C72.8488 69.3366 71.4376 69.5577 70.0561 69.3527C68.6746 69.1478 67.3884 68.5266 66.3691 67.572C65.9951 67.2301 65.745 67.042 65.2219 67.3426C58.7974 71.0772 52.366 74.7965 45.9278 78.5006C45.8261 78.5701 45.7295 78.6467 45.6387 78.7299C46.4555 82.0654 45.6754 84.8962 42.7316 86.8209C40.3133 88.4037 37.709 88.4014 35.293 86.8209C32.3515 84.8985 31.5599 82.07 32.3974 78.6841C30.9519 77.8468 29.5224 77.0163 28.0884 76.1882C23.0658 73.2886 18.0341 70.4005 13.023 67.471C12.4379 67.1292 12.1052 67.1223 11.5752 67.6133C10.5484 68.5644 9.2542 69.1774 7.86764 69.3694C6.48108 69.5614 5.069 69.3231 3.82225 68.6868C1.21575 67.3816 -0.213692 64.7366 0.0272255 61.6741C0.229138 59.091 2.24825 56.6479 4.92129 55.8496C5.50178 55.6753 5.65551 55.4275 5.65322 54.8449C5.63333 47.5775 5.63333 40.3093 5.65322 33.0404C5.65322 32.5082 5.52932 32.2559 4.96488 32.0861C1.75265 31.1158 -0.108154 28.3721 0.0203354 24.922C0.128175 21.9925 2.40199 19.3223 5.47656 18.6685C6.57044 18.4043 7.7137 18.4239 8.79789 18.7254C9.88208 19.0269 10.8713 19.6004 11.6716 20.3913C12.1167 20.8111 12.4035 20.8157 12.9083 20.5244C19.1798 16.8769 25.4643 13.2448 31.7618 9.6279C32.145 9.3985 32.4502 9.25628 32.3102 8.66213C31.4154 4.64305 33.5377 1.21353 37.5186 0.174346C37.6212 0.13327 37.7189 0.0809549 37.81 0.0183559L40.2031 0ZM44.4983 11.6076C43.3259 12.2958 42.3278 13.0368 41.2127 13.4726C40.4693 13.7617 40.272 14.0645 40.3087 14.794C40.366 15.9639 40.3339 17.1407 40.3224 18.313C40.3224 19.3705 39.8245 19.9922 39.0215 20.0082C38.2184 20.0243 37.6907 19.3797 37.6746 18.274C37.6746 17.9872 37.6746 17.7028 37.6746 17.416V14.0553L33.5056 11.6145C27.0995 15.3101 20.5374 19.0883 14.0027 22.8941C13.8008 23.0111 13.6838 23.4194 13.6769 23.6947C13.6425 24.8532 13.7228 26.0162 13.6356 27.1678C13.6012 27.6266 13.6609 27.8285 14.044 28.0395C15.1913 28.6772 16.327 29.3471 17.4605 30.0124C18.3966 30.5629 18.6743 31.2557 18.2613 31.9668C17.8482 32.678 17.114 32.8064 16.1733 32.2696C14.8609 31.5241 13.5553 30.7648 12.4723 30.1408C11.1737 30.852 10.0609 31.5172 8.88841 32.0678C8.42952 32.2834 8.23219 32.4532 8.23907 32.967C8.26661 35.0844 8.25054 37.2017 8.25054 39.3191C8.25054 44.4989 8.25054 49.6788 8.26431 54.8586C8.26431 55.1454 8.38363 55.5767 8.58784 55.6913C9.81078 56.3796 11.075 56.9966 12.5205 57.7376C13.5806 57.1297 14.9113 56.3612 16.2513 55.5996C17.137 55.0995 17.8574 55.2303 18.2567 55.946C18.6559 56.6617 18.3966 57.3476 17.5293 57.8592C16.3821 58.5474 15.2142 59.2218 14.0372 59.871C13.6448 60.0866 13.5989 60.3 13.6402 60.7473C13.7717 61.844 13.7817 62.9518 13.67 64.0507C13.5874 64.6723 13.7274 64.8994 14.207 65.1724C18.3737 67.5551 22.5343 69.9501 26.6888 72.3572L33.501 76.2983L37.6838 73.8644V72.7357C37.6838 71.7057 37.6838 70.6711 37.6838 69.6457C37.6838 68.5354 38.1955 67.8931 39.0261 67.9092C39.8567 67.9252 40.3201 68.5561 40.3316 69.6824C40.3316 69.999 40.3316 70.3133 40.3316 70.6276V73.8529L44.5052 76.3052C50.8976 72.6165 57.4827 68.8222 64.0494 64.9958C64.2398 64.8857 64.3178 64.4613 64.3247 64.1814C64.3523 63.0505 64.2605 61.9104 64.3614 60.7886C64.405 60.3046 64.3614 60.0752 63.9461 59.8458C62.7691 59.1989 61.5989 58.5359 60.4609 57.8248C60.1236 57.6137 59.7037 57.2306 59.6785 56.9072C59.644 56.4667 59.8322 55.7992 60.158 55.595C60.388 55.4825 60.6398 55.4216 60.8958 55.4164C61.1518 55.4113 61.4059 55.462 61.6402 55.5652C63.0628 56.2786 64.4188 57.1251 65.7312 57.8821C66.4012 57.3774 66.9565 56.8705 67.592 56.5057C68.2885 56.1476 69.0039 55.8275 69.7351 55.5468V32.5403L65.5752 30.1225C64.428 30.7808 63.1224 31.5402 61.8054 32.2857C60.8876 32.8087 60.1328 32.6734 59.7404 31.9347C59.3664 31.2465 59.6417 30.5583 60.5205 30.0376C61.6517 29.37 62.7874 28.7048 63.937 28.067C64.3408 27.8376 64.4234 27.6335 64.3752 27.1334C64.2651 26.0067 64.2651 24.8719 64.3752 23.7452C64.4234 23.2405 64.327 23.0386 63.9278 22.8115C61.7917 21.598 59.667 20.3592 57.5377 19.1411L44.4983 11.6076ZM34.6804 80.9551C34.6734 81.5285 34.7803 82.0976 34.9951 82.6293C35.2098 83.161 35.528 83.6448 35.9312 84.0526C36.3344 84.4604 36.8145 84.7841 37.3438 85.005C37.8732 85.2258 38.4411 85.3393 39.0146 85.339C40.1579 85.3305 41.2517 84.8709 42.0578 84.0602C42.8639 83.2495 43.3172 82.1533 43.319 81.0102C43.3263 80.4371 43.2195 79.8684 43.0048 79.337C42.7901 78.8057 42.4717 78.3224 42.0684 77.9152C41.665 77.5081 41.1846 77.1852 40.6552 76.9655C40.1258 76.7458 39.558 76.6337 38.9848 76.6355C37.8417 76.6398 36.7469 77.0968 35.9401 77.9064C35.1333 78.716 34.6804 79.8123 34.6804 80.9551ZM43.319 6.9164C43.3209 5.77345 42.871 4.67603 42.0674 3.86312C41.2638 3.05022 40.1715 2.58765 39.0284 2.57616C38.4538 2.57218 37.8842 2.68258 37.3527 2.90092C36.8212 3.11927 36.3386 3.4412 35.9328 3.84795C35.527 4.25469 35.2063 4.73812 34.9893 5.27005C34.7723 5.80198 34.6634 6.37177 34.6689 6.94622C34.6664 8.08893 35.1162 9.18621 35.9201 9.99852C36.724 10.8108 37.8166 11.2722 38.9595 11.2819C39.5339 11.2865 40.1034 11.1766 40.6348 10.9588C41.1663 10.741 41.649 10.4195 42.0548 10.0131C42.4607 9.60669 42.7814 9.12356 42.9985 8.59189C43.2155 8.06021 43.3245 7.49064 43.319 6.9164ZM71.0658 29.7531C71.6399 29.7586 72.2092 29.6497 72.7406 29.4326C73.272 29.2155 73.7548 28.8947 74.1607 28.4888C74.5667 28.083 74.8876 27.6003 75.1047 27.069C75.3218 26.5377 75.4308 25.9685 75.4253 25.3945C75.4138 24.2522 74.9519 23.1606 74.1399 22.3569C73.3278 21.5532 72.2314 21.1024 71.0888 21.1025C70.5161 21.0985 69.9484 21.2086 69.4189 21.4265C68.8893 21.6444 68.4085 21.9656 68.0045 22.3714C67.6006 22.7772 67.2815 23.2595 67.0661 23.79C66.8507 24.3205 66.7432 24.8886 66.75 25.4611C66.749 26.0269 66.8602 26.5873 67.0771 27.11C67.2939 27.6326 67.6122 28.1072 68.0134 28.5062C68.4147 28.9052 68.891 29.2209 69.4149 29.4349C69.9388 29.6489 70.4999 29.7571 71.0658 29.7531ZM6.90829 66.8058C7.48215 66.8107 8.05124 66.7013 8.58236 66.484C9.11349 66.2666 9.59601 65.9458 10.0018 65.5401C10.4076 65.1344 10.7285 64.6519 10.9459 64.1209C11.1632 63.5899 11.2727 63.0209 11.2678 62.4472C11.269 61.8813 11.1581 61.3209 10.9415 60.7981C10.725 60.2753 10.407 59.8006 10.0059 59.4014C9.60491 59.0021 9.12875 58.6862 8.60496 58.4719C8.08117 58.2576 7.52012 58.1492 6.95419 58.1528C5.81263 58.1424 4.71335 58.5841 3.8965 59.3814C3.07965 60.1788 2.61165 61.2669 2.59472 62.4082C2.58432 63.563 3.03274 64.6747 3.8415 65.4992C4.65027 66.3237 5.75328 66.7937 6.90829 66.8058ZM71.0314 58.1551C70.4654 58.1536 69.9047 58.2643 69.3818 58.4809C68.8589 58.6975 68.3842 59.0157 67.9851 59.4171C67.586 59.8184 67.2706 60.2949 67.057 60.8189C66.8434 61.343 66.7359 61.9042 66.7408 62.4701C66.7386 63.043 66.8505 63.6106 67.0698 64.1398C67.2891 64.6691 67.6115 65.1494 68.0183 65.5529C68.4251 65.9564 68.908 66.275 69.4391 66.4901C69.9702 66.7051 70.5388 66.8125 71.1117 66.8058C72.2536 66.7914 73.3443 66.3296 74.1492 65.5197C74.9541 64.7098 75.409 63.6164 75.4161 62.4747C75.4165 61.9019 75.3029 61.3348 75.0818 60.8063C74.8608 60.2779 74.5368 59.7987 74.1288 59.3966C73.7207 58.9946 73.2366 58.6778 72.7049 58.4647C72.1731 58.2515 71.6043 58.1463 71.0314 58.1551ZM6.96336 29.7531C7.5292 29.7538 8.08956 29.6423 8.61208 29.4252C9.13459 29.2081 9.60891 28.8896 10.0076 28.4882C10.4064 28.0868 10.7216 27.6104 10.9351 27.0865C11.1486 26.5626 11.2562 26.0015 11.2517 25.4358C11.2551 24.8629 11.1441 24.2951 10.9251 23.7656C10.7062 23.2362 10.3837 22.7558 9.97657 22.3526C9.56945 21.9494 9.0859 21.6316 8.5543 21.4177C8.02269 21.2038 7.45373 21.0982 6.88076 21.1071C5.73842 21.1155 4.64559 21.5745 3.83996 22.3843C3.03433 23.1941 2.58105 24.2891 2.57866 25.4312C2.57798 26.0042 2.69138 26.5716 2.91227 27.1003C3.13315 27.629 3.4571 28.1085 3.86521 28.5108C4.27333 28.913 4.75745 29.2301 5.28936 29.4434C5.82127 29.6567 6.39033 29.762 6.96336 29.7531Z" fill="#A68E6C"/>
<path d="M44.4989 11.6074L57.5245 19.1363C59.6538 20.3659 61.7785 21.6047 63.9146 22.8067C64.3138 23.0361 64.4102 23.2357 64.362 23.7404C64.2519 24.8671 64.2519 26.0019 64.362 27.1286C64.4102 27.6287 64.3276 27.8375 63.9238 28.0623C62.7765 28.7 61.6293 29.3653 60.5073 30.0328C59.6285 30.549 59.3601 31.2395 59.7272 31.9299C60.1264 32.6686 60.8744 32.804 61.7922 32.2809C63.1092 31.5354 64.4171 30.7761 65.562 30.1177L69.7219 32.5356V55.5306C68.9907 55.8112 68.2753 56.1313 67.5788 56.4895C66.9433 56.8565 66.388 57.3635 65.718 57.8659C64.4056 57.1089 63.0496 56.2601 61.627 55.5489C61.3927 55.4458 61.1386 55.395 60.8826 55.4002C60.6266 55.4053 60.3748 55.4663 60.1448 55.5788C59.819 55.7829 59.6308 56.4505 59.6653 56.8909C59.6905 57.2236 60.1104 57.6067 60.4477 57.8085C61.5949 58.5197 62.7559 59.1849 63.9329 59.8295C64.3528 60.0589 64.3918 60.2883 64.3482 60.7724C64.2473 61.8941 64.3482 63.0343 64.3115 64.1652C64.3115 64.4451 64.2266 64.8695 64.0362 64.9796C57.4695 68.806 50.8844 72.6002 44.492 76.289L40.3184 73.8367V70.6113C40.3184 70.2971 40.3184 69.9828 40.3184 69.6662C40.3184 68.5398 39.8389 67.9067 39.0129 67.8929C38.1869 67.8792 37.6798 68.5192 37.6706 69.6295C37.6706 70.6595 37.6706 71.6941 37.6706 72.7195V73.8482L33.4878 76.2821L26.6802 72.3571C22.5226 69.9575 18.362 67.5626 14.1983 65.1723C13.7188 64.8993 13.5788 64.6722 13.6614 64.0505C13.7731 62.9516 13.7631 61.8438 13.6316 60.7471C13.5903 60.2998 13.6316 60.0865 14.0285 59.8708C15.2056 59.2216 16.362 58.5403 17.5207 57.859C18.388 57.3474 18.6473 56.6432 18.2481 55.9458C17.8488 55.2484 17.1284 55.0993 16.2427 55.5994C14.9027 56.3564 13.572 57.1295 12.5119 57.7374C11.0664 56.9965 9.80216 56.3794 8.57922 55.6912C8.37501 55.5765 8.258 55.1452 8.2557 54.8585C8.23735 49.6786 8.24194 44.4988 8.24194 39.3189C8.24194 37.2016 8.258 35.0842 8.23047 32.9668C8.23047 32.453 8.41402 32.2786 8.87979 32.0676C10.0523 31.5285 11.1742 30.8518 12.4637 30.1406C13.5467 30.7646 14.8523 31.517 16.1647 32.2695C17.1077 32.8063 17.8282 32.6938 18.2526 31.9666C18.6771 31.2395 18.388 30.5627 17.4519 30.0122C16.3184 29.3469 15.1873 28.6771 14.0354 28.0393C13.6523 27.8283 13.5926 27.6195 13.627 27.1676C13.7142 26.0206 13.627 24.853 13.6683 23.6945C13.6683 23.4192 13.7922 23.0063 13.9941 22.8939C20.5379 19.0882 27.1001 15.3099 33.497 11.6143L37.666 14.0551V17.4158C37.666 17.7026 37.666 17.987 37.666 18.2738C37.6821 19.3795 38.1846 20.0241 39.0129 20.008C39.8412 19.992 40.3023 19.3703 40.3138 18.3128C40.3253 17.1405 40.3574 15.9637 40.3001 14.7938C40.2633 14.0643 40.4607 13.7615 41.2041 13.4724C42.3284 13.0366 43.3265 12.2933 44.4989 11.6074ZM53.6767 36.7129C57.6048 32.3016 56.0377 26.7707 52.3987 24.3552C48.6335 21.857 42.762 22.7723 40.4125 28.2068C39.7242 28.2068 39.0542 28.1013 38.4301 28.2343C37.7073 28.3903 37.4825 28.1104 37.1773 27.5186C35.6698 24.5915 33.2217 23.0132 29.9314 23.0499C26.6412 23.0866 24.1723 24.6809 22.775 27.6608C21.3777 30.6407 21.8205 33.499 23.8282 36.1096L24.1563 36.5317C22.9723 37.7292 21.7494 38.7752 20.7674 40.0117C19.2874 41.8767 18.6473 44.1042 18.5922 46.4808C18.5739 47.3043 19.0695 47.8434 19.7785 47.9008C20.5609 47.965 21.0679 47.5085 21.1895 46.6276C21.2308 46.3156 21.24 45.999 21.279 45.687C21.6852 42.4204 23.3991 40.0828 26.3406 38.6399C26.5942 38.5252 26.8739 38.4808 27.1505 38.5114C28.4171 38.6468 29.6744 38.8074 30.9433 38.9817C31.1727 39.0138 31.4687 39.0918 31.5743 39.2547C32.1387 40.1241 32.6549 41.0256 33.2033 41.9455C32.9303 42.1336 32.6205 42.3332 32.3245 42.5512C29.3127 44.7977 27.7372 47.7983 27.598 51.5528C27.559 52.6723 28.4148 53.3742 29.3486 53.0049C30.037 52.7365 30.1861 52.1492 30.2205 51.4725C30.4041 47.9627 32.1203 45.4393 35.2316 43.8633C35.6096 43.7059 36.0306 43.6848 36.4224 43.8037C38.0986 44.3233 39.8928 44.3233 41.5689 43.8037C41.9907 43.6881 42.4395 43.7239 42.8377 43.9046C45.9054 45.4898 47.5735 48.0155 47.7731 51.4748C47.835 52.5392 48.3054 53.0806 49.1498 53.06C49.9941 53.0393 50.4301 52.4429 50.3704 51.3555C50.1639 47.4993 48.4293 44.4919 45.2836 42.2782C45.084 42.1382 44.889 41.9914 44.772 41.9065C45.2974 41.0623 45.8343 40.3168 46.2358 39.507C46.4653 39.023 46.7612 38.9794 47.2293 38.9542C48.3054 38.8991 49.3746 38.7248 50.4415 38.6399C50.9211 38.6055 51.4832 38.5573 51.8779 38.7638C54.9524 40.3696 56.5448 42.932 56.7651 46.3844C56.8316 47.4465 57.3066 47.9237 58.1417 47.8916C58.9769 47.8595 59.5414 47.2286 59.3647 46.1917C59.1123 44.7144 58.8232 43.2095 58.2725 41.8217C57.4098 39.6217 55.744 37.9976 53.6813 36.7129H53.6767ZM39.006 64.8993H45.8756C47.1628 64.8993 48.45 64.8993 49.7394 64.8993C50.4576 64.8993 50.9303 64.5185 51.0427 63.789C51.105 63.5041 51.0601 63.2062 50.9166 62.9523C50.7731 62.6984 50.5411 62.5063 50.2649 62.4126C49.9625 62.3258 49.6467 62.2955 49.3333 62.3231C42.4347 62.3231 35.536 62.3231 28.6374 62.3231C28.4375 62.3151 28.2373 62.322 28.0385 62.3438C27.2997 62.4539 26.9395 62.915 26.9326 63.6376C26.9326 64.4152 27.5085 64.9016 28.4423 64.9039C31.9735 64.9016 35.4886 64.897 39.0106 64.8993H39.006ZM47.8764 59.8525C48.4775 59.8525 49.0809 59.88 49.6798 59.8525C50.5563 59.8043 51.0565 59.295 51.0565 58.5288C51.0565 57.8039 50.5609 57.2649 49.7371 57.235C48.4798 57.1892 47.2132 57.1869 45.9628 57.235C45.7892 57.2288 45.6162 57.2587 45.4547 57.3227C45.2933 57.3868 45.1469 57.4837 45.0248 57.6072C44.9028 57.7308 44.8077 57.8783 44.7456 58.0405C44.6835 58.2027 44.6557 58.376 44.6641 58.5495C44.6641 59.2767 45.1597 59.786 45.9857 59.841C46.6213 59.8961 47.2523 59.864 47.8809 59.864L47.8764 59.8525ZM28.2381 57.2327C27.8944 57.2315 27.5642 57.366 27.3192 57.6071C27.0743 57.8481 26.9345 58.1761 26.9303 58.5197C26.926 58.69 26.9555 58.8596 27.0171 59.0185C27.0787 59.1774 27.1711 59.3226 27.289 59.4456C27.407 59.5687 27.5481 59.6672 27.7043 59.7354C27.8605 59.8037 28.0287 59.8403 28.1991 59.8433C28.5425 59.8384 28.8711 59.7028 29.1179 59.4641C29.3648 59.2254 29.5113 58.9016 29.5276 58.5587C29.5172 58.2184 29.3793 57.8945 29.1413 57.6511C28.9034 57.4077 28.5827 57.2624 28.2427 57.2442L28.2381 57.2327ZM33.9903 58.5082C33.9689 58.1657 33.8185 57.844 33.5695 57.6078C33.3205 57.3716 32.9913 57.2384 32.6481 57.235C32.3046 57.2464 31.9796 57.3932 31.744 57.6434C31.5084 57.8935 31.3814 58.2267 31.3907 58.5701C31.3967 58.9141 31.5391 59.2416 31.7864 59.4808C32.0338 59.7199 32.366 59.8511 32.71 59.8456C33.0521 59.8277 33.3747 59.681 33.6131 59.4351C33.8514 59.1891 33.9878 58.8621 33.9949 58.5197L33.9903 58.5082ZM38.4553 58.5082C38.431 58.1653 38.278 57.8443 38.027 57.6095C37.7759 57.3747 37.4454 57.2434 37.1016 57.2419C36.7581 57.2568 36.4343 57.4061 36.1999 57.6576C35.9656 57.9091 35.8395 58.2426 35.8488 58.5862C35.8602 58.9296 36.0061 59.2548 36.255 59.4916C36.5039 59.7285 36.836 59.8581 37.1796 59.8525C37.5226 59.8317 37.8451 59.6821 38.0826 59.4337C38.32 59.1853 38.4548 58.8563 38.4599 58.5128L38.4553 58.5082Z" fill="white"/>
<path d="M34.681 80.9554C34.681 79.8125 35.134 78.7162 35.9407 77.9066C36.7475 77.097 37.8423 76.64 38.9854 76.6358C39.5586 76.6339 40.1264 76.7461 40.6558 76.9658C41.1852 77.1855 41.6656 77.5083 42.069 77.9154C42.4724 78.3226 42.7907 78.8059 43.0054 79.3373C43.2201 79.8686 43.3269 80.4374 43.3196 81.0104C43.3178 82.1536 42.8645 83.2498 42.0584 84.0604C41.2523 84.8711 40.1586 85.3307 39.0152 85.3392C38.4417 85.3395 37.8738 85.226 37.3445 85.0052C36.8152 84.7844 36.335 84.4607 35.9318 84.0529C35.5286 83.6451 35.2104 83.1613 34.9957 82.6295C34.781 82.0978 34.674 81.5287 34.681 80.9554Z" fill="white"/>
<path d="M43.3192 6.91657C43.3238 7.49022 43.2142 8.05905 42.9967 8.58993C42.7793 9.12081 42.4583 9.60312 42.0526 10.0088C41.6469 10.4144 41.1645 10.7353 40.6335 10.9527C40.1025 11.1701 39.5335 11.2797 38.9598 11.2752C37.8169 11.2655 36.7242 10.8041 35.9204 9.9918C35.1165 9.17949 34.6667 8.08221 34.6691 6.9395C34.6636 6.36505 34.7726 5.79526 34.9896 5.26333C35.2066 4.7314 35.5273 4.24797 35.933 3.84123C36.3388 3.43448 36.8215 3.11255 37.3529 2.8942C37.8844 2.67586 38.454 2.56546 39.0286 2.56944C40.1729 2.58094 41.2663 3.04445 42.0701 3.85885C42.8739 4.67324 43.3229 5.77242 43.3192 6.91657Z" fill="white"/>
<path d="M71.0665 29.7529C70.5006 29.7581 69.9393 29.6511 69.4149 29.4382C68.8905 29.2253 68.4135 28.9107 68.0114 28.5125C67.6093 28.1143 67.2901 27.6404 67.0721 27.1182C66.8541 26.5961 66.7418 26.0359 66.7415 25.47C66.7348 24.8975 66.8423 24.3294 67.0577 23.7989C67.2731 23.2684 67.5921 22.7862 67.996 22.3804C68.4 21.9746 68.8808 21.6534 69.4104 21.4355C69.94 21.2176 70.5077 21.1074 71.0803 21.1114C72.2229 21.1114 73.3194 21.5622 74.1314 22.3659C74.9434 23.1696 75.4053 24.2612 75.4168 25.4035C75.4211 25.9759 75.3115 26.5434 75.0944 27.073C74.8773 27.6026 74.557 28.0838 74.1522 28.4885C73.7474 28.8933 73.2661 29.2135 72.7364 29.4305C72.2066 29.6476 71.639 29.7572 71.0665 29.7529Z" fill="white"/>
<path d="M6.90822 66.8056C6.33553 66.8011 5.76933 66.6839 5.24198 66.4605C4.71464 66.2372 4.23649 65.9121 3.83483 65.5039C3.43318 65.0957 3.11591 64.6125 2.90114 64.0816C2.68638 63.5508 2.57832 62.9829 2.58316 62.4103C2.60009 61.2691 3.06811 60.1809 3.88496 59.3836C4.7018 58.5862 5.80108 58.1445 6.94263 58.155C7.50857 58.1513 8.06963 58.2598 8.59342 58.4741C9.11721 58.6884 9.59337 59.0043 9.99441 59.4035C10.3954 59.8028 10.7134 60.2775 10.93 60.8003C11.1466 61.323 11.2574 61.8835 11.2562 62.4493C11.2608 63.0219 11.1515 63.5897 10.9347 64.1197C10.718 64.6497 10.398 65.1313 9.99347 65.5366C9.58893 65.9419 9.10785 66.2628 8.57821 66.4807C8.04857 66.6985 7.48092 66.809 6.90822 66.8056Z" fill="white"/>
<path d="M71.032 58.1553C71.6048 58.1465 72.1737 58.2517 72.7055 58.4649C73.2372 58.678 73.7213 58.9948 74.1293 59.3968C74.5374 59.7989 74.8614 60.2781 75.0824 60.8065C75.3034 61.335 75.4171 61.9021 75.4167 62.4749C75.4096 63.6166 74.9547 64.7099 74.1498 65.5198C73.3448 66.3297 72.2542 66.7915 71.1123 66.8059C70.5394 66.8126 69.9708 66.7053 69.4397 66.4902C68.9086 66.2751 68.4256 65.9566 68.0189 65.5531C67.6121 65.1496 67.2897 64.6693 67.0703 64.14C66.851 63.6108 66.7392 63.0432 66.7414 62.4703C66.7365 61.9044 66.844 61.3432 67.0576 60.8191C67.2712 60.2951 67.5866 59.8186 67.9857 59.4173C68.3847 59.0159 68.8595 58.6977 69.3824 58.4811C69.9053 58.2645 70.466 58.1538 71.032 58.1553Z" fill="white"/>
<path d="M6.9638 29.753C6.39077 29.7619 5.82172 29.6566 5.28981 29.4433C4.7579 29.23 4.27377 28.9129 3.86566 28.5107C3.45755 28.1084 3.1336 27.6289 2.91271 27.1002C2.69183 26.5715 2.57843 26.0041 2.5791 25.4311C2.58149 24.289 3.03478 23.194 3.84041 22.3842C4.64604 21.5744 5.73886 21.1154 6.88121 21.107C7.45417 21.0981 8.02314 21.2037 8.55474 21.4176C9.08635 21.6315 9.5699 21.9493 9.97701 22.3525C10.3841 22.7557 10.7066 23.2361 10.9256 23.7655C11.1445 24.295 11.2556 24.8628 11.2521 25.4357C11.2567 26.0014 11.1491 26.5625 10.9356 27.0864C10.722 27.6103 10.4068 28.0867 10.0081 28.4881C9.60935 28.8895 9.13504 29.208 8.61252 29.4251C8.09001 29.6422 7.52965 29.7537 6.9638 29.753Z" fill="white"/>
<path d="M53.6813 36.7131C55.7463 37.9977 57.4098 39.6218 58.2863 41.8333C58.8369 43.2097 59.126 44.726 59.3784 46.2033C59.5551 47.2402 58.9907 47.8711 58.1555 47.9032C57.3203 47.9353 56.8545 47.4581 56.7788 46.396C56.5494 42.9436 54.9662 40.372 51.8916 38.7754C51.497 38.5689 50.9348 38.6171 50.4553 38.6515C49.3815 38.7272 48.3123 38.9107 47.2431 38.9658C46.7842 38.991 46.4905 39.0346 46.2496 39.5186C45.848 40.3284 45.3111 41.0739 44.7857 41.9181C44.9027 42.003 45.0977 42.1475 45.2974 42.2898C48.4431 44.5035 50.1777 47.5109 50.3842 51.3671C50.4438 52.4545 50.0148 53.0417 49.1635 53.0715C48.3123 53.1014 47.8373 52.5508 47.7868 51.4864C47.5872 48.0202 45.9192 45.4945 42.8515 43.9162C42.4533 43.7354 42.0044 43.6997 41.5826 43.8153C39.9065 44.3349 38.1123 44.3349 36.4362 43.8153C36.0443 43.6964 35.6234 43.7175 35.2454 43.8749C32.1341 45.4509 30.427 47.9743 30.2343 51.4841C30.1998 52.1608 30.0438 52.7481 29.3624 53.0165C28.4285 53.3858 27.5727 52.6839 27.6117 51.5644C27.7463 47.8145 29.3218 44.8139 32.3383 42.5627C32.6343 42.3448 32.944 42.1452 33.2171 41.9571C32.6687 41.0395 32.1524 40.1357 31.588 39.2663C31.4824 39.1034 31.1796 39.0369 30.957 38.9933C29.6951 38.8189 28.4331 38.6584 27.1643 38.523C26.8877 38.4924 26.6079 38.5368 26.3543 38.6515C23.4129 40.0944 21.6989 42.432 21.2928 45.6986C21.2538 46.0106 21.2446 46.3272 21.2033 46.6392C21.0817 47.5201 20.5746 47.9766 19.7922 47.9123C19.0832 47.855 18.5876 47.3159 18.606 46.4924C18.661 44.1158 19.2943 41.8883 20.7811 40.0233C21.7631 38.7868 22.9861 37.7408 24.17 36.5433L23.8419 36.1212C21.8343 33.5106 21.3914 30.6569 22.7887 27.6724C24.1861 24.6879 26.6595 23.0982 29.9452 23.0615C33.2308 23.0248 35.6813 24.603 37.191 27.5302C37.4962 28.122 37.7211 28.4019 38.4438 28.2459C39.0679 28.1129 39.7425 28.2184 40.4262 28.2184C42.7689 22.7839 48.6473 21.8686 52.4125 24.3668C56.0423 26.7709 57.6094 32.3017 53.6813 36.7131ZM44.3773 36.2244C44.3846 35.5161 44.2512 34.8134 43.9849 34.157C43.7186 33.5005 43.3247 32.9035 42.826 32.4004C42.3272 31.8972 41.7336 31.4981 41.0794 31.226C40.4253 30.9539 39.7236 30.8142 39.0151 30.8152C38.3066 30.81 37.604 30.9455 36.9483 31.2139C36.2925 31.4823 35.6966 31.8781 35.195 32.3786C34.6934 32.879 34.2962 33.4739 34.0264 34.129C33.7566 34.7841 33.6195 35.4862 33.6232 36.1946C33.6137 36.9027 33.7457 37.6055 34.0114 38.2619C34.2772 38.9183 34.6713 39.515 35.1707 40.0171C35.6701 40.5192 36.2648 40.9166 36.9198 41.1859C37.5749 41.4552 38.2771 41.5911 38.9853 41.5855C39.6936 41.5953 40.3967 41.4636 41.0534 41.198C41.71 40.9324 42.307 40.5384 42.8093 40.039C43.3115 39.5396 43.709 38.9449 43.9782 38.2899C44.2475 37.6348 44.3832 36.9326 44.3773 36.2244ZM35.0434 29.23C34.5944 27.9123 33.6445 26.8243 32.3993 26.2014C31.154 25.5785 29.7136 25.4707 28.3895 25.9014C27.0385 26.3207 25.9076 27.2561 25.2425 28.5044C24.5774 29.7527 24.432 31.2129 24.8377 32.5678C25.6454 35.2449 28.4744 36.9769 30.9478 36.2657C31.0763 33.2032 32.4324 30.8358 35.0434 29.23ZM47.0595 36.3093C49.9207 36.8484 52.7291 34.9513 53.2545 32.1801C53.8213 29.23 52.0362 26.3993 49.2117 25.7776C46.4744 25.1743 43.5329 26.8053 42.98 29.2599C45.6163 30.8611 46.9218 33.2675 47.0595 36.3024V36.3093Z" fill="#0F2056"/>
<path d="M39.0106 64.8973C35.4924 64.8973 31.9743 64.8973 28.4561 64.8973C27.5222 64.8973 26.9395 64.4087 26.9463 63.631C26.9463 62.9084 27.3134 62.4473 28.0523 62.3372C28.2511 62.3154 28.4513 62.3085 28.6511 62.3165C35.5498 62.3165 42.4484 62.3165 49.3471 62.3165C49.6605 62.2889 49.9763 62.3192 50.2787 62.406C50.5549 62.4997 50.7869 62.6918 50.9304 62.9457C51.0739 63.1997 51.1188 63.4975 51.0565 63.7824C50.944 64.5119 50.4714 64.8812 49.7532 64.8927C48.4637 64.9134 47.1766 64.8927 45.8894 64.8927L39.0106 64.8973Z" fill="#D2D2D2"/>
<path d="M47.881 59.8639C47.2523 59.8639 46.6213 59.8961 45.9949 59.8639C45.1689 59.8089 44.6802 59.2996 44.6733 58.5724C44.665 58.399 44.6927 58.2256 44.7548 58.0634C44.8169 57.9012 44.912 57.7537 45.034 57.6301C45.1561 57.5066 45.3025 57.4097 45.464 57.3456C45.6254 57.2816 45.7984 57.2517 45.972 57.258C47.2271 57.2052 48.4959 57.2075 49.7464 57.258C50.5701 57.2878 51.0588 57.8269 51.0657 58.5518C51.0657 59.318 50.5609 59.8272 49.689 59.8754C49.0902 59.9075 48.4867 59.8754 47.8856 59.8754L47.881 59.8639Z" fill="#D2D2D2"/>
<path d="M28.2428 57.2441C28.5855 57.2614 28.909 57.4078 29.1482 57.6538C29.3874 57.8997 29.5246 58.2271 29.5323 58.5701C29.516 58.913 29.3695 59.2369 29.1226 59.4755C28.8758 59.7142 28.5472 59.8498 28.2038 59.8547C28.0334 59.8517 27.8652 59.8151 27.709 59.7468C27.5528 59.6786 27.4117 59.5801 27.2937 59.457C27.1758 59.334 27.0834 59.1888 27.0218 59.0299C26.9602 58.871 26.9307 58.7015 26.935 58.5311C26.9392 58.1875 27.079 57.8595 27.324 57.6185C27.5689 57.3775 27.8991 57.2429 28.2428 57.2441Z" fill="#D2D2D2"/>
<path d="M33.9946 58.5197C33.9905 58.8634 33.856 59.1927 33.6183 59.4409C33.3807 59.6892 33.0575 59.838 32.7143 59.8572C32.3703 59.8627 32.0381 59.7315 31.7907 59.4923C31.5434 59.2532 31.401 58.9257 31.395 58.5817C31.3857 58.2382 31.5128 57.9051 31.7483 57.6549C31.9839 57.4048 32.3089 57.258 32.6524 57.2466C32.9956 57.25 33.3248 57.3831 33.5738 57.6193C33.8229 57.8555 33.9732 58.1772 33.9946 58.5197Z" fill="#D2D2D2"/>
<path d="M38.4595 58.5129C38.4556 58.8565 38.322 59.1859 38.0854 59.4352C37.8488 59.6845 37.5268 59.8352 37.1838 59.8571C36.8402 59.8628 36.5082 59.7332 36.2592 59.4963C36.0103 59.2594 35.8644 58.9343 35.853 58.5909C35.8437 58.2473 35.9698 57.9138 36.2041 57.6623C36.4385 57.4108 36.7623 57.2615 37.1058 57.2466C37.4496 57.248 37.7801 57.3793 38.0312 57.6142C38.2822 57.849 38.4352 58.17 38.4595 58.5129Z" fill="#D2D2D2"/>
<path d="M44.3767 36.2243C44.3825 36.9325 44.2469 37.6347 43.9776 38.2898C43.7083 38.9448 43.3109 39.5395 42.8086 40.0389C42.3064 40.5383 41.7094 40.9323 41.0527 41.1979C40.3961 41.4635 39.693 41.5952 38.9847 41.5854C38.2765 41.591 37.5742 41.4551 36.9192 41.1858C36.2642 40.9165 35.6695 40.5191 35.1701 40.017C34.6707 39.5149 34.2765 38.9182 34.0108 38.2618C33.745 37.6054 33.6131 36.9026 33.6225 36.1945C33.6189 35.4861 33.7559 34.784 34.0258 34.1289C34.2956 33.4738 34.6928 32.8789 35.1944 32.3784C35.6959 31.878 36.2919 31.4822 36.9476 31.2138C37.6034 30.9454 38.306 30.8099 39.0145 30.8151C39.723 30.8141 40.4247 30.9538 41.0788 31.2259C41.7329 31.498 42.3266 31.8971 42.8253 32.4003C43.3241 32.9034 43.718 33.5004 43.9843 34.1569C44.2506 34.8133 44.3839 35.516 44.3767 36.2243Z" fill="white"/>
<path d="M35.043 29.2302C32.4365 30.836 31.0759 33.2103 30.952 36.2659C28.4785 36.977 25.6495 35.2451 24.8418 32.568C24.4361 31.2131 24.5815 29.7528 25.2466 28.5046C25.9117 27.2563 27.0426 26.3209 28.3936 25.9016C29.7171 25.4723 31.1564 25.5808 32.4006 26.2036C33.6447 26.8264 34.5939 27.9136 35.043 29.2302Z" fill="white"/>
<path d="M47.0596 36.3026C46.922 33.2677 45.6164 30.8613 42.9893 29.2532C43.5422 26.7986 46.4837 25.1676 49.221 25.7709C52.0455 26.3926 53.8306 29.2234 53.2638 32.1734C52.7292 34.9446 49.9208 36.8417 47.0596 36.3026Z" fill="white"/>
</g>
<defs>
<clipPath id="clip0_81_4457">
<rect width="78" height="88" fill="white"/>
</clipPath>
</defs>
</svg>
