<svg width="65" height="65" viewBox="0 0 65 65" fill="none" xmlns="http://www.w3.org/2000/svg">
<g clip-path="url(#clip0_81_4478)">
<path d="M48.6823 46.2774C48.6293 46.3466 48.5737 46.4131 48.5221 46.485C47.7622 47.4947 47.009 48.5206 46.3278 49.5804C45.5136 50.8492 44.4551 51.5372 42.9081 51.4273C42.7616 51.4319 42.6175 51.4662 42.4846 51.528C42.3516 51.5898 42.2326 51.6779 42.1346 51.7869C41.4344 52.6011 40.7871 53.4696 40.114 54.3123C38.8371 55.9109 36.9087 55.63 36.123 53.7315C35.9466 53.3081 35.7797 52.8793 35.5802 52.3664C35.4241 52.5781 35.3169 52.7192 35.2165 52.8644C34.5814 53.7899 33.6397 54.1807 32.7087 53.9039C31.7778 53.627 31.1929 52.8305 31.1102 51.7055C31.0287 50.609 30.931 49.5139 30.8388 48.4202C30.8092 48.2422 30.7703 48.066 30.7221 47.8923C30.5972 48.2234 30.5226 48.3998 30.4615 48.5816C29.7002 50.8641 28.9498 53.1494 28.179 55.4265C27.8737 56.3275 27.1409 56.5976 26.461 56.0887C26.0064 55.7494 25.9318 55.2745 26.096 54.7819C26.9658 52.137 27.8357 49.4895 28.7395 46.8582C29.0746 45.8839 30.0273 45.3384 31.0369 45.4361C31.5049 45.4792 31.9445 45.6799 32.2837 46.0052C32.6229 46.3306 32.8416 46.7615 32.9042 47.2273C33.0792 48.4595 33.1471 49.708 33.2597 50.9483C33.2746 51.1125 33.2868 51.2753 33.3113 51.5779C33.5406 51.2794 33.6953 51.0745 33.8541 50.8736C34.8474 49.6225 36.6889 49.7595 37.4502 51.1681C37.7596 51.7394 37.9767 52.3609 38.2644 53.0395C39.0447 52.0895 39.7978 51.1858 40.5157 50.2576C40.5944 50.1544 40.5076 49.8749 40.4302 49.7147C39.9797 48.735 39.8874 47.7199 40.4221 46.7849C41.8388 44.3342 42.6164 41.6283 43.664 39.0282C43.8002 38.6744 43.9612 38.3307 44.1457 37.9996C45.6104 35.4493 47.0774 32.9031 48.5466 30.3609C48.5212 28.4611 48.5045 26.5612 48.4963 24.6614C48.3242 24.6333 48.1636 24.5567 48.0333 24.4406C47.9031 24.3245 47.8085 24.1738 47.7608 24.006C47.6653 23.683 47.6231 23.3465 47.636 23.0099C47.6288 16.5993 47.6288 10.1888 47.636 3.7782C47.636 2.48225 47.3266 2.17285 46.0306 2.17285H3.82723C2.50956 2.17285 2.16895 2.51075 2.16895 3.81756V61.1924C2.16895 62.4938 2.51499 62.8358 3.8313 62.8358H46.0347C47.3144 62.8358 47.636 62.5128 47.636 61.225C47.636 58.0089 47.636 54.7932 47.636 51.5779C47.636 51.4083 47.6292 51.2387 47.636 51.0704C47.6821 50.3363 48.0811 49.8789 48.6836 49.8491L48.6823 46.2774ZM42.5757 31.3502C42.3746 31.4136 42.165 31.4457 41.9541 31.4452C39.6282 31.4515 37.3032 31.4515 34.979 31.4452C34.768 31.4418 34.5583 31.4117 34.3548 31.3556C34.1351 31.3065 33.9392 31.1829 33.8002 31.0058C33.6612 30.8287 33.5877 30.609 33.5922 30.384C33.5745 29.8805 33.8134 29.4802 34.329 29.3323C34.5727 29.2655 34.8241 29.2317 35.0767 29.2319C36.218 29.221 37.3593 29.2319 38.5005 29.2319C39.6635 29.2319 40.8251 29.2196 41.9881 29.2319C42.8389 29.2441 43.3193 29.6675 43.3071 30.3555C43.3172 30.5801 43.25 30.8014 43.1166 30.9824C42.9832 31.1635 42.7918 31.2933 42.5743 31.3502H42.5757ZM43.3098 23.8241C43.3222 24.0799 43.238 24.3311 43.0738 24.5276C42.9097 24.7242 42.6776 24.8519 42.4237 24.8853C42.1941 24.9193 41.9622 24.9342 41.7302 24.9301C34.1372 24.9301 26.5456 24.9301 18.9553 24.9301C17.8697 24.9301 17.3459 24.5813 17.3269 23.854C17.3147 23.1035 17.8561 22.7372 18.9825 22.7372H30.3489C34.1974 22.7372 38.0459 22.7372 41.8944 22.7372C42.805 22.7399 43.3003 23.1253 43.3084 23.8241H43.3098ZM14.8544 17.3701H14.4717C13.5299 17.362 12.979 16.9535 12.9858 16.2587C12.9926 15.5639 13.5286 15.1541 14.4785 15.1528C21.4346 15.1528 28.3911 15.1528 35.3481 15.1528C35.5978 15.1528 35.9222 15.127 36.0823 15.264C36.3768 15.5151 36.6875 15.8476 36.7866 16.2045C36.9223 16.674 36.6115 17.0743 36.1502 17.2399C35.8485 17.3329 35.5334 17.3747 35.2179 17.3633C31.771 17.3715 28.3247 17.3715 24.8787 17.3633L14.8544 17.3701ZM9.74927 7.85063C9.75877 6.90071 10.1564 6.4936 11.0982 6.4936C20.2988 6.4936 29.4989 6.4936 38.6986 6.4936C39.7218 6.4936 40.3271 7.15991 39.9797 7.93069C39.844 8.22652 39.4871 8.4735 39.1749 8.62006C38.928 8.73812 38.5941 8.68926 38.2997 8.68926C29.7957 8.68926 21.2917 8.68926 12.7876 8.68926H11.9544V10.8198H12.7442C21.288 10.8198 29.8323 10.8198 38.377 10.8198C38.7137 10.8109 39.05 10.8497 39.3758 10.9351C39.8589 11.079 40.0869 11.4888 40.0692 11.9597C40.0749 12.1852 40.0026 12.4057 39.8647 12.5841C39.7268 12.7626 39.5316 12.8881 39.312 12.9395C39.0453 13.0027 38.7719 13.0337 38.4978 13.0317C29.4456 13.0317 20.3933 13.0317 11.3411 13.0317C10.0926 13.0317 9.74927 12.6925 9.74656 11.463C9.74385 10.2621 9.73706 9.05566 9.74927 7.85063ZM8.9812 29.2319C12.4905 29.2255 15.9997 29.2255 19.509 29.2319H29.783C30.8578 29.2319 31.3856 29.5901 31.3992 30.3243C31.4128 31.0584 30.8686 31.4519 29.7572 31.4519H9.20918C9.12504 31.4519 9.03955 31.4519 8.95542 31.4519C8.08556 31.4248 7.60789 31.0448 7.59839 30.3663C7.59025 29.6512 8.08014 29.2332 8.9812 29.2319ZM8.98798 34.6667C12.4357 34.6667 15.8839 34.6667 19.3326 34.6667C19.9283 34.6667 20.3788 34.9042 20.5322 35.4932C20.6679 36.017 20.482 36.4743 19.9717 36.7063C19.717 36.8019 19.4456 36.8448 19.1738 36.8325C17.4816 36.8434 15.7812 36.8325 14.0958 36.8325C12.3819 36.8325 10.6693 36.8325 8.95542 36.8325C8.06385 36.8325 7.60654 36.4621 7.59839 35.7686C7.59025 35.0752 8.07064 34.6667 8.98798 34.6667ZM15.2303 60.5316C10.3016 61.3756 5.73113 58.3766 4.57088 53.547C3.20028 47.8054 7.6676 42.2159 13.0143 42.2728C15.499 42.2647 17.2333 42.8428 18.8101 43.9203C19.4886 44.3857 19.6745 44.9489 19.3271 45.5256C18.9797 46.1024 18.3324 46.2041 17.6186 45.7427C15.537 44.3735 13.3332 44.037 10.9842 44.9285C7.89965 46.1024 6.12874 49.2235 6.60098 52.6161C7.02166 55.6259 9.67192 58.1201 12.7863 58.4363C16.9035 58.8543 20.368 55.8363 20.5675 51.6512C20.6122 50.7013 21.2948 50.1409 22.0507 50.4516C22.5582 50.6606 22.7373 51.0772 22.736 51.6241C22.7265 55.9096 19.4438 59.8083 15.2276 60.5316H15.2303ZM18.5034 50.1734C17.2875 51.4644 16.0341 52.7224 14.7431 53.9473C13.8611 54.7859 12.6574 54.7724 11.7577 53.9473C10.9774 53.2159 10.2229 52.4437 9.47787 51.6661C9.00291 51.1695 9.01105 50.4991 9.43987 50.0771C9.86869 49.655 10.5092 49.6442 11.0249 50.1409C11.7685 50.8519 12.4755 51.6132 13.2504 52.403C14.4961 51.1464 15.6767 49.94 16.8764 48.7526C17.6132 48.0239 18.6133 48.1881 18.806 49.0959C18.8335 49.2867 18.8207 49.4811 18.7686 49.6667C18.7165 49.8522 18.6262 50.0248 18.5034 50.1734ZM24.0279 36.8339C23.2299 36.8258 22.7319 36.3942 22.7373 35.7483C22.7428 35.1023 23.253 34.6627 24.0428 34.6627C26.4312 34.6563 28.8204 34.6563 31.2106 34.6627C32.0004 34.6627 32.4957 35.1037 32.4903 35.7578C32.4848 36.4119 32.0099 36.8203 31.1957 36.8271C29.9906 36.8366 28.7842 36.8271 27.5792 36.8271C26.3959 36.8353 25.2112 36.842 24.0279 36.8325V36.8339Z" fill="white"/>
<path d="M47.2253 0C47.4533 0.0977056 47.6867 0.185901 47.9106 0.294463C49.2812 0.964832 49.8485 2.11423 49.8485 3.58796C49.8485 10.1243 49.8485 16.6615 49.8485 23.1997C49.8485 23.4507 49.8742 23.7737 49.7372 23.9352C49.4875 24.231 49.155 24.5472 48.7995 24.6435C48.3395 24.767 47.9215 24.478 47.7627 24.0098C47.6672 23.6868 47.625 23.3503 47.6379 23.0137C47.6306 16.6032 47.6306 10.1926 47.6379 3.78202C47.6379 2.48606 47.3285 2.17667 46.0325 2.17667H3.82914C2.51147 2.17667 2.17085 2.51457 2.17085 3.82138V61.1963C2.17085 62.4977 2.5169 62.8396 3.83321 62.8396H46.0366C47.3163 62.8396 47.6379 62.5167 47.6379 61.2289C47.6379 58.0127 47.6379 54.797 47.6379 51.5818C47.6379 51.4122 47.6311 51.2425 47.6379 51.0743C47.6854 50.3184 48.106 49.8529 48.7398 49.8529C49.3735 49.8529 49.7874 50.3008 49.8512 51.0743C49.8512 51.1367 49.8512 51.2005 49.8512 51.2642C49.8512 54.6921 49.8688 58.1186 49.843 61.5464C49.8295 63.3241 48.8578 64.5644 47.2647 64.9389C46.9747 64.9955 46.6793 65.0197 46.384 65.0109C32.0602 65.0109 17.7373 65.0109 3.41524 65.0109C1.35936 65.0109 0.000976562 63.6539 0.000976562 61.5885C0.000976562 42.2102 0.000976562 22.8314 0.000976562 3.45226C0.000976562 1.79398 0.76498 0.738214 2.34727 0.146552C2.41589 0.109903 2.47933 0.0642664 2.53589 0.0108502L47.2253 0Z" fill="#A68E6C"/>
<path d="M64.9999 16.8854C64.7394 17.4364 64.468 17.9806 64.2291 18.5397C64.1694 18.6821 64.1464 18.9278 64.2291 19.0268C64.6661 19.5574 64.5793 20.0649 64.2644 20.6064C63.4258 22.0476 62.598 23.4955 61.72 25.0208L62.4162 25.4279C64.2658 26.5135 64.7828 28.3401 63.7311 30.1924C62.3849 32.5618 61.0171 34.9176 59.6492 37.2761C59.2122 38.0306 58.626 38.2558 58.0398 37.9234C57.4535 37.5909 57.3382 36.9612 57.7684 36.2108C59.0349 33.9925 60.3101 31.776 61.5938 29.5614C62.4419 28.089 62.2859 27.6385 60.6439 26.9274C60.5285 27.116 60.4037 27.3074 60.2911 27.5041C57.463 32.4084 54.6852 37.3439 51.7812 42.2034C50.8665 43.7314 49.5964 45.0437 48.5175 46.478C47.7576 47.4876 47.0045 48.5136 46.3232 49.5734C45.509 50.8422 44.4505 51.5302 42.9035 51.4203C42.757 51.4249 42.6129 51.4591 42.48 51.521C42.347 51.5828 42.228 51.6708 42.13 51.7799C41.4298 52.5941 40.7825 53.4626 40.1094 54.3053C38.8325 55.9039 36.9041 55.623 36.1184 53.7245C35.942 53.3011 35.7751 52.8723 35.5756 52.3594C35.4196 52.571 35.3123 52.7122 35.2119 52.8574C34.5768 53.7829 33.6351 54.1737 32.7042 53.8969C31.7732 53.62 31.1884 52.8235 31.1056 51.6985C31.0242 50.602 30.9265 49.5069 30.8342 48.4131C30.8046 48.2352 30.7657 48.059 30.7175 47.8853C30.5926 48.2164 30.518 48.3928 30.4569 48.5746C29.6956 50.8571 28.9452 53.1424 28.1744 55.4194C27.8691 56.3205 27.1363 56.5905 26.4564 56.0817C26.0018 55.7424 25.9272 55.2675 26.0914 54.7749C26.9612 52.13 27.8311 49.4825 28.7349 46.8512C29.07 45.8769 30.0227 45.3313 31.0323 45.429C31.5003 45.4722 31.9399 45.6728 32.2791 45.9982C32.6183 46.3236 32.837 46.7545 32.8996 47.2203C33.0746 48.4525 33.1425 49.7009 33.2551 50.9413C33.27 51.1055 33.2822 51.2683 33.3067 51.5709C33.536 51.2724 33.6907 51.0675 33.8495 50.8666C34.8428 49.6155 36.6843 49.7525 37.4456 51.1611C37.755 51.7324 37.9721 52.3539 38.2598 53.0324C39.0401 52.0825 39.7932 51.1787 40.5111 50.2505C40.5898 50.1474 40.503 49.8679 40.4256 49.7077C39.9751 48.728 39.8828 47.7129 40.4175 46.7779C41.8342 44.3271 42.6118 41.6212 43.6594 39.0212C43.7956 38.6674 43.9566 38.3237 44.1411 37.9926C46.9782 33.0684 49.8185 28.1456 52.6619 23.2241C52.7881 23.007 52.9048 22.7831 53.0242 22.5646C51.5871 21.5414 51.3605 21.1791 51.731 20.5182C52.0865 19.8831 52.5452 19.894 54.1736 20.5955C54.9471 19.2765 55.7301 17.9534 56.4995 16.6222C56.889 15.9437 57.2391 15.2652 58.2338 15.4714C58.3532 15.4959 58.5921 15.1702 58.7047 14.9666C59.2204 14.0384 59.9192 13.3382 60.9818 13.0966C62.6699 12.7207 64.2251 13.5974 64.8222 15.2231C64.8724 15.3588 64.9375 15.485 64.9959 15.6166L64.9999 16.8854ZM54.9946 23.6285L46.3409 38.6222L50.0713 40.7772L58.721 25.7875L54.9946 23.6285ZM56.0897 21.7354L59.8161 23.8918C60.5394 22.6392 61.241 21.4274 61.9711 20.1654L58.246 18.0118C57.52 19.2629 56.8198 20.4748 56.0897 21.7354ZM48.8161 42.5739L45.4303 40.6211C44.9051 42.0256 44.4139 43.3352 43.905 44.7058L46.0301 45.9434C46.9773 44.798 47.877 43.7111 48.8161 42.5739ZM62.123 17.7187C62.4827 17.0741 63.0797 16.5204 62.6469 15.7835C62.4827 15.5026 62.0172 15.2584 61.6807 15.2407C60.8027 15.215 60.6846 16.0549 60.2721 16.6453L62.123 17.7187ZM43.0012 46.7481C42.6688 47.3994 42.0676 47.9463 42.4991 48.6737C42.6155 48.8357 42.7671 48.9693 42.9424 49.0644C43.1177 49.1596 43.3122 49.2139 43.5115 49.2233C44.3257 49.1785 44.5021 48.4091 44.8454 47.7984L43.0012 46.7481Z" fill="#0F2056"/>
<path d="M11.9543 8.68899V10.8195H12.7441C21.2879 10.8195 29.8321 10.8195 38.3769 10.8195C38.7136 10.8106 39.0498 10.8495 39.3756 10.9349C39.8587 11.0787 40.0867 11.4885 40.0691 11.9594C40.0747 12.1849 40.0025 12.4054 39.8645 12.5838C39.7266 12.7623 39.5314 12.8878 39.3118 12.9392C39.0451 13.0024 38.7717 13.0334 38.4976 13.0315C29.4454 13.0315 20.3931 13.0315 11.3409 13.0315C10.0924 13.0315 9.74912 12.6922 9.74641 11.4627C9.74641 10.2577 9.73691 9.05267 9.74641 7.84628C9.75591 6.89636 10.1535 6.48926 11.0953 6.48926C20.2959 6.48926 29.496 6.48926 38.6958 6.48926C39.7189 6.48926 40.3242 7.15555 39.9768 7.92634C39.8411 8.22217 39.4842 8.46915 39.1721 8.61571C38.9251 8.73377 38.5913 8.68492 38.2968 8.68492C29.7928 8.68492 21.2888 8.68492 12.7848 8.68492L11.9543 8.68899Z" fill="#A68E6C"/>
<path d="M13.0108 42.2724C15.4955 42.2643 17.2298 42.8423 18.8066 43.9198C19.4852 44.3853 19.6711 44.9484 19.3237 45.5252C18.9763 46.1019 18.329 46.2037 17.6152 45.7423C15.5335 44.3731 13.3297 44.0365 10.9807 44.9281C7.8989 46.1019 6.12798 49.2231 6.60023 52.6156C7.0209 55.6255 9.67117 58.1197 12.7855 58.4359C16.9027 58.8539 20.3672 55.8358 20.5667 51.6508C20.6115 50.7009 21.2941 50.1404 22.0499 50.4512C22.5575 50.6602 22.7366 51.0768 22.7352 51.6236C22.7257 55.9037 19.4431 59.8038 15.2268 60.5257C10.2981 61.3698 5.72766 58.3708 4.56741 53.5411C3.19681 47.805 7.66413 42.2154 13.0108 42.2724Z" fill="#0F2056"/>
<path d="M30.3489 22.7383C34.1974 22.7383 38.0459 22.7383 41.8945 22.7383C42.8118 22.7383 43.3071 23.1237 43.3153 23.8239C43.3277 24.0797 43.2434 24.3308 43.0793 24.5274C42.9151 24.724 42.683 24.8517 42.4291 24.8851C42.1996 24.919 41.9677 24.934 41.7357 24.9299C34.1445 24.9317 26.5492 24.9326 18.9499 24.9326C17.8643 24.9326 17.3405 24.5838 17.3215 23.8565C17.3093 23.106 17.8507 22.7396 18.9771 22.7396L30.3489 22.7383Z" fill="#D2D2D2"/>
<path d="M24.877 17.3697H14.4714C13.5296 17.3615 12.9786 16.9531 12.9854 16.2583C12.9922 15.5635 13.5282 15.1537 14.4781 15.1523C21.4342 15.1523 28.3908 15.1523 35.3478 15.1523C35.5975 15.1523 35.9218 15.1265 36.0819 15.2636C36.3764 15.5146 36.6872 15.8471 36.7862 16.204C36.9219 16.6735 36.6112 17.0739 36.1498 17.2394C35.8481 17.3325 35.533 17.3742 35.2175 17.3629C31.7698 17.3719 28.3229 17.3742 24.877 17.3697Z" fill="#A68E6C"/>
<path d="M19.5084 29.2288H29.7824C30.8572 29.2288 31.385 29.5871 31.3986 30.3212C31.4122 31.0554 30.868 31.4489 29.7566 31.4489H9.20858C9.12444 31.4489 9.03895 31.4489 8.95481 31.4489C8.08496 31.4218 7.60729 31.0418 7.59779 30.3633C7.58829 29.6549 8.07818 29.237 8.97924 29.2356C12.4894 29.2266 15.9991 29.2243 19.5084 29.2288Z" fill="#D2D2D2"/>
<path d="M14.0952 36.8351C12.3813 36.8351 10.6687 36.8351 8.95478 36.8351C8.06322 36.8351 7.6059 36.4647 7.59776 35.7712C7.58962 35.0778 8.07 34.668 8.98735 34.668C12.4351 34.668 15.8833 34.668 19.3319 34.668C19.9277 34.668 20.3782 34.9055 20.5315 35.4944C20.6672 36.0196 20.4813 36.4755 19.9711 36.7076C19.7164 36.8032 19.4449 36.8461 19.1732 36.8338C17.4809 36.8406 15.7874 36.8351 14.0952 36.8351Z" fill="#D2D2D2"/>
<path d="M13.2497 52.403C14.4954 51.1464 15.676 49.94 16.8756 48.7526C17.6125 48.0239 18.6126 48.1881 18.8053 49.096C18.8327 49.2867 18.82 49.4811 18.7679 49.6667C18.7158 49.8522 18.6254 50.0248 18.5027 50.1734C17.2868 51.4644 16.0334 52.7224 14.7424 53.9473C13.8603 54.7859 12.6567 54.7724 11.7569 53.9473C10.9767 53.2159 10.2222 52.4437 9.47715 51.6662C9.00219 51.1695 9.01033 50.4991 9.43915 50.0771C9.86797 49.655 10.5085 49.6442 11.0242 50.1409C11.7678 50.8519 12.4748 51.6132 13.2497 52.403Z" fill="#0F2056"/>
<path d="M38.4991 29.2291C39.6621 29.2291 40.8237 29.2168 41.9866 29.2291C42.8375 29.2413 43.3179 29.6647 43.3057 30.3527C43.3155 30.5769 43.2483 30.7977 43.1153 30.9784C42.9822 31.1592 42.7913 31.2889 42.5742 31.346C42.3732 31.4095 42.1635 31.4415 41.9527 31.441C39.6268 31.4473 37.3018 31.4473 34.9776 31.441C34.7666 31.4377 34.5568 31.4076 34.3534 31.3514C34.1337 31.3023 33.9377 31.1788 33.7988 31.0017C33.6598 30.8246 33.5863 30.6049 33.5908 30.3798C33.5731 29.8764 33.8119 29.476 34.3276 29.3281C34.5712 29.2613 34.8227 29.2276 35.0753 29.2277C36.2166 29.2223 37.3578 29.2291 38.4991 29.2291Z" fill="#D2D2D2"/>
<path d="M27.5792 36.8352C26.3959 36.8352 25.2112 36.8352 24.0279 36.8352C23.2299 36.827 22.7319 36.3955 22.7373 35.7496C22.7428 35.1036 23.253 34.6639 24.0428 34.6639C26.4312 34.6576 28.8204 34.6576 31.2106 34.6639C32.0004 34.6639 32.4957 35.105 32.4903 35.7591C32.4848 36.4131 32.0099 36.8216 31.1957 36.8284C29.9906 36.8419 28.7842 36.8352 27.5792 36.8352Z" fill="#D2D2D2"/>
<path d="M54.9945 23.6284L58.7209 25.7874L50.0713 40.7771L46.3408 38.6221L54.9945 23.6284Z" fill="white"/>
<path d="M56.0898 21.7353C56.8199 20.4746 57.5201 19.2628 58.2461 18.0103L61.9671 20.1652C61.237 21.4272 60.5354 22.6391 59.8122 23.8916L56.0898 21.7353Z" fill="white"/>
<path d="M48.8163 42.5739C47.8773 43.711 46.9776 44.798 46.0304 45.9433L43.9053 44.7057C44.4142 43.3406 44.9054 42.0256 45.4306 40.6211L48.8163 42.5739Z" fill="white"/>
<path d="M62.1234 17.7185L60.2725 16.6546C60.6796 16.0629 60.8031 15.2243 61.681 15.2501C62.0176 15.2609 62.483 15.5052 62.6472 15.7929C63.0801 16.5189 62.483 17.0739 62.1234 17.7185Z" fill="white"/>
<path d="M43.0015 46.748L44.8443 47.7997C44.501 48.409 44.3259 49.1798 43.5117 49.2233C43.3126 49.2135 43.1182 49.1589 42.9432 49.0635C42.7681 48.9681 42.6169 48.8344 42.5008 48.6723C42.0679 47.9463 42.669 47.3994 43.0015 46.748Z" fill="white"/>
</g>
<defs>
<clipPath id="clip0_81_4478">
<rect width="65" height="65" fill="white"/>
</clipPath>
</defs>
</svg>
