<svg width="63" height="63" viewBox="0 0 63 63" fill="none" xmlns="http://www.w3.org/2000/svg">
<g clip-path="url(#clip0_81_4435)">
<path d="M12.8055 34.0994C13.5833 34.0994 14.1134 34.394 14.3205 34.9056H17.2938C16.564 34.1742 15.831 33.4461 15.0946 32.7212C14.869 32.5137 14.6909 32.2598 14.5724 31.9771C14.4539 31.6944 14.3978 31.3894 14.408 31.083C14.4265 29.6037 14.408 28.1319 14.4142 26.6551C14.4142 25.4224 14.8937 24.9293 16.1141 24.9231C17.279 24.9133 18.4451 24.9231 19.5755 24.9231C19.6988 23.7656 19.716 22.6895 19.9539 21.6651C20.7416 18.2764 23.8986 15.7863 27.3625 15.758C30.109 15.7358 32.8555 15.7358 35.6019 15.758C39.7796 15.7925 43.2521 19.2749 43.3027 23.45C43.3027 23.9172 43.3027 24.3844 43.3027 24.9231C44.5009 24.9231 45.6448 24.9133 46.7875 24.9231C47.1136 24.9076 47.4399 24.9493 47.7515 25.0464C48.3605 25.2831 48.5713 25.8193 48.575 26.432C48.5848 28.0517 48.575 29.6715 48.575 31.2901C48.575 31.8583 48.3124 32.2972 47.9167 32.6904C47.1771 33.4235 46.4375 34.1586 45.6978 34.8957H47.3805C47.8095 34.8957 48.2434 34.8957 48.6711 34.8859C48.8782 34.3928 49.3873 34.0945 50.1072 34.092C53.2445 34.0809 56.3805 34.092 59.5177 34.092H60.2993V2.63825H41.3784C41.1528 2.63825 40.926 2.64565 40.7029 2.62346C40.0015 2.55812 39.5454 2.19201 39.4073 1.60154C39.2693 1.01108 39.5417 0.479779 40.1469 0.122294L40.359 -0.000976562H32.4795C32.8074 0.0951746 33.1365 0.185161 33.4657 0.286243C36.5413 1.24036 38.5198 4.4491 37.9872 7.63441C37.4547 10.8197 34.5431 13.226 31.3442 13.1397C28.1453 13.0534 25.3039 10.4376 24.9735 7.39157C24.7846 5.75923 25.2061 4.11469 26.1569 2.77448C27.1077 1.43428 28.5207 0.493114 30.1238 0.132154C30.2563 0.0961149 30.3864 0.0516486 30.5133 -0.000976562H22.64C23.1997 0.282546 23.7112 0.675781 23.5855 1.34884C23.4802 1.79168 23.2239 2.18398 22.8607 2.45828C22.5907 2.65921 22.121 2.63455 21.7389 2.63455C15.6715 2.64441 9.60454 2.64688 3.53797 2.64195H2.69727V34.1006H3.39991C6.53181 34.0982 9.667 34.0978 12.8055 34.0994Z" fill="white"/>
<path d="M42.0426 30.1768C42.8093 30.2163 43.2913 30.7993 43.3036 31.7041C43.311 32.2576 43.316 32.8136 43.3234 33.3634C43.3234 33.3744 43.353 33.3855 43.4466 33.4459C44.2195 32.6632 45.0085 31.8718 45.7888 31.0705C45.8669 30.979 45.9105 30.863 45.9121 30.7426C45.9219 29.7022 45.9182 28.6618 45.9182 27.5894H17.0889C17.0889 28.6791 17.0889 29.7577 17.0963 30.8351C17.1192 30.9538 17.1818 31.0611 17.2738 31.1396C18.0307 31.9137 18.7937 32.6804 19.6874 33.5828C19.6874 32.8333 19.6813 32.2527 19.6874 31.6733C19.6985 30.787 20.2199 30.1867 20.9781 30.1719C21.6906 30.1595 22.2971 30.7389 22.3045 31.5772C22.3127 32.6858 22.318 33.7952 22.3205 34.9055H24.924C24.9104 33.854 24.9067 32.8012 24.924 31.7497C24.9425 30.6711 25.4479 30.1669 26.5179 30.1645C29.8379 30.1546 33.1585 30.1546 36.4794 30.1645C37.5235 30.1645 38.0375 30.6576 38.0597 31.6992C38.0827 32.7675 38.0827 33.8359 38.0597 34.9042H40.6644C40.6644 33.8047 40.6693 32.7051 40.6792 31.6055C40.6891 30.7352 41.3104 30.1411 42.0426 30.1768Z" fill="white"/>
<path d="M35.4344 34.9056C35.4344 34.235 35.4344 33.562 35.4344 32.8643H27.5537C27.5537 33.541 27.5623 34.2202 27.5537 34.9056H35.4344Z" fill="white"/>
<path d="M22.6371 -0.000208276C23.1968 0.283315 23.7084 0.676546 23.5826 1.3496C23.4773 1.79244 23.221 2.18475 22.8578 2.45904C22.5878 2.65997 22.1182 2.63532 21.736 2.63532C15.6686 2.64518 9.60166 2.64765 3.5351 2.64272H2.69686V34.1014H3.3995C6.53551 34.1014 9.67152 34.1014 12.8075 34.1014C13.7025 34.1014 14.2695 34.4897 14.394 35.1542C14.5691 36.0873 13.9589 36.7567 12.8815 36.7665C11.221 36.7813 9.56181 36.7665 7.90135 36.7665C6.38389 36.7665 4.86519 36.7197 3.35143 36.7789C1.73165 36.843 0.569207 36.2735 0.00585938 34.6931V1.96843C0.180805 1.52142 0.446337 1.11543 0.785767 0.776001C1.1252 0.436572 1.53118 0.171039 1.97819 -0.00390625L22.6371 -0.000208276Z" fill="#A68E6C"/>
<path d="M61.0228 -0.000230933C61.5073 0.352323 62.0916 0.627216 62.4454 1.08085C62.772 1.5228 62.9537 2.05506 62.9656 2.60448C62.9951 13.1236 63.0009 23.6427 62.9828 34.1618C62.9828 35.5991 61.9017 36.7332 60.4028 36.7505C56.9389 36.7973 53.4737 36.7788 50.0098 36.7616C49.1161 36.7616 48.5614 36.1896 48.5725 35.4142C48.5836 34.6388 49.1654 34.1063 50.1121 34.1038C53.2494 34.0928 56.3854 34.1038 59.5226 34.1038H60.3041V2.63776H41.3784C41.1528 2.63776 40.926 2.64516 40.7029 2.62297C40.0014 2.55764 39.5453 2.19152 39.4073 1.60105C39.2692 1.01059 39.5416 0.479291 40.1469 0.121806L40.3589 -0.00146484L61.0228 -0.000230933Z" fill="#A68E6C"/>
<path d="M4.90737e-05 58.0703C0.265081 57.3479 0.440128 56.575 0.811173 55.9131C2.04388 53.725 3.95088 52.5404 6.46807 52.5034C9.33535 52.4615 12.2035 52.4759 15.0724 52.5465C16.58 52.5835 17.8706 53.2677 18.9591 54.3031C19.5619 54.8751 19.6087 55.6702 19.112 56.2225C18.6337 56.7538 17.8546 56.8277 17.2432 56.2804C16.2102 55.3534 15.007 55.0908 13.6683 55.1069C11.3742 55.1352 9.07895 55.1069 6.78364 55.1192C4.76816 55.1315 3.23591 56.2471 2.78597 58.0986C2.61709 58.7964 2.65407 59.5434 2.5912 60.3533H3.42821C7.75091 60.3533 12.0744 60.3533 16.3988 60.3533C16.6852 60.3489 16.9716 60.3662 17.2555 60.405C17.5747 60.4417 17.8673 60.6006 18.0718 60.8484C18.2764 61.0962 18.377 61.4135 18.3526 61.7339C18.3441 62.0437 18.2239 62.34 18.0141 62.5681C17.8043 62.7963 17.5191 62.9408 17.2111 62.9752C17.0276 62.9929 16.8431 62.9983 16.6589 62.9913C11.68 62.9913 6.69982 62.9802 1.72091 63.0024C0.913485 63.0024 0.327948 62.7657 -0.00488281 62.0162L4.90737e-05 58.0703Z" fill="#A68E6C"/>
<path d="M32.4798 0C32.8077 0.0961512 33.1368 0.186137 33.466 0.287219C36.5416 1.24134 38.5201 4.45008 37.9876 7.63539C37.455 10.8207 34.5434 13.227 31.3445 13.1407C28.1456 13.0544 25.3042 10.4386 24.9739 7.39255C24.7849 5.76021 25.2064 4.11567 26.1572 2.77546C27.1081 1.43525 28.521 0.494091 30.1241 0.133131C30.2567 0.0970916 30.3868 0.0526252 30.5136 0H32.4798ZM31.5873 2.66018C29.4301 2.59115 27.6217 4.32557 27.565 6.51733C27.5132 8.56485 29.2575 10.4028 31.3124 10.462C31.8348 10.4846 32.3564 10.4031 32.847 10.2223C33.3376 10.0416 33.7873 9.76504 34.1701 9.40889C34.5528 9.05274 34.861 8.62406 35.0766 8.14776C35.2922 7.67146 35.411 7.15704 35.426 6.63443C35.5123 4.55116 33.7544 2.72921 31.5873 2.66018Z" fill="#0F2056"/>
<path d="M19.574 24.9216C19.6973 23.7641 19.7146 22.6879 19.9525 21.6635C20.7402 18.2748 23.8971 15.7847 27.361 15.7564C30.1075 15.7342 32.854 15.7342 35.6005 15.7564C39.7781 15.7909 43.2507 19.2733 43.3012 23.4485C43.3012 23.9157 43.3012 24.3829 43.3012 24.9216C44.4994 24.9216 45.6433 24.9117 46.7861 24.9216C47.1121 24.906 47.4384 24.9477 47.75 25.0448C48.359 25.2815 48.5698 25.8177 48.5735 26.4304C48.5833 28.0502 48.5735 29.67 48.5735 31.2885C48.5735 31.8568 48.3109 32.2956 47.9152 32.6889C46.4877 34.1028 45.0627 35.5179 43.6648 36.9602C43.4561 37.1994 43.3345 37.5022 43.3197 37.8194C43.2765 38.7193 43.3111 39.6216 43.3012 40.524C43.2926 41.3967 42.8081 41.9514 42.0574 41.9822C41.2586 42.0143 40.6928 41.5015 40.6842 40.5918C40.657 37.5987 40.657 34.6057 40.6842 31.6127C40.6916 30.7412 41.3128 30.147 42.0401 30.184C42.8069 30.2234 43.2889 30.8065 43.3012 31.7113C43.3086 32.2648 43.3135 32.8208 43.3209 33.3706C43.3209 33.3816 43.3505 33.3927 43.4442 33.4531C44.2171 32.6704 45.006 31.879 45.7863 31.0777C45.8645 30.9862 45.9081 30.8702 45.9096 30.7498C45.9195 29.7094 45.9158 28.669 45.9158 27.5965H17.0889C17.0889 28.6863 17.0889 29.7649 17.0963 30.8423C17.1192 30.961 17.1818 31.0683 17.2738 31.1467C18.0307 31.9209 18.7937 32.6876 19.6874 33.59C19.6874 32.8405 19.6813 32.2599 19.6874 31.6805C19.6985 30.7942 20.22 30.1939 20.9781 30.1791C21.6906 30.1667 22.2971 30.7461 22.3045 31.5844C22.3291 34.5971 22.3291 37.6098 22.3045 40.6226C22.2959 41.4966 21.7337 42.0032 20.9633 41.9859C20.1929 41.9687 19.6998 41.4127 19.6899 40.5535C19.6788 39.6302 19.7109 38.7045 19.6714 37.7861C19.6536 37.4938 19.5381 37.216 19.3435 36.9972C17.9464 35.5574 16.5288 34.134 15.0907 32.7271C14.8649 32.5185 14.687 32.2635 14.5691 31.9796C14.4513 31.6958 14.3962 31.3898 14.4078 31.0826C14.425 29.6034 14.4078 28.1315 14.4139 26.6548C14.4139 25.4221 14.8934 24.929 16.1138 24.9228C17.2775 24.9129 18.4436 24.9216 19.574 24.9216ZM40.6065 24.8846C40.6065 24.193 40.6361 23.5792 40.6065 22.969C40.4832 20.7612 38.2779 18.5238 36.0578 18.4609C33.2756 18.3821 30.4897 18.387 27.705 18.403C27.0515 18.4027 26.4027 18.5123 25.7856 18.7272C23.1859 19.6715 21.9421 22.2454 22.4364 24.8846H40.6065Z" fill="#0F2056"/>
<path d="M31.4324 62.9889C28.501 62.9889 25.57 62.9889 22.6395 62.9889C21.4783 62.9889 20.9876 62.5229 20.9901 61.358C20.9926 60.1931 20.9248 59.0455 21.1035 57.9225C21.3265 56.4587 22.0544 55.1191 23.1611 54.1355C24.2678 53.1519 25.6837 52.5863 27.1635 52.5368C29.9667 52.4283 32.781 52.4135 35.5841 52.5195C39.3981 52.6711 41.9141 55.3695 42.0029 59.207C42.0201 59.9244 42.0201 60.6418 42.0041 61.3642C41.9856 62.5279 41.511 62.9926 40.3486 62.9938C37.3769 62.9922 34.4048 62.9906 31.4324 62.9889ZM39.371 60.3164V59.5632C39.371 56.7194 37.7685 55.1168 34.9111 55.1156C32.5689 55.1156 30.2391 55.086 27.9044 55.1341C27.2111 55.1375 26.5251 55.2765 25.8852 55.5434C24.1458 56.3249 23.3779 58.0655 23.6749 60.3164H39.371Z" fill="#A68E6C"/>
<path d="M60.4942 60.3533C60.3204 59.3031 60.3229 58.3231 59.9826 57.4824C59.3256 55.8577 57.9499 55.1402 56.2229 55.1205C53.7439 55.1008 51.2637 55.1094 48.7835 55.1205C47.7512 55.1107 46.7481 55.4626 45.9483 56.1153C45.6042 56.3896 45.1914 56.564 44.755 56.6195C44.2299 56.6713 43.8231 56.3162 43.6332 55.8182C43.4237 55.2697 43.5642 54.7667 43.9821 54.3562C45.0089 53.3466 46.2404 52.6181 47.6654 52.5762C50.8779 52.4887 54.1014 52.4344 57.3064 52.5774C60.2477 52.7069 62.8709 55.6161 62.9769 58.5832C63.0114 59.5866 62.9991 60.5925 62.9769 61.5959C62.9646 62.4514 62.4456 62.9827 61.5901 62.9839C56.4053 62.993 51.2201 62.993 46.0346 62.9839C45.2086 62.9839 44.6662 62.4822 44.6317 61.7512C44.6021 60.9697 45.0928 60.452 45.9581 60.3694C46.1812 60.3472 46.4081 60.3546 46.6336 60.3546H60.4942V60.3533Z" fill="#A68E6C"/>
<path d="M10.411 49.8592C7.47714 49.7606 5.17445 47.3852 5.25704 44.545C5.34333 41.5668 7.74218 39.2801 10.681 39.3775C12.0672 39.429 13.3769 40.026 14.3249 41.0387C15.2729 42.0514 15.7824 43.3976 15.7425 44.7842C15.6525 47.6305 13.2142 49.9541 10.411 49.8592ZM10.4714 42.0266C9.03282 42.0414 7.84449 43.2494 7.88271 44.6609C7.92092 46.0723 9.10679 47.2348 10.4948 47.2385C11.1874 47.2317 11.8493 46.9515 12.3365 46.4591C12.8236 45.9667 13.0965 45.3018 13.0958 44.6091C13.0981 44.2658 13.0314 43.9255 12.8998 43.6084C12.7681 43.2914 12.5742 43.0039 12.3295 42.7631C12.0848 42.5223 11.7943 42.333 11.4751 42.2065C11.1559 42.08 10.8146 42.0188 10.4714 42.0266Z" fill="#A68E6C"/>
<path d="M52.409 49.8596C49.4234 49.761 47.1491 47.3646 47.2514 44.427C47.3041 43.0388 47.9042 41.7279 48.9205 40.7809C49.9369 39.8338 51.2868 39.3276 52.6753 39.3729C55.5204 39.4654 57.844 41.916 57.7393 44.7142C57.6234 47.6567 55.2455 49.9533 52.409 49.8596ZM49.9005 44.6452C49.9165 46.0838 51.1245 47.2733 52.536 47.2339C53.9474 47.1945 55.1087 46.0098 55.1136 44.6218C55.1061 43.9291 54.8256 43.2674 54.3331 42.7804C53.8405 42.2934 53.1757 42.0204 52.483 42.0208C52.1397 42.0187 51.7995 42.0855 51.4825 42.2172C51.1655 42.3489 50.8781 42.5428 50.6373 42.7875C50.3966 43.0321 50.2073 43.3226 50.0807 43.6417C49.9542 43.9608 49.8929 44.302 49.9005 44.6452Z" fill="#A68E6C"/>
<path d="M31.5201 49.8632C28.6676 49.8904 26.2416 47.5581 26.2416 44.6587C26.233 43.97 26.3608 43.2865 26.6177 42.6474C26.8746 42.0084 27.2556 41.4265 27.7385 40.9355C28.2214 40.4444 28.7968 40.0538 29.4315 39.7862C30.0661 39.5187 30.7475 39.3795 31.4362 39.3766C34.3294 39.3322 36.7455 41.7187 36.7578 44.6107C36.7739 47.4558 34.3997 49.8349 31.5201 49.8632ZM34.0927 44.6366C34.0977 44.2935 34.034 43.953 33.9053 43.6349C33.7767 43.3169 33.5858 43.0278 33.3438 42.7846C33.1018 42.5415 32.8136 42.3492 32.4961 42.219C32.1787 42.0889 31.8385 42.0236 31.4954 42.0269C30.8134 42.0207 30.1568 42.2854 29.6698 42.7629C29.1828 43.2404 28.9053 43.8917 28.8981 44.5737C28.8865 45.2668 29.1499 45.9363 29.6306 46.4357C30.1114 46.9352 30.7703 47.2239 31.4634 47.2388C32.1563 47.2398 32.8216 46.9668 33.3141 46.4794C33.8067 45.9919 34.0865 45.3295 34.0927 44.6366Z" fill="#A68E6C"/>
<path d="M35.4352 32.8643H27.5545C27.5545 33.7087 27.5693 34.5605 27.5545 35.4123C27.5373 36.1161 27.1403 36.5673 26.4734 36.7078C26.2013 36.7642 25.9181 36.7275 25.6693 36.6037C25.4205 36.4798 25.2205 36.276 25.1014 36.0249C24.9915 35.7617 24.9345 35.4793 24.9338 35.1941C24.9165 34.0464 24.9116 32.8975 24.9338 31.7499C24.9523 30.6713 25.4577 30.1671 26.5277 30.1646C29.8478 30.1548 33.1683 30.1548 36.4892 30.1646C37.5333 30.1646 38.0473 30.6577 38.0695 31.6993C38.095 32.8877 38.095 34.0764 38.0695 35.2656C38.0498 36.163 37.5062 36.7448 36.7604 36.7534C35.985 36.7608 35.4513 36.1433 35.4451 35.2175C35.4303 34.4433 35.4352 33.6704 35.4352 32.8643Z" fill="#D2D2D2"/>
<path d="M31.5869 2.66019C33.754 2.72923 35.5119 4.55117 35.4256 6.63814C35.4105 7.16075 35.2918 7.67517 35.0762 8.15147C34.8606 8.62777 34.5524 9.05645 34.1696 9.4126C33.7869 9.76875 33.3371 10.0453 32.8466 10.226C32.356 10.4068 31.8344 10.4883 31.312 10.4657C29.2571 10.4028 27.5128 8.56487 27.5646 6.52104C27.6213 4.32558 29.4297 2.59116 31.5869 2.66019Z" fill="white"/>
<path d="M40.6067 24.8848H22.4304C21.9373 22.2455 23.1799 19.6717 25.7797 18.7274C26.3967 18.5125 27.0456 18.4029 27.699 18.4032C30.4837 18.3872 33.2696 18.3822 36.0518 18.4611C38.2707 18.524 40.4735 20.7614 40.6005 22.9691C40.6363 23.5793 40.6067 24.1932 40.6067 24.8848Z" fill="white"/>
<path d="M39.3717 60.3166H23.6756C23.3785 58.0657 24.1478 56.3251 25.8859 55.5436C26.5258 55.2768 27.2117 55.1377 27.9051 55.1344C30.2398 55.0863 32.5758 55.1146 34.9118 55.1159C37.7643 55.1159 39.3705 56.7184 39.3717 59.5635V60.3166Z" fill="white"/>
<path d="M10.472 42.0269C10.8155 42.0197 11.1569 42.0814 11.476 42.2085C11.7952 42.3356 12.0856 42.5255 12.33 42.7669C12.5744 43.0084 12.7678 43.2964 12.8988 43.6139C13.0299 43.9315 13.0958 44.2721 13.0928 44.6156C13.0934 45.3083 12.8205 45.9732 12.3334 46.4656C11.8463 46.9581 11.1844 47.2382 10.4917 47.245C9.10372 47.245 7.91416 46.0665 7.87964 44.6674C7.84512 43.2683 9.03345 42.0417 10.472 42.0269Z" fill="white"/>
<path d="M49.9 44.6448C49.8929 44.3013 49.9547 43.96 50.0819 43.6409C50.2091 43.3219 50.399 43.0316 50.6403 42.7872C50.8817 42.5428 51.1697 42.3494 51.4872 42.2183C51.8046 42.0872 52.1452 42.0211 52.4886 42.024C53.1813 42.0237 53.8462 42.2966 54.3387 42.7837C54.8313 43.2707 55.1118 43.9324 55.1192 44.625C55.1192 46.0131 53.9395 47.2026 52.5417 47.2371C51.1438 47.2717 49.916 46.0784 49.9 44.6448Z" fill="white"/>
<path d="M34.0934 44.6361C34.0872 45.3291 33.8074 45.9915 33.3148 46.4789C32.8223 46.9664 32.157 47.2394 31.4641 47.2384C30.771 47.2235 30.1121 46.9347 29.6313 46.4353C29.1506 45.9359 28.8872 45.2664 28.8988 44.5733C28.906 43.8913 29.1835 43.24 29.6705 42.7625C30.1575 42.2849 30.8141 42.0202 31.4961 42.0265C31.8392 42.0232 32.1794 42.0885 32.4968 42.2186C32.8143 42.3487 33.1025 42.541 33.3445 42.7842C33.5865 43.0274 33.7774 43.3165 33.906 43.6345C34.0346 43.9525 34.0984 44.2931 34.0934 44.6361Z" fill="white"/>
</g>
<defs>
<clipPath id="clip0_81_4435">
<rect width="63" height="63" fill="white"/>
</clipPath>
</defs>
</svg>
