<svg id="Group_3762" data-name="Group 3762" xmlns="http://www.w3.org/2000/svg" xmlns:xlink="http://www.w3.org/1999/xlink" width="60.083" height="60.084" viewBox="0 0 60.083 60.084">
  <defs>
    <linearGradient id="linear-gradient" x1="0.604" y1="0.604" x2="0.134" y2="0.134" gradientUnits="objectBoundingBox">
      <stop offset="0" stop-color="#178ba4"/>
      <stop offset="1" stop-color="#3ec7e3"/>
    </linearGradient>
  </defs>
  <g id="Group_3391" data-name="Group 3391">
    <g id="Group_3390" data-name="Group 3390">
      <path id="Path_13174" data-name="Path 13174" d="M28.6-137.87l-38.2,38.2a30.694,30.694,0,0,1-21.886-29.4A30.681,30.681,0,0,1-.8-159.756,30.691,30.691,0,0,1,28.6-137.87Z" transform="translate(31.483 159.756)" fill="url(#linear-gradient)"/>
      <ellipse id="Ellipse_1961" data-name="Ellipse 1961" cx="28.613" cy="28.613" rx="28.613" ry="28.613" transform="translate(2.069 2.07)" fill="#fff"/>
    </g>
  </g>
  <g id="DujuHH.tif" transform="translate(526.812 575.426)">
    <g id="Group_3745" data-name="Group 3745" transform="translate(-509.355 -557.947)">
      <path id="Path_13623" data-name="Path 13623" d="M-488.545-544.69l-2-.8c-.482-.193-.967-.377-1.444-.583a1.4,1.4,0,0,1-.47-2.342c.977-.995,1.969-1.973,2.954-2.96a1.385,1.385,0,0,1,1.173-.426c.924.1,1.848.189,2.769.3a.472.472,0,0,0,.455-.171c.995-1.038,1.977-2.09,3.007-3.093a11.177,11.177,0,0,1,5.729-2.8,18.6,18.6,0,0,1,4.418-.375,1.919,1.919,0,0,1,2.027,2.087,17.348,17.348,0,0,1-1.245,7.134,9.808,9.808,0,0,1-2.183,3.218c-.944.918-1.9,1.826-2.832,2.752a.638.638,0,0,0-.166.451c.078.892.18,1.782.286,2.672a1.458,1.458,0,0,1-.427,1.27c-.976.98-1.949,1.963-2.934,2.933a1.409,1.409,0,0,1-2.379-.49c-.425-1.031-.845-2.066-1.239-3.109-.1-.272-.224-.3-.487-.257q-2.023.36-4.053.68a1.415,1.415,0,0,1-1.67-1.721c.219-1.33.443-2.66.663-3.99C-488.573-544.425-488.563-544.545-488.545-544.69Zm8.077,8.32c.941-.945,1.833-1.852,2.741-2.742a.687.687,0,0,0,.228-.64q-.2-1.6-.361-3.2a.465.465,0,0,1,.123-.336c1.139-1.1,2.291-2.18,3.433-3.274a7.65,7.65,0,0,0,1.538-2.107,15.2,15.2,0,0,0,1.408-7.316c-.008-.373-.19-.521-.577-.532a17.78,17.78,0,0,0-3.8.273,9.914,9.914,0,0,0-5.217,2.348c-1.233,1.172-2.373,2.442-3.545,3.679a.5.5,0,0,1-.474.21c-1.075-.132-2.151-.256-3.23-.362a.643.643,0,0,0-.456.152c-.88.856-1.744,1.73-2.611,2.6-.065.065-.119.14-.193.227,1.169.469,2.3.914,3.423,1.374a1.42,1.42,0,0,1,.889,1.632q-.284,1.667-.56,3.336c-.057.342-.105.685-.162,1.057l3.3-.548c.36-.06.719-.124,1.079-.176a1.42,1.42,0,0,1,1.673.97C-481.371-538.638-480.931-537.531-480.468-536.37Z" transform="translate(495.095 557.947)" fill="#0f2056"/>
      <path id="Path_13624" data-name="Path 13624" d="M-452.259-401.473a1.452,1.452,0,0,1-.222.418q-1.486,1.515-3,3.005a.687.687,0,0,1-1.01,0,.691.691,0,0,1,.026-1.01q1.468-1.487,2.953-2.957a.684.684,0,0,1,.818-.172A.77.77,0,0,1-452.259-401.473Z" transform="translate(463.696 422.957)" fill="#0f2056"/>
      <path id="Path_13625" data-name="Path 13625" d="M-497.3-409.1a.754.754,0,0,1-.761-.438.677.677,0,0,1,.166-.791q.712-.718,1.429-1.432c.492-.493.983-.987,1.478-1.477a.724.724,0,0,1,1.083-.074.72.72,0,0,1-.09,1.083c-.944.948-1.886,1.9-2.841,2.834A2.253,2.253,0,0,1-497.3-409.1Z" transform="translate(499.619 432.724)" fill="#0f2056"/>
      <path id="Path_13626" data-name="Path 13626" d="M-509.355-451.349a1.6,1.6,0,0,1,.24-.417q1.451-1.479,2.926-2.934a.713.713,0,0,1,1.036-.046.709.709,0,0,1-.028,1.036q-1.467,1.486-2.952,2.954a.674.674,0,0,1-.79.164A.727.727,0,0,1-509.355-451.349Z" transform="translate(509.355 468.641)" fill="#0f2056"/>
      <path id="Path_13627" data-name="Path 13627" d="M-386.8-525.258a2.819,2.819,0,0,1-2.838,2.81,2.822,2.822,0,0,1-2.817-2.832,2.838,2.838,0,0,1,2.856-2.833A2.833,2.833,0,0,1-386.8-525.258Zm-2.823,1.391a1.415,1.415,0,0,0,1.414-1.414,1.423,1.423,0,0,0-1.421-1.41,1.426,1.426,0,0,0-1.415,1.417A1.416,1.416,0,0,0-389.628-523.866Z" transform="translate(408.001 532.08)" fill="#0f2056"/>
      <path id="Path_13628" data-name="Path 13628" d="M-440.266-474.357a.641.641,0,0,1-.406.632.659.659,0,0,1-.79-.15,1.541,1.541,0,0,1-.271-.448,8.144,8.144,0,0,0-4.354-4.372,1.947,1.947,0,0,1-.407-.216.7.7,0,0,1-.186-.92.663.663,0,0,1,.858-.284,9.551,9.551,0,0,1,5.5,5.505.724.724,0,0,1,.038.126C-440.272-474.441-440.271-474.4-440.266-474.357Z" transform="translate(455.098 490.513)" fill="#0f2056"/>
    </g>
  </g>
</svg>
