<svg width="188" height="108" viewBox="0 0 188 108" fill="none" xmlns="http://www.w3.org/2000/svg">
<path d="M187.141 105.159C187.141 105.159 163.955 103.979 129.413 100.199C94.8714 96.4201 36.0825 105.634 27.2122 107.047C18.3418 108.459 4.14726 107.874 4.14726 107.874C3.90479 105.755 0 78.6942 0 72.0792V25.3805C0.147269 25.3362 0.286945 25.2699 0.414223 25.1837L0.515258 25.113C0.454641 25.0374 0.474844 24.9667 0.70216 24.891C1.04061 24.7851 1.53059 24.8456 1.80337 24.6438C2.07615 24.442 1.7074 24.3259 1.8741 24.1846C2.0408 24.0433 2.62172 24.1291 2.88439 24.0938C2.88439 23.8264 2.71265 23.8062 3.04604 23.6296C3.28722 23.5172 3.55377 23.4702 3.8189 23.4933C4.21291 23.4631 4.32407 23.4933 4.25335 23.2259C4.20713 23.1026 4.13473 22.9907 4.04116 22.8979C4.36951 22.9232 4.35941 23.0998 4.61704 23.1654C4.77259 23.1878 4.92967 23.198 5.08682 23.1956C5.25352 23.1956 6.18297 24.0837 6.36988 24.0787C6.40524 24.0787 5.70816 23.1502 5.75867 23.125C5.95568 23.0241 5.91022 22.8778 6.05166 22.7718C6.29427 22.6127 6.57988 22.5317 6.87 22.5397C7.17654 22.5155 7.48061 22.4665 7.77925 22.3934C7.90077 22.356 8.01904 22.3087 8.13286 22.2521C8.12808 22.1921 8.10713 22.1346 8.07225 22.0856C7.99648 21.9847 7.76915 21.8837 7.74389 21.7879C7.68832 21.5305 8.07224 21.6012 8.35007 21.5406C8.52204 21.477 8.69962 21.4297 8.88047 21.3994C8.9239 21.3916 8.96837 21.3916 9.01181 21.3994C9.06756 21.3521 9.12857 21.3115 9.19366 21.2782C9.15829 21.2177 9.19367 21.1723 9.3048 21.1521C9.38335 21.1384 9.46366 21.1384 9.54221 21.1521C9.54221 21.1521 9.54222 21.1117 9.58768 21.0865C9.60316 21.0818 9.61709 21.0731 9.62807 21.0613C9.93116 20.8948 10.4616 21.0159 10.8101 20.9049L10.6485 20.7283C11.0122 20.481 11.9922 20.4003 12.0578 20.0521C12.0578 19.9916 11.9518 19.8604 11.9518 19.7847C12.0076 19.702 12.0518 19.612 12.0831 19.5173C12.3637 19.3717 12.6763 19.2989 12.9924 19.3053C13.1377 19.2761 13.2843 19.2542 13.4318 19.2398H13.548C13.6473 19.2449 13.7468 19.2449 13.8461 19.2398C14.3512 21.3438 14.235 19.159 14.4573 18.7907C14.5886 18.5687 15.0028 18.604 15.3514 18.5737C15.5635 18.5737 16.2556 18.9774 16.3617 18.8966C16.4678 18.8159 16.1444 18.3466 16.1899 18.2911C16.2588 18.2237 16.3471 18.1795 16.4425 18.165C16.7215 18.086 16.995 17.9882 17.2608 17.8723C17.473 17.726 17.2608 17.5999 17.3113 17.4334C17.3153 17.3967 17.3293 17.3617 17.3518 17.3324C17.4326 17.2164 17.6245 17.1861 17.8569 17.0902C18.3621 16.9036 18.8975 16.6866 19.443 16.5049C19.5895 16.4595 19.7057 16.949 19.8623 16.9389C20.0793 16.8903 20.281 16.7896 20.4501 16.6453C20.6191 16.5011 20.7503 16.3178 20.8322 16.1114C20.9029 15.9196 20.7868 15.8288 20.9181 15.7329C20.9788 15.685 21.0471 15.6475 21.1201 15.6219C21.3662 15.5465 21.6208 15.5024 21.8779 15.4907C22.1658 15.4352 22.383 15.2031 22.6861 15.1779L22.9993 16.4847C22.9639 16.3586 22.7063 14.9256 22.8275 14.8398C23.0136 14.9992 23.2451 15.0962 23.4893 15.1173C23.6293 15.1179 23.7673 15.0835 23.8908 15.0175C24.0143 14.9514 24.1193 14.8557 24.1965 14.7389C24.2622 14.532 24.1965 14.4109 24.3783 14.2091C24.5106 14.0953 24.6656 14.011 24.833 13.9619C25.038 13.9515 25.2422 13.9279 25.4442 13.8912C25.8432 13.7953 26.1463 13.6238 26.5555 13.538C26.9647 13.4522 27.1061 13.5128 27.2728 13.2756C27.3334 13.1899 28.0861 14.2091 28.0709 14.1132C28.177 14.0628 27.5658 12.877 27.6062 12.8013C27.7811 12.5668 27.9754 12.3473 28.1871 12.1454C28.4043 12.1756 28.4852 12.6197 28.6367 12.4633C28.7125 12.3876 28.7024 11.989 28.7175 11.9183C28.8893 11.9587 29.0812 12.0243 29.1772 12.0445C29.4955 12.1151 29.7985 12.1504 30.1117 12.2362C30.4249 12.322 30.233 12.9678 30.4856 12.983C30.5268 12.7953 30.607 12.6184 30.721 12.4637C30.835 12.309 30.9802 12.1799 31.1473 12.0848C31.537 12.047 31.9295 12.047 32.3192 12.0848H32.395C32.4404 12.0848 32.395 12.433 32.4304 12.4128C32.8446 12.2362 32.7284 11.8073 32.8143 11.5449C32.9203 11.1968 33.6932 11.333 34.1529 11.2825C34.2741 11.1362 33.9963 10.8991 34.0468 10.6922C34.0973 10.4853 34.36 10.45 34.855 10.4449C35.1379 10.4449 35.4511 10.3844 35.729 10.3894C35.8643 10.3889 35.9994 10.399 36.1331 10.4197C36.2493 10.3693 36.8605 10.4197 36.8706 10.3238C36.8807 10.228 36.1785 9.90504 36.3654 9.75872C36.6293 9.64225 36.9011 9.54445 37.1787 9.46605C37.2732 9.44884 37.3608 9.40508 37.4313 9.33991C37.4818 9.2844 37.3808 9.13809 37.4313 9.09772C37.4818 9.05735 37.9819 9.51651 38.2042 9.49633C38.5527 9.46605 38.9669 8.99176 39.174 8.81516C39.3811 8.63855 39.3559 8.44177 39.7701 8.37113C39.9112 8.35594 40.0534 8.35594 40.1944 8.37113C40.3813 8.37113 40.4369 8.33075 40.639 8.30048C40.841 8.2702 40.9976 8.26012 41.1441 8.22984C41.2537 8.18105 41.3668 8.14055 41.4826 8.10874L41.5179 8.07343C41.5515 7.98283 41.5956 7.89647 41.6493 7.81609C41.6493 7.73535 41.4927 7.00371 41.5028 6.94316C41.5583 6.60005 42.513 7.68994 42.8666 7.44774C42.8111 7.39223 42.8212 6.75143 42.7656 6.70097C43.0802 6.65052 43.3972 6.61683 43.7153 6.60005C43.6246 6.60864 43.5332 6.60864 43.4425 6.60005C43.5082 6.47895 43.5233 6.39317 43.9477 6.28216C44.0891 6.2418 44.276 6.22666 44.4174 6.18629C44.5466 6.1376 44.6731 6.08202 44.7963 6.01979C45.059 5.92896 45.3722 6.37299 45.6449 6.26703C45.6955 6.26703 45.8975 5.71199 45.9379 5.68676C46.2663 5.50007 45.6904 5.43448 45.5237 5.31338C45.4833 5.31338 45.4631 5.25787 45.4783 5.2276H45.7308C45.946 5.24111 46.162 5.22412 46.3724 5.17713C46.4734 5.14181 46.6452 5.71199 46.7108 5.68171C46.7765 5.65144 46.7916 4.85925 46.7108 4.80375C46.63 4.74825 46.3926 4.65743 46.3976 4.5111C46.4027 4.36477 46.5138 4.34963 46.6199 4.26385C46.8321 4.19321 47.019 4.12257 47.125 4.06707C47.4332 3.90561 47.5595 3.74414 47.8777 3.56249C47.93 3.54493 47.9807 3.52298 48.0292 3.49689C52.4043 3.37135 56.7829 3.55176 61.1327 4.0368C62.0268 4.14276 62.8553 4.25375 63.6079 4.33953C63.3503 4.33953 63.4766 4.37991 64.209 4.5111C64.9415 4.64229 66.2599 4.76338 68.0431 4.87943C70.1294 5.12668 69.897 5.12669 69.9879 5.12669C69.8869 5.10146 70.1193 5.07622 69.018 4.93998C80.6717 5.58584 108.005 5.85327 120.275 5.44456C134.924 4.97026 185.813 0.0102539 185.813 0.0102539C185.813 0.0102539 188.086 54.3635 185.242 62.6234C182.398 70.8834 187.141 105.159 187.141 105.159Z" fill="#F9F2DE"/>
<path style="mix-blend-mode:multiply" d="M188 105.159C188 105.159 164.813 103.979 130.272 100.199C95.7298 96.4201 36.9409 105.634 28.0706 107.047C19.2002 108.459 5.00565 107.874 5.00565 107.874C4.76318 105.755 0.858398 78.6942 0.858398 72.0792V25.3805C1.00567 25.3362 1.14534 25.2699 1.27262 25.1837C1.30871 25.1638 1.34258 25.1401 1.37366 25.113C1.31304 25.0374 1.33324 24.9667 1.56056 24.891C1.90406 24.7851 2.38899 24.8456 2.66177 24.6438C2.93455 24.442 2.57086 24.3259 2.73756 24.1846C2.90425 24.0433 3.48517 24.1291 3.74785 24.0938C3.74785 23.8264 3.57104 23.8062 3.90444 23.6296C4.14714 23.5163 4.41555 23.4693 4.68235 23.4933C5.07637 23.4631 5.18749 23.4933 5.11677 23.2259C5.06864 23.1024 4.99458 22.9905 4.89956 22.8979C5.22791 22.9232 5.22286 23.0998 5.47544 23.1654C5.63268 23.1879 5.79144 23.198 5.95027 23.1956C6.11697 23.1956 7.04137 24.0837 7.22827 24.0787C7.26364 24.0787 6.57161 23.1502 6.61707 23.125C6.81913 23.0241 6.76859 22.8778 6.91003 22.7718C7.15474 22.6132 7.44179 22.5322 7.73342 22.5397C8.03825 22.5151 8.34064 22.4662 8.63765 22.3934C8.75979 22.3577 8.87818 22.3104 8.99123 22.2521C8.98645 22.1921 8.9655 22.1346 8.93061 22.0856C8.85989 21.9847 8.6326 21.8837 8.60229 21.7879C8.55177 21.5305 8.93061 21.6012 9.21349 21.5406C9.37719 21.4782 9.54628 21.4309 9.71864 21.3994C9.76205 21.3914 9.80656 21.3914 9.84998 21.3994C9.90656 21.3532 9.96745 21.3127 10.0318 21.2782C10.0015 21.2177 10.0318 21.1723 10.148 21.1521C10.2249 21.1384 10.3035 21.1384 10.3804 21.1521C10.3804 21.1521 10.3804 21.1117 10.4259 21.0865C10.4418 21.083 10.4561 21.0741 10.4663 21.0613C10.7694 20.8948 11.3048 21.0159 11.6483 20.9049L11.4917 20.7283C11.8504 20.481 12.8304 20.4003 12.896 20.0521C12.896 19.9916 12.7899 19.8604 12.7899 19.7847C12.8522 19.7117 12.9064 19.6322 12.9516 19.5475C13.2301 19.4014 13.5413 19.3285 13.8558 19.3356C14.0028 19.3063 14.1511 19.2845 14.3003 19.27H14.4115C14.5124 19.2751 14.6136 19.2751 14.7145 19.27C15.2197 21.3741 15.1035 19.1893 15.3207 18.8209C15.4521 18.5989 15.8663 18.6343 16.2148 18.604C16.427 18.604 17.119 19.0076 17.2251 18.9269C17.3312 18.8462 17.0028 18.3769 17.0483 18.3214C17.1185 18.253 17.2088 18.2088 17.3059 18.1953C17.5834 18.1163 17.8551 18.0185 18.1192 17.9026C18.3314 17.7563 18.1445 17.6301 18.1697 17.4636C18.176 17.4275 18.1898 17.3932 18.2101 17.3627C18.291 17.2467 18.488 17.2164 18.7153 17.1205C19.2204 16.9338 19.7559 16.7169 20.3014 16.5352C20.4479 16.4898 20.5641 16.9792 20.7258 16.9692C20.9421 16.9207 21.1433 16.8199 21.3115 16.6756C21.4797 16.5313 21.6099 16.3479 21.6906 16.1416C21.7664 15.9499 21.6451 15.8591 21.7765 15.7632C21.8372 15.7152 21.9055 15.6777 21.9785 15.6522C22.2263 15.5768 22.4826 15.5327 22.7413 15.521C23.0292 15.4655 23.2464 15.2334 23.5495 15.2082L23.8577 16.515C23.8274 16.3889 23.5697 14.9559 23.6859 14.8701C23.8726 15.0286 24.1037 15.1255 24.3477 15.1476C24.4877 15.1481 24.6257 15.1138 24.7492 15.0478C24.8726 14.9817 24.9777 14.8859 25.0549 14.7692C25.1256 14.5623 25.0549 14.4412 25.2367 14.2394C25.3689 14.1256 25.5239 14.0413 25.6913 13.9921C25.8964 13.9821 26.1006 13.9585 26.3026 13.9215C26.7067 13.8256 27.0047 13.6541 27.4139 13.5683C27.7473 13.5027 27.9696 13.5431 28.1363 13.3059C28.1918 13.2201 28.9445 14.2394 28.9293 14.1435C29.0405 14.093 28.3989 12.9073 28.4696 12.8316C28.643 12.5958 28.8375 12.3763 29.0506 12.1757C29.2627 12.2059 29.3435 12.6499 29.4951 12.4935C29.5709 12.4178 29.5607 12.0192 29.5759 11.9486C29.7477 11.989 29.9447 12.0545 30.0356 12.0747C30.3589 12.1454 30.6569 12.1807 30.9701 12.2665C31.2833 12.3523 31.0964 12.9981 31.349 13.0132C31.3881 12.8255 31.467 12.6482 31.5802 12.4933C31.6935 12.3384 31.8385 12.2095 32.0057 12.1151C32.3971 12.0772 32.7912 12.0772 33.1826 12.1151H33.2534C33.2988 12.1151 33.2534 12.4633 33.2938 12.4431C33.708 12.2665 33.5868 11.8376 33.6727 11.5752C33.7787 11.227 34.5516 11.3633 35.0113 11.3128C35.1325 11.1665 34.8547 10.9293 34.9102 10.7225C34.9658 10.5156 35.2234 10.4803 35.7185 10.4752C35.9963 10.4752 36.3095 10.4147 36.5924 10.4197C36.726 10.4194 36.8594 10.4295 36.9915 10.45C37.1127 10.3995 37.7189 10.45 37.734 10.3541C37.7492 10.2582 37.0369 9.93532 37.2289 9.78899C37.4931 9.67331 37.7648 9.57553 38.0421 9.49633C38.1384 9.48003 38.2279 9.43622 38.2998 9.37018C38.3452 9.31468 38.2442 9.16836 38.2998 9.12799C38.3553 9.08763 38.8504 9.5468 39.0676 9.52662C39.4162 9.49634 39.8354 9.02203 40.0425 8.84543C40.2496 8.66883 40.2193 8.47204 40.6335 8.4014C40.7763 8.38617 40.9202 8.38617 41.0629 8.4014C41.2498 8.4014 41.3004 8.36103 41.5024 8.33075C41.7045 8.30048 41.8611 8.29039 42.0076 8.26012C42.1189 8.21134 42.2337 8.17087 42.3511 8.13902L42.3814 8.1037C42.4168 8.01299 42.4626 7.92664 42.5178 7.84636C42.5178 7.76563 42.3561 7.03398 42.3712 6.97343C42.4218 6.63032 43.3815 7.72021 43.7301 7.47801C43.6745 7.42251 43.6846 6.7817 43.6341 6.73125C43.947 6.68079 44.2623 6.64709 44.5787 6.63032C44.488 6.63874 44.3967 6.63874 44.306 6.63032C44.3716 6.50922 44.3868 6.42344 44.8111 6.31244C44.9525 6.27207 45.1394 6.25693 45.2758 6.21657C45.407 6.16878 45.5352 6.11318 45.6597 6.05006C45.9174 5.95924 46.2306 6.40326 46.5033 6.2973C46.5589 6.2973 46.761 5.74227 46.8014 5.71704C47.1247 5.53034 46.5539 5.46475 46.3872 5.34365C46.3467 5.34365 46.3266 5.28814 46.3367 5.25787H46.5943C46.8094 5.27105 47.0254 5.25406 47.2358 5.20741C47.3318 5.17209 47.5035 5.74226 47.5692 5.71199C47.6349 5.68171 47.6551 4.88953 47.5692 4.83402C47.4833 4.77852 47.2459 4.6877 47.251 4.54138C47.256 4.39505 47.3672 4.3799 47.4732 4.29412C47.6854 4.22348 47.8723 4.15285 47.9784 4.09734C48.2865 3.93588 48.4128 3.77441 48.7361 3.59277C48.7867 3.57514 48.8357 3.55319 48.8826 3.52717C53.2577 3.40162 57.6362 3.58203 61.9861 4.06707C62.8802 4.17303 63.7086 4.28404 64.4612 4.36982C64.2036 4.36982 64.3299 4.41019 65.0624 4.54138C65.7948 4.67257 67.1133 4.79365 68.8964 4.90971C70.9877 5.15695 71.8414 5.24778 71.9273 5.24778C71.8263 5.22255 70.9726 5.10649 69.8714 4.97026C81.5251 5.61612 108.859 5.88354 121.128 5.47483C135.778 5.00053 186.666 0.0405273 186.666 0.0405273C186.666 0.0405273 188.798 54.3937 185.954 62.6638C183.11 70.9338 188 105.159 188 105.159Z" fill="url(#paint0_linear_81_4502)"/>
<defs>
<linearGradient id="paint0_linear_81_4502" x1="135.182" y1="122.103" x2="39.7339" y2="-43.9505" gradientUnits="userSpaceOnUse">
<stop offset="0.07" stop-color="#FBFBFB"/>
<stop offset="0.2" stop-color="#FEFEFE"/>
<stop offset="0.22" stop-color="white"/>
<stop offset="0.28" stop-color="#DEDEDE"/>
<stop offset="0.34" stop-color="#ECECEC"/>
<stop offset="0.44" stop-color="white"/>
</linearGradient>
</defs>
</svg>
