<svg xmlns="http://www.w3.org/2000/svg" width="99.73" height="99.742" viewBox="0 0 99.73 99.742">
  <g id="vQSWDo.tif" transform="translate(-2980.224 -399.105)">
    <g id="Group_3660" data-name="Group 3660" transform="translate(2980.224 399.105)">
      <path id="Path_13448" data-name="Path 13448" d="M3063.472,461.24l-2.356-2.268c.779-.736,1.578-1.443,2.322-2.2,2.38-2.438,4.828-4.817,7.078-7.371a18.877,18.877,0,0,0,3.92-7.874c.056-.214.081-.436.164-.9-.346.3-.548.447-.724.623q-7.951,7.945-15.906,15.885a1.8,1.8,0,0,0-.53,1.425q.018,18.975.009,37.951c0,1.859-.482,2.337-2.359,2.337h-62.88c-1.862,0-2.33-.476-2.333-2.358q0-1.9-.017-3.8a1.073,1.073,0,0,0-.082-.234c-.267-.013-.565-.039-.864-.04-2.169,0-4.339,0-6.508,0-1.651,0-2.176-.526-2.176-2.171q0-30.6,0-61.195c0-6.17-.015-12.341,0-18.511a11.183,11.183,0,0,1,8.723-11.12,11.7,11.7,0,0,1,2.76-.293q31.947-.024,63.894-.006a11.244,11.244,0,0,1,3.058,22.126c-.378.1-.758.184-1.176.286v15.4c.321-.3.558-.5.778-.724,3.049-3.046,6.077-6.114,9.149-9.137a7.286,7.286,0,0,1,11.322,9.072,2.9,2.9,0,0,0-.436,1.314,24.586,24.586,0,0,1-6.934,15.921c-2.459,2.558-5,5.034-7.513,7.545C3063.742,461.034,3063.6,461.131,3063.472,461.24Zm-70.339-39.569v73.891h61.039V461.028c-.282.249-.472.4-.642.57q-7.561,7.559-15.122,15.118a5.021,5.021,0,0,1-1.139.995c-3.208,1.64-6.437,3.242-9.662,4.848a1.424,1.424,0,0,1-1.733-.2c-.548-.559-.861-.33-1.285.124-.956,1.023-1.953,2.008-2.914,2.989l-2.374-2.348,3.79-3.548c-1.52-1.1-.989-2.207-.386-3.379,1.379-2.679,2.694-5.39,4.068-8.072a5.844,5.844,0,0,1,1.024-1.426c2.951-2.985,5.927-5.946,8.892-8.917.2-.2.383-.421.729-.8H2999.6v-3.191h1.173c12.453,0,24.906-.043,37.358.046,1.877.013,3.317-.367,4.425-1.894a11.776,11.776,0,0,1,1.161-1.21l-.13-.2h-44.014v-3.176h1.124q22.779,0,45.557.012a1.869,1.869,0,0,0,1.478-.6q2.924-2.992,5.913-5.92a1.787,1.787,0,0,0,.592-1.4c-.02-5.635-.011-11.271-.013-16.906,0-.275-.024-.549-.039-.868Zm6.3-3.308c.329.024.44.04.552.04q27.93,0,55.86-.01a8.027,8.027,0,1,0-.064-16.053q-27.761-.03-55.522-.007c-.226,0-.452.042-.8.077a11.305,11.305,0,0,1,3.277,7.992A11.456,11.456,0,0,1,2999.438,418.362Zm-.139-9.606a3.937,3.937,0,0,0-.052-.49,8.041,8.041,0,0,0-15.793,2.465q-.006,38.755,0,77.51v.887h6.426v-1.142q0-37.022,0-74.044a4.835,4.835,0,0,1,5.168-5.185C2996.449,408.753,2997.851,408.757,2999.3,408.757Zm47.614,54.715-5.5-5.572-10.384,10.366,5.552,5.53Zm-1.687-6.562,20.144-20.112-1.383-1.48-20.194,20.177Zm22.793-17.576-20.11,20.1,1.443,1.445,20.064-20.032Zm3.884-.866c1.333-1.286,2.728-2.482,3.939-3.842a3.906,3.906,0,0,0-.133-5.187,3.8,3.8,0,0,0-4.972-.834,56.256,56.256,0,0,0-4.55,4.153Zm-43.014,32.625c-.876,1.746-1.757,3.466-2.606,5.2-.8,1.638-.815,1.046.377,2.364a.849.849,0,0,0,1.224.2c1.363-.726,2.758-1.392,4.139-2.084.564-.282,1.125-.57,1.717-.87Zm-35.778-52.95c2.941-.35,6.008-3.448,6.138-6.157-1.546,0-3.09-.029-4.633.012a1.5,1.5,0,0,0-1.491,1.45C2993.075,414.99,2993.109,416.535,2993.109,418.143Z" transform="translate(-2980.224 -399.105)" fill="#bfa16d"/>
      <path id="Path_13449" data-name="Path 13449" d="M3115.979,1012.537v-3.1h48.189v3.1Z" transform="translate(-3096.646 -922.516)" fill="#bfa16d"/>
      <path id="Path_13450" data-name="Path 13450" d="M3116.243,602.557h48.13v3.14h-48.13Z" transform="translate(-3096.872 -573.582)" fill="#bfa16d"/>
      <path id="Path_13451" data-name="Path 13451" d="M3116.046,651.073v-3.107H3164.2v3.107Z" transform="translate(-3096.703 -612.524)" fill="#bfa16d"/>
      <path id="Path_13452" data-name="Path 13452" d="M3116.138,693.032H3164.3v3.106h-48.159Z" transform="translate(-3096.782 -651.172)" fill="#bfa16d"/>
      <path id="Path_13453" data-name="Path 13453" d="M3116.079,967.287V964.2h17.6v3.089Z" transform="translate(-3096.731 -883.72)" fill="#bfa16d"/>
    </g>
  </g>
</svg>
