<svg xmlns="http://www.w3.org/2000/svg" width="10.465" height="19.357" viewBox="0 0 10.465 19.357"><defs><style>.a{fill:#fff;}</style></defs><path class="a" d="M32.148,0l-2.51,0A4.408,4.408,0,0,0,25,4.764v2.2H22.472a.4.4,0,0,0-.395.395v3.182a.4.4,0,0,0,.395.395H25v8.03a.4.4,0,0,0,.395.395h3.293a.4.4,0,0,0,.395-.395v-8.03h2.951a.4.4,0,0,0,.395-.395V7.355a.395.395,0,0,0-.395-.395H29.078V5.1c0-.895.213-1.349,1.379-1.349h1.691a.4.4,0,0,0,.394-.395V.4A.4.4,0,0,0,32.148,0Z" transform="translate(-22.077)"/></svg>