<svg xmlns="http://www.w3.org/2000/svg" width="66.505" height="46.894" viewBox="0 0 66.505 46.894"><defs><style>.a{fill:#006ff7;}</style></defs><g transform="translate(0 -75.49)"><path class="a" d="M293.233,193.442l-4.886,4.886-3.129-3.129a1.948,1.948,0,0,0-2.755,2.755l4.506,4.506a1.948,1.948,0,0,0,2.755,0l6.264-6.264a1.948,1.948,0,1,0-2.755-2.755Z" transform="translate(-245.276 -102.134)"/><path class="a" d="M29.492,79.846c-.025,0-.05,0-.075,0H15.633a1.948,1.948,0,1,0,0,3.9h9.61A23.345,23.345,0,0,0,19.716,97H8.411a1.948,1.948,0,1,0,0,3.9H19.716a23.334,23.334,0,0,0,5.527,13.262H1.948a1.948,1.948,0,1,0,0,3.9c.255,0,27.388,0,27.544,0a23.438,23.438,0,0,0,37.013-19.1c0-19.113-21.645-30.061-37.013-19.1Zm13.578,38.641a19.537,19.537,0,0,1-13.448-33.71C41.986,73.03,62.608,81.766,62.608,98.949a19.537,19.537,0,0,1-19.538,19.538Z" transform="translate(0 0)"/><circle class="a" cx="2.166" cy="2.166" r="2.166" transform="translate(40.905 84.076)"/><circle class="a" cx="2.165" cy="2.165" r="2.165" transform="translate(40.905 109.492)"/><path class="a" d="M414.356,238.868a2.166,2.166,0,1,0,2.166,2.166A2.165,2.165,0,0,0,414.356,238.868Z" transform="translate(-358.65 -142.156)"/><circle class="a" cx="2.165" cy="2.165" r="2.165" transform="matrix(0.987, -0.16, 0.16, 0.987, 27.798, 97.089)"/></g></svg>