<svg xmlns="http://www.w3.org/2000/svg" width="67.085" height="67.129" viewBox="0 0 67.085 67.129"><defs><style>.a{fill:#006ff7;}</style></defs><g transform="translate(-0.168)"><g transform="translate(0.168)"><g transform="translate(0)"><path class="a" d="M56.683,49.684a13.767,13.767,0,0,0-5.119-20.691V16.886L34.679,0H.168V67.129h51.4V53.87A13.657,13.657,0,0,0,53.9,52.463L64.457,63.137l2.8-2.766ZM35.83,6.715l9.019,9.019H35.83ZM47.631,63.2H4.1V3.933H31.9V19.667H47.631v8.144a13.762,13.762,0,1,0,0,27.24Zm4.987-14.811a9.833,9.833,0,1,1,0-13.907A9.845,9.845,0,0,1,52.617,48.385Z" transform="translate(-0.168)"/></g></g><g transform="translate(7.622 24.018)"><g transform="translate(0 0)"><rect class="a" width="29" height="3" transform="translate(-0.454 0.058)"/></g></g><g transform="translate(7.622 32.472)"><g transform="translate(-0.454 -0.396)"><rect class="a" width="21" height="3"/></g></g><g transform="translate(7.622 47.208)"><g transform="translate(-0.454 -0.132)"><rect class="a" width="21" height="3" transform="translate(0 0)"/></g></g><g transform="translate(7.622 38.754)"><g transform="translate(0 0)"><rect class="a" width="21" height="3" transform="translate(-0.454 0.322)"/></g></g></g></svg>