<svg xmlns="http://www.w3.org/2000/svg" width="51.746" height="45.278" viewBox="0 0 51.746 45.278"><defs><style>.a{fill:#006ff7;}.b,.c{stroke:none;}.c{fill:#f5f9ff;}</style></defs><g transform="translate(0 -29.235)"><g class="a"><path class="b" d="M 25.37007713317871 74.01321411132812 L 6.96834659576416 74.01321411132812 L 6.96834659576416 68.54486846923828 L 12.93669605255127 68.54486846923828 L 13.43669605255127 68.54486846923828 L 13.43669605255127 68.04486846923828 L 13.43669605255127 35.70334625244141 L 13.43669605255127 35.20334625244141 L 12.93669605255127 35.20334625244141 L 6.46834659576416 35.20334625244141 L 5.96834659576416 35.20334625244141 L 5.96834659576416 35.70334625244141 L 5.96834659576416 38.43746566772461 L 0.4999964237213135 38.43746566772461 L 0.4999964237213135 29.7349967956543 L 31.84163665771484 29.7349967956543 L 31.84163665771484 38.43746566772461 L 26.37328720092773 38.43746566772461 L 26.37328720092773 35.70334625244141 L 26.37328720092773 35.20334625244141 L 25.87328720092773 35.20334625244141 L 19.40493583679199 35.20334625244141 L 18.90493583679199 35.20334625244141 L 18.90493583679199 35.70334625244141 L 18.90493583679199 68.04486846923828 L 18.90493583679199 68.54486846923828 L 19.40493583679199 68.54486846923828 L 25.37007713317871 68.54486846923828 L 25.37007713317871 74.01321411132812 Z"/><path class="c" d="M 0.9999961853027344 30.23500061035156 L 0.9999961853027344 37.93746948242188 L 5.468345642089844 37.93746948242188 L 5.468345642089844 34.70335388183594 L 13.93669700622559 34.70335388183594 L 13.93669700622559 69.04486846923828 L 7.468345642089844 69.04486846923828 L 7.468345642089844 73.51321411132812 L 24.87007713317871 73.51321411132812 L 24.87007713317871 69.04486846923828 L 18.40493774414062 69.04486846923828 L 18.40493774414062 34.70335388183594 L 26.87328720092773 34.70335388183594 L 26.87328720092773 37.93746948242188 L 31.34163665771484 37.93746948242188 L 31.34163665771484 30.23500061035156 L 0.9999961853027344 30.23500061035156 M -3.814697265625e-06 29.23500061035156 L 32.34163665771484 29.23500061035156 L 32.34163665771484 38.93746948242188 L 25.87328720092773 38.93746948242188 L 25.87328720092773 35.70335388183594 L 19.40493774414062 35.70335388183594 L 19.40493774414062 68.04486846923828 L 25.87007713317871 68.04486846923828 L 25.87007713317871 74.51321411132812 L 6.468345642089844 74.51321411132812 L 6.468345642089844 68.04486846923828 L 12.93669700622559 68.04486846923828 L 12.93669700622559 35.70335388183594 L 6.468345642089844 35.70335388183594 L 6.468345642089844 38.93746948242188 L -3.814697265625e-06 38.93746948242188 L -3.814697265625e-06 29.23500061035156 Z"/></g><g class="a" transform="translate(-208.009 -130.005)"><path class="b" d="M 252.7869567871094 204.0185241699219 L 240.8503570556641 204.0185241699219 L 240.8503570556641 198.5501708984375 L 243.58447265625 198.5501708984375 L 244.08447265625 198.5501708984375 L 244.08447265625 198.0501708984375 L 244.08447265625 181.8794708251953 L 244.08447265625 181.3794708251953 L 243.58447265625 181.3794708251953 L 240.3503570556641 181.3794708251953 L 239.8503570556641 181.3794708251953 L 239.8503570556641 181.8794708251953 L 239.8503570556641 184.6135864257812 L 234.3820037841797 184.6135864257812 L 234.3820037841797 175.9110107421875 L 259.2553100585938 175.9110107421875 L 259.2553100585938 184.6134643554688 L 253.7869415283203 184.6134643554688 L 253.7869415283203 181.8793487548828 L 253.7869415283203 181.3793487548828 L 253.2869415283203 181.3793487548828 L 250.0528259277344 181.3793487548828 L 249.5528259277344 181.3793487548828 L 249.5528259277344 181.8793487548828 L 249.5528259277344 198.0501708984375 L 249.5528259277344 198.5501708984375 L 250.0528259277344 198.5501708984375 L 252.7869567871094 198.5501708984375 L 252.7869567871094 204.0185241699219 Z"/><path class="c" d="M 234.8820190429688 176.4110107421875 L 234.8820190429688 184.1135864257812 L 239.3503570556641 184.1135864257812 L 239.3503570556641 180.8794708251953 L 244.58447265625 180.8794708251953 L 244.58447265625 199.0501708984375 L 241.3503570556641 199.0501708984375 L 241.3503570556641 203.5185241699219 L 252.2869567871094 203.5185241699219 L 252.2869567871094 199.0501708984375 L 249.0528259277344 199.0501708984375 L 249.0528259277344 180.8793487548828 L 254.2869415283203 180.8793487548828 L 254.2869415283203 184.1134643554688 L 258.7553100585938 184.1134643554688 L 258.7553100585938 176.4110107421875 L 234.8820190429688 176.4110107421875 M 233.8820190429688 175.4110107421875 L 259.7553100585938 175.4110107421875 L 259.7553100585938 185.1134643554688 L 253.2869415283203 185.1134643554688 L 253.2869415283203 181.8793487548828 L 250.0528259277344 181.8793487548828 L 250.0528259277344 198.0501708984375 L 253.2869567871094 198.0501708984375 L 253.2869567871094 204.5185241699219 L 240.3503570556641 204.5185241699219 L 240.3503570556641 198.0501708984375 L 243.58447265625 198.0501708984375 L 243.58447265625 181.8794708251953 L 240.3503570556641 181.8794708251953 L 240.3503570556641 185.1135864257812 L 233.8820190429688 185.1135864257812 L 233.8820190429688 175.4110107421875 Z"/></g></g></svg>