<svg width="37" height="47" viewBox="0 0 37 47" fill="none" xmlns="http://www.w3.org/2000/svg">
<g clip-path="url(#clip0_81_4508)">
<g style="mix-blend-mode:multiply">
<path d="M7.91242 10.6753L0.580078 39.5854C0.580078 39.5854 22.7462 46.4344 34.4127 47.0088L36.3522 21.0604L7.91242 10.6753Z" fill="#E6E6E6"/>
</g>
<path d="M33.6313 41.5753C25.3132 43.4261 0 37.343 0 37.343L4.32532 5.89746C12.1243 6.79673 25.7536 9.58738 36.9912 11.2931L36.6354 14.3274L33.6313 41.5753Z" fill="#1F357B"/>
<path d="M37.0002 11.2931L36.6765 14.0576C25.5292 12.3171 12.4949 9.70631 3.96387 8.54596L4.32552 5.89746C12.1245 6.80544 25.7567 9.59028 37.0002 11.2931Z" fill="#5B688F"/>
<path d="M10.5173 7.50792L9.8669 5.35547C9.79648 5.37705 9.73689 5.42435 9.70009 5.48785C9.6633 5.55135 9.65204 5.62635 9.66857 5.69777L10.2286 7.60074L10.5173 7.50792Z" fill="black"/>
<path d="M10.7655 7.43243L10.2026 5.52946C10.1787 5.46338 10.1316 5.40815 10.0699 5.37401C10.0083 5.33987 9.93622 5.32914 9.86719 5.3438L10.5059 7.50786L10.7655 7.43243Z" fill="#333333"/>
<path d="M15.3299 4.5315C15.2894 4.54256 15.2515 4.56149 15.2184 4.58721C15.1853 4.61292 15.1576 4.64491 15.137 4.68133C15.1164 4.71775 15.1032 4.75786 15.0983 4.79936C15.0934 4.84087 15.0968 4.88293 15.1083 4.92312L16.5403 9.77919L18.0686 14.9543C18.2782 15.719 18.175 16.5351 17.7815 17.2243C17.388 17.9136 16.7363 18.4199 15.9687 18.6327C15.2067 18.8688 14.3817 18.7947 13.6747 18.4265C12.9677 18.0583 12.4364 17.4261 12.1975 16.6688L10.4942 10.8931L9.23716 6.63464L8.36218 3.65544C8.19388 3.04651 8.27533 2.39605 8.58864 1.84677C8.90195 1.29749 9.42153 0.894267 10.0334 0.725556C10.6398 0.539362 11.2958 0.599639 11.8576 0.893201C12.4195 1.18676 12.8416 1.68971 13.0317 2.29203L13.9066 5.27122L15.3066 9.99675L15.5808 9.92133L13.23 1.96132C12.2238 -0.185325 10.188 0.371649 10.188 0.371649C9.49821 0.507731 8.8854 0.897489 8.47183 1.46315C8.05825 2.02881 7.87434 2.72878 7.95677 3.42337L10.1763 10.9656L11.9263 16.8921C13.0754 19.6045 15.8462 18.9982 15.8462 18.9982C19.3257 17.803 18.3428 14.6846 18.3428 14.6846L16.8845 9.73568L15.3533 4.54311L15.3299 4.5315Z" fill="black"/>
<path d="M15.3505 4.52848L16.8817 9.72105L18.34 14.6699C18.34 14.6699 19.3229 17.7884 15.8434 18.9836C15.8434 18.9836 13.0726 19.5898 11.9235 16.8775L10.1735 10.951L7.95397 3.40875C7.87153 2.71416 8.05545 2.0142 8.46902 1.44853C8.88259 0.882872 9.4954 0.493105 10.1852 0.357023C10.1852 0.357023 12.2268 -0.199942 13.2272 1.94671L15.578 9.91832L15.9834 9.79938L14.5251 5.07385L13.6501 2.09755C13.4103 1.33538 12.8768 0.698704 12.1662 0.326844C11.4556 -0.0450156 10.6259 -0.12178 9.85851 0.113351C9.08297 0.326182 8.42407 0.83646 8.0265 1.53211C7.62894 2.22777 7.52523 3.05192 7.73815 3.82357L8.61313 6.80277L9.84976 10.9945L11.5735 16.834C11.8622 17.7528 12.5054 18.5203 13.3621 18.9684C14.2187 19.4164 15.219 19.5085 16.1438 19.2243C17.0713 18.9642 17.8583 18.3507 18.3339 17.5171C18.8095 16.6834 18.9353 15.6969 18.6841 14.7715L17.1763 9.66304L15.718 4.73155C15.6915 4.65938 15.6398 4.59911 15.5723 4.56181C15.5048 4.52451 15.426 4.51268 15.3505 4.52848Z" fill="#333333"/>
<path d="M9.64258 6.64307L15.8141 7.67578L16.3158 10.2053L10.0771 9.32058V8.83613C10.0771 8.7317 9.6455 6.64886 9.6455 6.64886" fill="#5B688F"/>
</g>
<defs>
<clipPath id="clip0_81_4508">
<rect width="37" height="47" fill="white"/>
</clipPath>
</defs>
</svg>
