<svg xmlns="http://www.w3.org/2000/svg" width="69.402" height="57.547" viewBox="0 0 69.402 57.547"><defs><style>.a{fill:#006ff7;}</style></defs><g transform="translate(0 -43.729)"><g transform="translate(0 68.935)"><g transform="translate(0 0)"><path class="a" d="M59.236,234.895H52.442a10.139,10.139,0,0,0-2.672.359,10.175,10.175,0,0,0-9.065-5.574H28.7a10.175,10.175,0,0,0-9.065,5.574,10.139,10.139,0,0,0-2.672-.359H10.166A10.178,10.178,0,0,0,0,245.061v10.86a6.107,6.107,0,0,0,6.1,6.1H63.3a6.107,6.107,0,0,0,6.1-6.1v-10.86A10.178,10.178,0,0,0,59.236,234.895ZM18.53,239.847v18.108H6.1a2.036,2.036,0,0,1-2.033-2.033v-10.86a6.107,6.107,0,0,1,6.1-6.1H16.96a6.08,6.08,0,0,1,1.6.213C18.54,239.4,18.53,239.621,18.53,239.847ZM46.8,257.955H22.6V239.846a6.107,6.107,0,0,1,6.1-6.1H40.705a6.107,6.107,0,0,1,6.1,6.1Zm18.53-2.033a2.036,2.036,0,0,1-2.033,2.033H50.871V239.846c0-.226-.01-.45-.025-.672a6.086,6.086,0,0,1,1.6-.213h6.794a6.107,6.107,0,0,1,6.1,6.1Z" transform="translate(0 -229.68)"/></g></g><g transform="translate(4.529 54.949)"><g transform="translate(0 0)"><path class="a" d="M42.448,126.5a9.034,9.034,0,1,0,9.034,9.034A9.044,9.044,0,0,0,42.448,126.5Zm0,14a4.967,4.967,0,1,1,4.967-4.967A4.973,4.973,0,0,1,42.448,140.505Z" transform="translate(-33.414 -126.504)"/></g></g><g transform="translate(22.632 43.729)"><g transform="translate(0 0)"><path class="a" d="M179.031,43.729A12.069,12.069,0,1,0,191.1,55.8,12.083,12.083,0,0,0,179.031,43.729Zm0,20.072a8,8,0,1,1,8-8A8.012,8.012,0,0,1,179.031,63.8Z" transform="translate(-166.962 -43.729)"/></g></g><g transform="translate(46.805 54.949)"><g transform="translate(0 0)"><path class="a" d="M354.328,126.5a9.034,9.034,0,1,0,9.034,9.034A9.044,9.044,0,0,0,354.328,126.5Zm0,14a4.967,4.967,0,1,1,4.967-4.967A4.973,4.973,0,0,1,354.328,140.505Z" transform="translate(-345.294 -126.504)"/></g></g></g></svg>