<svg xmlns="http://www.w3.org/2000/svg" xmlns:xlink="http://www.w3.org/1999/xlink" width="561.723" height="330" viewBox="0 0 561.723 330"><defs><style>.a{fill:#f2f8ff;}.b{fill:#fdfdfd;}.c{opacity:0.4;}.d{isolation:isolate;}.e{fill:#2f3037;}.f{opacity:0.2;}.g{fill:#fff;}.h{fill:#00db99;}.i{fill:#fefe31;}.j{fill:red;}.k{fill:#6a6c7b;}.l{filter:url(#c);}.m{filter:url(#a);}</style><filter id="a" x="59" y="39" width="420" height="190" filterUnits="userSpaceOnUse"><feOffset dy="3" input="SourceAlpha"/><feGaussianBlur stdDeviation="10" result="b"/><feFlood flood-color="#006ff7" flood-opacity="0.102"/><feComposite operator="in" in2="b"/><feComposite in="SourceGraphic"/></filter><filter id="c" x="126.723" y="110.5" width="435" height="205" filterUnits="userSpaceOnUse"><feOffset dy="3" input="SourceAlpha"/><feGaussianBlur stdDeviation="12.5" result="d"/><feFlood flood-color="#006ff7" flood-opacity="0.149"/><feComposite operator="in" in2="d"/><feComposite in="SourceGraphic"/></filter></defs><g transform="translate(804.872 516.244)"><circle class="a" cx="165" cy="165" r="165" transform="translate(-804.872 -516.244)"/><g class="m" transform="matrix(1, 0, 0, 1, -804.87, -516.24)"><path class="b" d="M-705.616-450.244h339.487c5.665,0,10.257,4.07,10.257,9.091v111.818c0,5.02-4.592,9.091-10.257,9.091H-705.616c-5.664,0-10.256-4.071-10.256-9.091V-441.153C-715.872-446.174-711.28-450.244-705.616-450.244Z" transform="translate(804.87 516.24)"/></g><g class="c"><g class="d"><g class="d"><path class="e" d="M-687.656-414.673h2v11.429h-2Z"/><path class="e" d="M-678.968-414.673h1.824v11.429h-1.824Z"/><path class="e" d="M-675.544-407.39c0-2.529,1.52-4.353,4.177-4.353s4.178,1.824,4.178,4.353c0,2.545-1.52,4.369-4.178,4.369S-675.544-404.845-675.544-407.39Zm6.53,0c0-1.424-.72-2.913-2.353-2.913s-2.353,1.489-2.353,2.913c0,1.441.72,2.929,2.353,2.929S-669.014-405.949-669.014-407.39Z"/><path class="e" d="M-666.489-411.52h1.985l2.1,6.355h.032l2.017-6.355h1.888l-2.961,8.276h-2.048Z"/><path class="e" d="M-655.944-406.909a2.2,2.2,0,0,0,2.225,2.448,1.918,1.918,0,0,0,2.017-1.376h1.729a3.624,3.624,0,0,1-3.746,2.816c-2.593,0-4.05-1.808-4.05-4.353a4.073,4.073,0,0,1,4-4.369,4.082,4.082,0,0,1,3.906,4.834Zm4.258-1.2a2.164,2.164,0,0,0-2.081-2.193,2.163,2.163,0,0,0-2.177,2.193Z"/><path class="e" d="M-642.456-407.054c0,1.761,1.3,2.45,2.9,2.45,1.761,0,2.417-.865,2.417-1.729a1.359,1.359,0,0,0-.944-1.409c-.8-.3-1.841-.512-3.41-.945-1.952-.528-2.528-1.712-2.528-2.9,0-2.288,2.112-3.361,4.177-3.361,2.385,0,4.386,1.264,4.386,3.65h-2c-.1-1.473-1.088-2.017-2.465-2.017-.928,0-2.1.335-2.1,1.489,0,.8.544,1.248,1.36,1.472.176.048,2.705.705,3.3.88a3.025,3.025,0,0,1,2.225,2.913c0,2.562-2.273,3.586-4.546,3.586-2.609,0-4.722-1.249-4.77-4.082Z"/><path class="e" d="M-634.409-411.52h1.937l1.617,6.179h.032l1.552-6.179h1.841l1.489,6.179h.032l1.68-6.179h1.857l-2.593,8.276h-1.872l-1.537-6.147h-.032l-1.521,6.147h-1.921Z"/><path class="e" d="M-614.278-405.085c0,.448.1.624.432.624a2.606,2.606,0,0,0,.449-.031v1.263a4.542,4.542,0,0,1-1.153.208c-.736,0-1.264-.255-1.408-1.007a4.247,4.247,0,0,1-2.866,1.007c-1.488,0-2.833-.8-2.833-2.416,0-2.065,1.649-2.4,3.185-2.577,1.313-.24,2.482-.1,2.482-1.169,0-.944-.977-1.12-1.713-1.12-1.025,0-1.745.416-1.825,1.313h-1.825c.128-2.129,1.937-2.753,3.762-2.753,1.616,0,3.313.656,3.313,2.4Zm-1.825-2.305a6.487,6.487,0,0,1-2.24.5c-.785.128-1.489.416-1.489,1.377,0,.816,1.04,1.056,1.681,1.056.8,0,2.048-.416,2.048-1.568Z"/><path class="e" d="M-612.265-411.52h1.729v1.121h.032a2.763,2.763,0,0,1,2.561-1.344c2.61,0,3.874,1.984,3.874,4.4,0,2.225-1.12,4.321-3.57,4.321a3.218,3.218,0,0,1-2.769-1.3h-.032v4.129h-1.825Zm4.082,1.217c-1.537,0-2.321,1.168-2.321,2.929,0,1.665.849,2.913,2.321,2.913,1.665,0,2.289-1.473,2.289-2.913C-605.894-408.879-606.678-410.3-608.183-410.3Z"/><path class="e" d="M-596.712-405.9c.1,1.056.9,1.44,1.872,1.44.689,0,1.889-.143,1.841-1.088-.048-.961-1.376-1.072-2.7-1.377-1.344-.288-2.657-.768-2.657-2.449,0-1.809,1.953-2.368,3.457-2.368,1.7,0,3.234.7,3.458,2.545h-1.905c-.16-.864-.88-1.105-1.681-1.105-.528,0-1.5.128-1.5.848,0,.9,1.344,1.024,2.689,1.329,1.328.3,2.673.784,2.673,2.417,0,1.969-1.985,2.688-3.7,2.688-2.081,0-3.633-.927-3.665-2.88Z"/><path class="e" d="M-588.36-406.909a2.2,2.2,0,0,0,2.225,2.448,1.917,1.917,0,0,0,2.016-1.376h1.729a3.623,3.623,0,0,1-3.745,2.816c-2.594,0-4.05-1.808-4.05-4.353a4.073,4.073,0,0,1,4-4.369,4.082,4.082,0,0,1,3.9,4.834Zm4.257-1.2a2.163,2.163,0,0,0-2.08-2.193,2.162,2.162,0,0,0-2.177,2.193Z"/><path class="e" d="M-580.889-411.52h1.713v1.6h.032a2.67,2.67,0,0,1,2.417-1.824,4.218,4.218,0,0,1,.688.048v1.76a6.506,6.506,0,0,0-.784-.08c-1.249,0-2.241,1.008-2.241,2.833v3.938h-1.825Z"/><path class="e" d="M-576.073-411.52h1.985l2.1,6.355h.033l2.016-6.355h1.889l-2.961,8.276h-2.049Z"/><path class="e" d="M-566.905-414.673h1.824v1.729h-1.824Zm0,3.153h1.824v8.276h-1.824Z"/><path class="e" d="M-557.51-408.75A1.75,1.75,0,0,0-559.4-410.3c-.945,0-2.273.5-2.273,3.009,0,1.377.608,2.833,2.193,2.833a1.967,1.967,0,0,0,1.969-1.889h1.824a3.561,3.561,0,0,1-3.793,3.329c-2.593,0-4.018-1.839-4.018-4.273,0-2.5,1.361-4.449,4.082-4.449,1.92,0,3.553.96,3.729,2.993Z"/><path class="e" d="M-552.777-406.909a2.2,2.2,0,0,0,2.225,2.448,1.918,1.918,0,0,0,2.017-1.376h1.729a3.624,3.624,0,0,1-3.746,2.816c-2.593,0-4.05-1.808-4.05-4.353a4.073,4.073,0,0,1,4-4.369,4.082,4.082,0,0,1,3.906,4.834Zm4.258-1.2A2.164,2.164,0,0,0-550.6-410.3a2.163,2.163,0,0,0-2.177,2.193Z"/><path class="e" d="M-540.809-414.673h1.825v4.226h.032a3.013,3.013,0,0,1,2.465-1.3c2.609,0,3.873,1.984,3.873,4.4,0,2.225-1.12,4.321-3.569,4.321a2.953,2.953,0,0,1-2.865-1.36h-.032v1.137h-1.729Zm4.081,4.37c-1.536,0-2.32,1.168-2.32,2.929,0,1.665.848,2.913,2.32,2.913,1.665,0,2.29-1.473,2.29-2.913C-534.438-408.879-535.223-410.3-536.728-410.3Z"/><path class="e" d="M-529.657-406.909a2.2,2.2,0,0,0,2.225,2.448,1.918,1.918,0,0,0,2.017-1.376h1.729a3.623,3.623,0,0,1-3.746,2.816c-2.593,0-4.049-1.808-4.049-4.353a4.073,4.073,0,0,1,4-4.369,4.082,4.082,0,0,1,3.905,4.834Zm4.258-1.2a2.163,2.163,0,0,0-2.08-2.193,2.164,2.164,0,0,0-2.178,2.193Z"/><path class="e" d="M-516.6-408.75a1.749,1.749,0,0,0-1.889-1.553c-.944,0-2.273.5-2.273,3.009,0,1.377.609,2.833,2.193,2.833a1.966,1.966,0,0,0,1.969-1.889h1.825a3.562,3.562,0,0,1-3.794,3.329c-2.593,0-4.017-1.839-4.017-4.273,0-2.5,1.36-4.449,4.082-4.449,1.92,0,3.553.96,3.729,2.993Z"/><path class="e" d="M-506.358-405.085c0,.448.1.624.432.624a2.6,2.6,0,0,0,.448-.031v1.263a4.534,4.534,0,0,1-1.152.208c-.737,0-1.265-.255-1.409-1.007a4.244,4.244,0,0,1-2.865,1.007c-1.489,0-2.833-.8-2.833-2.416,0-2.065,1.648-2.4,3.185-2.577,1.313-.24,2.481-.1,2.481-1.169,0-.944-.976-1.12-1.713-1.12-1.024,0-1.744.416-1.824,1.313h-1.825c.128-2.129,1.936-2.753,3.761-2.753,1.617,0,3.314.656,3.314,2.4Zm-1.825-2.305a6.493,6.493,0,0,1-2.241.5c-.784.128-1.489.416-1.489,1.377,0,.816,1.041,1.056,1.681,1.056.8,0,2.049-.416,2.049-1.568Z"/><path class="e" d="M-497.126-403.244h-1.793V-404.4h-.032a2.778,2.778,0,0,1-2.353,1.375c-2.161,0-3.089-1.087-3.089-3.249v-5.25h1.825v5.075c0,1.456.592,1.984,1.584,1.984,1.521,0,2.033-.976,2.033-2.257v-4.8h1.825Z"/><path class="e" d="M-493.833-405.9c.1,1.056.9,1.44,1.873,1.44.689,0,1.889-.143,1.841-1.088-.048-.961-1.377-1.072-2.705-1.377-1.344-.288-2.657-.768-2.657-2.449,0-1.809,1.953-2.368,3.457-2.368,1.7,0,3.233.7,3.458,2.545h-1.9c-.16-.864-.881-1.105-1.681-1.105-.528,0-1.5.128-1.5.848,0,.9,1.344,1.024,2.689,1.329,1.328.3,2.673.784,2.673,2.417,0,1.969-1.985,2.688-3.7,2.688-2.081,0-3.633-.927-3.665-2.88Z"/><path class="e" d="M-485.481-406.909a2.2,2.2,0,0,0,2.225,2.448,1.918,1.918,0,0,0,2.017-1.376h1.729a3.624,3.624,0,0,1-3.746,2.816c-2.593,0-4.05-1.808-4.05-4.353a4.073,4.073,0,0,1,4-4.369,4.082,4.082,0,0,1,3.906,4.834Zm4.258-1.2A2.164,2.164,0,0,0-483.3-410.3a2.163,2.163,0,0,0-2.177,2.193Z"/><path class="e" d="M-473.514-414.673h1.825v1.729h-1.825Zm0,3.153h1.825v8.276h-1.825Z"/><path class="e" d="M-470.538-411.52h1.377V-414h1.825v2.48h1.648v1.361h-1.648v4.418c0,.752.064,1.137.88,1.137a3.069,3.069,0,0,0,.768-.065v1.409c-.4.031-.784.1-1.184.1-1.9,0-2.257-.736-2.289-2.113v-4.882h-1.377Z"/><path class="e" d="M-459.93-414.673h1.825v4.242h.032a2.893,2.893,0,0,1,2.481-1.312,2.616,2.616,0,0,1,2.929,2.816v5.683h-1.825v-5.2c-.032-1.3-.544-1.857-1.616-1.857a2.017,2.017,0,0,0-2,2.177v4.882h-1.825Z"/><path class="e" d="M-449.321-406.909a2.2,2.2,0,0,0,2.225,2.448,1.917,1.917,0,0,0,2.016-1.376h1.729a3.623,3.623,0,0,1-3.745,2.816c-2.593,0-4.05-1.808-4.05-4.353a4.073,4.073,0,0,1,4-4.369,4.082,4.082,0,0,1,3.9,4.834Zm4.258-1.2a2.164,2.164,0,0,0-2.081-2.193,2.162,2.162,0,0,0-2.177,2.193Z"/><path class="e" d="M-441.8-414.673h1.825v11.429H-441.8Z"/><path class="e" d="M-437.946-411.52h1.729v1.121h.032a2.763,2.763,0,0,1,2.561-1.344c2.609,0,3.874,1.984,3.874,4.4,0,2.225-1.121,4.321-3.57,4.321a3.218,3.218,0,0,1-2.769-1.3h-.032v4.129h-1.825Zm4.082,1.217c-1.537,0-2.321,1.168-2.321,2.929,0,1.665.849,2.913,2.321,2.913,1.665,0,2.289-1.473,2.289-2.913C-431.575-408.879-432.359-410.3-433.864-410.3Z"/><path class="e" d="M-423.77-411.52h1.729v1.153h.048a2.765,2.765,0,0,1,2.545-1.376,2.342,2.342,0,0,1,2.321,1.376,2.986,2.986,0,0,1,2.593-1.376c1.745,0,2.769.767,2.769,2.785v5.714h-1.824v-4.834c0-1.313-.08-2.225-1.505-2.225-1.233,0-1.761.817-1.761,2.209v4.85h-1.825v-5.315c0-1.135-.352-1.744-1.456-1.744a1.916,1.916,0,0,0-1.809,2.145v4.914h-1.825Z"/><path class="e" d="M-408.425-406.909a2.2,2.2,0,0,0,2.225,2.448,1.917,1.917,0,0,0,2.016-1.376h1.729a3.623,3.623,0,0,1-3.745,2.816c-2.593,0-4.05-1.808-4.05-4.353a4.073,4.073,0,0,1,4-4.369,4.082,4.082,0,0,1,3.9,4.834Zm4.258-1.2a2.164,2.164,0,0,0-2.081-2.193,2.162,2.162,0,0,0-2.177,2.193Z"/></g></g><g class="d"><g class="d"><path class="e" d="M-688.745-387.52h1.377V-390h1.825v2.48h1.648v1.361h-1.648v4.418c0,.752.064,1.137.88,1.137a3.069,3.069,0,0,0,.768-.065v1.409c-.4.031-.784.1-1.184.1-1.905,0-2.257-.736-2.289-2.113v-4.882h-1.377Z"/><path class="e" d="M-682.968-383.39c0-2.529,1.52-4.353,4.177-4.353s4.178,1.824,4.178,4.353c0,2.545-1.52,4.369-4.178,4.369S-682.968-380.845-682.968-383.39Zm6.53,0c0-1.424-.72-2.913-2.353-2.913s-2.353,1.489-2.353,2.913c0,1.441.721,2.929,2.353,2.929S-676.438-381.949-676.438-383.39Z"/><path class="e" d="M-668.6-390.673h1.825v1.729H-668.6Zm0,3.153h1.825v8.276H-668.6Z"/><path class="e" d="M-664.792-387.52h1.728v1.217l.032.032a2.962,2.962,0,0,1,2.577-1.472,2.617,2.617,0,0,1,2.93,2.816v5.683h-1.825v-5.2c-.032-1.3-.545-1.857-1.617-1.857a2.017,2.017,0,0,0-2,2.177v4.882h-1.824Z"/><path class="e" d="M-650.022-384.75a1.75,1.75,0,0,0-1.889-1.553c-.944,0-2.273.5-2.273,3.009,0,1.377.608,2.833,2.193,2.833a1.966,1.966,0,0,0,1.969-1.889h1.825a3.562,3.562,0,0,1-3.794,3.329c-2.593,0-4.018-1.839-4.018-4.273,0-2.5,1.361-4.449,4.082-4.449,1.921,0,3.553.96,3.73,2.993Z"/><path class="e" d="M-646.713-387.52H-645v1.6h.032a2.67,2.67,0,0,1,2.417-1.824,4.219,4.219,0,0,1,.688.048v1.76a6.507,6.507,0,0,0-.784-.08c-1.249,0-2.241,1.008-2.241,2.833v3.938h-1.825Z"/><path class="e" d="M-639.944-382.909a2.2,2.2,0,0,0,2.225,2.448,1.917,1.917,0,0,0,2.016-1.376h1.729a3.623,3.623,0,0,1-3.745,2.816c-2.594,0-4.05-1.808-4.05-4.353a4.073,4.073,0,0,1,4-4.369,4.082,4.082,0,0,1,3.905,4.834Zm4.257-1.2a2.163,2.163,0,0,0-2.08-2.193,2.162,2.162,0,0,0-2.177,2.193Z"/><path class="e" d="M-625.542-381.085c0,.448.1.624.432.624a2.6,2.6,0,0,0,.448-.031v1.263a4.535,4.535,0,0,1-1.152.208c-.736,0-1.265-.255-1.409-1.007a4.243,4.243,0,0,1-2.865,1.007c-1.488,0-2.833-.8-2.833-2.416,0-2.065,1.649-2.4,3.185-2.577,1.313-.24,2.482-.1,2.482-1.169,0-.944-.977-1.12-1.713-1.12-1.025,0-1.745.416-1.825,1.313h-1.825c.128-2.129,1.937-2.753,3.762-2.753,1.616,0,3.313.656,3.313,2.4Zm-1.825-2.305a6.487,6.487,0,0,1-2.24.5c-.785.128-1.489.416-1.489,1.377,0,.816,1.04,1.056,1.68,1.056.8,0,2.049-.416,2.049-1.568Z"/><path class="e" d="M-622.2-381.9c.1,1.056.9,1.44,1.872,1.44.689,0,1.89-.143,1.841-1.088-.048-.961-1.376-1.072-2.705-1.377-1.344-.288-2.657-.768-2.657-2.449,0-1.809,1.953-2.368,3.457-2.368,1.7,0,3.234.7,3.458,2.545h-1.9c-.16-.864-.88-1.105-1.681-1.105-.528,0-1.5.128-1.5.848,0,.9,1.344,1.024,2.689,1.329,1.329.3,2.673.784,2.673,2.417,0,1.969-1.985,2.688-3.7,2.688-2.081,0-3.634-.927-3.666-2.88Z"/><path class="e" d="M-613.848-382.909a2.2,2.2,0,0,0,2.225,2.448,1.918,1.918,0,0,0,2.017-1.376h1.729a3.624,3.624,0,0,1-3.746,2.816c-2.593,0-4.05-1.808-4.05-4.353a4.073,4.073,0,0,1,4-4.369,4.081,4.081,0,0,1,3.905,4.834Zm4.258-1.2a2.164,2.164,0,0,0-2.081-2.193,2.162,2.162,0,0,0-2.177,2.193Z"/><path class="e" d="M-602.761-387.52h1.376V-390h1.825v2.48h1.649v1.361h-1.649v4.418c0,.752.064,1.137.88,1.137a3.073,3.073,0,0,0,.769-.065v1.409c-.4.031-.784.1-1.185.1-1.9,0-2.257-.736-2.289-2.113v-4.882h-1.376Z"/><path class="e" d="M-596.6-390.673h1.825v4.242h.032a2.893,2.893,0,0,1,2.481-1.312,2.617,2.617,0,0,1,2.93,2.816v5.683h-1.826v-5.2c-.031-1.3-.544-1.857-1.616-1.857a2.017,2.017,0,0,0-2,2.177v4.882H-596.6Z"/><path class="e" d="M-585.993-382.909a2.2,2.2,0,0,0,2.225,2.448,1.918,1.918,0,0,0,2.017-1.376h1.729a3.623,3.623,0,0,1-3.746,2.816c-2.593,0-4.049-1.808-4.049-4.353a4.073,4.073,0,0,1,4-4.369,4.082,4.082,0,0,1,3.905,4.834Zm4.258-1.2a2.163,2.163,0,0,0-2.08-2.193,2.164,2.164,0,0,0-2.178,2.193Z"/><path class="e" d="M-572.649-382.909a2.2,2.2,0,0,0,2.225,2.448,1.918,1.918,0,0,0,2.017-1.376h1.729a3.624,3.624,0,0,1-3.746,2.816c-2.593,0-4.05-1.808-4.05-4.353a4.073,4.073,0,0,1,4-4.369,4.082,4.082,0,0,1,3.906,4.834Zm4.258-1.2a2.164,2.164,0,0,0-2.081-2.193,2.163,2.163,0,0,0-2.177,2.193Z"/><path class="e" d="M-565.993-387.52h1.36v-.688c0-2.112,1.1-2.465,2.289-2.465a5.142,5.142,0,0,1,1.281.112v1.425a3.1,3.1,0,0,0-.849-.1c-.5,0-.9.176-.9.864v.848h1.553v1.361h-1.553v6.915h-1.825v-6.915h-1.36Z"/><path class="e" d="M-561.241-387.52h1.36v-.688c0-2.112,1.1-2.465,2.289-2.465a5.142,5.142,0,0,1,1.281.112v1.425a3.1,3.1,0,0,0-.849-.1c-.5,0-.9.176-.9.864v.848h1.553v1.361h-1.553v6.915h-1.825v-6.915h-1.36Z"/><path class="e" d="M-553.961-382.909a2.2,2.2,0,0,0,2.225,2.448,1.918,1.918,0,0,0,2.017-1.376h1.729a3.624,3.624,0,0,1-3.746,2.816c-2.593,0-4.05-1.808-4.05-4.353a4.073,4.073,0,0,1,4-4.369,4.082,4.082,0,0,1,3.906,4.834Zm4.258-1.2a2.164,2.164,0,0,0-2.081-2.193,2.163,2.163,0,0,0-2.177,2.193Z"/><path class="e" d="M-540.9-384.75a1.749,1.749,0,0,0-1.889-1.553c-.944,0-2.273.5-2.273,3.009,0,1.377.608,2.833,2.193,2.833a1.966,1.966,0,0,0,1.969-1.889h1.825a3.562,3.562,0,0,1-3.794,3.329c-2.593,0-4.018-1.839-4.018-4.273,0-2.5,1.361-4.449,4.082-4.449,1.921,0,3.554.96,3.73,2.993Z"/><path class="e" d="M-538.426-387.52h1.377V-390h1.825v2.48h1.648v1.361h-1.648v4.418c0,.752.064,1.137.88,1.137a3.069,3.069,0,0,0,.768-.065v1.409c-.4.031-.784.1-1.184.1-1.9,0-2.257-.736-2.289-2.113v-4.882h-1.377Z"/><path class="e" d="M-532.218-390.673h1.825v1.729h-1.825Zm0,3.153h1.825v8.276h-1.825Z"/><path class="e" d="M-529.226-387.52h1.985l2.1,6.355h.032l2.017-6.355h1.888l-2.96,8.276h-2.049Z"/><path class="e" d="M-518.681-382.909a2.2,2.2,0,0,0,2.225,2.448,1.918,1.918,0,0,0,2.017-1.376h1.729a3.624,3.624,0,0,1-3.746,2.816c-2.593,0-4.05-1.808-4.05-4.353a4.073,4.073,0,0,1,4-4.369,4.081,4.081,0,0,1,3.905,4.834Zm4.258-1.2A2.164,2.164,0,0,0-516.5-386.3a2.162,2.162,0,0,0-2.177,2.193Z"/><path class="e" d="M-511.209-387.52h1.728v1.217l.032.032a2.962,2.962,0,0,1,2.577-1.472,2.617,2.617,0,0,1,2.93,2.816v5.683h-1.825v-5.2c-.032-1.3-.545-1.857-1.617-1.857a2.017,2.017,0,0,0-2,2.177v4.882h-1.824Z"/><path class="e" d="M-500.6-382.909a2.2,2.2,0,0,0,2.225,2.448,1.918,1.918,0,0,0,2.017-1.376h1.729a3.624,3.624,0,0,1-3.746,2.816c-2.593,0-4.05-1.808-4.05-4.353a4.073,4.073,0,0,1,4-4.369,4.081,4.081,0,0,1,3.9,4.834Zm4.258-1.2a2.164,2.164,0,0,0-2.081-2.193,2.163,2.163,0,0,0-2.177,2.193Z"/><path class="e" d="M-491.753-381.9c.1,1.056.9,1.44,1.872,1.44.689,0,1.889-.143,1.841-1.088-.048-.961-1.377-1.072-2.7-1.377-1.344-.288-2.657-.768-2.657-2.449,0-1.809,1.953-2.368,3.457-2.368,1.7,0,3.234.7,3.458,2.545h-1.9c-.16-.864-.88-1.105-1.681-1.105-.528,0-1.5.128-1.5.848,0,.9,1.344,1.024,2.689,1.329,1.328.3,2.673.784,2.673,2.417,0,1.969-1.985,2.688-3.7,2.688-2.081,0-3.633-.927-3.665-2.88Z"/><path class="e" d="M-480.762-383.39c0-2.529,1.52-4.353,4.178-4.353s4.177,1.824,4.177,4.353c0,2.545-1.52,4.369-4.177,4.369S-480.762-380.845-480.762-383.39Zm6.531,0c0-1.424-.721-2.913-2.353-2.913s-2.354,1.489-2.354,2.913c0,1.441.721,2.929,2.354,2.929S-474.231-381.949-474.231-383.39Z"/><path class="e" d="M-471.706-387.52h1.36v-.688c0-2.112,1.105-2.465,2.289-2.465a5.136,5.136,0,0,1,1.281.112v1.425a3.1,3.1,0,0,0-.849-.1c-.5,0-.9.176-.9.864v.848h1.553v1.361h-1.553v6.915h-1.825v-6.915h-1.36Z"/><path class="e" d="M-461.4-387.52h1.728v1.153h.049a2.762,2.762,0,0,1,2.544-1.376,2.342,2.342,0,0,1,2.321,1.376,2.987,2.987,0,0,1,2.593-1.376c1.745,0,2.77.767,2.77,2.785v5.714h-1.825v-4.834c0-1.313-.08-2.225-1.505-2.225-1.232,0-1.761.817-1.761,2.209v4.85h-1.825v-5.315c0-1.135-.352-1.744-1.456-1.744a1.917,1.917,0,0,0-1.809,2.145v4.914H-461.4Z"/><path class="e" d="M-448.395-387.52h2l2.161,6.179h.032l2.1-6.179h1.9l-3.217,8.724c-.592,1.488-1.024,2.833-2.929,2.833a8.249,8.249,0,0,1-1.264-.1V-377.6a5.326,5.326,0,0,0,.864.113c.848,0,1.056-.449,1.28-1.153l.208-.64Z"/><path class="e" d="M-435.483-387.52h1.937l1.617,6.179h.032l1.552-6.179h1.841l1.488,6.179h.033l1.68-6.179h1.857l-2.593,8.276h-1.873l-1.536-6.147h-.032L-431-379.244h-1.921Z"/><path class="e" d="M-422.282-387.52h1.712v1.6h.032a2.671,2.671,0,0,1,2.417-1.824,4.234,4.234,0,0,1,.689.048v1.76a6.5,6.5,0,0,0-.785-.08c-1.248,0-2.241,1.008-2.241,2.833v3.938h-1.824Z"/><path class="e" d="M-416.6-390.673h1.825v1.729H-416.6Zm0,3.153h1.825v8.276H-416.6Z"/><path class="e" d="M-413.627-387.52h1.377V-390h1.825v2.48h1.648v1.361h-1.648v4.418c0,.752.064,1.137.88,1.137a3.069,3.069,0,0,0,.768-.065v1.409c-.4.031-.784.1-1.184.1-1.9,0-2.257-.736-2.289-2.113v-4.882h-1.377Z"/><path class="e" d="M-407.419-390.673h1.825v1.729h-1.825Zm0,3.153h1.825v8.276h-1.825Z"/><path class="e" d="M-403.61-387.52h1.728v1.217l.032.032a2.963,2.963,0,0,1,2.578-1.472,2.617,2.617,0,0,1,2.929,2.816v5.683h-1.825v-5.2c-.032-1.3-.544-1.857-1.617-1.857a2.017,2.017,0,0,0-2,2.177v4.882h-1.824Z"/><path class="e" d="M-386.776-379.677c0,2.482-1.456,3.714-4.065,3.714-1.665,0-3.538-.641-3.7-2.577h1.825c.224,1.041,1.056,1.217,1.985,1.217a1.872,1.872,0,0,0,2.128-2.114V-380.7h-.031a2.834,2.834,0,0,1-2.481,1.457c-2.626,0-3.714-1.985-3.714-4.354,0-2.225,1.392-4.145,3.745-4.145a2.6,2.6,0,0,1,2.45,1.36h.031v-1.137h1.825Zm-1.825-3.888c0-1.425-.64-2.738-2.224-2.738-1.617,0-2.177,1.5-2.177,2.881,0,1.36.656,2.737,2.177,2.737C-389.208-380.685-388.6-382.157-388.6-383.565Z"/></g></g><g class="d"><g class="d"><path class="e" d="M-686.536-357.9c.1,1.056.9,1.44,1.873,1.44.688,0,1.889-.143,1.841-1.088-.048-.961-1.377-1.072-2.7-1.377-1.345-.288-2.657-.768-2.657-2.449,0-1.809,1.953-2.368,3.457-2.368,1.7,0,3.233.7,3.457,2.545h-1.9c-.16-.864-.881-1.105-1.681-1.105-.528,0-1.5.128-1.5.848,0,.9,1.344,1.024,2.689,1.329,1.328.3,2.672.784,2.672,2.417,0,1.969-1.984,2.688-3.7,2.688-2.081,0-3.633-.927-3.665-2.88Z"/><path class="e" d="M-680.441-363.52h1.377V-366h1.824v2.48h1.649v1.361h-1.649v4.418c0,.752.065,1.137.881,1.137a3.069,3.069,0,0,0,.768-.065v1.409c-.4.031-.784.1-1.184.1-1.9,0-2.257-.736-2.289-2.113v-4.882h-1.377Z"/><path class="e" d="M-674.232-366.673h1.824v1.729h-1.824Zm0,3.153h1.824v8.276h-1.824Z"/><path class="e" d="M-670.376-366.673h1.824v11.429h-1.824Z"/><path class="e" d="M-665.144-358.909a2.2,2.2,0,0,0,2.225,2.448,1.918,1.918,0,0,0,2.017-1.376h1.729a3.624,3.624,0,0,1-3.746,2.816c-2.593,0-4.05-1.808-4.05-4.353a4.073,4.073,0,0,1,4-4.369,4.081,4.081,0,0,1,3.9,4.834Zm4.258-1.2a2.164,2.164,0,0,0-2.081-2.193,2.163,2.163,0,0,0-2.177,2.193Z"/><path class="e" d="M-646.294-357.085c0,.448.1.624.432.624a2.6,2.6,0,0,0,.448-.031v1.263a4.534,4.534,0,0,1-1.152.208c-.736,0-1.265-.255-1.409-1.007a4.243,4.243,0,0,1-2.865,1.007c-1.488,0-2.833-.8-2.833-2.416,0-2.065,1.649-2.4,3.185-2.577,1.313-.24,2.482-.1,2.482-1.169,0-.944-.977-1.12-1.713-1.12-1.025,0-1.745.416-1.825,1.313h-1.825c.128-2.129,1.937-2.753,3.762-2.753,1.616,0,3.313.656,3.313,2.4Zm-1.825-2.305a6.487,6.487,0,0,1-2.24.5c-.785.128-1.489.416-1.489,1.377,0,.816,1.04,1.056,1.681,1.056.8,0,2.048-.416,2.048-1.568Z"/><path class="e" d="M-644.328-363.52h1.728v1.217l.033.032a2.961,2.961,0,0,1,2.577-1.472,2.617,2.617,0,0,1,2.929,2.816v5.683h-1.825v-5.2c-.032-1.3-.544-1.857-1.616-1.857a2.017,2.017,0,0,0-2,2.177v4.882h-1.825Z"/><path class="e" d="M-627.35-355.244h-1.728v-1.12h-.032a2.748,2.748,0,0,1-2.561,1.343c-2.609,0-3.874-1.936-3.874-4.416,0-2.994,1.777-4.306,3.586-4.306a3.191,3.191,0,0,1,2.753,1.3h.032v-4.226h1.824Zm-4.081-1.217c1.633,0,2.321-1.488,2.321-2.929,0-1.825-.881-2.913-2.289-2.913-1.713,0-2.321,1.521-2.321,3.009C-633.72-357.869-633.016-356.461-631.431-356.461Z"/><path class="e" d="M-621.753-363.52h1.376V-366h1.825v2.48h1.649v1.361h-1.649v4.418c0,.752.064,1.137.88,1.137a3.081,3.081,0,0,0,.769-.065v1.409c-.4.031-.785.1-1.185.1-1.9,0-2.257-.736-2.289-2.113v-4.882h-1.376Z"/><path class="e" d="M-615.593-366.673h1.825v4.242h.032a2.893,2.893,0,0,1,2.481-1.312,2.616,2.616,0,0,1,2.929,2.816v5.683h-1.825v-5.2c-.032-1.3-.544-1.857-1.616-1.857a2.017,2.017,0,0,0-2,2.177v4.882h-1.825Z"/><path class="e" d="M-604.985-358.909a2.2,2.2,0,0,0,2.225,2.448,1.918,1.918,0,0,0,2.017-1.376h1.729a3.624,3.624,0,0,1-3.746,2.816c-2.593,0-4.05-1.808-4.05-4.353a4.073,4.073,0,0,1,4-4.369,4.082,4.082,0,0,1,3.906,4.834Zm4.258-1.2a2.164,2.164,0,0,0-2.081-2.193,2.163,2.163,0,0,0-2.177,2.193Z"/><path class="e" d="M-587.479-360.75a1.749,1.749,0,0,0-1.889-1.553c-.944,0-2.273.5-2.273,3.009,0,1.377.609,2.833,2.193,2.833a1.966,1.966,0,0,0,1.969-1.889h1.825a3.562,3.562,0,0,1-3.794,3.329c-2.593,0-4.017-1.839-4.017-4.273,0-2.5,1.361-4.449,4.082-4.449,1.92,0,3.553.96,3.729,2.993Z"/><path class="e" d="M-584.121-366.673h1.825v11.429h-1.825Z"/><path class="e" d="M-578.889-358.909a2.2,2.2,0,0,0,2.225,2.448,1.918,1.918,0,0,0,2.017-1.376h1.729a3.623,3.623,0,0,1-3.746,2.816c-2.593,0-4.049-1.808-4.049-4.353a4.073,4.073,0,0,1,4-4.369,4.082,4.082,0,0,1,3.9,4.834Zm4.258-1.2a2.163,2.163,0,0,0-2.08-2.193,2.164,2.164,0,0,0-2.178,2.193Z"/><path class="e" d="M-564.486-357.085c0,.448.1.624.432.624a2.6,2.6,0,0,0,.448-.031v1.263a4.534,4.534,0,0,1-1.152.208c-.737,0-1.265-.255-1.409-1.007a4.244,4.244,0,0,1-2.865,1.007c-1.489,0-2.833-.8-2.833-2.416,0-2.065,1.648-2.4,3.185-2.577,1.313-.24,2.481-.1,2.481-1.169,0-.944-.976-1.12-1.713-1.12-1.024,0-1.744.416-1.824,1.313h-1.825c.128-2.129,1.936-2.753,3.761-2.753,1.617,0,3.314.656,3.314,2.4Zm-1.825-2.305a6.488,6.488,0,0,1-2.241.5c-.784.128-1.489.416-1.489,1.377,0,.816,1.041,1.056,1.681,1.056.8,0,2.049-.416,2.049-1.568Z"/><path class="e" d="M-562.521-363.52h1.712v1.6h.033a2.67,2.67,0,0,1,2.417-1.824,4.218,4.218,0,0,1,.688.048v1.76a6.5,6.5,0,0,0-.785-.08c-1.248,0-2.24,1.008-2.24,2.833v3.938h-1.825Z"/><path class="e" d="M-549.958-357.085c0,.448.1.624.432.624a2.6,2.6,0,0,0,.448-.031v1.263a4.534,4.534,0,0,1-1.152.208c-.737,0-1.265-.255-1.409-1.007a4.245,4.245,0,0,1-2.865,1.007c-1.489,0-2.833-.8-2.833-2.416,0-2.065,1.648-2.4,3.185-2.577,1.313-.24,2.481-.1,2.481-1.169,0-.944-.976-1.12-1.713-1.12-1.024,0-1.744.416-1.824,1.313h-1.825c.128-2.129,1.936-2.753,3.761-2.753,1.617,0,3.314.656,3.314,2.4Zm-1.825-2.305a6.493,6.493,0,0,1-2.241.5c-.785.128-1.489.416-1.489,1.377,0,.816,1.041,1.056,1.681,1.056.8,0,2.049-.416,2.049-1.568Z"/><path class="e" d="M-547.993-363.52h1.728v1.217l.033.032a2.961,2.961,0,0,1,2.577-1.472,2.617,2.617,0,0,1,2.929,2.816v5.683h-1.825v-5.2c-.032-1.3-.544-1.857-1.616-1.857a2.017,2.017,0,0,0-2,2.177v4.882h-1.825Z"/><path class="e" d="M-533.223-360.75a1.75,1.75,0,0,0-1.889-1.553c-.945,0-2.273.5-2.273,3.009,0,1.377.608,2.833,2.193,2.833a1.966,1.966,0,0,0,1.969-1.889h1.825a3.562,3.562,0,0,1-3.794,3.329c-2.593,0-4.018-1.839-4.018-4.273,0-2.5,1.361-4.449,4.082-4.449,1.92,0,3.553.96,3.73,2.993Z"/><path class="e" d="M-528.489-358.909a2.2,2.2,0,0,0,2.225,2.448,1.918,1.918,0,0,0,2.017-1.376h1.729a3.623,3.623,0,0,1-3.746,2.816c-2.593,0-4.049-1.808-4.049-4.353a4.072,4.072,0,0,1,4-4.369,4.082,4.082,0,0,1,3.906,4.834Zm4.258-1.2a2.164,2.164,0,0,0-2.081-2.193,2.163,2.163,0,0,0-2.177,2.193Z"/><path class="e" d="M-516.954-359.39c0-2.529,1.521-4.353,4.178-4.353s4.178,1.824,4.178,4.353c0,2.545-1.521,4.369-4.178,4.369S-516.954-356.845-516.954-359.39Zm6.531,0c0-1.424-.72-2.913-2.353-2.913s-2.353,1.489-2.353,2.913c0,1.441.72,2.929,2.353,2.929S-510.423-357.949-510.423-359.39Z"/><path class="e" d="M-507.9-363.52h1.36v-.688c0-2.112,1.1-2.465,2.289-2.465a5.136,5.136,0,0,1,1.281.112v1.425a3.092,3.092,0,0,0-.848-.1c-.5,0-.9.176-.9.864v.848h1.552v1.361h-1.552v6.915h-1.826v-6.915h-1.36Z"/><path class="e" d="M-497.594-363.52h1.729v1.153h.048a2.765,2.765,0,0,1,2.545-1.376,2.343,2.343,0,0,1,2.321,1.376,2.985,2.985,0,0,1,2.593-1.376c1.745,0,2.769.767,2.769,2.785v5.714h-1.825v-4.834c0-1.313-.08-2.225-1.5-2.225-1.233,0-1.761.817-1.761,2.209v4.85H-492.5v-5.315c0-1.135-.352-1.744-1.456-1.744a1.916,1.916,0,0,0-1.809,2.145v4.914h-1.825Z"/><path class="e" d="M-484.586-363.52h2l2.16,6.179h.032l2.1-6.179h1.9l-3.217,8.724c-.593,1.488-1.025,2.833-2.93,2.833a8.25,8.25,0,0,1-1.264-.1V-353.6a5.326,5.326,0,0,0,.864.113c.849,0,1.057-.449,1.281-1.153l.208-.64Z"/><path class="e" d="M-470.874-366.673h1.825v1.729h-1.825Zm0,3.153h1.825v8.276h-1.825Z"/><path class="e" d="M-459.271-355.244H-461v-1.12h-.032a2.747,2.747,0,0,1-2.561,1.343c-2.609,0-3.873-1.936-3.873-4.416,0-2.994,1.777-4.306,3.585-4.306a3.192,3.192,0,0,1,2.754,1.3h.031v-4.226h1.825Zm-4.082-1.217c1.633,0,2.321-1.488,2.321-2.929,0-1.825-.88-2.913-2.288-2.913-1.713,0-2.322,1.521-2.322,3.009C-465.642-357.869-464.937-356.461-463.353-356.461Z"/><path class="e" d="M-455.866-358.909a2.2,2.2,0,0,0,2.225,2.448,1.918,1.918,0,0,0,2.017-1.376h1.729a3.623,3.623,0,0,1-3.746,2.816c-2.593,0-4.049-1.808-4.049-4.353a4.073,4.073,0,0,1,4-4.369,4.082,4.082,0,0,1,3.9,4.834Zm4.258-1.2a2.163,2.163,0,0,0-2.08-2.193,2.164,2.164,0,0,0-2.178,2.193Z"/><path class="e" d="M-441.463-357.085c0,.448.1.624.432.624a2.6,2.6,0,0,0,.448-.031v1.263a4.534,4.534,0,0,1-1.152.208c-.737,0-1.265-.255-1.409-1.007a4.244,4.244,0,0,1-2.865,1.007c-1.489,0-2.833-.8-2.833-2.416,0-2.065,1.648-2.4,3.185-2.577,1.313-.24,2.481-.1,2.481-1.169,0-.944-.976-1.12-1.713-1.12-1.024,0-1.744.416-1.824,1.313h-1.825c.128-2.129,1.936-2.753,3.761-2.753,1.617,0,3.314.656,3.314,2.4Zm-1.825-2.305a6.493,6.493,0,0,1-2.241.5c-.784.128-1.489.416-1.489,1.377,0,.816,1.041,1.056,1.681,1.056.8,0,2.049-.416,2.049-1.568Z"/><path class="e" d="M-438.122-357.9c.1,1.056.9,1.44,1.873,1.44.688,0,1.889-.143,1.841-1.088-.048-.961-1.377-1.072-2.705-1.377-1.345-.288-2.657-.768-2.657-2.449,0-1.809,1.953-2.368,3.457-2.368,1.7,0,3.233.7,3.458,2.545h-1.9c-.16-.864-.881-1.105-1.681-1.105-.528,0-1.5.128-1.5.848,0,.9,1.344,1.024,2.689,1.329,1.328.3,2.673.784,2.673,2.417,0,1.969-1.985,2.688-3.7,2.688-2.081,0-3.633-.927-3.665-2.88Z"/><path class="e" d="M-431.05-357.4h2.224v2.161h-2.224Z"/></g></g></g><g class="f" transform="translate(0 4)"><g transform="translate(-715.87 -303.752)"><path d="M-654.118-269.44a.428.428,0,0,0-.126-.307l-7.775-7.775a.43.43,0,0,0-.607,0l-7.161,7.161-7.475-7.475a.431.431,0,0,0-.607,0L-685-270.7l-7.512-7.512a.43.43,0,0,0-.607,0l-7.162,7.161-7.475-7.475a.43.43,0,0,0-.607,0l-7.382,7.389a.431.431,0,0,0,0,.607.431.431,0,0,0,.607,0l7.076-7.076,7.471,7.471a.43.43,0,0,0,.607,0,.46.46,0,0,0,.026-.039.481.481,0,0,0,.062-.041l7.077-7.076,7.471,7.469a.424.424,0,0,0,.39.11.434.434,0,0,0,.313-.124l7.079-7.076,7.469,7.471a.432.432,0,0,0,.607,0,.174.174,0,0,0,.025-.039.324.324,0,0,0,.063-.043l7.076-7.076,7.469,7.469a.432.432,0,0,0,.607,0A.406.406,0,0,0-654.118-269.44Z" transform="translate(715.87 301.834)"/><path d="M-654.119-281.991a.43.43,0,0,0-.126-.308l-7.775-7.775a.433.433,0,0,0-.607,0l-7.161,7.16-7.475-7.475a.433.433,0,0,0-.607,0L-685-283.254l-7.512-7.512a.431.431,0,0,0-.607,0l-7.161,7.161-7.476-7.476a.428.428,0,0,0-.607,0l-7.38,7.389a.43.43,0,0,0,0,.607.43.43,0,0,0,.607,0l7.077-7.076,7.471,7.469a.43.43,0,0,0,.607,0,.243.243,0,0,0,.026-.037.41.41,0,0,0,.063-.042l7.077-7.077,7.47,7.47a.428.428,0,0,0,.389.11.43.43,0,0,0,.315-.124l7.079-7.08L-670.1-282a.433.433,0,0,0,.607,0,.139.139,0,0,0,.024-.038.417.417,0,0,0,.063-.043l7.078-7.076,7.47,7.472a.428.428,0,0,0,.6,0h0A.405.405,0,0,0-654.119-281.991Z" transform="translate(715.87 302.793)"/><path d="M-654.119-294.544a.423.423,0,0,0-.126-.308l-7.775-7.771a.43.43,0,0,0-.607,0l-7.161,7.162-7.475-7.475a.428.428,0,0,0-.607,0h0L-685-295.8l-7.512-7.512a.435.435,0,0,0-.607,0l-7.162,7.163-7.475-7.475a.431.431,0,0,0-.607,0l-7.382,7.38a.431.431,0,0,0,0,.607.431.431,0,0,0,.607,0h0l7.076-7.075,7.471,7.469a.429.429,0,0,0,.606,0h0a.257.257,0,0,0,.026-.04.7.7,0,0,0,.062-.041l7.077-7.078,7.47,7.472a.436.436,0,0,0,.39.11.426.426,0,0,0,.313-.126l7.079-7.078,7.469,7.472a.431.431,0,0,0,.607,0,.126.126,0,0,0,.025-.039.322.322,0,0,0,.063-.042l7.076-7.078,7.469,7.47a.429.429,0,0,0,.606,0h0A.4.4,0,0,0-654.119-294.544Z" transform="translate(715.87 303.752)"/></g></g><g class="l" transform="matrix(1, 0, 0, 1, -804.87, -516.24)"><path class="g" d="M-630.392-371.244H-290.9c5.664,0,10.256,4.07,10.256,9.091v111.818c0,5.021-4.592,9.091-10.256,9.091H-630.392c-5.665,0-10.257-4.07-10.257-9.091V-362.153C-640.649-367.174-636.057-371.244-630.392-371.244Z" transform="translate(804.87 516.24)"/></g><path class="h" d="M-280.965-296.244h.188a19.952,19.952,0,0,1,19.906,20h0a19.953,19.953,0,0,1-19.906,20h-.188a19.955,19.955,0,0,1-19.906-20h0A19.954,19.954,0,0,1-280.965-296.244Z"/><path class="g" d="M-270.881-280.34a.532.532,0,0,1-.228.346l-14.45,9.927a.543.543,0,0,1-.3.094.539.539,0,0,1-.427-.211l-4.475-5.868a.54.54,0,0,1-.1-.4.525.525,0,0,1,.206-.351l1.222-.931a.533.533,0,0,1,.4-.106.54.54,0,0,1,.356.206l3.272,4.3,12.826-8.808a.53.53,0,0,1,.4-.084.514.514,0,0,1,.342.221l.871,1.268A.535.535,0,0,1-270.881-280.34Z"/><rect class="i" width="42" height="20" transform="translate(-389.295 -340.243)"/><rect class="j" width="42" height="1" transform="translate(-389.295 -320.743)"/><rect class="i" width="102.788" height="20" transform="translate(-504.999 -315.57)"/><rect class="j" width="102.788" height="1" transform="translate(-504.999 -296.07)"/><rect class="i" width="37.426" height="20" transform="translate(-618.872 -291.424)"/><rect class="j" width="37.426" height="1" transform="translate(-618.872 -271.924)"/><rect class="i" width="46.107" height="20" transform="translate(-517.765 -291.424)"/><rect class="j" width="46.107" height="1" transform="translate(-517.765 -271.924)"/><g class="d"><g class="d"><path class="e" d="M-615.4-335.6h2v11.429h-2Z"/><path class="e" d="M-606.713-335.6h1.824v11.429h-1.824Z"/><path class="e" d="M-603.29-328.317c0-2.529,1.521-4.353,4.178-4.353s4.178,1.824,4.178,4.353c0,2.545-1.521,4.369-4.178,4.369S-603.29-325.772-603.29-328.317Zm6.531,0c0-1.425-.72-2.913-2.353-2.913s-2.353,1.488-2.353,2.913c0,1.441.72,2.929,2.353,2.929S-596.759-326.876-596.759-328.317Z"/><path class="e" d="M-594.234-332.447h1.985l2.1,6.355h.032l2.016-6.355h1.889l-2.961,8.276h-2.049Z"/><path class="e" d="M-583.689-327.836a2.2,2.2,0,0,0,2.225,2.448,1.918,1.918,0,0,0,2.017-1.376h1.729a3.625,3.625,0,0,1-3.746,2.816c-2.593,0-4.05-1.808-4.05-4.353a4.073,4.073,0,0,1,4-4.369,4.082,4.082,0,0,1,3.906,4.834Zm4.258-1.2a2.163,2.163,0,0,0-2.081-2.192,2.163,2.163,0,0,0-2.177,2.192Z"/><path class="e" d="M-570.2-327.981c0,1.761,1.3,2.449,2.9,2.449,1.761,0,2.417-.864,2.417-1.728a1.358,1.358,0,0,0-.944-1.409c-.8-.3-1.841-.512-3.41-.945-1.952-.528-2.529-1.713-2.529-2.9,0-2.288,2.113-3.362,4.178-3.362,2.385,0,4.386,1.265,4.386,3.651h-2c-.1-1.473-1.088-2.018-2.465-2.018-.928,0-2.1.336-2.1,1.49,0,.8.544,1.248,1.361,1.472.176.048,2.705.7,3.3.88a3.025,3.025,0,0,1,2.225,2.913c0,2.562-2.273,3.586-4.546,3.586-2.609,0-4.722-1.249-4.77-4.082Z"/><path class="e" d="M-562.154-332.447h1.937l1.617,6.179h.032l1.552-6.179h1.841l1.488,6.179h.033l1.68-6.179h1.857l-2.593,8.276h-1.873l-1.536-6.147h-.032l-1.521,6.147h-1.921Z"/><path class="e" d="M-542.023-326.012c0,.448.1.624.432.624a2.6,2.6,0,0,0,.448-.031v1.263a4.534,4.534,0,0,1-1.152.208c-.736,0-1.265-.256-1.409-1.008a4.239,4.239,0,0,1-2.865,1.008c-1.488,0-2.833-.8-2.833-2.417,0-2.064,1.649-2.4,3.185-2.576,1.313-.24,2.482-.1,2.482-1.169,0-.944-.977-1.12-1.713-1.12-1.025,0-1.745.416-1.825,1.313H-549.1c.128-2.129,1.937-2.753,3.762-2.753,1.616,0,3.313.656,3.313,2.4Zm-1.825-2.3a6.511,6.511,0,0,1-2.24.5c-.785.128-1.489.416-1.489,1.377,0,.816,1.04,1.056,1.681,1.056.8,0,2.048-.416,2.048-1.569Z"/><path class="e" d="M-540.01-332.447h1.729v1.12h.032a2.764,2.764,0,0,1,2.561-1.343c2.609,0,3.874,1.984,3.874,4.4,0,2.225-1.121,4.321-3.57,4.321a3.219,3.219,0,0,1-2.769-1.3h-.032v4.13h-1.825Zm4.082,1.217c-1.537,0-2.321,1.168-2.321,2.929,0,1.665.849,2.913,2.321,2.913,1.665,0,2.289-1.473,2.289-2.913C-533.639-329.806-534.423-331.23-535.928-331.23Z"/><path class="e" d="M-524.458-326.829c.1,1.057.9,1.441,1.873,1.441.689,0,1.889-.144,1.841-1.088-.048-.961-1.377-1.072-2.7-1.377-1.344-.288-2.657-.769-2.657-2.449,0-1.809,1.953-2.368,3.457-2.368,1.7,0,3.233.7,3.458,2.545H-521.1c-.16-.865-.881-1.105-1.681-1.105-.528,0-1.5.128-1.5.848,0,.9,1.344,1.024,2.689,1.329,1.328.3,2.673.784,2.673,2.417,0,1.969-1.985,2.688-3.7,2.688-2.081,0-3.633-.927-3.665-2.881Z"/><path class="e" d="M-516.1-327.836a2.2,2.2,0,0,0,2.225,2.448,1.918,1.918,0,0,0,2.016-1.376h1.729a3.624,3.624,0,0,1-3.745,2.816c-2.594,0-4.05-1.808-4.05-4.353a4.073,4.073,0,0,1,4-4.369,4.082,4.082,0,0,1,3.9,4.834Zm4.257-1.2a2.163,2.163,0,0,0-2.08-2.192,2.162,2.162,0,0,0-2.177,2.192Z"/><path class="e" d="M-508.634-332.447h1.713v1.6h.032a2.67,2.67,0,0,1,2.417-1.824,4.385,4.385,0,0,1,.688.047v1.761a6.507,6.507,0,0,0-.784-.08c-1.249,0-2.241,1.008-2.241,2.833v3.938h-1.825Z"/><path class="e" d="M-503.818-332.447h1.985l2.1,6.355h.032l2.017-6.355h1.889l-2.961,8.276h-2.049Z"/><path class="e" d="M-494.65-335.6h1.824v1.728h-1.824Zm0,3.153h1.824v8.276h-1.824Z"/><path class="e" d="M-485.255-329.677a1.751,1.751,0,0,0-1.89-1.553c-.944,0-2.272.5-2.272,3.009,0,1.377.608,2.833,2.192,2.833a1.967,1.967,0,0,0,1.97-1.889h1.824a3.562,3.562,0,0,1-3.794,3.329c-2.592,0-4.017-1.84-4.017-4.273,0-2.5,1.361-4.449,4.082-4.449,1.92,0,3.553.96,3.729,2.993Z"/><path class="e" d="M-480.522-327.836a2.2,2.2,0,0,0,2.225,2.448,1.918,1.918,0,0,0,2.017-1.376h1.729a3.625,3.625,0,0,1-3.746,2.816c-2.593,0-4.05-1.808-4.05-4.353a4.073,4.073,0,0,1,4-4.369,4.082,4.082,0,0,1,3.906,4.834Zm4.258-1.2a2.163,2.163,0,0,0-2.081-2.192,2.162,2.162,0,0,0-2.177,2.192Z"/><path class="e" d="M-468.554-335.6h1.825v4.225h.032a3.014,3.014,0,0,1,2.465-1.3c2.608,0,3.873,1.984,3.873,4.4,0,2.225-1.12,4.321-3.569,4.321a2.953,2.953,0,0,1-2.865-1.36h-.032v1.137h-1.729Zm4.081,4.37c-1.536,0-2.32,1.168-2.32,2.929,0,1.665.848,2.913,2.32,2.913,1.665,0,2.289-1.473,2.289-2.913C-462.184-329.806-462.968-331.23-464.473-331.23Z"/><path class="e" d="M-457.4-327.836a2.2,2.2,0,0,0,2.225,2.448,1.918,1.918,0,0,0,2.017-1.376h1.729a3.625,3.625,0,0,1-3.746,2.816c-2.593,0-4.05-1.808-4.05-4.353a4.073,4.073,0,0,1,4-4.369,4.082,4.082,0,0,1,3.906,4.834Zm4.258-1.2a2.163,2.163,0,0,0-2.081-2.192,2.162,2.162,0,0,0-2.177,2.192Z"/><path class="e" d="M-444.344-329.677a1.749,1.749,0,0,0-1.889-1.553c-.944,0-2.273.5-2.273,3.009,0,1.377.609,2.833,2.193,2.833a1.966,1.966,0,0,0,1.969-1.889h1.825a3.562,3.562,0,0,1-3.794,3.329c-2.593,0-4.018-1.84-4.018-4.273,0-2.5,1.361-4.449,4.082-4.449,1.921,0,3.554.96,3.73,2.993Z"/><path class="e" d="M-434.1-326.012c0,.448.1.624.433.624a2.6,2.6,0,0,0,.448-.031v1.263a4.534,4.534,0,0,1-1.152.208c-.737,0-1.265-.256-1.409-1.008a4.24,4.24,0,0,1-2.865,1.008c-1.489,0-2.833-.8-2.833-2.417,0-2.064,1.648-2.4,3.185-2.576,1.313-.24,2.481-.1,2.481-1.169,0-.944-.976-1.12-1.713-1.12-1.024,0-1.744.416-1.825,1.313h-1.824c.128-2.129,1.936-2.753,3.761-2.753,1.617,0,3.313.656,3.313,2.4Zm-1.824-2.3a6.517,6.517,0,0,1-2.241.5c-.785.128-1.489.416-1.489,1.377,0,.816,1.041,1.056,1.681,1.056.8,0,2.049-.416,2.049-1.569Z"/><path class="e" d="M-424.871-324.171h-1.793v-1.153h-.032a2.779,2.779,0,0,1-2.353,1.376c-2.161,0-3.089-1.088-3.089-3.249v-5.25h1.825v5.074c0,1.456.592,1.985,1.584,1.985,1.521,0,2.033-.977,2.033-2.257v-4.8h1.825Z"/><path class="e" d="M-421.578-326.829c.1,1.057.9,1.441,1.873,1.441.688,0,1.889-.144,1.841-1.088-.048-.961-1.377-1.072-2.7-1.377-1.345-.288-2.657-.769-2.657-2.449,0-1.809,1.953-2.368,3.457-2.368,1.7,0,3.233.7,3.457,2.545h-1.9c-.16-.865-.881-1.105-1.681-1.105-.528,0-1.5.128-1.5.848,0,.9,1.344,1.024,2.689,1.329,1.328.3,2.672.784,2.672,2.417,0,1.969-1.984,2.688-3.7,2.688-2.081,0-3.633-.927-3.665-2.881Z"/><path class="e" d="M-413.226-327.836A2.2,2.2,0,0,0-411-325.388a1.918,1.918,0,0,0,2.017-1.376h1.729A3.625,3.625,0,0,1-411-323.948c-2.593,0-4.05-1.808-4.05-4.353a4.073,4.073,0,0,1,4-4.369,4.081,4.081,0,0,1,3.9,4.834Zm4.258-1.2a2.163,2.163,0,0,0-2.081-2.192,2.163,2.163,0,0,0-2.177,2.192Z"/><path class="e" d="M-401.259-335.6h1.825v1.728h-1.825Zm0,3.153h1.825v8.276h-1.825Z"/><path class="e" d="M-398.283-332.447h1.377v-2.48h1.824v2.48h1.649v1.361h-1.649v4.418c0,.751.065,1.136.881,1.136a3.116,3.116,0,0,0,.768-.064v1.409c-.4.031-.784.1-1.184.1-1.9,0-2.257-.737-2.289-2.114v-4.881h-1.377Z"/><path class="e" d="M-387.675-335.6h1.825v4.242h.032a2.893,2.893,0,0,1,2.481-1.312,2.616,2.616,0,0,1,2.929,2.816v5.683h-1.825v-5.2c-.032-1.3-.544-1.856-1.616-1.856a2.017,2.017,0,0,0-2,2.177v4.882h-1.825Z"/><path class="e" d="M-377.066-327.836a2.2,2.2,0,0,0,2.225,2.448,1.918,1.918,0,0,0,2.016-1.376h1.729a3.624,3.624,0,0,1-3.745,2.816c-2.594,0-4.05-1.808-4.05-4.353a4.073,4.073,0,0,1,4-4.369,4.082,4.082,0,0,1,3.9,4.834Zm4.257-1.2a2.163,2.163,0,0,0-2.08-2.192,2.162,2.162,0,0,0-2.177,2.192Z"/><path class="e" d="M-369.547-335.6h1.825v11.429h-1.825Z"/><path class="e" d="M-365.691-332.447h1.729v1.12h.032a2.764,2.764,0,0,1,2.561-1.343c2.609,0,3.873,1.984,3.873,4.4,0,2.225-1.12,4.321-3.569,4.321a3.218,3.218,0,0,1-2.769-1.3h-.032v4.13h-1.825Zm4.082,1.217c-1.537,0-2.321,1.168-2.321,2.929,0,1.665.848,2.913,2.321,2.913,1.665,0,2.289-1.473,2.289-2.913C-359.32-329.806-360.1-331.23-361.609-331.23Z"/><path class="e" d="M-354.586-326.829c.1,1.057.9,1.441,1.872,1.441.689,0,1.889-.144,1.841-1.088-.048-.961-1.377-1.072-2.705-1.377-1.344-.288-2.657-.769-2.657-2.449,0-1.809,1.953-2.368,3.457-2.368,1.7,0,3.234.7,3.458,2.545h-1.9c-.16-.865-.88-1.105-1.681-1.105-.528,0-1.5.128-1.5.848,0,.9,1.344,1.024,2.689,1.329,1.328.3,2.673.784,2.673,2.417,0,1.969-1.985,2.688-3.7,2.688-2.081,0-3.633-.927-3.665-2.881Z"/><path class="e" d="M-343.211-332.447h1.729v1.153h.048a2.764,2.764,0,0,1,2.545-1.376,2.344,2.344,0,0,1,2.321,1.376,2.985,2.985,0,0,1,2.593-1.376c1.745,0,2.769.767,2.769,2.785v5.714h-1.825v-4.834c0-1.313-.08-2.225-1.505-2.225-1.232,0-1.76.816-1.76,2.209v4.85h-1.825v-5.315c0-1.136-.352-1.744-1.457-1.744a1.916,1.916,0,0,0-1.808,2.145v4.914h-1.825Z"/><path class="e" d="M-327.867-327.836a2.2,2.2,0,0,0,2.225,2.448,1.918,1.918,0,0,0,2.017-1.376h1.729a3.624,3.624,0,0,1-3.746,2.816c-2.593,0-4.049-1.808-4.049-4.353a4.073,4.073,0,0,1,4-4.369,4.082,4.082,0,0,1,3.9,4.834Zm4.258-1.2a2.163,2.163,0,0,0-2.08-2.192,2.163,2.163,0,0,0-2.178,2.192Z"/></g></g><g class="d"><g class="d"><path class="e" d="M-616.49-308.447h1.377v-2.48h1.824v2.48h1.649v1.361h-1.649v4.418c0,.751.065,1.136.881,1.136a3.116,3.116,0,0,0,.768-.064v1.409c-.4.031-.784.1-1.184.1-1.905,0-2.257-.737-2.289-2.114v-4.881h-1.377Z"/><path class="e" d="M-610.713-304.317c0-2.529,1.52-4.353,4.177-4.353s4.178,1.824,4.178,4.353c0,2.545-1.52,4.369-4.178,4.369S-610.713-301.772-610.713-304.317Zm6.53,0c0-1.425-.72-2.913-2.353-2.913s-2.353,1.488-2.353,2.913c0,1.441.721,2.929,2.353,2.929S-604.183-302.876-604.183-304.317Z"/><path class="e" d="M-596.346-311.6h1.825v1.728h-1.825Zm0,3.153h1.825v8.276h-1.825Z"/><path class="e" d="M-592.538-308.447h1.729v1.217l.032.032a2.961,2.961,0,0,1,2.577-1.472,2.616,2.616,0,0,1,2.929,2.816v5.683h-1.824v-5.2c-.032-1.3-.545-1.856-1.617-1.856a2.017,2.017,0,0,0-2,2.177v4.882h-1.825Z"/><path class="e" d="M-577.767-305.677a1.75,1.75,0,0,0-1.889-1.553c-.945,0-2.273.5-2.273,3.009,0,1.377.608,2.833,2.193,2.833a1.966,1.966,0,0,0,1.969-1.889h1.825a3.562,3.562,0,0,1-3.794,3.329c-2.593,0-4.018-1.84-4.018-4.273,0-2.5,1.361-4.449,4.082-4.449,1.921,0,3.553.96,3.73,2.993Z"/><path class="e" d="M-574.458-308.447h1.712v1.6h.033a2.67,2.67,0,0,1,2.417-1.824,4.386,4.386,0,0,1,.688.047v1.761a6.5,6.5,0,0,0-.785-.08c-1.248,0-2.24,1.008-2.24,2.833v3.938h-1.825Z"/><path class="e" d="M-567.689-303.836a2.2,2.2,0,0,0,2.225,2.448,1.918,1.918,0,0,0,2.016-1.376h1.729a3.624,3.624,0,0,1-3.745,2.816c-2.594,0-4.05-1.808-4.05-4.353a4.072,4.072,0,0,1,4-4.369,4.082,4.082,0,0,1,3.905,4.834Zm4.257-1.2a2.163,2.163,0,0,0-2.08-2.192,2.162,2.162,0,0,0-2.177,2.192Z"/><path class="e" d="M-553.287-302.012c0,.448.1.624.432.624a2.6,2.6,0,0,0,.448-.031v1.263a4.535,4.535,0,0,1-1.152.208c-.736,0-1.265-.256-1.409-1.008a4.239,4.239,0,0,1-2.865,1.008c-1.488,0-2.833-.8-2.833-2.417,0-2.064,1.648-2.4,3.185-2.576,1.313-.24,2.481-.1,2.481-1.169,0-.944-.976-1.12-1.712-1.12-1.025,0-1.745.416-1.825,1.313h-1.825c.128-2.129,1.937-2.753,3.761-2.753,1.617,0,3.314.656,3.314,2.4Zm-1.825-2.3a6.512,6.512,0,0,1-2.241.5c-.784.128-1.488.416-1.488,1.377,0,.816,1.04,1.056,1.68,1.056.8,0,2.049-.416,2.049-1.569Z"/><path class="e" d="M-549.945-302.829c.1,1.057.9,1.441,1.872,1.441.689,0,1.889-.144,1.841-1.088-.048-.961-1.376-1.072-2.705-1.377-1.344-.288-2.657-.769-2.657-2.449,0-1.809,1.953-2.368,3.457-2.368,1.7,0,3.234.7,3.458,2.545h-1.9c-.16-.865-.88-1.105-1.681-1.105-.528,0-1.5.128-1.5.848,0,.9,1.344,1.024,2.689,1.329,1.329.3,2.673.784,2.673,2.417,0,1.969-1.985,2.688-3.7,2.688-2.082,0-3.634-.927-3.666-2.881Z"/><path class="e" d="M-541.593-303.836a2.2,2.2,0,0,0,2.225,2.448,1.917,1.917,0,0,0,2.016-1.376h1.729a3.624,3.624,0,0,1-3.745,2.816c-2.593,0-4.05-1.808-4.05-4.353a4.073,4.073,0,0,1,4-4.369,4.082,4.082,0,0,1,3.905,4.834Zm4.258-1.2a2.164,2.164,0,0,0-2.081-2.192,2.162,2.162,0,0,0-2.177,2.192Z"/><path class="e" d="M-530.506-308.447h1.376v-2.48h1.825v2.48h1.649v1.361H-527.3v4.418c0,.751.064,1.136.88,1.136a3.124,3.124,0,0,0,.769-.064v1.409c-.4.031-.784.1-1.185.1-1.9,0-2.257-.737-2.289-2.114v-4.881h-1.376Z"/><path class="e" d="M-524.346-311.6h1.825v4.242h.032a2.893,2.893,0,0,1,2.481-1.312,2.616,2.616,0,0,1,2.929,2.816v5.683H-518.9v-5.2c-.032-1.3-.544-1.856-1.616-1.856a2.017,2.017,0,0,0-2,2.177v4.882h-1.825Z"/><path class="e" d="M-513.738-303.836a2.2,2.2,0,0,0,2.225,2.448,1.918,1.918,0,0,0,2.017-1.376h1.729a3.624,3.624,0,0,1-3.746,2.816c-2.593,0-4.05-1.808-4.05-4.353a4.073,4.073,0,0,1,4-4.369,4.082,4.082,0,0,1,3.906,4.834Zm4.258-1.2a2.163,2.163,0,0,0-2.081-2.192,2.163,2.163,0,0,0-2.177,2.192Z"/><path class="e" d="M-500.394-303.836a2.2,2.2,0,0,0,2.225,2.448,1.918,1.918,0,0,0,2.017-1.376h1.729a3.625,3.625,0,0,1-3.746,2.816c-2.593,0-4.05-1.808-4.05-4.353a4.073,4.073,0,0,1,4-4.369,4.081,4.081,0,0,1,3.9,4.834Zm4.258-1.2a2.163,2.163,0,0,0-2.081-2.192,2.163,2.163,0,0,0-2.177,2.192Z"/><path class="e" d="M-493.738-308.447h1.36v-.688c0-2.113,1.1-2.465,2.289-2.465a5.141,5.141,0,0,1,1.281.112v1.425a3.1,3.1,0,0,0-.849-.1c-.5,0-.9.177-.9.865v.848H-489v1.361h-1.553v6.915h-1.825v-6.915h-1.36Z"/><path class="e" d="M-488.986-308.447h1.36v-.688c0-2.113,1.105-2.465,2.289-2.465a5.141,5.141,0,0,1,1.281.112v1.425a3.1,3.1,0,0,0-.849-.1c-.5,0-.9.177-.9.865v.848h1.552v1.361H-485.8v6.915h-1.825v-6.915h-1.36Z"/><path class="e" d="M-481.706-303.836a2.2,2.2,0,0,0,2.225,2.448,1.918,1.918,0,0,0,2.017-1.376h1.729a3.625,3.625,0,0,1-3.746,2.816c-2.593,0-4.05-1.808-4.05-4.353a4.073,4.073,0,0,1,4-4.369,4.081,4.081,0,0,1,3.9,4.834Zm4.258-1.2a2.163,2.163,0,0,0-2.081-2.192,2.162,2.162,0,0,0-2.177,2.192Z"/><path class="e" d="M-468.648-305.677a1.749,1.749,0,0,0-1.889-1.553c-.944,0-2.273.5-2.273,3.009,0,1.377.608,2.833,2.193,2.833a1.966,1.966,0,0,0,1.969-1.889h1.825a3.562,3.562,0,0,1-3.794,3.329c-2.593,0-4.018-1.84-4.018-4.273,0-2.5,1.361-4.449,4.082-4.449,1.921,0,3.553.96,3.73,2.993Z"/><path class="e" d="M-466.171-308.447h1.377v-2.48h1.825v2.48h1.648v1.361h-1.648v4.418c0,.751.064,1.136.88,1.136a3.116,3.116,0,0,0,.768-.064v1.409c-.4.031-.784.1-1.184.1-1.9,0-2.257-.737-2.289-2.114v-4.881h-1.377Z"/><path class="e" d="M-459.963-311.6h1.825v1.728h-1.825Zm0,3.153h1.825v8.276h-1.825Z"/><path class="e" d="M-456.971-308.447h1.985l2.1,6.355h.032l2.017-6.355h1.888l-2.961,8.276h-2.048Z"/><path class="e" d="M-446.426-303.836a2.2,2.2,0,0,0,2.225,2.448,1.917,1.917,0,0,0,2.016-1.376h1.729a3.624,3.624,0,0,1-3.745,2.816c-2.593,0-4.05-1.808-4.05-4.353a4.073,4.073,0,0,1,4-4.369,4.082,4.082,0,0,1,3.9,4.834Zm4.258-1.2a2.164,2.164,0,0,0-2.081-2.192,2.162,2.162,0,0,0-2.177,2.192Z"/><path class="e" d="M-438.955-308.447h1.729v1.217l.032.032a2.961,2.961,0,0,1,2.577-1.472,2.616,2.616,0,0,1,2.929,2.816v5.683h-1.824v-5.2c-.032-1.3-.545-1.856-1.617-1.856a2.017,2.017,0,0,0-2,2.177v4.882h-1.825Z"/><path class="e" d="M-428.346-303.836a2.2,2.2,0,0,0,2.225,2.448,1.918,1.918,0,0,0,2.017-1.376h1.729a3.625,3.625,0,0,1-3.746,2.816c-2.593,0-4.05-1.808-4.05-4.353a4.073,4.073,0,0,1,4-4.369,4.081,4.081,0,0,1,3.9,4.834Zm4.258-1.2a2.164,2.164,0,0,0-2.081-2.192,2.162,2.162,0,0,0-2.177,2.192Z"/><path class="e" d="M-419.5-302.829c.1,1.057.9,1.441,1.873,1.441.688,0,1.889-.144,1.841-1.088-.048-.961-1.377-1.072-2.7-1.377-1.344-.288-2.657-.769-2.657-2.449,0-1.809,1.953-2.368,3.457-2.368,1.7,0,3.233.7,3.458,2.545h-1.9c-.16-.865-.881-1.105-1.681-1.105-.528,0-1.5.128-1.5.848,0,.9,1.344,1.024,2.689,1.329,1.328.3,2.673.784,2.673,2.417,0,1.969-1.985,2.688-3.7,2.688-2.081,0-3.633-.927-3.665-2.881Z"/><path class="e" d="M-411.194-302.829c.1,1.057.9,1.441,1.872,1.441.689,0,1.889-.144,1.841-1.088-.048-.961-1.376-1.072-2.705-1.377-1.344-.288-2.657-.769-2.657-2.449,0-1.809,1.953-2.368,3.457-2.368,1.7,0,3.234.7,3.458,2.545h-1.9c-.16-.865-.88-1.105-1.681-1.105-.528,0-1.5.128-1.5.848,0,.9,1.344,1.024,2.689,1.329,1.329.3,2.673.784,2.673,2.417,0,1.969-1.985,2.688-3.7,2.688-2.081,0-3.633-.927-3.665-2.881Z"/><path class="e" d="M-400.2-304.317c0-2.529,1.52-4.353,4.178-4.353s4.177,1.824,4.177,4.353c0,2.545-1.52,4.369-4.177,4.369S-400.2-301.772-400.2-304.317Zm6.531,0c0-1.425-.721-2.913-2.353-2.913s-2.353,1.488-2.353,2.913c0,1.441.72,2.929,2.353,2.929S-393.672-302.876-393.672-304.317Z"/><path class="e" d="M-391.147-308.447h1.36v-.688c0-2.113,1.1-2.465,2.289-2.465a5.141,5.141,0,0,1,1.281.112v1.425a3.1,3.1,0,0,0-.849-.1c-.5,0-.9.177-.9.865v.848h1.552v1.361h-1.552v6.915h-1.825v-6.915h-1.36Z"/><path class="e" d="M-380.843-308.447h1.728v1.153h.049a2.764,2.764,0,0,1,2.545-1.376,2.342,2.342,0,0,1,2.32,1.376,2.987,2.987,0,0,1,2.594-1.376c1.744,0,2.769.767,2.769,2.785v5.714h-1.825v-4.834c0-1.313-.08-2.225-1.505-2.225-1.232,0-1.761.816-1.761,2.209v4.85h-1.824v-5.315c0-1.136-.352-1.744-1.457-1.744a1.917,1.917,0,0,0-1.809,2.145v4.914h-1.824Z"/><path class="e" d="M-367.836-308.447h2l2.161,6.179h.032l2.1-6.179h1.9l-3.217,8.724c-.592,1.488-1.024,2.833-2.929,2.833a8.249,8.249,0,0,1-1.264-.1v-1.537a5.323,5.323,0,0,0,.864.112c.848,0,1.056-.448,1.28-1.152l.208-.641Z"/><path class="e" d="M-354.924-308.447h1.937l1.617,6.179h.032l1.552-6.179h1.841l1.488,6.179h.033l1.68-6.179h1.857l-2.593,8.276h-1.873l-1.536-6.147h-.032l-1.521,6.147h-1.921Z"/><path class="e" d="M-341.724-308.447h1.713v1.6h.032a2.67,2.67,0,0,1,2.417-1.824,4.385,4.385,0,0,1,.688.047v1.761a6.507,6.507,0,0,0-.784-.08c-1.249,0-2.241,1.008-2.241,2.833v3.938h-1.825Z"/><path class="e" d="M-336.044-311.6h1.825v1.728h-1.825Zm0,3.153h1.825v8.276h-1.825Z"/><path class="e" d="M-333.068-308.447h1.377v-2.48h1.824v2.48h1.649v1.361h-1.649v4.418c0,.751.065,1.136.881,1.136a3.116,3.116,0,0,0,.768-.064v1.409c-.4.031-.784.1-1.184.1-1.9,0-2.257-.737-2.289-2.114v-4.881h-1.377Z"/><path class="e" d="M-326.86-311.6h1.825v1.728h-1.825Zm0,3.153h1.825v8.276h-1.825Z"/><path class="e" d="M-323.052-308.447h1.729v1.217l.032.032a2.961,2.961,0,0,1,2.577-1.472,2.616,2.616,0,0,1,2.929,2.816v5.683h-1.825v-5.2c-.032-1.3-.544-1.856-1.616-1.856a2.017,2.017,0,0,0-2,2.177v4.882h-1.825Z"/><path class="e" d="M-306.217-300.6c0,2.481-1.457,3.714-4.066,3.714-1.664,0-3.537-.641-3.7-2.577h1.824c.224,1.041,1.057,1.217,1.985,1.217a1.872,1.872,0,0,0,2.129-2.114v-1.264h-.032a2.832,2.832,0,0,1-2.481,1.457c-2.625,0-3.714-1.985-3.714-4.354,0-2.225,1.393-4.145,3.746-4.145a2.6,2.6,0,0,1,2.449,1.36h.032v-1.137h1.825Zm-1.825-3.889c0-1.424-.64-2.737-2.225-2.737-1.616,0-2.177,1.5-2.177,2.881,0,1.36.656,2.737,2.177,2.737C-308.65-301.612-308.042-303.084-308.042-304.493Z"/></g></g><g class="d"><g class="d"><path class="e" d="M-614.281-278.829c.1,1.057.9,1.441,1.873,1.441.688,0,1.889-.144,1.841-1.088-.048-.961-1.377-1.072-2.7-1.377-1.345-.288-2.657-.769-2.657-2.449,0-1.809,1.952-2.368,3.457-2.368,1.7,0,3.233.7,3.457,2.545h-1.9c-.161-.865-.881-1.105-1.681-1.105-.528,0-1.5.128-1.5.848,0,.9,1.344,1.024,2.688,1.329s2.673.784,2.673,2.417c0,1.969-1.984,2.688-3.7,2.688-2.081,0-3.633-.927-3.665-2.881Z"/><path class="e" d="M-608.186-284.447h1.376v-2.48h1.825v2.48h1.649v1.361h-1.649v4.418c0,.751.065,1.136.881,1.136a3.116,3.116,0,0,0,.768-.064v1.409c-.4.031-.784.1-1.185.1-1.9,0-2.256-.737-2.289-2.114v-4.881h-1.376Z"/><path class="e" d="M-602.938-284.447h2l2.161,6.179h.032l2.1-6.179h1.9l-3.217,8.724c-.592,1.488-1.024,2.833-2.929,2.833a8.25,8.25,0,0,1-1.264-.1v-1.537a5.324,5.324,0,0,0,.864.112c.848,0,1.056-.448,1.28-1.152l.208-.641Z"/><path class="e" d="M-593.674-287.6h1.825v11.429h-1.825Z"/><path class="e" d="M-588.441-279.836a2.2,2.2,0,0,0,2.225,2.448,1.918,1.918,0,0,0,2.017-1.376h1.729a3.625,3.625,0,0,1-3.746,2.816c-2.593,0-4.05-1.808-4.05-4.353a4.073,4.073,0,0,1,4-4.369,4.082,4.082,0,0,1,3.906,4.834Zm4.258-1.2a2.163,2.163,0,0,0-2.081-2.192,2.162,2.162,0,0,0-2.177,2.192Z"/><path class="e" d="M-569.591-278.012c0,.448.1.624.432.624a2.605,2.605,0,0,0,.449-.031v1.263a4.542,4.542,0,0,1-1.153.208c-.736,0-1.264-.256-1.408-1.008a4.243,4.243,0,0,1-2.866,1.008c-1.488,0-2.833-.8-2.833-2.417,0-2.064,1.649-2.4,3.185-2.576,1.313-.24,2.482-.1,2.482-1.169,0-.944-.977-1.12-1.713-1.12-1.025,0-1.745.416-1.825,1.313h-1.825c.128-2.129,1.937-2.753,3.762-2.753,1.616,0,3.313.656,3.313,2.4Zm-1.825-2.3a6.511,6.511,0,0,1-2.24.5c-.785.128-1.489.416-1.489,1.377,0,.816,1.041,1.056,1.681,1.056.8,0,2.048-.416,2.048-1.569Z"/><path class="e" d="M-567.625-284.447h1.728v1.217l.032.032a2.962,2.962,0,0,1,2.577-1.472,2.617,2.617,0,0,1,2.93,2.816v5.683h-1.825v-5.2c-.032-1.3-.545-1.856-1.617-1.856a2.017,2.017,0,0,0-2,2.177v4.882h-1.824Z"/><path class="e" d="M-550.646-276.171h-1.729v-1.121h-.032a2.747,2.747,0,0,1-2.561,1.344c-2.609,0-3.874-1.936-3.874-4.417,0-2.993,1.777-4.305,3.586-4.305a3.189,3.189,0,0,1,2.753,1.3h.032V-287.6h1.825Zm-4.082-1.217c1.633,0,2.321-1.488,2.321-2.929,0-1.825-.881-2.913-2.289-2.913-1.713,0-2.321,1.521-2.321,3.009C-557.017-278.8-556.313-277.388-554.728-277.388Z"/><path class="e" d="M-545.05-284.447h1.376v-2.48h1.825v2.48h1.649v1.361h-1.649v4.418c0,.751.064,1.136.88,1.136a3.124,3.124,0,0,0,.769-.064v1.409c-.4.031-.784.1-1.185.1-1.9,0-2.257-.737-2.289-2.114v-4.881h-1.376Z"/><path class="e" d="M-538.89-287.6h1.825v4.242h.032a2.893,2.893,0,0,1,2.481-1.312,2.616,2.616,0,0,1,2.929,2.816v5.683h-1.825v-5.2c-.031-1.3-.544-1.856-1.616-1.856a2.017,2.017,0,0,0-2,2.177v4.882h-1.825Z"/><path class="e" d="M-528.282-279.836a2.2,2.2,0,0,0,2.225,2.448,1.918,1.918,0,0,0,2.017-1.376h1.729a3.624,3.624,0,0,1-3.746,2.816c-2.593,0-4.049-1.808-4.049-4.353a4.073,4.073,0,0,1,4-4.369,4.082,4.082,0,0,1,3.905,4.834Zm4.258-1.2a2.163,2.163,0,0,0-2.08-2.192,2.163,2.163,0,0,0-2.178,2.192Z"/><path class="e" d="M-510.776-281.677a1.749,1.749,0,0,0-1.889-1.553c-.944,0-2.273.5-2.273,3.009,0,1.377.608,2.833,2.193,2.833a1.966,1.966,0,0,0,1.969-1.889h1.825a3.562,3.562,0,0,1-3.794,3.329c-2.593,0-4.018-1.84-4.018-4.273,0-2.5,1.361-4.449,4.082-4.449,1.921,0,3.554.96,3.73,2.993Z"/><path class="e" d="M-507.418-287.6h1.825v11.429h-1.825Z"/><path class="e" d="M-496.68-278.012c0,.448.1.624.432.624a2.605,2.605,0,0,0,.449-.031v1.263a4.534,4.534,0,0,1-1.153.208c-.736,0-1.264-.256-1.408-1.008a4.243,4.243,0,0,1-2.866,1.008c-1.488,0-2.833-.8-2.833-2.417,0-2.064,1.649-2.4,3.185-2.576,1.313-.24,2.482-.1,2.482-1.169,0-.944-.977-1.12-1.713-1.12-1.024,0-1.745.416-1.825,1.313h-1.824c.128-2.129,1.936-2.753,3.761-2.753,1.617,0,3.313.656,3.313,2.4Zm-1.824-2.3a6.517,6.517,0,0,1-2.241.5c-.785.128-1.489.416-1.489,1.377,0,.816,1.041,1.056,1.681,1.056.8,0,2.049-.416,2.049-1.569Z"/><path class="e" d="M-494.714-284.447H-493v1.6h.032a2.67,2.67,0,0,1,2.417-1.824,4.384,4.384,0,0,1,.688.047v1.761a6.505,6.505,0,0,0-.784-.08c-1.249,0-2.241,1.008-2.241,2.833v3.938h-1.825Z"/><path class="e" d="M-489.034-287.6h1.825v1.728h-1.825Zm0,3.153h1.825v8.276h-1.825Z"/><path class="e" d="M-486.059-284.447h1.376v-2.48h1.825v2.48h1.649v1.361h-1.649v4.418c0,.751.065,1.136.88,1.136a3.12,3.12,0,0,0,.769-.064v1.409c-.4.031-.784.1-1.185.1-1.9,0-2.256-.737-2.289-2.114v-4.881h-1.376Z"/><path class="e" d="M-480.811-284.447h2l2.161,6.179h.032l2.1-6.179h1.9l-3.217,8.724c-.592,1.488-1.024,2.833-2.929,2.833a8.25,8.25,0,0,1-1.264-.1v-1.537a5.323,5.323,0,0,0,.864.112c.848,0,1.056-.448,1.28-1.152l.208-.641Z"/><path class="e" d="M-467.531-280.317c0-2.529,1.521-4.353,4.178-4.353s4.178,1.824,4.178,4.353c0,2.545-1.521,4.369-4.178,4.369S-467.531-277.772-467.531-280.317Zm6.531,0c0-1.425-.72-2.913-2.353-2.913s-2.353,1.488-2.353,2.913c0,1.441.72,2.929,2.353,2.929S-461-278.876-461-280.317Z"/><path class="e" d="M-458.475-284.447h1.36v-.688c0-2.113,1.1-2.465,2.289-2.465a5.141,5.141,0,0,1,1.281.112v1.425a3.09,3.09,0,0,0-.849-.1c-.5,0-.9.177-.9.865v.848h1.553v1.361h-1.553v6.915h-1.825v-6.915h-1.36Z"/><path class="e" d="M-448.171-284.447h1.729v1.153h.048a2.764,2.764,0,0,1,2.545-1.376,2.343,2.343,0,0,1,2.321,1.376,2.985,2.985,0,0,1,2.593-1.376c1.745,0,2.769.767,2.769,2.785v5.714h-1.825v-4.834c0-1.313-.08-2.225-1.505-2.225-1.232,0-1.76.816-1.76,2.209v4.85h-1.825v-5.315c0-1.136-.352-1.744-1.457-1.744a1.916,1.916,0,0,0-1.808,2.145v4.914h-1.825Z"/><path class="e" d="M-435.164-284.447h2l2.161,6.179h.032l2.1-6.179h1.9l-3.218,8.724c-.592,1.488-1.024,2.833-2.929,2.833a8.249,8.249,0,0,1-1.264-.1v-1.537a5.323,5.323,0,0,0,.864.112c.848,0,1.057-.448,1.281-1.152l.208-.641Z"/><path class="e" d="M-421.451-287.6h1.825v1.728h-1.825Zm0,3.153h1.825v8.276h-1.825Z"/><path class="e" d="M-409.848-276.171h-1.729v-1.121h-.032a2.746,2.746,0,0,1-2.561,1.344c-2.609,0-3.873-1.936-3.873-4.417,0-2.993,1.776-4.305,3.585-4.305a3.188,3.188,0,0,1,2.753,1.3h.032V-287.6h1.825Zm-4.082-1.217c1.633,0,2.321-1.488,2.321-2.929,0-1.825-.88-2.913-2.288-2.913-1.713,0-2.322,1.521-2.322,3.009C-416.219-278.8-415.514-277.388-413.93-277.388Z"/><path class="e" d="M-406.443-279.836a2.2,2.2,0,0,0,2.225,2.448,1.918,1.918,0,0,0,2.017-1.376h1.729a3.625,3.625,0,0,1-3.746,2.816c-2.593,0-4.05-1.808-4.05-4.353a4.073,4.073,0,0,1,4-4.369,4.082,4.082,0,0,1,3.906,4.834Zm4.258-1.2a2.163,2.163,0,0,0-2.081-2.192,2.162,2.162,0,0,0-2.177,2.192Z"/><path class="e" d="M-392.041-278.012c0,.448.1.624.433.624a2.6,2.6,0,0,0,.448-.031v1.263a4.534,4.534,0,0,1-1.153.208c-.736,0-1.264-.256-1.408-1.008a4.24,4.24,0,0,1-2.865,1.008c-1.489,0-2.833-.8-2.833-2.417,0-2.064,1.648-2.4,3.185-2.576,1.313-.24,2.481-.1,2.481-1.169,0-.944-.976-1.12-1.713-1.12-1.024,0-1.744.416-1.825,1.313h-1.824c.128-2.129,1.936-2.753,3.761-2.753,1.617,0,3.313.656,3.313,2.4Zm-1.824-2.3a6.517,6.517,0,0,1-2.241.5c-.785.128-1.489.416-1.489,1.377,0,.816,1.041,1.056,1.681,1.056.8,0,2.049-.416,2.049-1.569Z"/><path class="e" d="M-388.7-278.829c.1,1.057.9,1.441,1.873,1.441.688,0,1.889-.144,1.841-1.088-.048-.961-1.377-1.072-2.705-1.377-1.345-.288-2.657-.769-2.657-2.449,0-1.809,1.952-2.368,3.457-2.368,1.7,0,3.233.7,3.457,2.545h-1.9c-.161-.865-.881-1.105-1.681-1.105-.528,0-1.5.128-1.5.848,0,.9,1.344,1.024,2.689,1.329,1.328.3,2.672.784,2.672,2.417,0,1.969-1.984,2.688-3.7,2.688-2.081,0-3.633-.927-3.665-2.881Z"/><path class="e" d="M-381.627-278.333h2.224v2.162h-2.224Z"/></g></g><path class="k" d="M-318.055-395.821a14.815,14.815,0,0,0-1.757-8.611,13.2,13.2,0,0,0-10.516-5.921,20.862,20.862,0,0,0-5.355.789c-1.46.369-3.292,1.156-4.8.952a.184.184,0,0,1-.133-.223.2.2,0,0,1,.017-.042c.767-1.1,2.3-1.656,3.484-2.172a18.5,18.5,0,0,1,4.495-1.271,14.685,14.685,0,0,1,9.348,1.82c5.431,2.957,7.889,8.645,7.464,14.677a32.256,32.256,0,0,1-.582,3.9c.87-1,3-2.752,3.872-3.754.974-1.115,2.6.516,1.626,1.626-1.718,1.976-6.584,6.867-6.683,6.942a1.054,1.054,0,0,1-1.593.132c-.848-.849-2.762-2.913-3.546-3.789-.711-.8-1.471-1.565-2.143-2.393-.271-.334-.954-.994-.624-1.381.528-.62,1.8.23,2.119.488.88.722,3.786,3.116,4.355,3.6.052-.2.1-.4.14-.586A38.5,38.5,0,0,0-318.055-395.821Z"/></g></svg>