<svg id="Group_3757" data-name="Group 3757" xmlns="http://www.w3.org/2000/svg" xmlns:xlink="http://www.w3.org/1999/xlink" width="60.083" height="60.084" viewBox="0 0 60.083 60.084">
  <defs>
    <linearGradient id="linear-gradient" x1="0.604" y1="0.604" x2="0.134" y2="0.134" gradientUnits="objectBoundingBox">
      <stop offset="0" stop-color="#178ba4"/>
      <stop offset="1" stop-color="#3ec7e3"/>
    </linearGradient>
  </defs>
  <g id="Group_3391" data-name="Group 3391">
    <g id="Group_3390" data-name="Group 3390">
      <path id="Path_13174" data-name="Path 13174" d="M28.6-137.87l-38.2,38.2a30.694,30.694,0,0,1-21.886-29.4A30.681,30.681,0,0,1-.8-159.756,30.691,30.691,0,0,1,28.6-137.87Z" transform="translate(31.483 159.756)" fill="url(#linear-gradient)"/>
      <ellipse id="Ellipse_1961" data-name="Ellipse 1961" cx="28.613" cy="28.613" rx="28.613" ry="28.613" transform="translate(2.069 2.07)" fill="#fff"/>
    </g>
  </g>
  <g id="gallery" transform="translate(13.542 16.793)">
    <g id="Group_3393" data-name="Group 3393" transform="translate(0.694 0.867)">
      <path id="Path_13175" data-name="Path 13175" d="M91.26,40.2a2.444,2.444,0,0,1,2.118,2.688L91.5,59.464a2.4,2.4,0,0,1-2.65,2.128l-.079-.01h-.122V46.389a2.444,2.444,0,0,0-2.444-2.444H65.843l.489-4.073A2.4,2.4,0,0,1,68.95,37.7l.07.008Z" transform="translate(-61.403 -37.694)" fill="#fff"/>
      <path id="Path_13176" data-name="Path 13176" d="M36.146,251.114v1.466a2.444,2.444,0,0,1-2.444,2.444H11.34A2.444,2.444,0,0,1,8.9,252.581v-3.422l6.721-4.888a2.77,2.77,0,0,1,3.544.163l4.481,3.91a2.892,2.892,0,0,0,3.34.285l9.165-5.377Z" transform="translate(-8.896 -227.226)" fill="#fff"/>
      <path id="Path_13177" data-name="Path 13177" d="M36.146,120.309v7.332l-9.165,5.377a2.892,2.892,0,0,1-3.34-.285l-4.481-3.91a2.77,2.77,0,0,0-3.544-.163L8.9,133.547V120.309a2.444,2.444,0,0,1,2.444-2.444H33.7A2.444,2.444,0,0,1,36.146,120.309Zm-8.35,4.236a2.607,2.607,0,1,0-5.214,0v0a2.607,2.607,0,1,0,5.214,0Z" transform="translate(-8.896 -111.614)" fill="#fff"/>
      <ellipse id="Ellipse_1962" data-name="Ellipse 1962" cx="2.607" cy="2.607" rx="2.607" ry="2.607" transform="translate(13.686 10.324)" fill="#f2ddb0"/>
    </g>
    <g id="Group_3394" data-name="Group 3394" transform="translate(0 0)">
      <path id="Path_13178" data-name="Path 13178" d="M177.411,166.5a3.422,3.422,0,1,1,3.422-3.422A3.422,3.422,0,0,1,177.411,166.5Zm0-5.214a1.792,1.792,0,1,0,1.792,1.792,1.792,1.792,0,0,0-1.792-1.792Z" transform="translate(-160.424 -149.283)" fill="#0f2056"/>
      <path id="Path_13179" data-name="Path 13179" d="M32.791,30.347a3.258,3.258,0,0,0-2.159-1.222L8.392,26.6a3.055,3.055,0,0,0-2.4.692A3.1,3.1,0,0,0,4.808,29.41L4.4,32.75H3.137A3.273,3.273,0,0,0,0,36.131v16.66a3.1,3.1,0,0,0,3.013,3.176H25.5a3.344,3.344,0,0,0,3.422-3.177v-.652a4.073,4.073,0,0,0,1.548-.652,3.381,3.381,0,0,0,1.181-2.2L33.524,32.75A3.218,3.218,0,0,0,32.791,30.347ZM3.137,34.379H25.5a1.874,1.874,0,0,1,1.792,1.751v6.843l-8.88,5.173a2.077,2.077,0,0,1-2.4-.2l-4.481-3.91a3.585,3.585,0,0,0-4.521-.2L1.63,47.74V36.131A1.644,1.644,0,0,1,3.137,34.379ZM25.5,54.339H3.137a1.466,1.466,0,0,1-1.509-1.423c0-.042,0-.084,0-.125V49.776l6.314-4.644a1.955,1.955,0,0,1,2.525.122l4.44,3.91a3.829,3.829,0,0,0,2.4.9,3.707,3.707,0,0,0,1.955-.53l8.024-4.644v7.9A1.715,1.715,0,0,1,25.5,54.339Zm6.4-21.792L29.981,49.084a1.385,1.385,0,0,1-.53,1.1c-.163.163-.53.244-.53.326V36.131A3.5,3.5,0,0,0,25.5,32.75H6.03L6.4,29.573a1.874,1.874,0,0,1,.611-1.059,1.874,1.874,0,0,1,1.222-.326l22.2,2.566a1.507,1.507,0,0,1,1.1.611A1.589,1.589,0,0,1,31.9,32.546Z" transform="translate(0 -26.569)" fill="#0f2056"/>
    </g>
  </g>
</svg>
