<svg xmlns="http://www.w3.org/2000/svg" width="20.104" height="20.104" viewBox="0 0 20.104 20.104"><defs><style>.a{fill:#fff;}</style></defs><path class="a" d="M13.822,0H6.283A6.283,6.283,0,0,0,0,6.283v7.539A6.283,6.283,0,0,0,6.283,20.1h7.539A6.283,6.283,0,0,0,20.1,13.822V6.283A6.283,6.283,0,0,0,13.822,0Zm4.4,13.822a4.4,4.4,0,0,1-4.4,4.4H6.283a4.4,4.4,0,0,1-4.4-4.4V6.283a4.4,4.4,0,0,1,4.4-4.4h7.539a4.4,4.4,0,0,1,4.4,4.4Z"/><g transform="translate(5.026 5.026)"><path class="a" d="M133.026,128a5.026,5.026,0,1,0,5.026,5.026A5.026,5.026,0,0,0,133.026,128Zm0,8.167a3.141,3.141,0,1,1,3.141-3.141A3.146,3.146,0,0,1,133.026,136.167Z" transform="translate(-128 -128)"/></g><g transform="translate(14.785 3.979)"><ellipse class="a" cx="0.67" cy="0.67" rx="0.67" ry="0.67"/></g></svg>