<svg width="35" height="36" viewBox="0 0 35 36" fill="none" xmlns="http://www.w3.org/2000/svg">
<path d="M27.7797 36H26.4615C26.3979 35.9742 26.3322 35.9543 26.2651 35.9408C25.285 35.83 24.3891 35.4769 23.5285 35.0017C23.3119 34.878 23.0692 34.8088 22.8208 34.7998C17.4904 34.7885 12.1606 34.7857 6.83146 34.7914C6.18299 34.7914 5.53453 34.7979 4.88606 34.7914C4.2376 34.7848 3.71975 34.5237 3.44739 33.9293C3.31228 33.6067 3.24629 33.2588 3.25378 32.9084C3.2439 24.3663 3.24112 15.8241 3.24545 7.28189C3.24545 7.12412 3.23155 6.96635 3.22321 6.7804C3.00088 6.7804 2.81745 6.7804 2.63495 6.7804C1.63632 6.75599 1.00361 6.10048 0.998047 5.08436C0.998047 4.53342 0.998047 3.98278 0.998047 3.43246C1.00638 1.43591 2.41912 0.00281734 4.39416 0.00281734C11.9213 -0.000939114 19.4478 -0.000939114 26.9738 0.00281734C27.286 0.000266303 27.5972 0.0378169 27.9001 0.114572C29.4018 0.510878 30.3486 1.80498 30.3495 3.44749C30.3495 7.80623 30.3495 12.1653 30.3495 16.5247C30.3495 17.075 30.3439 17.6262 30.355 18.1766C30.355 18.2705 30.406 18.4339 30.4745 18.4583C30.775 18.5767 31.0465 18.7598 31.2704 18.9949C31.4943 19.23 31.6652 19.5115 31.7715 19.82C31.8143 19.8224 31.8573 19.8192 31.8993 19.8106C33.2342 19.2594 35.0333 20.0736 34.9934 22.1368C34.9647 23.6244 34.999 25.1129 34.9823 26.6013C34.9656 28.1039 34.6942 29.5624 34.0791 30.9344C32.9739 33.3987 31.2323 35.1416 28.5764 35.8178C28.3179 35.8911 28.0474 35.9408 27.7797 36ZM21.4859 33.3855C20.93 32.6765 20.4224 32.0266 19.9184 31.373C18.6283 29.7014 17.3422 28.0291 16.0601 26.3562C15.4894 25.6162 15.2133 24.7982 15.4301 23.8629C15.6636 22.8562 16.2389 22.118 17.2301 21.8137C18.2213 21.5095 19.0189 21.8804 19.6943 22.612C20.1287 23.0815 20.5613 23.5511 20.9967 24.0207C21.0625 24.092 21.1376 24.154 21.2543 24.263V23.9587C21.2543 20.9473 21.2524 17.9358 21.2487 14.9244C21.2487 14.267 21.233 13.6096 21.2608 12.9523C21.2741 12.635 21.3545 12.3243 21.4965 12.0412C21.6384 11.7581 21.8387 11.5092 22.0837 11.3113C22.3287 11.1134 22.6128 10.9711 22.9167 10.894C23.2206 10.817 23.5373 10.8069 23.8454 10.8646C24.9496 11.0618 25.6777 11.8835 25.6981 13.0246C25.7241 14.2539 25.7083 15.4851 25.7102 16.7153C25.7102 16.8402 25.7102 16.9642 25.7102 17.1135C27.0997 16.7716 28.1188 17.1651 28.7024 18.4808C28.9886 18.493 28.9608 18.3005 28.9608 18.124C28.9608 13.2018 28.9608 8.27986 28.9608 3.35827C28.9608 2.25481 28.1521 1.41243 27.1081 1.3974C26.0409 1.38238 25.2155 2.20692 25.1905 3.32634C25.1784 3.85413 25.1905 4.38097 25.1905 4.90875C25.1905 6.15402 24.5855 6.77007 23.3646 6.77101C21.4111 6.77101 19.4571 6.77101 17.5024 6.77101C17.3755 6.77483 17.2485 6.76823 17.1226 6.75129C16.9671 6.7272 16.8247 6.64897 16.7199 6.53004C16.6151 6.41111 16.5544 6.2589 16.5483 6.09955C16.5408 5.93375 16.5931 5.77087 16.6953 5.64127C16.7976 5.51168 16.9429 5.42422 17.1041 5.39521C17.2524 5.3722 17.4025 5.36278 17.5525 5.36704C19.4608 5.36704 21.3685 5.36704 23.2756 5.36704C23.8037 5.36704 23.8046 5.36704 23.8046 4.81484C23.8046 4.33495 23.8046 3.85413 23.8046 3.3733C23.7926 2.74943 23.953 2.1346 24.2678 1.59837C24.2992 1.53365 24.3271 1.46718 24.3512 1.39928H4.4099C3.18152 1.39928 2.39318 2.20034 2.38947 3.44185C2.38947 3.92174 2.38947 4.40257 2.38947 4.88339C2.38947 5.36422 2.38947 5.36704 2.87675 5.36704H10.6463C10.7851 5.36279 10.924 5.36749 11.0622 5.38112C11.2371 5.3953 11.3997 5.47773 11.5158 5.61103C11.632 5.74434 11.6925 5.91812 11.6848 6.09579C11.6804 6.26737 11.6125 6.431 11.4946 6.55418C11.3767 6.67736 11.2174 6.75107 11.0483 6.76068C10.9217 6.77149 10.7946 6.77525 10.6676 6.77195C8.80682 6.77195 6.94541 6.77195 5.08338 6.77195H4.63687V32.8305C4.63687 33.3846 4.63687 33.3855 5.16769 33.3855H21.4859ZM22.6374 19.1241H22.6466C22.6466 20.9751 22.6466 22.8261 22.6466 24.6771C22.6538 24.9696 22.6305 25.262 22.5771 25.5495C22.4298 26.2342 21.8166 26.5027 21.2191 26.144C20.9835 25.9962 20.768 25.8178 20.578 25.6134C19.9203 24.9213 19.2811 24.2047 18.6271 23.5164C18.0434 22.9031 17.3144 23.0186 16.9262 23.7784C16.6205 24.3766 16.7308 24.9354 17.1273 25.45C18.7243 27.5301 20.3103 29.6187 21.9296 31.681C22.3547 32.2199 22.8327 32.7136 23.3562 33.1545C25.7361 35.1604 28.8877 35.0383 31.1286 32.8727C32.3597 31.6838 33.074 30.2019 33.3871 28.5322C33.8058 26.3149 33.5464 24.0686 33.5964 21.8353C33.5983 21.8238 33.5983 21.8121 33.5964 21.8006C33.5196 21.331 33.1888 21.0493 32.7331 21.0578C32.2773 21.0662 31.9734 21.3395 31.929 21.8147C31.8928 22.1978 31.9049 22.5866 31.9021 22.9726C31.9021 23.6244 31.6751 23.9521 31.2231 23.9615C30.771 23.9709 30.5162 23.6215 30.5144 22.9623C30.5144 22.1537 30.5246 21.3451 30.4949 20.5375C30.4745 19.959 30.0215 19.6378 29.4629 19.7524C29.0627 19.8341 28.8274 20.1421 28.8228 20.6314C28.8135 21.4869 28.8228 22.3415 28.8154 23.1971C28.8108 23.646 28.5106 23.9615 28.1197 23.9606C27.7288 23.9596 27.4323 23.6478 27.4323 23.198C27.4267 22.3077 27.4323 21.4137 27.4323 20.5262C27.4323 20.1046 27.4471 19.681 27.4221 19.2612C27.386 18.6414 26.9302 18.2958 26.3577 18.4264C25.9492 18.5203 25.7278 18.8386 25.7231 19.3899C25.7139 20.3619 25.7231 21.3348 25.7231 22.3068C25.7231 22.6355 25.7315 22.9642 25.7157 23.291C25.7123 23.4629 25.6453 23.6273 25.5279 23.7515C25.4106 23.8758 25.2514 23.9507 25.0821 23.9615C24.9131 23.9717 24.7463 23.9186 24.6134 23.8123C24.4805 23.706 24.3908 23.5539 24.3614 23.3849C24.3403 23.2463 24.3322 23.1061 24.3373 22.966C24.3373 19.8025 24.3373 16.6389 24.3373 13.4753C24.3413 13.3115 24.3361 13.1475 24.3215 12.9842C24.3126 12.8308 24.2582 12.6838 24.1655 12.5623C24.0728 12.4408 23.946 12.3506 23.8018 12.3033C23.1821 12.0789 22.6531 12.4714 22.6503 13.1833C22.6318 15.1639 22.6374 17.1435 22.6374 19.1241Z" fill="#0F2056"/>
<path d="M21.4851 33.3856H5.16688C4.63699 33.3856 4.63607 33.3856 4.63607 32.8306V6.78051H5.08258C6.94337 6.78051 8.80478 6.78051 10.6668 6.78051C10.7938 6.78381 10.9209 6.78005 11.0475 6.76924C11.2166 6.75964 11.3759 6.68592 11.4938 6.56274C11.6117 6.43956 11.6796 6.27593 11.684 6.10435C11.6917 5.92668 11.6312 5.7529 11.515 5.61959C11.3989 5.48629 11.2363 5.40387 11.0614 5.38969C10.9232 5.37605 10.7843 5.37135 10.6455 5.3756H2.87595C2.3896 5.3756 2.38867 5.3756 2.38867 4.89195C2.38867 4.40831 2.38867 3.9303 2.38867 3.45041C2.38867 2.20891 3.18072 1.40878 4.4091 1.40784H24.3504C24.3263 1.47574 24.2984 1.54221 24.267 1.60694C23.9522 2.14317 23.7918 2.75799 23.8038 3.38186C23.8093 3.86269 23.8038 4.34351 23.8038 4.8234C23.8038 5.37466 23.8038 5.3756 23.2748 5.3756C21.3677 5.3756 19.46 5.3756 17.5516 5.3756C17.4017 5.37134 17.2516 5.38077 17.1033 5.40377C16.9421 5.43278 16.7968 5.52024 16.6945 5.64984C16.5923 5.77943 16.54 5.94232 16.5475 6.10811C16.5536 6.26746 16.6143 6.41967 16.7191 6.5386C16.8239 6.65753 16.9663 6.73576 17.1218 6.75985C17.2477 6.77679 17.3747 6.78339 17.5016 6.77957C19.4557 6.77957 21.4097 6.77957 23.3638 6.77957C24.5847 6.77957 25.1878 6.16258 25.1897 4.91731C25.1897 4.38953 25.1804 3.86269 25.1897 3.3349C25.2147 2.21548 26.0401 1.39094 27.1073 1.40596C28.1513 1.42099 28.96 2.26338 28.96 3.36683C28.9643 8.28904 28.9643 13.2109 28.96 18.1325C28.96 18.3091 28.9878 18.5016 28.7016 18.4894C28.117 17.1746 27.0971 16.7802 25.7094 17.122C25.7094 16.9727 25.7094 16.8488 25.7094 16.7239C25.7094 15.4936 25.7232 14.2624 25.6973 13.0331C25.6723 11.8902 24.9442 11.0685 23.8446 10.8732C23.5365 10.8155 23.2198 10.8255 22.9159 10.9026C22.612 10.9796 22.3279 11.1219 22.0829 11.3198C21.8379 11.5177 21.6376 11.7666 21.4956 12.0497C21.3537 12.3328 21.2733 12.6435 21.2599 12.9608C21.2322 13.6182 21.2479 14.2756 21.2479 14.933C21.2479 17.9444 21.2498 20.9558 21.2535 23.9672V24.2715C21.1367 24.1626 21.0617 24.1006 20.9959 24.0292C20.5605 23.5597 20.1279 23.0901 19.6934 22.6206C19.0181 21.889 18.2112 21.5227 17.2293 21.8223C16.2473 22.1219 15.6628 22.8647 15.4293 23.8715C15.2125 24.8106 15.4886 25.6248 16.0593 26.3648C17.3469 28.0358 18.633 29.708 19.9176 31.3815C20.4216 32.0267 20.932 32.6728 21.4851 33.3856ZM10.035 9.28889C9.59682 9.28889 9.15773 9.28137 8.71955 9.28889C7.88581 9.30579 7.32998 9.86926 7.32164 10.706C7.31331 11.5719 7.31516 12.4377 7.32164 13.3036C7.32813 14.1488 7.87098 14.7123 8.70658 14.7282C9.58386 14.7423 10.4611 14.7442 11.3384 14.7282C12.1416 14.7123 12.6835 14.1648 12.7011 13.3534C12.7209 12.4643 12.7209 11.5753 12.7011 10.6863C12.6845 9.84109 12.1212 9.30297 11.2819 9.28983C10.866 9.28889 10.4509 9.28889 10.035 9.28889ZM13.3125 17.3653C11.5691 17.3653 9.82564 17.3653 8.0822 17.3653C7.63661 17.3653 7.32719 17.6583 7.32349 18.0574C7.31978 18.4565 7.63197 18.7505 8.06459 18.7692C8.14519 18.7692 8.22672 18.7692 8.30731 18.7692H18.3178C18.4448 18.7749 18.572 18.7711 18.6985 18.758C18.8716 18.7325 19.0292 18.6426 19.1405 18.5058C19.2518 18.369 19.3089 18.1951 19.3007 18.018C19.271 17.6198 18.9672 17.3653 18.504 17.3606C16.776 17.3637 15.0455 17.3653 13.3125 17.3653ZM11.7192 29.4582C10.5149 29.4582 9.31057 29.4582 8.11369 29.4582C7.79594 29.4582 7.5449 29.5644 7.39853 29.8574C7.15396 30.3485 7.51341 30.8632 8.10999 30.8641C9.84418 30.8697 11.5774 30.8641 13.3116 30.8641C13.9934 30.8641 14.6752 30.8725 15.3571 30.8641C15.9129 30.8547 16.2482 30.3513 16.0296 29.8761C15.886 29.5644 15.6211 29.4573 15.2885 29.4592C14.1009 29.462 12.9096 29.4582 11.7192 29.4582ZM10.865 22.7905C11.7914 22.7905 12.7132 22.7905 13.6368 22.7905C14.1194 22.7905 14.4196 22.5088 14.4196 22.0937C14.4196 21.6786 14.1194 21.3894 13.6386 21.3884C11.8019 21.3828 9.96553 21.3828 8.12944 21.3884C7.63846 21.3884 7.31145 21.6936 7.32257 22.1116C7.33369 22.5295 7.64309 22.7896 8.12759 22.7915C9.04007 22.7971 9.95256 22.7933 10.865 22.7933V22.7905ZM17.7091 10.6976C18.5867 10.6976 19.4637 10.6976 20.34 10.6976C20.8468 10.6976 21.1655 10.4309 21.1738 10.0111C21.1821 9.59128 20.8542 9.29546 20.3614 9.29358C18.5846 9.28983 16.8078 9.28983 15.031 9.29358C14.5474 9.29358 14.2491 9.57532 14.2436 9.99041C14.2436 10.4318 14.5326 10.6947 15.0458 10.6966C15.9323 10.6976 16.8207 10.6976 17.7091 10.6976ZM10.5297 25.4304C9.73394 25.4304 8.93632 25.4135 8.14149 25.4426C7.90488 25.4566 7.67836 25.5445 7.49302 25.6943C7.28551 25.8661 7.26514 26.1441 7.38093 26.4061C7.52174 26.7254 7.78483 26.8362 8.10907 26.8362C9.71356 26.8362 11.318 26.8362 12.9262 26.8362C13.4293 26.8362 13.747 26.5545 13.7442 26.1281C13.7415 25.7018 13.4283 25.437 12.9179 25.4332C12.1231 25.4257 11.3264 25.4304 10.5297 25.4294V25.4304ZM17.1144 14.7357C17.8296 14.7357 18.5447 14.7461 19.2599 14.7357C19.6934 14.7282 19.9825 14.4409 19.9936 14.053C20.0047 13.6652 19.7046 13.344 19.2525 13.3412C17.8222 13.3305 16.3921 13.3324 14.9624 13.3468C14.7807 13.3576 14.6062 13.423 14.4612 13.5346C14.2241 13.7131 14.1833 13.992 14.276 14.2653C14.3844 14.5892 14.6382 14.7348 14.9708 14.7404C15.685 14.7358 16.4002 14.7357 17.1144 14.7357ZM14.8077 6.0959C14.812 5.91219 14.7445 5.73421 14.6199 5.60071C14.4953 5.46721 14.3238 5.38901 14.1426 5.38311C14.0499 5.37972 13.9575 5.39519 13.8709 5.4286C13.7842 5.46202 13.705 5.5127 13.638 5.57766C13.571 5.64262 13.5175 5.72054 13.4807 5.8068C13.4439 5.89307 13.4245 5.98595 13.4237 6.07994C13.4249 6.26377 13.4978 6.43966 13.6263 6.5693C13.7549 6.69894 13.9288 6.77182 14.1101 6.77206C14.1998 6.77443 14.2891 6.75879 14.3728 6.72603C14.4565 6.69327 14.5329 6.64405 14.5978 6.5812C14.6626 6.51834 14.7146 6.44311 14.7506 6.35982C14.7866 6.27653 14.806 6.18683 14.8077 6.0959Z" fill="white"/>
<path d="M22.6378 19.1242C22.6378 17.1436 22.6322 15.1639 22.6378 13.1833C22.6378 12.4715 23.1695 12.0789 23.7893 12.3034C23.9334 12.3506 24.0602 12.4409 24.1529 12.5624C24.2457 12.6839 24.3001 12.8309 24.309 12.9842C24.3235 13.1475 24.3287 13.3115 24.3247 13.4754C24.3247 16.6396 24.3247 19.8032 24.3247 22.9661C24.3197 23.1062 24.3277 23.2464 24.3488 23.3849C24.3782 23.5539 24.468 23.706 24.6008 23.8124C24.7337 23.9187 24.9005 23.9718 25.0695 23.9616C25.2388 23.9508 25.398 23.8758 25.5154 23.7516C25.6327 23.6274 25.6998 23.463 25.7031 23.291C25.7189 22.9633 25.7106 22.6336 25.7106 22.3068C25.7106 21.3349 25.705 20.3619 25.7106 19.3899C25.7106 18.8387 25.9366 18.5194 26.3451 18.4264C26.9176 18.2959 27.3734 18.6415 27.4095 19.2613C27.4346 19.682 27.4188 20.1065 27.4197 20.5263C27.4197 21.4166 27.4197 22.3106 27.4197 23.1981C27.4197 23.6479 27.7134 23.9634 28.1062 23.9634C28.499 23.9634 28.7973 23.6488 28.8019 23.1999C28.8112 22.3444 28.8019 21.4898 28.8093 20.6343C28.8093 20.145 29.0492 19.837 29.4494 19.7553C30.0053 19.6407 30.461 19.9619 30.4814 20.5404C30.5111 21.348 30.4972 22.1566 30.5009 22.9652C30.5009 23.6225 30.7501 23.9738 31.2096 23.9644C31.669 23.955 31.8849 23.6272 31.8886 22.9755C31.8886 22.5895 31.8793 22.2007 31.9155 21.8176C31.9599 21.348 32.273 21.0663 32.7195 21.0606C33.1661 21.055 33.5061 21.3339 33.5829 21.8035C33.5848 21.815 33.5848 21.8267 33.5829 21.8382C33.5329 24.0714 33.7923 26.3178 33.3736 28.535C33.0586 30.2048 32.3462 31.6867 31.1151 32.8756C28.8741 35.0356 25.7226 35.1605 23.3427 33.1574C22.8182 32.7166 22.3393 32.2229 21.9133 31.6839C20.294 29.6178 18.708 27.533 17.111 25.4529C16.7145 24.9382 16.6042 24.3795 16.91 23.7812C17.2981 23.0215 18.0272 22.906 18.6108 23.5192C19.2685 24.2104 19.9077 24.9279 20.5617 25.6163C20.7517 25.8207 20.9672 25.999 21.2028 26.1469C21.8003 26.5056 22.4136 26.2408 22.5609 25.5524C22.6142 25.2649 22.6375 24.9725 22.6304 24.68C22.6359 22.829 22.6304 20.978 22.6304 19.127L22.6378 19.1242Z" fill="#FFF8EE"/>
<path d="M10.0366 9.28894C10.4526 9.28894 10.8704 9.28331 11.2835 9.28894C12.1228 9.30209 12.6861 9.84302 12.7027 10.6854C12.7206 11.5738 12.7206 12.4628 12.7027 13.3525C12.6851 14.1667 12.1469 14.7114 11.34 14.7274C10.4627 14.7443 9.58546 14.7424 8.70818 14.7274C7.87444 14.7142 7.32973 14.1479 7.32325 13.3027C7.31769 12.4369 7.31584 11.571 7.32325 10.7051C7.33066 9.86837 7.88926 9.30491 8.72115 9.288C9.15933 9.28331 9.59843 9.28894 10.0366 9.28894ZM8.7267 13.3037H11.2881V10.7155H8.7267V13.3037Z" fill="#A68E6C"/>
<path d="M13.3127 17.3652C15.042 17.3652 16.774 17.3652 18.5088 17.3652C18.972 17.3652 19.2758 17.6207 19.3055 18.0226C19.3138 18.1998 19.2567 18.3737 19.1453 18.5105C19.034 18.6473 18.8765 18.7372 18.7033 18.7626C18.5769 18.7758 18.4496 18.7796 18.3226 18.7739H8.31214C8.23154 18.7739 8.15002 18.7739 8.06943 18.7739C7.63218 18.7551 7.31906 18.4565 7.32833 18.0621C7.33759 17.6676 7.64145 17.3709 8.08704 17.3699C9.83048 17.3652 11.5693 17.3652 13.3127 17.3652Z" fill="#A68E6C"/>
<path d="M11.7197 29.458C12.9101 29.458 14.1014 29.458 15.2918 29.458C15.6216 29.458 15.8866 29.5632 16.0329 29.8749C16.2516 30.3501 15.9125 30.8535 15.3604 30.8629C14.6786 30.8742 13.9967 30.8629 13.3149 30.8629C11.5808 30.8629 9.84749 30.8629 8.11331 30.8629C7.51672 30.8629 7.15729 30.3473 7.40185 29.8562C7.54822 29.5632 7.79927 29.4561 8.11702 29.457C9.31575 29.4608 10.5182 29.458 11.7197 29.458Z" fill="#A68E6C"/>
<path d="M10.865 22.7931C9.95253 22.7931 9.04004 22.7931 8.12756 22.7931C7.64306 22.7931 7.33366 22.5245 7.32254 22.1131C7.31142 21.7018 7.63843 21.3919 8.12941 21.39C9.9655 21.3863 11.8019 21.3863 13.6386 21.39C14.1194 21.39 14.4195 21.6718 14.4195 22.0953C14.4195 22.5188 14.1194 22.7893 13.6367 22.7921C12.7131 22.7968 11.7886 22.7931 10.865 22.7931Z" fill="#A68E6C"/>
<path d="M17.7097 10.6973C16.8213 10.6973 15.9329 10.6973 15.0445 10.6973C14.5313 10.6973 14.2376 10.4325 14.2422 9.99109C14.2478 9.5713 14.5461 9.2952 15.0297 9.29427C16.8065 9.28863 18.5833 9.28863 20.3601 9.29427C20.8529 9.29427 21.1799 9.59384 21.1725 10.0118C21.1651 10.4297 20.8473 10.6973 20.3388 10.6982C19.4624 10.6976 18.586 10.6973 17.7097 10.6973Z" fill="#A68E6C"/>
<path d="M10.5299 25.4304C11.3266 25.4304 12.1233 25.4257 12.919 25.4304C13.4295 25.4304 13.7435 25.7046 13.7454 26.1253C13.7472 26.546 13.4304 26.8315 12.9274 26.8334C11.3229 26.8334 9.71839 26.8334 8.1102 26.8334C7.78596 26.8334 7.52286 26.7226 7.38205 26.4033C7.26625 26.1413 7.28942 25.8633 7.49415 25.6914C7.67949 25.5417 7.90601 25.4538 8.14262 25.4397C8.93652 25.4125 9.73784 25.4294 10.5299 25.4304Z" fill="#A68E6C"/>
<path d="M17.1147 14.7356C16.4005 14.7356 15.6853 14.7356 14.9702 14.7356C14.6376 14.7356 14.3838 14.5844 14.2754 14.2604C14.1828 13.9872 14.2281 13.7082 14.4607 13.5298C14.6057 13.4182 14.7801 13.3528 14.9618 13.342C16.3922 13.327 17.8222 13.3251 19.2519 13.3363C19.7003 13.3363 19.9995 13.6519 19.993 14.0482C19.9865 14.4445 19.6929 14.7234 19.2593 14.7309C18.5451 14.7431 17.8299 14.7356 17.1147 14.7356Z" fill="#A68E6C"/>
<path d="M14.8078 6.09606C14.8062 6.18699 14.7867 6.27668 14.7507 6.35997C14.7147 6.44326 14.6627 6.5185 14.5979 6.58136C14.5331 6.64421 14.4566 6.69343 14.3729 6.72619C14.2892 6.75895 14.1999 6.77459 14.1103 6.77222C13.9289 6.77198 13.755 6.6991 13.6265 6.56946C13.4979 6.43982 13.425 6.26393 13.4238 6.08009C13.4246 5.9861 13.444 5.89323 13.4808 5.80696C13.5176 5.72069 13.5711 5.64278 13.6381 5.57782C13.7051 5.51286 13.7843 5.46218 13.871 5.42876C13.9576 5.39535 14.05 5.37988 14.1427 5.38327C14.3239 5.38916 14.4954 5.46737 14.62 5.60087C14.7446 5.73437 14.8121 5.91234 14.8078 6.09606Z" fill="black"/>
<path d="M8.72656 13.3055V10.7173H11.288V13.3055H8.72656Z" fill="white"/>
</svg>
