<svg xmlns="http://www.w3.org/2000/svg" width="18.216" height="17.41" viewBox="0 0 18.216 17.41"><defs><style>.a{fill:#fff;}</style></defs><g transform="translate(0 0)"><rect class="a" width="3.914" height="11.753" transform="translate(0.225 5.657)"/><path class="a" d="M162.283,140.677a4.212,4.212,0,0,0-3.261-1.346,4.7,4.7,0,0,0-1.358.184,3.081,3.081,0,0,0-1.032.516,4.418,4.418,0,0,0-1.133,1.244V139.6h-3.9l.012.569q.012.569.012,3.51t-.024,7.673h3.9V144.8a2.864,2.864,0,0,1,.13-.961,2.519,2.519,0,0,1,.753-1.014,1.92,1.92,0,0,1,1.251-.409,1.687,1.687,0,0,1,1.5.706,3.431,3.431,0,0,1,.48,1.951v6.285h3.9V144.62A5.647,5.647,0,0,0,162.283,140.677Z" transform="translate(-145.3 -133.947)"/><path class="a" d="M2.206,9.708a2.233,2.233,0,0,0-1.6.575A1.91,1.91,0,0,0,0,11.736a1.943,1.943,0,0,0,.593,1.447,2.14,2.14,0,0,0,1.565.581h.024a2.234,2.234,0,0,0,1.607-.581,1.877,1.877,0,0,0,.6-1.447,1.978,1.978,0,0,0-.6-1.453A2.168,2.168,0,0,0,2.206,9.708Z" transform="translate(0 -9.708)"/></g></svg>