<svg xmlns="http://www.w3.org/2000/svg" width="141.952" height="129.267" viewBox="0 0 141.952 129.267">
  <g id="Group_3585" data-name="Group 3585" transform="translate(0 0)">
    <path id="Path_13360" data-name="Path 13360" d="M287.971,296.5c.175.086.444-.461.484-.54a1.42,1.42,0,0,1,.194-.266,4.266,4.266,0,0,1,.485-.475,10.238,10.238,0,0,1,1.369-.97,25.312,25.312,0,0,1,3.781-1.81,98.792,98.792,0,0,1,11.451-3.33c.241-.052.938-1.266.72-1.218-2.363.51-8.069,1.967-10.342,2.789a24.4,24.4,0,0,0-6.119,2.971,5.924,5.924,0,0,0-1.89,2.136c-.052.105-.311.626-.133.713" transform="translate(-226.653 -189.696)" fill="#fff"/>
    <path id="Path_13361" data-name="Path 13361" d="M286.667,290.469c-.038.358.61-.822.674-1.178a11.465,11.465,0,0,0-.582-6.445c-.1-.241-.94,1.213-.833,1.473a11.971,11.971,0,0,1,.741,6.15" transform="translate(-226.481 -189.26)" fill="#fff"/>
    <path id="Path_13362" data-name="Path 13362" d="M306.837,224.774c2.308-1.161,5.414-2.81,7.693-4.023.246-.131.646-1.373.457-1.271-2.279,1.212-5.462,3-7.769,4.164-.246.123-.573,1.227-.38,1.13" transform="translate(-228.277 -183.808)" fill="#fff"/>
    <path id="Path_13363" data-name="Path 13363" d="M272.578,187.483c2.425-1.373,5.535-3.162,7.813-4.375.247-.131.646-1.33.457-1.229-2.278,1.213-5.422,2.888-7.7,4.35-.232.149-.757,1.361-.568,1.254" transform="translate(-225.33 -180.572)" fill="#fff"/>
    <path id="Path_13364" data-name="Path 13364" d="M279.772,227.9a7.289,7.289,0,0,0,.618-.853,4.174,4.174,0,0,1,.45-.509,8.538,8.538,0,0,1,1.281-1.063,26.82,26.82,0,0,1,3.7-1.968,106.452,106.452,0,0,1,12.569-4.207c.239-.062.844-1.2.629-1.146-2.34.609-9.209,2.712-11.445,3.629a24.017,24.017,0,0,0-5.988,3.116,5.633,5.633,0,0,0-1.734,2.279c-.045.11-.278.7-.081.721" transform="translate(-225.946 -183.695)" fill="#fff"/>
    <path id="Path_13365" data-name="Path 13365" d="M288.106,254.633c-.019.359.626-.819.674-1.177a11.637,11.637,0,0,0-.42-5.53c-.078-.249-.917,1.2-.833,1.473a12.341,12.341,0,0,1,.579,5.234" transform="translate(-226.619 -186.254)" fill="#fff"/>
    <path id="Path_13366" data-name="Path 13366" d="M281.342,220.172a1.228,1.228,0,0,0,1.272-.955,2.532,2.532,0,0,0,.1-1.118l-.149-.015s-.3.614-.824.523c-.374-.065-.592-.523-.492-1.2a12.8,12.8,0,0,1,1.142-4l-.254-.116a19.3,19.3,0,0,0-1.682,4.158c-.422,1.933.26,2.578.887,2.724" transform="translate(-226 -183.276)" fill="#fff"/>
    <path id="Path_13367" data-name="Path 13367" d="M311.5,188.14a2.135,2.135,0,0,1,1.532.544,1.031,1.031,0,0,1,.314.77,2.8,2.8,0,0,1-1.5.142.865.865,0,0,1-.345-1.455m.36,2.681a1.963,1.963,0,0,0,1.612-.679,2,2,0,0,0-1.629-3.121,5.048,5.048,0,0,0-1,1.508,2.512,2.512,0,0,0-.265,1.312,1.232,1.232,0,0,0,1.284.981" transform="translate(-228.602 -181.015)" fill="#fff"/>
    <path id="Path_13368" data-name="Path 13368" d="M298.084,261.486c2.48-1.375,4.7-2.526,7.031-3.637.251-.121.935-1.414.74-1.322-2.33,1.11-4.621,2.286-6.991,3.686-.238.141-.97,1.377-.781,1.272" transform="translate(-227.526 -186.996)" fill="#fff"/>
    <path id="Path_13369" data-name="Path 13369" d="M261.867,291.452l-.381,1.55a1.153,1.153,0,0,0,.671.16,11.705,11.705,0,0,0,2.6-.543c.079,0,.143.048.143.112s-2.732,2.14-2.828,2.3-.207.384.1.191,1.215-.494,1.39-.59a4.819,4.819,0,0,0,1.518-1.821c.4-.942.489-1.106.489-1.345s-.048-.448-.335-.448a16.359,16.359,0,0,1-2.764.623,1.814,1.814,0,0,1-.6-.188" transform="translate(-224.379 -189.965)" fill="#fff"/>
    <path id="Path_13370" data-name="Path 13370" d="M324.368,236.795a3.142,3.142,0,0,0,1.137,2.8,4.217,4.217,0,0,0,1.852.343c.275,0,3.388-3.244,2.909-3.166a3.239,3.239,0,0,1-2-.059c-.948-.478-.968-1.648-.98-2.638V217.286c0-1.363.25-3.066-.417-4.294a16,16,0,0,0-2.918,2.918c.61,1.123.413,2.6.413,3.841Z" transform="translate(-229.755 -183.249)" fill="#fff"/>
    <path id="Path_13371" data-name="Path 13371" d="M316.474,240.524h0Z" transform="translate(-229.111 -185.62)" fill="#0f2056"/>
    <path id="Path_13372" data-name="Path 13372" d="M310.985,233.967c-.971-.577-1.648-1.885-.857-2.746.633-.69,2.337,1.836,2.775,2.647.073.134.216.425.274.574a4.725,4.725,0,0,1-2.192-.474m-4.266,12.578c-.217.391-.711,1.408-.342,1.437.179-.2,5.8-6.266,7.164-7.806a20.946,20.946,0,0,0,2.345-2.813h3.745c1.067,0,1.427-.268,1.427-1.272V217.358c0-.226-.413-.059-.588.09a22.012,22.012,0,0,0-3.244,3.627c.272.477.666,1.16.91,1.563v11.8h-1.484c0-.058,0-.118-.005-.178a6.94,6.94,0,0,0-.629-2.609c-.637-1.315-2.135-3.294-3.542-3.294-.193,0-.4.2-.533.3a25.8,25.8,0,0,0-3.5,3.421,2.8,2.8,0,0,0-.512.776c-.382,1.312-.819,2.827.546,3.705a6.269,6.269,0,0,0,3.366.785c1.207,0,2.347.011,2.4.011a18.64,18.64,0,0,1-2.724,3.706c-2.311,2.718-2.208,2.522-4.793,5.476" transform="translate(-228.23 -183.616)" fill="#fff"/>
    <path id="Path_13373" data-name="Path 13373" d="M313.2,203.2c.1.6-.942,1.683-2.118,3.1-3.929,4.727-3.291,3.9-5.968,6.955-.25.473-.666,1.516-.342,1.437.2-.218,8.078-9.1,8.12-9.154a4.206,4.206,0,0,1,2.984-1.509h1.27a2.661,2.661,0,0,1,1.774.605c.512.376,1.374,1.676,2.837,1.676a19.907,19.907,0,0,0,3.837-3.248,14.489,14.489,0,0,1-1.7-.645,5.572,5.572,0,0,1-1.632-1.487c-1.589-2.084-1.283-5.257-1.283-7.978V180.739c0-.236-.174-.129-.547.239a35.063,35.063,0,0,0-3.19,3.605l.813,1.426c-.038,2.135-.079,8.086-.109,9.659a26.06,26.06,0,0,0,.132,5.286c.01.05.021.1.031.152h-.786a1.455,1.455,0,0,1-1.147-.449c-1.136-1.336-2.552-3.421-3.707-4.837a14.6,14.6,0,0,0-2.073,3.712s2.582,3.308,2.807,3.667" transform="translate(-228.094 -180.464)" fill="#fff"/>
    <path id="Path_13374" data-name="Path 13374" d="M264.168,194.845a30.161,30.161,0,0,0,2.365-2.5c-.75-.73-1.643-1.646-2.394-2.376a22.947,22.947,0,0,0-2.365,2.5s1.643,1.646,2.395,2.376" transform="translate(-224.403 -181.268)" fill="#fff"/>
    <path id="Path_13375" data-name="Path 13375" d="M264.168,227.49a30.008,30.008,0,0,0,2.365-2.5c-.75-.731-1.643-1.646-2.394-2.376a22.856,22.856,0,0,0-2.365,2.5s1.643,1.646,2.395,2.375" transform="translate(-224.403 -184.078)" fill="#fff"/>
    <path id="Path_13376" data-name="Path 13376" d="M324.385,187.05v9.919c0,5.837,7.5,5.589,10.139,4.9,2.768-.724,6.263-2.614,5.076-2.426-6.988,1.1-12.293-.039-12.293-4.254V184.6c0-1.305.225-2.9-.417-4.076-.1-.184-.211-.014-.635.435-1.719,1.817-2.361,2.341-2.283,2.483a7.568,7.568,0,0,1,.413,3.61" transform="translate(-229.756 -180.449)" fill="#fff"/>
    <path id="Path_13377" data-name="Path 13377" d="M281.884,276.539a9.208,9.208,0,0,0,1.794-2.06,5.3,5.3,0,0,0,.5-1.234l.064-.33h8.054v-.007c.156.169,2.6-2.822,2.373-3.106-1.166-1.464-3.256-4.6-4.508-6.23-.165-.216-2.3,3.308-2.083,3.548,0,0,1.166,1.413,2.32,2.877h-5.765V249.2c0-.358-2.922,2.479-2.922,2.721v20.164c0,1.546.215,3.336-.576,4.737-.393.7.652-.192.748-.281" transform="translate(-226.062 -186.363)" fill="#fff"/>
    <path id="Path_13378" data-name="Path 13378" d="M258.585,270.955c0-.218.791-1.943,1.417-1.943.931,0,2.078,1.505,2.579,2.314-1.082,0-4-.09-4-.371m5.865,3.315h8.368v-.009c.136.2,2.6-2.819,2.376-3.1-1.167-1.465-3.257-4.6-4.507-6.231-.166-.216-2.3,3.309-2.084,3.548,0,0,1.162,1.414,2.319,2.877h-5.2c0-2.686-2.7-6.186-4.277-6.186-1.791,0-4.537,6.6-4.537,7.715,0,.877.523,1.4,1.679,1.4,1.28,0,3.955,0,3.965,0a10.323,10.323,0,0,1-2.011,3.2l-2.24,2.507s-19.055,21.35-19.567,21.884H220.96l-.076.177c4.794,2.091,13.5,5.062,14.314,5.062.045,0,24.993-28.137,24.993-28.137,1.2-1.344,3.42-3.6,4.259-4.7" transform="translate(-220.884 -187.719)" fill="#fff"/>
    <path id="Path_13379" data-name="Path 13379" d="M297.627,194.889c-.053-.073-2.262,1.888-2.262,1.888H276.228a4.327,4.327,0,0,1-3.644-1.631c2.891-3,9.219-9.611,11.976-12.712.077-.088,1.19-1.985.833-1.985a17.877,17.877,0,0,0-1.586,1.672c-3.023,3.4-13.929,14.394-15.892,16.949-.349.455-.25.628-.175.628H275.8v0l20.6,0c.223.238,1.127,1.39,1.127,1.39H267.342a1.441,1.441,0,0,1-1.12-.447c-1.136-1.336-2.641-3.421-3.8-4.837a14.569,14.569,0,0,0-2.074,3.712s1.186,1.453,2.283,2.837c.476.647.572,1.51-1.09,3.511-.24.289-2.706,3.113-2.706,3.113-.575.663-19.545,21.9-20.108,22.486H220.96l-.076.177c4.794,2.091,13.528,5.062,14.338,5.062.045,0,27.7-31.16,27.721-31.185a4.574,4.574,0,0,1,2.955-1.508h33.318c.084,0,2.745-2.958,2.745-3.061s-3.9-5.472-4.332-6.06" transform="translate(-220.884 -180.449)" fill="#fff"/>
    <path id="Path_13380" data-name="Path 13380" d="M265.894,250.768a27.105,27.105,0,0,0,2.146-2.271c-.682-.662-1.491-1.492-2.172-2.155a20.921,20.921,0,0,0-2.146,2.27s1.491,1.493,2.172,2.156" transform="translate(-224.571 -186.12)" fill="#fff"/>
    <path id="Path_13381" data-name="Path 13381" d="M270.343,250.768a27.105,27.105,0,0,0,2.146-2.271c-.682-.662-1.491-1.492-2.172-2.155a20.91,20.91,0,0,0-2.146,2.27s1.491,1.493,2.172,2.156" transform="translate(-224.954 -186.12)" fill="#fff"/>
    <path id="Path_13382" data-name="Path 13382" d="M291.032,259.847a22.1,22.1,0,0,0,1.718-1.817c-.546-.531-1.194-1.2-1.739-1.727a16.663,16.663,0,0,0-1.718,1.82s1.194,1.2,1.739,1.725" transform="translate(-226.772 -186.978)" fill="#fff"/>
    <path id="Path_13383" data-name="Path 13383" d="M262.684,262.936a25.934,25.934,0,0,0,2.048-2.167c-.651-.632-1.423-1.425-2.073-2.057a20.058,20.058,0,0,0-2.048,2.167s1.423,1.425,2.073,2.057" transform="translate(-224.303 -187.185)" fill="#fff"/>
    <path id="Path_13384" data-name="Path 13384" d="M266.93,262.936a25.925,25.925,0,0,0,2.048-2.167c-.651-.632-1.423-1.425-2.073-2.057a20.06,20.06,0,0,0-2.048,2.167s1.423,1.425,2.073,2.057" transform="translate(-224.668 -187.185)" fill="#fff"/>
    <path id="Path_13385" data-name="Path 13385" d="M289.318,263.143a22.514,22.514,0,0,0,1.774-1.877c-.563-.547-1.233-1.234-1.8-1.781a17.4,17.4,0,0,0-1.774,1.876s1.233,1.235,1.8,1.782" transform="translate(-226.619 -187.251)" fill="#fff"/>
    <path id="Path_13386" data-name="Path 13386" d="M293,263.143a22.677,22.677,0,0,0,1.774-1.877c-.563-.547-1.233-1.234-1.8-1.781a17.313,17.313,0,0,0-1.774,1.876s1.233,1.235,1.8,1.782" transform="translate(-226.936 -187.251)" fill="#fff"/>
    <path id="Path_13387" data-name="Path 13387" d="M302.929,299.534a30.179,30.179,0,0,0,2.365-2.5c-.751-.73-1.643-1.646-2.394-2.376a22.936,22.936,0,0,0-2.365,2.5s1.643,1.646,2.394,2.376" transform="translate(-227.739 -190.278)" fill="#fff"/>
    <path id="Path_13388" data-name="Path 13388" d="M271.241,234.075v-1.39h22.484l0,0c.221.237,1.113,1.386,1.113,1.386Zm23.7-6.2c-.053-.072-2.262,1.888-2.262,1.888l.007,0h-21.45V213.008c0-.358-3.817,3.463-3.736,3.6l.815,1.428v16.035h-.476a2.044,2.044,0,0,1-1.693-.714c-1.176-1.3-2.63-3.321-3.775-4.747-.122-.153-1.672,1.28-3.175,2.988-2.79,3.17-2.691,4.3-1.247,6.122,1.071,1.355,1.47,1.827,1.946,2.485a2.167,2.167,0,0,1-.53,2.526c-.575.664-19.693,22.052-20.639,23.083H220.96l-.076.177c4.794,2.091,13.47,5.1,14.279,5.1.044,0,24.475-27.534,25.566-28.773,1.044-1.185,2.4-2.667,2.4-3.717,0-1.234-2.246-3.372-3.054-4.4a1.578,1.578,0,0,1,.142-2.065c.664.792,2.244,2.8,3.164,3.825A2.779,2.779,0,0,0,265.478,237h2.842v3.564a.077.077,0,0,0,.013.049,2.861,2.861,0,0,0,1.124,2.412,2.661,2.661,0,0,0,1.459.344,23.451,23.451,0,0,0,2.979-2.744c.031-.044.015-.176-.061-.176a2.7,2.7,0,0,1-1.4-.306,2.416,2.416,0,0,1-1.2-2.316h0V237l25.292,0c.084,0,2.745-2.957,2.745-3.06,0-.054-4.113-5.76-4.332-6.061" transform="translate(-220.884 -183.249)" fill="#fff"/>
    <path id="Path_13389" data-name="Path 13389" d="M282.174,305.886c0-.287,0-1.1,0-1.39h24.049l0,0c.221.237,1.113,1.386,1.113,1.386Zm25.269-6.2c-.053-.073-2.262,1.888-2.262,1.888l.007,0H282.173c0-4.608.124-16.051.124-16.758,0-.358-3.94,3.463-3.86,3.6l.814,1.428v16.035h-1.734V289.218c0-.358-2.922,2.48-2.922,2.721v16.494c0,2.645-.18,3.476-.8,4.737-.081.163.093.229.2.154a6.89,6.89,0,0,0,2.763-2.5,6.17,6.17,0,0,0,.624-2.019h1.869c0,1.243.014,3.488.014,3.614a2.856,2.856,0,0,0,1.124,2.412,2.66,2.66,0,0,0,1.459.344,23.511,23.511,0,0,0,2.979-2.744c.031-.044.016-.175-.061-.175a2.7,2.7,0,0,1-1.4-.306,2.415,2.415,0,0,1-1.2-2.316v-.828l26.856,0c.084,0,2.745-2.958,2.745-3.06,0-.054-4.112-5.76-4.332-6.061" transform="translate(-225.436 -189.43)" fill="#fff"/>
    <path id="Path_13390" data-name="Path 13390" d="M334.434,305.99a3.335,3.335,0,0,1-2.651-1.672,4.531,4.531,0,0,1-.345-2.072,3.03,3.03,0,0,1,2.762,2.2,3.931,3.931,0,0,1,.234,1.548m-14.225-.469c-.972-.577-1.648-1.885-.858-2.746.633-.69,2.337,1.835,2.776,2.647.072.134.215.424.273.573a4.721,4.721,0,0,1-2.191-.474m38.111,1.454c-1.04-.85-2.091-1.107-2.091-7.32V286.327c0-.235-.174-.13-.547.238a34.977,34.977,0,0,0-3.191,3.606q.407.713.813,1.425c-.037,2.135-.108,7.737-.108,9.311a13.059,13.059,0,0,0,.695,5.154s-.007.041-.079.028a4.209,4.209,0,0,0-.829-.088h-.325c-1.089,0-7.459-4.282-11.789-9.282-.192-.221-1.821,3.814-1.621,4.02a35.044,35.044,0,0,0,6.259,5.285c-3.009,0-7.089-.015-9.127-.02a5.528,5.528,0,0,0,.779-1.187,3.611,3.611,0,0,0,.051-2.464,4.243,4.243,0,0,0-3.225-3.108,3.485,3.485,0,0,0-.5-.046,4.639,4.639,0,0,0-.955.606,15.263,15.263,0,0,0-2.591,2.391,4.767,4.767,0,0,0-1.138,2.795,2.518,2.518,0,0,0,.234,1.01h-3.168c0-.062.011-.119.008-.183a6.826,6.826,0,0,0-.63-2.609c-.637-1.315-2.135-3.293-3.542-3.293-.193,0-.4.2-.533.3a25.674,25.674,0,0,0-3.5,3.42,2.816,2.816,0,0,0-.513.777c-.381,1.311-.818,2.826.547,3.705a6.273,6.273,0,0,0,3.365.785c.49,0,2.347.011,2.4.011a15.36,15.36,0,0,1-2.777,3.706c-2.153,2.583-1.5,1.8-4.083,4.757-.269.393-.672,1.346-.342,1.437.179-.2,5.142-5.548,6.507-7.087a28.143,28.143,0,0,0,2.346-2.8l4.4,0a7.023,7.023,0,0,0,1.143-.819,6.91,6.91,0,0,0,2.674.813l19.076,0a4.938,4.938,0,0,1,2.052.526,35.038,35.038,0,0,1,4.162,2.774c.2.146,3.178-2.381,3.138-2.524-.328-1.183-2.223-1.734-3.431-2.722" transform="translate(-229.082 -189.551)" fill="#fff"/>
    <path id="Path_13391" data-name="Path 13391" d="M361.853,288.1c0,1.2-.042,7.778,0,8.307.191,2.44,1.126,3.469,2.336,3.469a12.659,12.659,0,0,0,5.514-1.649c3.876-1.948,5.082-3.069,3.187-2.437a19.211,19.211,0,0,1-5.209.9c-3.1,0-2.905-1.251-2.905-3.7v-7.339c0-1.305.225-2.9-.417-4.077a16.045,16.045,0,0,0-2.918,2.919,7.568,7.568,0,0,1,.413,3.61" transform="translate(-232.981 -189.151)" fill="#fff"/>
    <path id="Path_13392" data-name="Path 13392" d="M323.29,312.328h0Z" transform="translate(-229.698 -191.799)" fill="#fff"/>
    <path id="Path_13393" data-name="Path 13393" d="M333.677,298.238a30.168,30.168,0,0,0,2.365-2.5c-.751-.73-1.643-1.646-2.395-2.376a22.952,22.952,0,0,0-2.365,2.5s1.643,1.646,2.395,2.376" transform="translate(-230.385 -190.167)" fill="#fff"/>
    <path id="Path_13394" data-name="Path 13394" d="M345.434,290.468a2.051,2.051,0,0,1,1.532.407,1.031,1.031,0,0,1,.313.77,2.8,2.8,0,0,1-1.5.142.754.754,0,0,1-.345-1.318m.36,2.544a1.963,1.963,0,0,0,1.612-.679,1.827,1.827,0,0,0-1.522-2.984c-.228.026-.634.525-1.11,1.479a2.733,2.733,0,0,0-.289,1.2c0,.6.7.98,1.308.98" transform="translate(-231.522 -189.82)" fill="#fff"/>
    <path id="Path_13395" data-name="Path 13395" d="M291.966,191.6s.006-.447.31-.447c.651,0,1.651,2.1,1.863,2.988h.211a9.752,9.752,0,0,0,.381-2.851c0-2.13-.846-3.16-.846-4.035,0-.522.3-.692.522-.692a2.972,2.972,0,0,1,1.157.607c.091.068.113-1.269.113-1.269a1.381,1.381,0,0,0-1.284-.677c-.339,0-.988.541-.988,1.936,0,2.048.889,3,.889,4.159s-.212,1.256-.212,1.256-.927-3.1-2.62-3.1c-1.143,0-.562,2.034-.562,2.034Z" transform="translate(-226.897 -180.86)" fill="#fff"/>
    <path id="Path_13396" data-name="Path 13396" d="M317.795,293.6s.005-.446.31-.446c.651,0,1.651,2.1,1.863,2.988h.211a9.753,9.753,0,0,0,.381-2.851c0-2.13-.846-3.161-.846-4.036,0-.521.3-.691.522-.691a2.96,2.96,0,0,1,1.157.607c.091.068.113-1.27.113-1.27a1.381,1.381,0,0,0-1.284-.676c-.339,0-.988.541-.988,1.936,0,2.048.889,3,.889,4.159s-.212,1.256-.212,1.256-.927-3.1-2.62-3.1c-1.143,0-.562,2.034-.562,2.034Z" transform="translate(-229.12 -189.639)" fill="#fff"/>
    <path id="Path_13397" data-name="Path 13397" d="M270.018,307.6h0c.057-.1.091-.2.052-.249-1.274-1.749-2.783-3.907-4.056-5.656-.064-.09-.554.519-1.067,1.228l-3.237,4.436H244.342c-.131,0-2.31,2.333-2.627,2.691-.021.023.062.228.1.228h25.854c.106,0,2.346-2.679,2.346-2.679" transform="translate(-222.677 -190.883)" fill="#fff"/>
    <path id="Path_13398" data-name="Path 13398" d="M250.023,303.993c.024.023,1.4-1.395,1.859-1.926.313.313,1.4,1.4,1.941,1.926a25.431,25.431,0,0,0,2.005-2.122c-.637-.619-1.394-1.395-2.03-2.014a24.93,24.93,0,0,0-1.867,1.92c-.616-.6-1.328-1.332-1.933-1.92a19.582,19.582,0,0,0-2.005,2.122s1.393,1.4,2.03,2.014" transform="translate(-223.217 -190.726)" fill="#fff"/>
    <path id="Path_13399" data-name="Path 13399" d="M300.842,269.52c-.972-.576-1.647-1.885-.857-2.745.633-.69,2.337,1.835,2.775,2.647.073.134.216.425.274.574a4.714,4.714,0,0,1-2.192-.475m15.406-20.169a26.278,26.278,0,0,0-3.441,3.627c.272.477.667,1.16.91,1.563V270h-1.951V253.87c0-.226-.217-.058-.391.09a26.278,26.278,0,0,0-3.441,3.627c.272.477.667,1.16.91,1.563V270h-2.333s0-.142-.006-.177a6.951,6.951,0,0,0-.63-2.61c-.637-1.314-2.135-3.293-3.542-3.293-.193,0-.4.2-.533.3a25.735,25.735,0,0,0-3.5,3.421,2.772,2.772,0,0,0-.513.776c-.382,1.311-.818,2.827.547,3.705a6.264,6.264,0,0,0,3.365.785c1.208,0,2.347.011,2.4.011a18.637,18.637,0,0,1-2.724,3.706c-2.311,2.717-1.55,1.8-4.135,4.758-.217.39-.711,1.408-.342,1.437.179-.2,5.142-5.548,6.506-7.088a20.993,20.993,0,0,0,2.345-2.813H309l.33,0h6.263c1.056,0,1.047-.166,1.047-1.137V249.261c0-.226-.217-.059-.391.091" transform="translate(-227.414 -186.362)" fill="#fff"/>
    <path id="Path_13400" data-name="Path 13400" d="M277.134,259.586c-1.44-.49-2.24-1.439-2.24-2.244,0-.483,1.135-1.154,1.1-1.2a1.542,1.542,0,0,0-.175-.172s-.626.323-.858.451c-.805.445-1.629,1.251-1.629,1.851a2.93,2.93,0,0,0,.687,1.629,7.838,7.838,0,0,0-1.385.182c-.164.059-.957.95-.848.938.489-.053,5.913.007,5.913.007s1.106-1.189.872-1.2a5.772,5.772,0,0,1-1.442-.238" transform="translate(-225.265 -186.949)" fill="#fff"/>
    <path id="Path_13401" data-name="Path 13401" d="M333.786,272.886,337.2,265.1l2.075,2.387.129-.094c13.328-9.734,22.147-14.466,26.961-14.466a5.745,5.745,0,0,1,1.152.109l.246.323c-3.844.113-8.141,2.122-16.673,7.752a182.374,182.374,0,0,0-16.8,12.451Z" transform="translate(-230.601 -186.687)" fill="#785e3c"/>
    <path id="Path_13402" data-name="Path 13402" d="M345.206,261.523c-8.762-5.765-13.486-8.023-17.127-8.158l.248-.324a5.376,5.376,0,0,1,1.08-.1c3.412,0,9.169,2.586,17.115,7.689l-.338.228c-.37.25-.694.471-.978.665" transform="translate(-230.11 -186.688)" fill="#785e3c"/>
    <path id="Path_13403" data-name="Path 13403" d="M363.3,274.363a171.507,171.507,0,0,0-15.246-11.3l.474-.315c.276-.182.577-.379.874-.573,3.3,2.162,5.814,3.849,8.785,6.019l.129.094,2.074-2.386,3.4,7.842Z" transform="translate(-231.828 -187.483)" fill="#785e3c"/>
    <path id="Path_13404" data-name="Path 13404" d="M347.654,241.618l-9.142,5.93.4-2.166,5.345-5.346-.333-.507-8.372,4v-.921l7.137-6.925,3.75,2.219.436-.479-3.883-4.092v-.587l5.341,2.387,5.341-2.387v.587l-3.872,4.079.364.5,3.81-2.227,7.137,6.926v.921l-8.372-4-.332.507,5.344,5.346.4,2.166L349,241.618V257.67c-.277.179-.713.466-1.35.893Z" transform="translate(-230.753 -184.95)" fill="#785e3c"/>
    <path id="Path_13405" data-name="Path 13405" d="M369.623,306.813c-.971-.577-1.647-1.886-.857-2.745.633-.69,2.318,1.688,2.756,2.5.072.134.235.571.293.719a4.725,4.725,0,0,1-2.192-.473m5.033-2.312c-.637-1.315-2.135-3.293-3.542-3.293-.193,0-.4.2-.533.3a25.673,25.673,0,0,0-3.5,3.419,2.8,2.8,0,0,0-.513.778c-.382,1.311-.819,2.826.547,3.705a6.265,6.265,0,0,0,3.365.784l1,0,.981-1.474s.638,1,.418,1.481a15.366,15.366,0,0,1-2.777,3.707c-2.154,2.582-1.5,1.8-4.082,4.756-.269.394-.672,1.347-.342,1.438.179-.2,4.97-5.517,6.3-7.087,1.828-2.156,3.312-3.944,3.312-5.911a6.23,6.23,0,0,0-.63-2.61" transform="translate(-233.334 -190.842)" fill="#fff"/>
    <path id="Path_13406" data-name="Path 13406" d="M334.141,286.485s-1.1-.8-1.1-1.1c0-.183.494-.46.578-.46a1.993,1.993,0,0,1,.647,1.025,1.52,1.52,0,0,1-.126.534m-.3-2.586c-.548,0-1.358,1.26-1.358,1.885,0,.949,1.159,1.408,1.159,1.534,0,.073-.153.44-1.333,1.439a34.081,34.081,0,0,1-3.512,2.459c-.052.1.918-.062,1.117-.134a9.643,9.643,0,0,0,2.951-1.837,5.034,5.034,0,0,0,1.925-3.73c0-.618-.3-1.617-.948-1.617" transform="translate(-230.172 -189.353)" fill="#fff"/>
  </g>
</svg>
