<svg width="96" height="101" viewBox="0 0 96 101" fill="none" xmlns="http://www.w3.org/2000/svg">
<path d="M0 0H95.5615V91C95.5615 96.5229 91.0844 101 85.5615 101H10C4.47716 101 0 96.5229 0 91V0Z" fill="white"/>
<path d="M43.2111 73.0754C43.3001 73.1186 43.437 72.8438 43.4574 72.8041C43.485 72.7559 43.5181 72.7111 43.5561 72.6705C43.6319 72.5846 43.7144 72.5048 43.803 72.4319C44.0214 72.2509 44.2544 72.0879 44.4998 71.9446C45.1148 71.5895 45.7585 71.2854 46.4244 71.0354C48.3313 70.3624 50.2777 69.8038 52.2529 69.3626C52.3756 69.3364 52.7304 68.7266 52.6194 68.7507C51.4166 69.0069 48.5123 69.7388 47.3553 70.1517C46.2516 70.5033 45.2032 71.0056 44.2408 71.6442C43.8363 71.9192 43.5061 72.2876 43.2787 72.7172C43.2523 72.77 43.1205 73.0317 43.2111 73.0754Z" fill="#0F2056"/>
<path d="M42.6339 70.2647C42.6146 70.4446 42.9444 69.8518 42.977 69.673C43.1953 68.5881 43.0924 67.4641 42.6807 66.4354C42.6298 66.3143 42.2023 67.0447 42.2567 67.1753C42.6549 68.1546 42.785 69.2201 42.6339 70.2647Z" fill="#0F2056"/>
<path d="M51.9872 40.0018C53.162 39.4185 54.7429 38.5902 55.9029 37.9808C56.0282 37.915 56.2318 37.2911 56.1356 37.3423C54.9755 37.9512 53.3554 38.8494 52.1811 39.4341C52.0559 39.4959 51.8895 40.0505 51.9877 40.0018" fill="#0F2056"/>
<path d="M36.0498 22.8948C37.2841 22.2051 38.8671 21.3064 40.0266 20.6971C40.1523 20.6313 40.3554 20.029 40.2592 20.0797C39.0997 20.689 37.4994 21.5305 36.3399 22.2649C36.2218 22.3397 35.9546 22.9486 36.0508 22.8948" fill="#0F2056"/>
<path d="M39.3976 41.6292C39.5128 41.4941 39.6179 41.3508 39.7122 41.2007C39.7814 41.1095 39.858 41.024 39.9412 40.945C40.1404 40.7465 40.3588 40.5676 40.5933 40.411C41.1939 40.0335 41.8236 39.703 42.4766 39.4224C44.5626 38.5875 46.6992 37.8817 48.8742 37.309C48.9958 37.2779 49.3038 36.7062 49.1943 36.7334C48.0033 37.0393 44.507 38.0957 43.3688 38.5564C42.2833 38.9339 41.2572 39.4609 40.3209 40.1217C39.9317 40.4219 39.6277 40.8162 39.4383 41.2665C39.4154 41.3218 39.2968 41.6182 39.3971 41.6287" fill="#0F2056"/>
<path d="M43.2967 53.7728C43.2871 53.9531 43.6154 53.3614 43.6398 53.1815C43.7964 52.2521 43.7231 51.299 43.426 50.4035C43.3863 50.2785 42.9593 51.0064 43.002 51.1435C43.2908 51.9888 43.3913 52.8856 43.2967 53.7728Z" fill="#0F2056"/>
<path d="M40.1693 37.9576C40.3174 37.9665 40.4638 37.9231 40.5824 37.8352C40.701 37.7473 40.7841 37.6206 40.8168 37.4779C40.8761 37.2968 40.8935 37.1049 40.8677 36.9163L40.7918 36.9087C40.7918 36.9087 40.6391 37.2172 40.3724 37.1714C40.1821 37.1388 40.0711 36.9087 40.122 36.5686C40.2034 35.872 40.3998 35.1933 40.7033 34.5592L40.574 34.501C40.2073 35.162 39.92 35.863 39.7178 36.5897C39.503 37.5608 39.8502 37.8848 40.1693 37.9581" fill="#0F2056"/>
<path d="M54.1956 23.0021C54.4819 22.9881 54.7621 23.0863 54.9754 23.2753C55.0278 23.3253 55.069 23.3855 55.0965 23.4521C55.1241 23.5187 55.1372 23.5902 55.1352 23.6621C54.8921 23.7543 54.628 23.779 54.3717 23.7335C54.298 23.7114 54.2314 23.6707 54.1786 23.6153C54.1258 23.5599 54.0887 23.4918 54.0709 23.4178C54.0532 23.3439 54.0553 23.2666 54.0773 23.1937C54.0993 23.1208 54.1402 23.0549 54.1961 23.0026L54.1956 23.0021ZM54.3793 24.3493C54.5335 24.359 54.6878 24.3332 54.8302 24.274C54.9726 24.2148 55.0991 24.1238 55.1998 24.0083C55.3028 23.8581 55.3627 23.6833 55.3732 23.5023C55.3836 23.3213 55.3443 23.1409 55.2593 22.9801C55.1743 22.8194 55.0468 22.6844 54.8904 22.5894C54.7339 22.4944 54.5544 22.4429 54.3707 22.4404C54.1562 22.6606 53.9837 22.9173 53.8617 23.198C53.7571 23.4016 53.7105 23.6294 53.7268 23.857C53.7573 24.0031 53.8402 24.1334 53.9603 24.224C54.0804 24.3145 54.2295 24.3592 54.3803 24.3498" fill="#0F2056"/>
<path d="M47.9137 56.8426C49.176 56.1519 50.3059 55.5737 51.4924 55.0156C51.6202 54.9548 51.9683 54.3053 51.8691 54.3515C50.6831 54.9091 49.517 55.4998 48.3107 56.2031C48.1895 56.274 47.817 56.8948 47.9132 56.8421" fill="#0F2056"/>
<path d="M31.0816 70.4045L30.8877 71.1832C30.9906 71.2437 31.1098 71.2718 31.2292 71.2635C31.6794 71.2225 32.1234 71.131 32.5526 70.9908C32.5928 70.9908 32.6254 71.0149 32.6254 71.047C32.6254 71.0792 31.2348 72.1221 31.186 72.2024C31.1371 72.2828 31.0806 72.3953 31.2369 72.2984C31.3931 72.2014 31.8553 72.0502 31.9444 72.002C32.2751 71.7653 32.5407 71.4509 32.717 71.0872C32.9206 70.614 32.9659 70.5316 32.9659 70.4116C32.9659 70.2915 32.9415 70.1865 32.7954 70.1865C32.3365 70.3308 31.8658 70.4355 31.3886 70.4995C31.282 70.4858 31.1786 70.4538 31.0832 70.405" fill="#0F2056"/>
<path d="M60.1586 46.3216C60.1274 46.5852 60.1642 46.8522 60.2653 47.098C60.3665 47.3439 60.5288 47.5606 60.7373 47.7282C61.0343 47.855 61.3566 47.9139 61.6799 47.9005C61.8199 47.9005 63.4044 46.2709 63.1606 46.31C62.8266 46.4064 62.4703 46.3961 62.1426 46.2804C61.6601 46.0403 61.6499 45.4525 61.6438 44.9552V36.5213C61.6438 35.8366 61.7711 34.9811 61.4315 34.3643C60.8744 34.7875 60.3752 35.2803 59.9463 35.8301C60.2568 36.3942 60.1565 37.1362 60.1565 37.7596L60.1586 46.3216Z" fill="#0F2056"/>
<path d="M54.123 44.7163C53.6288 44.4265 53.2842 43.7694 53.6868 43.3369C54.009 42.9903 54.8764 44.2592 55.0993 44.6666C55.1365 44.7339 55.2092 44.8801 55.2388 44.955C54.8529 44.9651 54.4702 44.8834 54.123 44.7169V44.7163ZM51.9517 51.0354C51.8412 51.2318 51.5898 51.7427 51.7776 51.7572C51.8687 51.6568 54.7298 48.6095 55.424 47.8359C55.8629 47.4002 56.2623 46.9273 56.6176 46.4228H58.5239C59.067 46.4228 59.2502 46.2882 59.2502 45.7838V36.3729C59.2502 36.2594 59.04 36.3433 58.9509 36.4181C58.334 36.9633 57.7802 37.5744 57.2997 38.2401C57.4382 38.4797 57.6387 38.8228 57.7629 39.0253V44.953H57.0075C57.0075 44.9238 57.0075 44.8937 57.005 44.8635C56.9857 44.4103 56.8769 43.9651 56.6848 43.5529C56.3606 42.8923 55.5981 41.8982 54.882 41.8982C54.7837 41.8982 54.6784 41.9987 54.6107 42.0489C53.963 42.5647 53.3665 43.1402 52.8292 43.7674C52.7209 43.8821 52.6328 44.0139 52.5686 44.1572C52.3741 44.8163 52.1517 45.5774 52.8465 46.0184C53.3688 46.3057 53.9625 46.4424 54.5598 46.4128C55.1741 46.4128 55.7544 46.4183 55.7814 46.4183C55.3988 47.093 54.9331 47.7183 54.3949 48.28C53.2186 49.6454 53.271 49.5469 51.9552 51.0308" fill="#0F2056"/>
<path d="M55.319 30.8442C55.3699 31.1456 54.8395 31.6897 54.2409 32.4015C52.241 34.7761 52.5658 34.3606 51.2032 35.8953C51.0759 36.1329 50.8642 36.6568 51.0291 36.6172C51.1309 36.5076 55.1408 32.0458 55.1622 32.0187C55.3494 31.7966 55.5808 31.6147 55.842 31.4843C56.1032 31.3539 56.3888 31.2778 56.681 31.2606H57.3275C57.6558 31.2505 57.9768 31.3585 58.2304 31.5646C58.491 31.7534 58.9298 32.4065 59.6744 32.4065C60.3927 31.9463 61.049 31.398 61.6275 30.7749C61.3325 30.6849 61.0435 30.5766 60.7622 30.4509C60.4376 30.259 60.1551 30.0051 59.9315 29.7039C59.1227 28.657 59.2785 27.063 59.2785 25.6962V19.561C59.2785 19.4425 59.1899 19.4962 59 19.6811C58.4174 20.2473 57.8749 20.8524 57.3763 21.492L57.7901 22.2084C57.7708 23.2809 57.7499 26.2703 57.7347 27.0605C57.6658 27.9456 57.6883 28.8353 57.8018 29.7159C57.8069 29.741 57.8125 29.7662 57.8176 29.7923H57.4176C57.3094 29.7991 57.2011 29.7825 57.1003 29.7435C56.9994 29.7045 56.9084 29.6442 56.8337 29.5667C56.2555 28.8956 55.5348 27.8482 54.9469 27.1369C54.5048 27.7043 54.1494 28.3325 53.8917 29.0016C53.8917 29.0016 55.206 30.6634 55.3205 30.8437" fill="#0F2056"/>
<path d="M32.24 26.2434C32.6652 25.8477 33.0671 25.4284 33.4438 24.9875C33.0621 24.6208 32.6075 24.1607 32.2253 23.7939C31.7927 24.1822 31.3903 24.602 31.0215 25.0498C31.0215 25.0498 31.8578 25.8767 32.2405 26.2434" fill="#0F2056"/>
<path d="M32.24 41.2307C32.6653 40.8351 33.0672 40.4158 33.4438 39.9748C33.0621 39.6076 32.6075 39.148 32.2253 38.7812C31.7926 39.1694 31.3902 39.5892 31.0215 40.0371C31.0215 40.0371 31.8578 40.864 32.2405 41.2302" fill="#0F2056"/>
<path d="M60.1656 22.7389V27.7216C60.1656 30.6538 63.9831 30.5292 65.3263 30.1831C66.7352 29.8194 68.5142 28.87 67.91 28.9644C64.3531 29.517 61.6529 28.9448 61.6529 26.8274V21.5081C61.6529 20.8526 61.7674 20.0513 61.4406 19.4606C61.3897 19.3681 61.3332 19.4535 61.1174 19.6791C60.2424 20.5918 59.9156 20.8551 59.9553 20.9264C60.1736 21.5051 60.2458 22.1275 60.1656 22.7399" fill="#0F2056"/>
<path d="M40.4133 64.7224C40.7682 64.4242 41.0759 64.0754 41.3265 63.6876C41.4374 63.4924 41.5229 63.2841 41.581 63.0677L41.6136 62.9019H45.713V62.8984C45.7924 62.9833 47.0364 61.4808 46.9209 61.3381C46.3274 60.6027 45.2636 59.0273 44.6263 58.2085C44.5423 58.1 43.4556 59.8703 43.5661 59.9908C43.5661 59.9908 44.1596 60.7007 44.747 61.4361H41.8126V50.9888C41.8126 50.809 40.3253 52.2341 40.3253 52.3557V62.485C40.3253 63.2616 40.4347 64.1608 40.0321 64.8646C39.8321 65.2162 40.364 64.7681 40.4128 64.7234" fill="#0F2056"/>
<path d="M31.1898 61.236C31.1898 61.1265 31.5924 60.26 31.9111 60.26C32.3849 60.26 32.9687 61.016 33.2238 61.4224C32.673 61.4224 31.1878 61.3772 31.1878 61.236H31.1898ZM34.1731 62.9013H38.4324V62.8968C38.5016 62.9972 39.7558 61.4807 39.6417 61.3395C39.0477 60.6036 37.9839 59.0287 37.3477 58.2094C37.2632 58.1009 36.177 59.8716 36.2869 59.9917C36.2869 59.9917 36.8784 60.702 37.4673 61.437H34.8205C34.8205 60.0877 33.4462 58.3294 32.6435 58.3294C31.7319 58.3294 30.3342 61.6449 30.3342 62.205C30.3342 62.6456 30.6004 62.9083 31.1888 62.9083C31.8403 62.9083 33.2019 62.9083 33.207 62.9083C32.9689 63.5018 32.6219 64.0467 32.1834 64.5158L31.0432 65.7752C31.0432 65.7752 21.3442 76.5003 21.0836 76.7685H12.0387L12 76.8575C14.4401 77.9079 18.8715 79.4003 19.2858 79.4003C19.3087 79.4003 32.0073 65.2658 32.0073 65.2658C32.6181 64.5907 33.748 63.4574 34.1751 62.9048" fill="#0F2056"/>
<path d="M51.0622 26.6767C51.0352 26.6401 49.9108 27.6251 49.9108 27.6251H40.1701C39.817 27.6456 39.4641 27.5818 39.1412 27.4392C38.8184 27.2966 38.5351 27.0793 38.3153 26.8058C39.7868 25.2988 43.0077 21.9778 44.4111 20.42C44.4502 20.3758 45.0168 19.4229 44.8351 19.4229C44.5479 19.6854 44.2783 19.966 44.0278 20.2628C42.4891 21.9707 36.9379 27.4935 35.9388 28.777C35.7611 29.0056 35.8115 29.0925 35.8497 29.0925H39.9522H50.4376C50.5511 29.2121 51.0113 29.7908 51.0113 29.7908H35.6471C35.5413 29.7962 35.4355 29.7789 35.3371 29.7402C35.2387 29.7014 35.15 29.6421 35.077 29.5662C34.4988 28.8951 33.7327 27.8477 33.1428 27.1364C32.7004 27.7036 32.3447 28.3319 32.0872 29.0011C32.0872 29.0011 32.6908 29.731 33.2492 30.4262C33.4915 30.7512 33.5403 31.1848 32.6944 32.19C32.5722 32.3351 31.317 33.7538 31.317 33.7538C31.0244 34.0868 21.3686 44.7551 21.0821 45.0495H12.0387L12 45.1384C14.4401 46.1888 18.8857 47.6813 19.298 47.6813C19.3209 47.6813 33.3973 32.0282 33.408 32.0156C33.7956 31.5863 34.3324 31.316 34.9121 31.2581H51.871C51.9137 31.2581 53.2682 29.7722 53.2682 29.7204C53.2682 29.6687 51.2831 26.9716 51.0632 26.6762" fill="#0F2056"/>
<path d="M33.0333 51.8987C33.4193 51.5394 33.784 51.1585 34.1256 50.7578C33.7785 50.4253 33.3667 50.0083 33.0201 49.6753C32.6277 50.028 32.2625 50.4092 31.9277 50.8156C31.9277 50.8156 32.6867 51.5656 33.0333 51.8987Z" fill="#0F2056"/>
<path d="M35.1036 51.8987C35.4896 51.5394 35.8543 51.1585 36.1959 50.7578C35.8488 50.4253 35.437 50.0083 35.0904 49.6753C34.698 50.028 34.3328 50.4092 33.998 50.8156C33.998 50.8156 34.757 51.5656 35.1036 51.8987Z" fill="#0F2056"/>
<path d="M44.7084 56.0284C45.0171 55.7406 45.3091 55.4359 45.5829 55.1156C45.3049 54.8488 44.9751 54.5128 44.6977 54.248C44.3834 54.5307 44.0911 54.8363 43.8232 55.1623C43.8232 55.1623 44.431 55.7651 44.7084 56.0289" fill="#0F2056"/>
<path d="M31.5356 57.4759C31.904 57.1331 32.252 56.7696 32.5781 56.3873C32.2467 56.0698 31.8537 55.6715 31.5229 55.354C31.1485 55.6908 30.8001 56.0547 30.4805 56.4426C30.4805 56.4426 31.2048 57.1584 31.5356 57.4759Z" fill="#0F2056"/>
<path d="M33.5112 57.4759C33.8796 57.1331 34.2276 56.7696 34.5536 56.3873C34.2223 56.0698 33.8293 55.6715 33.4985 55.354C33.1241 55.6908 32.7757 56.0547 32.4561 56.4426C32.4561 56.4426 33.1804 57.1584 33.5112 57.4759Z" fill="#0F2056"/>
<path d="M43.9133 57.5471C44.2323 57.2501 44.5338 56.9352 44.8162 56.6042C44.5297 56.3294 44.1886 55.9843 43.9 55.7095C43.5758 56.0011 43.274 56.3161 42.9971 56.6519C42.9971 56.6519 43.6247 57.2723 43.9133 57.5471Z" fill="#0F2056"/>
<path d="M45.6262 57.5471C45.945 57.2499 46.2465 56.9351 46.5291 56.6042C46.2425 56.3294 45.9015 55.9843 45.6129 55.7095C45.2886 56.001 44.9868 56.316 44.71 56.6519C44.71 56.6519 45.3375 57.2723 45.6262 57.5471Z" fill="#0F2056"/>
<path d="M50.2722 74.3074C50.6974 73.9117 51.0993 73.4924 51.476 73.0515C51.0938 72.6848 50.6397 72.2246 50.2575 71.8579C49.8249 72.2462 49.4225 72.666 49.0537 73.1138C49.0537 73.1138 49.89 73.9406 50.2722 74.3074Z" fill="#0F2056"/>
<path d="M37.6317 44.9552V44.2569H49.076C49.1885 44.3759 49.6426 44.9531 49.6426 44.9531L37.6317 44.9552ZM49.695 41.8406C49.668 41.8044 48.5436 42.789 48.5436 42.789H48.5472H37.6291V34.3722C37.6291 34.1924 35.6863 36.1119 35.7275 36.1807L36.1424 36.898V44.9531H35.9001C35.738 44.9639 35.5757 44.937 35.4261 44.8748C35.2764 44.8125 35.1436 44.7165 35.0383 44.5945C34.4398 43.9414 33.6997 42.9262 33.1169 42.2098C33.0548 42.133 32.2658 42.8528 31.5008 43.7108C30.0807 45.3033 30.1311 45.8709 30.8661 46.7862C31.4112 47.4669 31.6143 47.704 31.8566 48.0345C31.9554 48.2466 31.9826 48.4845 31.934 48.713C31.8854 48.9414 31.7637 49.1485 31.5868 49.3035C31.2941 49.637 21.5631 60.3812 21.0816 60.8991H12.0387L12 60.988C14.4401 62.0384 18.8562 63.55 19.268 63.55C19.2904 63.55 31.7258 49.7184 32.2811 49.096C32.8125 48.5007 33.5027 47.7562 33.5027 47.2288C33.5027 46.6089 32.3595 45.5349 31.9482 45.0185C31.8316 44.866 31.7747 44.6771 31.7879 44.4865C31.8012 44.2958 31.8838 44.1164 32.0205 43.9811C32.3585 44.379 33.1627 45.3877 33.631 45.9026C33.7597 46.061 33.9219 46.1897 34.1063 46.2798C34.2906 46.37 34.4927 46.4194 34.6983 46.4245H36.1449V48.2149C36.1442 48.2236 36.1466 48.2323 36.1515 48.2395C36.1403 48.4721 36.1865 48.7039 36.2862 48.915C36.3858 49.126 36.536 49.31 36.7236 49.4511C36.9493 49.5778 37.2071 49.6378 37.4663 49.624C38.011 49.2085 38.5184 48.7473 38.9826 48.2455C38.9984 48.2234 38.9902 48.1571 38.9515 48.1571C38.7043 48.1702 38.4581 48.117 38.2389 48.0034C38.035 47.8875 37.869 47.7162 37.7608 47.51C37.6525 47.3038 37.6065 47.0712 37.6281 46.84V46.4245H50.5018C50.5445 46.4245 51.899 44.9391 51.899 44.8873C51.899 44.8602 49.8054 41.9938 49.694 41.8426" fill="#0F2056"/>
<path d="M40.88 77.9239C40.88 77.7798 40.88 77.3714 40.88 77.2257H53.1209C53.2334 77.3447 53.6874 77.9219 53.6874 77.9219L40.88 77.9239ZM53.7419 74.8094C53.7149 74.7727 52.5906 75.7578 52.5906 75.7578H52.5941H40.8795C40.8795 73.443 40.9426 67.6947 40.9426 67.3395C40.9426 67.1597 38.9372 69.0791 38.9779 69.148L39.3922 69.8653V77.9204H38.5096V69.5508C38.5096 69.371 37.0223 70.7967 37.0223 70.9177V79.2034C37.0223 80.5321 36.9307 80.9496 36.6151 81.583C36.5739 81.6649 36.6624 81.6981 36.7169 81.6604C37.2937 81.3772 37.7802 80.9427 38.1233 80.4045C38.2874 80.087 38.3949 79.7439 38.4409 79.3903H39.3922C39.3922 80.0147 39.3993 81.1425 39.3993 81.2058C39.3879 81.4384 39.434 81.6703 39.5337 81.8814C39.6333 82.0925 39.7836 82.2765 39.9714 82.4174C40.1971 82.5441 40.4548 82.6041 40.7141 82.5902C41.2587 82.1747 41.7661 81.7135 42.2304 81.2118C42.2462 81.1897 42.2385 81.1239 42.1993 81.1239C41.9521 81.1369 41.7059 81.0838 41.4867 80.9702C41.2827 80.8543 41.1168 80.6831 41.0085 80.4768C40.9002 80.2706 40.8542 80.038 40.8759 79.8067V79.3908H54.5456C54.5884 79.3908 55.9428 77.9049 55.9428 77.8536C55.9428 77.8265 53.8498 74.9601 53.7378 74.8089" fill="#0F2056"/>
<path d="M65.6246 77.9151C65.3472 77.895 65.079 77.8078 64.8437 77.6614C64.6084 77.5149 64.4132 77.3136 64.2752 77.0752C64.1349 76.7466 64.0747 76.3901 64.0996 76.0343C64.4216 76.0504 64.7304 76.1657 64.9825 76.3639C65.2347 76.5621 65.4176 76.8334 65.5055 77.1395C65.5976 77.3882 65.6381 77.6527 65.6246 77.9171V77.9151ZM58.3841 77.6815C57.8893 77.3917 57.5453 76.7346 57.9474 76.3021C58.2696 75.9555 59.1369 77.2239 59.3603 77.6318C59.397 77.6991 59.4698 77.8448 59.4993 77.9196C59.1136 77.9298 58.7311 77.8481 58.3841 77.6815ZM77.7826 78.4119C77.2532 77.985 76.7182 77.8558 76.7182 74.7348V68.0375C76.7182 67.9195 76.6297 67.9722 76.4398 68.1571C75.8569 68.7233 75.3142 69.3286 74.8156 69.9685C74.9537 70.2073 75.0916 70.4459 75.2294 70.6844C75.2106 71.7569 75.1744 74.571 75.1744 75.3617C75.1153 76.2394 75.2356 77.1199 75.5282 77.9508C75.5282 77.9508 75.5246 77.9714 75.488 77.9648C75.3492 77.9364 75.2078 77.9216 75.066 77.9207H74.9006C74.3463 77.9207 71.104 75.7696 68.9 73.2579C68.8023 73.1469 67.9731 75.1738 68.0749 75.2773C69.028 76.2822 70.0973 77.1732 71.2607 77.9322C69.7292 77.9322 67.6525 77.9247 66.6151 77.9222C66.7727 77.741 66.906 77.5406 67.0116 77.3259C67.1671 76.929 67.1763 76.4909 67.0376 76.0881C66.9387 75.7026 66.7326 75.3522 66.4425 75.0763C66.1525 74.8004 65.79 74.61 65.396 74.5268C65.3119 74.5131 65.2268 74.5054 65.1415 74.5037C64.9675 74.5852 64.8043 74.6875 64.6555 74.8081C64.1703 75.1569 63.7278 75.5599 63.3366 76.0092C62.9946 76.403 62.7913 76.8957 62.7574 77.4133C62.761 77.5887 62.8016 77.7615 62.8765 77.9207H61.264C61.264 77.8895 61.2696 77.8609 61.2681 77.8287C61.2501 77.3752 61.1411 76.9297 60.9474 76.5181C60.6232 75.8575 59.8607 74.8639 59.1445 74.8639C59.0463 74.8639 58.9409 74.9643 58.8732 75.0146C58.2253 75.53 57.6288 76.1052 57.0917 76.7326C56.9834 76.8475 56.8951 76.9794 56.8306 77.1229C56.6367 77.7815 56.4143 78.5426 57.109 78.9841C57.6313 79.2712 58.2247 79.4079 58.8218 79.3785C59.0712 79.3785 60.0164 79.384 60.0434 79.384C59.6703 80.0715 59.1937 80.6992 58.6299 81.2457C57.534 82.5432 57.8664 82.1499 56.5517 83.6353C56.4148 83.8328 56.2096 84.3115 56.3776 84.3572C56.4687 84.2567 58.9949 81.5702 59.6897 80.7971C60.1181 80.3542 60.517 79.8844 60.8838 79.3905H63.1234C63.3308 79.2729 63.5257 79.1351 63.7052 78.9791C64.1259 79.2053 64.5891 79.3443 65.0662 79.3875H74.7759C75.1393 79.4 75.4957 79.4901 75.8204 79.6517C76.5592 80.0658 77.2672 80.5315 77.9388 81.0452C78.0406 81.1186 79.5564 79.8491 79.5361 79.7773C79.3691 79.183 78.4046 78.9063 77.7897 78.4099" fill="#0F2056"/>
<path d="M77.5954 69.1294C77.5954 69.7322 77.5741 73.0366 77.5954 73.3024C77.6927 74.5281 78.1686 75.045 78.7845 75.045C79.772 74.9852 80.7324 74.7018 81.5911 74.2166C83.564 73.2381 84.1778 72.6749 83.2133 72.9924C82.3548 73.263 81.4626 73.4151 80.5619 73.4445C78.984 73.4445 79.0833 72.8161 79.0833 71.5858V67.8991C79.0833 67.2436 79.1978 66.4423 78.871 65.8511C78.314 66.2747 77.8148 66.7676 77.3857 67.3174C77.604 67.8961 77.6761 68.5185 77.596 69.1309" fill="#0F2056"/>
<path d="M64.5745 73.7116C64.9997 73.316 65.4016 72.8967 65.7783 72.4558C65.396 72.0891 64.942 71.6289 64.5593 71.2622C64.1267 71.6505 63.7243 72.0703 63.3555 72.5181C63.3555 72.5181 64.1918 73.3449 64.5745 73.7116Z" fill="#0F2056"/>
<path d="M69.9811 69.9827C70.1183 69.9641 70.2579 69.9725 70.3918 70.0076C70.5257 70.0427 70.6512 70.1038 70.7609 70.1872C70.8132 70.2372 70.8544 70.2975 70.8818 70.364C70.9092 70.4306 70.9223 70.5021 70.9202 70.574C70.6771 70.6662 70.413 70.6908 70.1567 70.6453C70.0853 70.632 70.0193 70.599 69.9662 70.5501C69.9131 70.5012 69.8752 70.4384 69.8568 70.3691C69.8384 70.2998 69.8403 70.2267 69.8623 70.1584C69.8843 70.0901 69.9255 70.0294 69.9811 69.9832V69.9827ZM70.1643 71.2612C70.3185 71.2708 70.4728 71.245 70.6152 71.1858C70.7576 71.1267 70.8841 71.0357 70.9849 70.9201C71.0998 70.7821 71.1715 70.614 71.191 70.4364C71.2106 70.2588 71.1772 70.0794 71.095 69.9202C71.0127 69.761 70.8852 69.629 70.728 69.5404C70.5708 69.4517 70.3908 69.4103 70.2101 69.4211C70.0941 69.4342 69.8874 69.6849 69.6451 70.1641C69.5502 70.3513 69.4999 70.5575 69.498 70.7669C69.498 71.0683 69.8544 71.2592 70.1638 71.2592" fill="#0F2056"/>
<path d="M45.1207 24.8183C45.1207 24.8183 45.1237 24.5938 45.2785 24.5938C45.6098 24.5938 46.1188 25.6487 46.2267 26.0948H46.3341C46.4702 25.6295 46.5355 25.1468 46.5281 24.6626C46.5281 23.5926 46.0975 23.0752 46.0975 22.6356C46.0975 22.3734 46.2502 22.288 46.3632 22.288C46.5799 22.3453 46.7811 22.4494 46.9521 22.5929C46.9984 22.6271 47.0096 21.9555 47.0096 21.9555C46.9434 21.8445 46.8472 21.7539 46.7317 21.6938C46.6163 21.6338 46.4862 21.6066 46.356 21.6154C46.1835 21.6154 45.8531 21.8872 45.8531 22.5879C45.8531 23.6167 46.3056 24.095 46.3056 24.6772C46.3056 25.2594 46.1977 25.3081 46.1977 25.3081C46.1977 25.3081 45.7259 23.7509 44.8641 23.7509C44.2824 23.7509 44.5781 24.7726 44.5781 24.7726L45.1207 24.8183Z" fill="#0F2056"/>
<path d="M57.1363 71.6474C57.1363 71.6474 57.1389 71.4234 57.2941 71.4234C57.6255 71.4234 58.1345 72.4783 58.2424 72.9244H58.3498C58.4858 72.4591 58.5511 71.9764 58.5437 71.4922C58.5437 70.4222 58.1131 69.9043 58.1131 69.4647C58.1131 69.203 58.2658 69.1176 58.3788 69.1176C58.5956 69.1747 58.7969 69.2789 58.9677 69.4225C59.014 69.4567 59.0252 68.7846 59.0252 68.7846C58.9589 68.6737 58.8627 68.5832 58.7473 68.5232C58.6318 68.4633 58.5018 68.4362 58.3716 68.445C58.1991 68.445 57.8688 68.7168 57.8688 69.4175C57.8688 70.4463 58.3213 70.9246 58.3213 71.5068C58.3213 72.089 58.2134 72.1377 58.2134 72.1377C58.2134 72.1377 57.7415 70.5805 56.8798 70.5805C56.298 70.5805 56.5937 71.6022 56.5937 71.6022L57.1363 71.6474Z" fill="#0F2056"/>
<path d="M36.0964 78.0553C36.1254 78.005 36.1427 77.9548 36.1229 77.9302C35.4744 77.0516 34.7063 75.9675 34.0584 75.0889C34.0258 75.0437 33.7764 75.3496 33.5153 75.7058L31.8676 77.9342H23.0273C22.9606 77.9342 21.8515 79.1062 21.6902 79.286C21.6795 79.2976 21.7217 79.4006 21.7411 79.4006H34.9008C34.9547 79.4006 36.0949 78.0548 36.0949 78.0548" fill="#0F2056"/>
<path d="M25.6436 76.3223C25.6558 76.3339 26.3562 75.6216 26.5899 75.3548C26.7492 75.512 27.3025 76.0581 27.5778 76.3223C27.9384 75.9866 28.2791 75.6307 28.5984 75.2564C28.2741 74.9454 27.8888 74.5556 27.5651 74.2446C27.231 74.5491 26.9138 74.8711 26.6148 75.2091C26.3012 74.9077 25.9388 74.54 25.6309 74.2446C25.2643 74.5744 24.9232 74.9307 24.6104 75.3106C24.6104 75.3106 25.3194 76.0139 25.6436 76.3223Z" fill="#0F2056"/>
<path d="M49.3749 61.1969C48.8802 60.9075 48.5366 60.2499 48.9387 59.8179C49.2609 59.4713 50.1282 60.7397 50.3512 61.1476C50.3883 61.2149 50.4611 61.3611 50.4906 61.436C50.1047 61.4462 49.722 61.3643 49.3749 61.1974V61.1969ZM57.2166 51.0656C56.5754 51.6166 55.9889 52.2267 55.4651 52.8876C55.6036 53.1272 55.8046 53.4703 55.9283 53.6727V61.438H54.9352V53.3351C54.9352 53.2216 54.8248 53.306 54.7362 53.3804C54.095 53.9314 53.5086 54.5415 52.9847 55.2024C53.1232 55.442 53.3242 55.7851 53.4479 55.9875V61.438H52.2604C52.2604 61.438 52.2604 61.3667 52.2574 61.3491C52.2379 60.8956 52.1289 60.4503 51.9367 60.038C51.6125 59.3779 50.85 58.3837 50.1338 58.3837C50.0356 58.3837 49.9302 58.4842 49.8625 58.5344C49.2147 59.0501 48.6182 59.6256 48.081 60.253C47.9724 60.3674 47.8841 60.4992 47.8199 60.6428C47.6255 61.3013 47.4036 62.0629 48.0984 62.504C48.6205 62.7913 49.214 62.928 49.8111 62.8983C50.426 62.8983 51.0058 62.9038 51.0327 62.9038C50.6502 63.5785 50.1845 64.2038 49.6462 64.7655C48.4699 66.1304 48.8573 65.6697 47.5415 67.1557C47.431 67.3516 47.1796 67.863 47.3674 67.8776C47.4585 67.7771 49.9847 65.0905 50.679 64.3169C51.1178 63.8811 51.5172 63.4083 51.8726 62.9038H53.5273H53.6953H56.8832C57.4207 62.9038 57.4161 62.8204 57.4161 62.3327V51.0198C57.4161 50.9063 57.3056 50.9902 57.2171 51.0656" fill="#0F2056"/>
<path d="M38.4012 55.9117C37.6682 55.6655 37.261 55.1888 37.261 54.7844C37.261 54.5418 37.8387 54.2047 37.8209 54.1816C37.7936 54.1505 37.7638 54.1216 37.7318 54.0952C37.7318 54.0952 37.4132 54.2575 37.2951 54.3218C36.8854 54.5453 36.466 54.9502 36.466 55.2516C36.4944 55.5534 36.6165 55.8392 36.8156 56.0699C36.5784 56.0796 36.3424 56.1102 36.1107 56.1614C36.0272 56.191 35.6236 56.6386 35.679 56.6326C35.9279 56.6059 38.6888 56.6361 38.6888 56.6361C38.6888 56.6361 39.2517 56.0388 39.1326 56.0333C38.8838 56.0243 38.6372 55.9841 38.3986 55.9137" fill="#0F2056"/>
<path d="M64.5205 62.7246L66.2582 58.8134L67.3144 60.0125L67.3801 59.9652C74.164 55.0754 78.6529 52.6983 81.1032 52.6983C81.3 52.697 81.4965 52.7154 81.6896 52.7531L81.8148 52.9153C79.8582 52.9721 77.671 53.9813 73.3282 56.8095C70.359 58.7313 67.5039 60.8196 64.777 63.0642L64.5205 62.7246Z" fill="#785E3C"/>
<path d="M70.5838 57.0158C66.124 54.1198 63.7195 52.9855 61.8662 52.9177L61.9924 52.7549C62.1735 52.7199 62.3577 52.7031 62.5422 52.7047C64.2789 52.7047 67.2092 54.0038 71.2537 56.5672L71.0816 56.6818C70.8933 56.8073 70.7284 56.9184 70.5838 57.0158Z" fill="#785E3C"/>
<path d="M78.9184 63.0669C76.4398 61.0349 73.8491 59.1398 71.1582 57.3904L71.3995 57.2322C71.54 57.1408 71.6932 57.0418 71.8443 56.9443C73.524 58.0304 74.8037 58.8779 76.3159 59.968L76.3816 60.0152L77.4372 58.8166L79.1678 62.756L78.9184 63.0669Z" fill="#785E3C"/>
<path d="M71.5027 47.8899L66.8494 50.8689L67.053 49.7808L69.7736 47.0952L69.6041 46.8405L65.3428 48.8499V48.3873L68.9755 44.9085L70.8842 46.0232L71.1062 45.7826L69.1297 43.727V43.4321L71.8483 44.6312L74.5669 43.4321V43.727L72.596 45.7761L72.7813 46.0272L74.7206 44.9085L78.3533 48.3878V48.8504L74.092 46.841L73.923 47.0957L76.6431 49.7813L76.8467 50.8694L72.1878 47.8899V55.9536C72.0468 56.0435 71.8249 56.1877 71.5006 56.4022L71.5027 47.8899Z" fill="#785E3C"/>
<path d="M81.3709 77.6804C80.8767 77.3905 80.5326 76.7329 80.9347 76.3014C81.2569 75.9548 82.1146 77.1494 82.3375 77.5573C82.3742 77.6246 82.4572 77.8441 82.4867 77.9185C82.1008 77.9288 81.7181 77.8473 81.3709 77.6809V77.6804ZM83.9327 76.5195C83.6085 75.8589 82.846 74.8652 82.1299 74.8652C82.0316 74.8652 81.9263 74.9657 81.8586 75.0159C81.2107 75.5312 80.6141 76.1063 80.0771 76.7335C79.9685 76.8484 79.8803 76.9805 79.816 77.1243C79.6215 77.7828 79.3991 78.5439 80.0944 78.9855C80.6166 79.2726 81.2101 79.4091 81.8072 79.3793H82.3162L82.8155 78.6388C82.8155 78.6388 83.1402 79.1412 83.0282 79.3828C82.6551 80.0705 82.1786 80.6983 81.6148 81.245C80.5184 82.5421 80.8513 82.1492 79.537 83.6342C79.4001 83.8321 79.195 84.3108 79.363 84.3565C79.4541 84.2561 81.8927 81.5851 82.5696 80.7964C83.5001 79.7134 84.2555 78.8152 84.2555 77.8271C84.2464 77.3722 84.137 76.9248 83.9348 76.5159" fill="#0F2056"/>
<path d="M64.9208 68.2166C64.9208 68.2166 64.3609 67.8147 64.3609 67.664C64.3609 67.5721 64.6124 67.4329 64.6551 67.4329C64.8164 67.5666 64.9315 67.7466 64.9845 67.9478C64.9798 68.0403 64.958 68.1312 64.9203 68.2161L64.9208 68.2166ZM64.7676 66.917C64.4887 66.917 64.0764 67.55 64.0764 67.8639C64.0764 68.3407 64.6663 68.5712 64.6663 68.6345C64.6663 68.6712 64.5885 68.8556 63.9879 69.3574C63.4189 69.8058 62.8218 70.2184 62.2002 70.5927C62.1738 70.6429 62.6675 70.5615 62.7688 70.5254C63.322 70.3101 63.831 69.9974 64.2709 69.6025C64.5612 69.3782 64.799 69.0946 64.9681 68.7713C65.1372 68.4479 65.2336 68.0923 65.2507 67.7288C65.2507 67.4184 65.098 66.9165 64.7682 66.9165" fill="#0F2056"/>
</svg>
