<svg id="SvgjsSvg1001" width="288" height="288" xmlns="http://www.w3.org/2000/svg" version="1.1" xmlns:xlink="http://www.w3.org/1999/xlink" xmlns:svgjs="http://svgjs.com/svgjs"><defs id="SvgjsDefs1002"></defs><g id="SvgjsG1008" transform="matrix(1,0,0,1,0,0)"><svg xmlns="http://www.w3.org/2000/svg" width="288" height="288" viewBox="0 0 94.236 36"><g transform="translate(-930.491 1787.62)" fill="#ffffff" class="color000 svgShape"><rect width="4.023" height="28.052" fill="#ffffff" transform="translate(965.614 -1787.62)" class="color006ff7 svgShape"></rect><path fill="#ffffff" d="M1167-1732.187a8.177,8.177,0,0,0-6.282-2.423,11.557,11.557,0,0,0-5.065,1.126,15.552,15.552,0,0,0-4.129,2.887,19.414,19.414,0,0,0-3.116,3.959,24.089,24.089,0,0,0-1.922,3.993,2.134,2.134,0,0,1-.9-.233,1.631,1.631,0,0,1-.644-.657,3.03,3.03,0,0,1-.308-1.142c-.05-.5-.075-1.067-.075-1.684v-5.854h-4.023v7.259a3.6,3.6,0,0,1-.195,1.33,1.2,1.2,0,0,1-.542.612,3.092,3.092,0,0,1-1.208.306c-.562.05-1.264.075-2.089.075h-3.54v-1.335a20.414,20.414,0,0,0-.39-4.159,9.322,9.322,0,0,0-1.3-3.277,6.294,6.294,0,0,0-2.4-2.148,7.718,7.718,0,0,0-3.551-.752,7.423,7.423,0,0,0-3.381.75,8.047,8.047,0,0,0-2.5,1.956,8.61,8.61,0,0,0-1.566,2.77,9.757,9.757,0,0,0-.537,3.189,8.211,8.211,0,0,0,.589,3.3,5.739,5.739,0,0,0,1.652,2.205,6.5,6.5,0,0,0,2.45,1.208,11.926,11.926,0,0,0,2.985.356h3.816a3.888,3.888,0,0,1-.562,1.77,3.686,3.686,0,0,1-1.527,1.3,7.691,7.691,0,0,1-2.425.644,28.526,28.526,0,0,1-3.218.168h-1.632v4.063h2.051a23.461,23.461,0,0,0,4.439-.39,9.89,9.89,0,0,0,3.524-1.358,6.986,6.986,0,0,0,2.377-2.6,9.436,9.436,0,0,0,.988-3.6h3.574c1.124,0,2.117-.032,2.944-.1a10.342,10.342,0,0,0,2.207-.381,4.515,4.515,0,0,0,1.6-.825,3.389,3.389,0,0,0,.621-.682l.131.213a3.271,3.271,0,0,0,.88.925,4.277,4.277,0,0,0,1.38.621,7.832,7.832,0,0,0,2.06.224h20.984v-6.862A9.6,9.6,0,0,0,1167-1732.187Zm-38.142,9.555h-3.615a4.707,4.707,0,0,1-3-.812,3.013,3.013,0,0,1-.954-2.5,5.56,5.56,0,0,1,.247-1.616,4.823,4.823,0,0,1,.712-1.444,3.515,3.515,0,0,1,1.163-1.01,3.492,3.492,0,0,1,1.684-.381,3,3,0,0,1,2.876,1.444,8.689,8.689,0,0,1,.891,4.263Zm31.363-7.914a5.915,5.915,0,0,1,2.348.417,3.8,3.8,0,0,1,1.514,1.156,4.8,4.8,0,0,1,.85,1.826,10.127,10.127,0,0,1,.274,2.42v2.094h-14.4a18.617,18.617,0,0,1,1.246-2.45,13.219,13.219,0,0,1,2.187-2.738,11.636,11.636,0,0,1,2.781-1.978A7.031,7.031,0,0,1,1160.223-1730.546Z" transform="translate(-144.504 -40.996)" class="color006ff7 svgShape"></path><path fill="#ffffff" d="M962.267-1746.865a.846.846,0,0,1-.363.551l-22.966,15.778a.844.844,0,0,1-.483.15.848.848,0,0,1-.678-.335l-7.112-9.326a.852.852,0,0,1-.165-.639.83.83,0,0,1,.329-.558l1.942-1.48a.845.845,0,0,1,.63-.168.857.857,0,0,1,.567.329l5.208,6.826,20.385-14a.849.849,0,0,1,.641-.133.829.829,0,0,1,.544.351l1.385,2.017A.849.849,0,0,1,962.267-1746.865Z" transform="translate(0 -29.181)" class="color006ff7 svgShape"></path><circle cx="2.833" cy="2.833" r="2.833" fill="#ffffff" transform="translate(949.446 -1765.234)" class="color006ff7 svgShape"></circle></g></svg></g></svg>