<svg xmlns="http://www.w3.org/2000/svg" width="88.379" height="88.431" viewBox="0 0 88.379 88.431">
  <g id="EHEZbq.tif" transform="translate(-1614.996 893.732)">
    <g id="Group_3666" data-name="Group 3666" transform="translate(1614.996 -893.732)">
      <path id="Path_13460" data-name="Path 13460" d="M1302.753-680.173c3.55-4.735,7.026-9.426,10.576-14.061a4.91,4.91,0,0,0,1.061-3.221c-.038-13.41-.023-26.82-.025-40.23a9.51,9.51,0,0,0-.039-1.12,2.3,2.3,0,0,0-2.216-2.133c-.229-.02-.46-.012-.69-.012H1252.9c-1.822.016-2.713.884-2.717,2.692-.009,4,0,8-.009,12a3.839,3.839,0,0,1-.129,1.1,1.245,1.245,0,0,1-1.379.931,1.243,1.243,0,0,1-1.216-1.034,4.873,4.873,0,0,1-.084-1.028c-.006-2.677,0-5.353-.005-8.029,0-.309-.025-.617-.04-.96-1.289,0-2.521-.078-3.738.025a2.138,2.138,0,0,0-1.773,1.972,6.389,6.389,0,0,0-.029.862q0,32.892,0,65.784a6.236,6.236,0,0,0,.03.862,2.216,2.216,0,0,0,2.12,2.024c1.086.065,2.18.014,3.433.014v-1.186q0-27.065,0-54.129a6.637,6.637,0,0,1,.088-1.287,1.137,1.137,0,0,1,1.3-1.006,2.23,2.23,0,0,1,1.274.933,2.626,2.626,0,0,1,.151,1.344q.009,28.964.012,57.928a5.041,5.041,0,0,0,.172,1.527,2.164,2.164,0,0,0,1.944,1.481,7.266,7.266,0,0,0,.948.023h58c2.329,0,3.113-.779,3.114-3.1q0-6.518,0-13.036c0-.23,0-.461,0-.691.025-1.156.541-1.809,1.413-1.791s1.383.686,1.384,1.84c.007,4.691.021,9.381,0,14.072a5.168,5.168,0,0,1-5.542,5.484q-29.344.007-58.689.02a5.234,5.234,0,0,1-5.536-4.961,5.028,5.028,0,0,0-.1-.626c-.857,0-1.708,0-2.559,0-3.648-.011-5.742-2.093-5.742-5.72q0-32.935,0-65.87c0-3.57,2.105-5.667,5.693-5.682.859,0,1.718,0,2.586,0,.117-.669.171-1.272.332-1.846a5.025,5.025,0,0,1,4.411-3.687,10.318,10.318,0,0,1,1.034-.035q29.215,0,58.43,0c2.815,0,4.77,1.319,5.434,3.737a8.166,8.166,0,0,1,.24,2.131q.02,18.561.01,37.122v1.245c.536-.641.926-1.147,1.359-1.614a5.021,5.021,0,0,1,5.679-1.272,5.111,5.111,0,0,1,3.168,4.813,5.366,5.366,0,0,1-1.169,3.183q-9.628,12.841-19.261,25.679a5.073,5.073,0,0,1-8.395.029c-2.776-3.6-5.491-7.243-8.184-10.9a5.048,5.048,0,0,1,.42-6.831,5.051,5.051,0,0,1,6.759-.328,7.146,7.146,0,0,1,1.17,1.257c1.173,1.529,2.317,3.08,3.475,4.62C1302.358-680.641,1302.543-680.43,1302.753-680.173Zm-.2,11.067a3.424,3.424,0,0,0,2.385-1.563q7-9.363,14.022-18.714c1.691-2.255,3.4-4.494,5.068-6.769a2.315,2.315,0,0,0-1.494-3.806,2.552,2.552,0,0,0-2.442,1.308q-7.854,10.5-15.731,20.992c-1.236,1.649-2.025,1.654-3.244.027-1.6-2.141-3.2-4.291-4.821-6.415a2.34,2.34,0,0,0-3.349-.564,2.3,2.3,0,0,0-.387,3.3c2.742,3.7,5.492,7.387,8.3,11.034A6.77,6.77,0,0,0,1302.557-669.106Z" transform="translate(-1238.996 743.732)" fill="#9f814e"/>
      <path id="Path_13461" data-name="Path 13461" d="M1322.764-692.513q-9.836,0-19.673,0a6.073,6.073,0,0,1-.947-.031,1.3,1.3,0,0,1-1.191-1.272,1.292,1.292,0,0,1,1.03-1.4,3.1,3.1,0,0,1,.854-.075q19.932,0,39.864,0a3.235,3.235,0,0,1,.937.089,1.272,1.272,0,0,1,.972,1.437,1.273,1.273,0,0,1-1.141,1.218,5.322,5.322,0,0,1-.947.037Q1332.644-692.512,1322.764-692.513Z" transform="translate(-1279.524 712.05)" fill="#9f814e"/>
      <path id="Path_13462" data-name="Path 13462" d="M1317.2-617.155q-7.12,0-14.24,0a3.913,3.913,0,0,1-.944-.057,1.3,1.3,0,0,1-1.065-1.3,1.3,1.3,0,0,1,1.078-1.373,3.872,3.872,0,0,1,.944-.054q14.241,0,28.482,0a4.259,4.259,0,0,1,.86.038,1.294,1.294,0,0,1,1.141,1.316,1.3,1.3,0,0,1-1.153,1.392,4.314,4.314,0,0,1-.86.036Q1324.319-617.154,1317.2-617.155Z" transform="translate(-1279.523 662.754)" fill="#9f814e"/>
      <path id="Path_13463" data-name="Path 13463" d="M1317.314-641.44q6.991,0,13.982,0a6.747,6.747,0,0,1,.947.029,1.274,1.274,0,0,1,1.188,1.265,1.273,1.273,0,0,1-1.016,1.41,3.974,3.974,0,0,1-1.027.076q-14.2.006-28.4,0h-.173c-1.231-.008-1.9-.5-1.9-1.4s.644-1.386,1.892-1.387Q1310.063-641.443,1317.314-641.44Z" transform="translate(-1279.505 676.818)" fill="#9f814e"/>
      <path id="Path_13464" data-name="Path 13464" d="M1312.574-560.783q4.743,0,9.486,0a4.54,4.54,0,0,1,1.11.106,1.127,1.127,0,0,1,.933,1.268,2.565,2.565,0,0,1-.916,1.295c-.238.2-.715.143-1.084.143q-9.572.01-19.144.005h-.086c-1.273-.011-1.974-.525-1.96-1.435.014-.884.682-1.378,1.917-1.383,2.041-.009,4.082,0,6.123,0Z" transform="translate(-1279.499 624.056)" fill="#9f814e"/>
      <path id="Path_13465" data-name="Path 13465" d="M1342.238-671.013c-3.248,0-6.5.008-9.744-.01a2.066,2.066,0,0,1-1.221-.253,1.642,1.642,0,0,1-.606-1.207,2.065,2.065,0,0,1,.85-1.158,1.972,1.972,0,0,1,1.083-.155q9.614-.011,19.229-.005c.172,0,.346-.007.517.005a1.455,1.455,0,0,1,1.5,1.455,1.374,1.374,0,0,1-1.518,1.32c-3.363.017-6.726.007-10.089.007Z" transform="translate(-1298.96 697.988)" fill="#9f814e"/>
      <path id="Path_13466" data-name="Path 13466" d="M1306-539.206c1.178,0,2.356-.019,3.533.007.987.021,1.556.532,1.576,1.341a1.407,1.407,0,0,1-1.58,1.443q-3.49.041-6.981,0a1.457,1.457,0,0,1-1.633-1.407c0-.822.615-1.362,1.638-1.381C1303.7-539.223,1304.853-539.206,1306-539.206Z" transform="translate(-1279.502 609.945)" fill="#9f814e"/>
      <path id="Path_13467" data-name="Path 13467" d="M1416.193-638.647a7.559,7.559,0,0,1-1.192-.1,1.276,1.276,0,0,1-1.052-1.379,1.266,1.266,0,0,1,1.232-1.305,15.759,15.759,0,0,1,1.972-.016,1.339,1.339,0,0,1,1.389,1.335,1.365,1.365,0,0,1-1.318,1.417,9.813,9.813,0,0,1-1.03.006Z" transform="translate(-1353.441 676.833)" fill="#9f814e"/>
      <path id="Path_13468" data-name="Path 13468" d="M1416.185-617.187c-.314,0-.632.026-.943,0a1.4,1.4,0,0,1-1.333-1.412,1.377,1.377,0,0,1,1.317-1.336,14.363,14.363,0,0,1,1.972,0,1.335,1.335,0,0,1,1.318,1.407,1.346,1.346,0,0,1-1.3,1.339C1416.874-617.16,1416.529-617.188,1416.185-617.187Z" transform="translate(-1353.416 662.775)" fill="#9f814e"/>
    </g>
  </g>
</svg>
