<?xml version="1.0" encoding="utf-8"?>
<!-- Generator: Adobe Illustrator 24.1.3, SVG Export Plug-In . SVG Version: 6.00 Build 0)  -->
<svg version="1.1" id="Layer_1" xmlns="http://www.w3.org/2000/svg" xmlns:xlink="http://www.w3.org/1999/xlink" x="0px" y="0px"
	 viewBox="0 0 205 241" style="enable-background:new 0 0 205 241;" xml:space="preserve">
<style type="text/css">
	.st0{clip-path:url(#SVGID_2_);}
	.st1{fill:#A68E6C;}
	.st2{fill:#0F2056;}
</style>
<g>
	<defs>
		<rect id="SVGID_1_" width="205" height="241"/>
	</defs>
	<clipPath id="SVGID_2_">
		<use xlink:href="#SVGID_1_"  style="overflow:visible;"/>
	</clipPath>
	<g class="st0">
		<path class="st1" d="M189.4,241H15.6c-4.1,0-8.1-1.7-11.1-4.6c-2.9-2.9-4.6-6.9-4.6-11.1V18.7c0-4.2,1.7-8.1,4.6-11.1
			C7.5,4.7,11.5,3,15.6,3h101.6c0.4,0,0.8,0.2,1,0.4c0.3,0.3,0.4,0.7,0.4,1c0,0.2,0,0.4-0.1,0.6c-0.1,0.2-0.2,0.3-0.3,0.5
			c-0.1,0.1-0.3,0.2-0.5,0.3S117.5,6,117.3,6H15.6c-3.4,0-6.6,1.3-9,3.7c-2.4,2.4-3.7,5.6-3.7,9v206.6c0,3.4,1.3,6.6,3.7,9
			c2.4,2.4,5.6,3.7,9,3.7h173.7c3.4,0,6.6-1.3,9-3.7c2.4-2.4,3.7-5.6,3.7-9V97.7c0-0.2,0-0.4,0.1-0.6c0.1-0.2,0.2-0.3,0.3-0.5
			s0.3-0.2,0.5-0.3c0.2-0.1,0.4-0.1,0.6-0.1c0.4,0,0.8,0.2,1,0.4c0.3,0.3,0.4,0.7,0.4,1v127.7c0,4.2-1.7,8.1-4.6,11.1
			C197.5,239.3,193.5,241,189.4,241z"/>
		<path class="st2" d="M203.5,85.2h-0.1c-19.8-1.3-38.5-10-52.3-24.2c-13.9-14.3-22-33.1-22.8-53c0-0.6,0.1-1.3,0.3-1.9
			c0.2-0.6,0.6-1.2,1-1.6c0.4-0.5,1-0.8,1.6-1.1c0.6-0.3,1.2-0.4,1.9-0.4h56.4c4.1,0,8.1,1.7,11.1,4.6c2.9,2.9,4.6,6.9,4.6,11.1
			v51.3c0,0.4-0.2,0.8-0.4,1c-0.3,0.3-0.6,0.4-1,0.4c-0.2,0-0.4,0-0.6-0.1c-0.2-0.1-0.3-0.2-0.5-0.3c-0.1-0.1-0.2-0.3-0.3-0.5
			c-0.1-0.2-0.1-0.4-0.1-0.6V18.7c0-3.4-1.3-6.6-3.7-9c-2.4-2.4-5.6-3.7-9-3.7H133c-0.3,0-0.5,0-0.7,0.1c-0.2,0.1-0.4,0.2-0.6,0.4
			c-0.2,0.2-0.3,0.4-0.4,0.6c-0.1,0.2-0.1,0.5-0.1,0.7c0.8,19.2,8.6,37.4,22,51.1c13.4,13.7,31.3,22,50.4,23.3c0.4,0,0.7,0.2,1,0.5
			c0.3,0.3,0.4,0.7,0.4,1.1c0,0.4-0.2,0.7-0.5,0.9C204.2,85.1,203.9,85.2,203.5,85.2z"/>
		<path class="st2" d="M197.3,90.1c-0.2,0-0.4-0.1-0.7-0.2c-0.2-0.1-0.4-0.2-0.5-0.4c-0.1-0.2-0.2-0.3-0.3-0.5
			c-0.1-0.2-0.1-0.4,0-0.6c0-0.2,0.1-0.4,0.2-0.5c0.1-0.2,0.2-0.3,0.4-0.4l5.1-3.9l-3.9-5.1c-0.1-0.2-0.2-0.3-0.3-0.5
			c-0.1-0.2-0.1-0.4,0-0.6c0-0.2,0.1-0.4,0.2-0.5c0.1-0.2,0.2-0.3,0.4-0.4c0.2-0.1,0.3-0.2,0.5-0.3c0.2-0.1,0.4-0.1,0.6,0
			c0.2,0,0.4,0.1,0.5,0.2c0.2,0.1,0.3,0.2,0.4,0.4l4.8,6.2c0.1,0.2,0.2,0.3,0.3,0.5c0.1,0.2,0.1,0.4,0,0.6c0,0.2-0.1,0.4-0.2,0.5
			c-0.1,0.2-0.2,0.3-0.4,0.4l-6.2,4.8C197.9,90,197.6,90.1,197.3,90.1z"/>
		<path class="st1" d="M117.3,0c-1.2,0-2.3,0.5-3.2,1.3c-0.8,0.8-1.3,2-1.3,3.2c0,1.2,0.5,2.3,1.3,3.2c0.8,0.8,2,1.3,3.2,1.3
			c1.2,0,2.3-0.5,3.2-1.3s1.3-2,1.3-3.2c0-1.2-0.5-2.3-1.3-3.2C119.6,0.5,118.5,0,117.3,0z"/>
		<path class="st2" d="M27.7,60.4l3-7l1.9,2.1l0.1-0.1c11.9-8.7,19.8-13,24.1-13c0.3,0,0.7,0,1,0.1l0.2,0.3
			c-3.4,0.1-7.3,1.9-14.9,6.9c-5.2,3.4-10.2,7.2-15,11.2L27.7,60.4z"/>
		<path class="st2" d="M38.3,50.2c-7.8-5.2-12-7.2-15.3-7.3l0.2-0.3c0.3-0.1,0.6-0.1,1-0.1c3,0,8.2,2.3,15.3,6.9l-0.3,0.2
			C38.8,49.9,38.5,50.1,38.3,50.2z"/>
		<path class="st2" d="M52.9,61c-4.3-3.6-8.9-7-13.6-10.1l0.4-0.3c0.2-0.2,0.5-0.3,0.8-0.5c2.9,1.9,5.2,3.4,7.8,5.4l0.1,0.1l1.9-2.1
			l3,7L52.9,61z"/>
		<path class="st2" d="M39.9,34l-8.2,5.3l0.4-1.9l4.8-4.8l-0.3-0.5l-7.5,3.6v-0.8l6.4-6.2l3.3,2l0.4-0.4l-3.5-3.7V26l4.8,2.1
			l4.8-2.1v0.5l-3.5,3.7l0.3,0.4l3.4-2l6.4,6.2v0.8l-7.5-3.6l-0.3,0.5l4.8,4.8l0.4,1.9L41.1,34v14.4c-0.2,0.2-0.6,0.4-1.2,0.8
			L39.9,34z"/>
	</g>
</g>
</svg>
