<svg id="Group_3760" data-name="Group 3760" xmlns="http://www.w3.org/2000/svg" xmlns:xlink="http://www.w3.org/1999/xlink" width="60.083" height="60.084" viewBox="0 0 60.083 60.084">
  <defs>
    <linearGradient id="linear-gradient" x1="0.604" y1="0.604" x2="0.134" y2="0.134" gradientUnits="objectBoundingBox">
      <stop offset="0" stop-color="#178ba4"/>
      <stop offset="1" stop-color="#3ec7e3"/>
    </linearGradient>
  </defs>
  <g id="Group_3391" data-name="Group 3391">
    <g id="Group_3390" data-name="Group 3390">
      <path id="Path_13174" data-name="Path 13174" d="M28.6-137.87l-38.2,38.2a30.694,30.694,0,0,1-21.886-29.4A30.681,30.681,0,0,1-.8-159.756,30.691,30.691,0,0,1,28.6-137.87Z" transform="translate(31.483 159.756)" fill="url(#linear-gradient)"/>
      <ellipse id="Ellipse_1961" data-name="Ellipse 1961" cx="28.613" cy="28.613" rx="28.613" ry="28.613" transform="translate(2.069 2.07)" fill="#fff"/>
    </g>
  </g>
  <g id="Group_3756" data-name="Group 3756">
    <g id="_9AFaSU.tif" data-name="9AFaSU.tif" transform="translate(961.466 -566.131)">
      <g id="Group_3746" data-name="Group 3746" transform="translate(-945.466 584.28)">
        <path id="Path_13629" data-name="Path 13629" d="M-1002.036,688.972v21.181h24.013v-.344q0-5.7,0-11.4a2.015,2.015,0,0,1,.032-.417.693.693,0,0,1,.709-.543.7.7,0,0,1,.665.628,2.341,2.341,0,0,1,.007.236q0,5.87,0,11.741a1.4,1.4,0,0,1-1.1,1.491,1.742,1.742,0,0,1-.391.034q-11.939,0-23.877,0a1.406,1.406,0,0,1-1.49-1.5q0-10.506,0-21.012a1.4,1.4,0,0,1,1.509-1.507q5.9,0,11.794,0a.716.716,0,0,1,.789.472.69.69,0,0,1-.48.9,1.829,1.829,0,0,1-.417.035q-5.7,0-11.4,0Z" transform="translate(1003.466 -686.133)" fill="#0f2056"/>
        <path id="Path_13630" data-name="Path 13630" d="M-887.633,676.755a2.82,2.82,0,0,1-.679,1.908c-.119.14-.249.27-.379.4q-5.125,5.125-10.242,10.258a2.659,2.659,0,0,1-1.752.872c-.592.047-1.179.156-1.768.239a1.413,1.413,0,0,1-1.614-1.564c.1-.79.227-1.575.338-2.363a1.425,1.425,0,0,1,.42-.826q5.413-5.413,10.829-10.822a2.63,2.63,0,0,1,3.04-.615A2.892,2.892,0,0,1-887.633,676.755Zm-15.028,12.277c.684-.1,1.323-.2,1.966-.272a1.038,1.038,0,0,0,.648-.338q4.673-4.686,9.356-9.362c.409-.409.818-.816,1.222-1.229a1.317,1.317,0,0,0,.415-.908,1.545,1.545,0,0,0-.927-1.38,1.292,1.292,0,0,0-1.549.361q-5.342,5.335-10.678,10.677a.4.4,0,0,0-.128.189C-902.448,687.512-902.551,688.255-902.661,689.032Z" transform="translate(914.535 -673.997)" fill="#0f2056"/>
      </g>
    </g>
  </g>
</svg>
