<svg id="Group_3761" data-name="Group 3761" xmlns="http://www.w3.org/2000/svg" xmlns:xlink="http://www.w3.org/1999/xlink" width="60.083" height="60.084" viewBox="0 0 60.083 60.084">
  <defs>
    <linearGradient id="linear-gradient" x1="0.604" y1="0.604" x2="0.134" y2="0.134" gradientUnits="objectBoundingBox">
      <stop offset="0" stop-color="#178ba4"/>
      <stop offset="1" stop-color="#3ec7e3"/>
    </linearGradient>
  </defs>
  <g id="Group_3391" data-name="Group 3391">
    <g id="Group_3390" data-name="Group 3390">
      <path id="Path_13174" data-name="Path 13174" d="M28.6-137.87l-38.2,38.2a30.694,30.694,0,0,1-21.886-29.4A30.681,30.681,0,0,1-.8-159.756,30.691,30.691,0,0,1,28.6-137.87Z" transform="translate(31.483 159.756)" fill="url(#linear-gradient)"/>
      <ellipse id="Ellipse_1961" data-name="Ellipse 1961" cx="28.613" cy="28.613" rx="28.613" ry="28.613" transform="translate(2.069 2.07)" fill="#fff"/>
    </g>
  </g>
  <g id="K7Mj1n.tif" transform="translate(967.362 222.967)">
    <g id="Group_3744" data-name="Group 3744" transform="translate(-953.762 -209.514)">
      <path id="Path_13614" data-name="Path 13614" d="M-946.447-192.431a6.754,6.754,0,0,1-7.312-6.488,6.519,6.519,0,0,1,2.1-5.082,6.7,6.7,0,0,1,5.215-1.832c0-.551,0-1.077,0-1.6a1.871,1.871,0,0,1,2.075-2.073q7.428,0,14.857-.006a1.2,1.2,0,0,1,.915.384q2.848,2.868,5.716,5.717a1.13,1.13,0,0,1,.363.862q-.01,11.119-.005,22.238a1.862,1.862,0,0,1-2.041,2.046H-944.4a1.866,1.866,0,0,1-2.05-2.067q0-5.857,0-11.714Zm16.6-15.843c-.078-.006-.127-.012-.176-.012q-7.245,0-14.49,0a.634.634,0,0,0-.708.724c-.005.549.014,1.1-.008,1.647a.363.363,0,0,0,.3.426,6.711,6.711,0,0,1,4.584,6.365,6.713,6.713,0,0,1-4.579,6.339.369.369,0,0,0-.309.422q.015,6.009.007,12.019c0,.661.193.854.855.854H-924.6c.661,0,.854-.193.854-.856q0-10.753,0-21.506v-.335h-5.229c-.686,0-.873-.186-.873-.866C-929.851-204.78-929.85-206.508-929.85-208.274Zm-17.817,3.718a5.434,5.434,0,0,0-4.877,5.39,5.493,5.493,0,0,0,5.519,5.518,5.432,5.432,0,0,0,5.39-4.877h-5.208c-.62,0-.823-.2-.823-.824q0-2.439,0-4.877Zm6.041,4.8a5.369,5.369,0,0,0-4.8-4.783v4.783Zm13.02-7.581v3.909h3.909Z" transform="translate(953.762 209.514)" fill="#0f2056"/>
      <path id="Path_13615" data-name="Path 13615" d="M-858.387-73.756a1.871,1.871,0,0,1,.448-2.5,1.815,1.815,0,0,1,2.233.057,1.822,1.822,0,0,1,.517,2.149,1.858,1.858,0,0,1-1.968,1.073.468.468,0,0,0-.344.08c-.219.2-.41.423-.611.639l-3.508,3.767a1.861,1.861,0,0,1,.188,1.656,1.824,1.824,0,0,1-2.339,1.082,1.8,1.8,0,0,1-1.1-2.275.455.455,0,0,0-.092-.514c-.534-.64-1.052-1.292-1.569-1.946a.276.276,0,0,0-.358-.118,1.751,1.751,0,0,1-1.108-.007.394.394,0,0,0-.33.092q-.986,1.04-1.941,2.109a.446.446,0,0,0-.055.367,1.83,1.83,0,0,1-.637,2.041,1.829,1.829,0,0,1-2.138.038,1.827,1.827,0,0,1-.7-2.02,1.809,1.809,0,0,1,1.7-1.3c.209,0,.417.08.628.091a.47.47,0,0,0,.332-.093q.986-1.04,1.941-2.109a.445.445,0,0,0,.057-.367,1.825,1.825,0,0,1,1.261-2.346,1.793,1.793,0,0,1,2.238,1.384,2.714,2.714,0,0,1-.066.984.451.451,0,0,0,.083.436q.8.976,1.588,1.97a.327.327,0,0,0,.383.133,7.969,7.969,0,0,1,.87-.055.475.475,0,0,0,.288-.095C-861.128-70.814-859.764-72.279-858.387-73.756Zm2.133-1.039a.626.626,0,0,0-.61-.6.626.626,0,0,0-.6.61.626.626,0,0,0,.61.6A.626.626,0,0,0-856.253-74.8Zm-11.16,3.051a.626.626,0,0,0,.6-.6.627.627,0,0,0-.6-.6.627.627,0,0,0-.6.605A.626.626,0,0,0-867.413-71.745Zm-4.643,3.672a.626.626,0,0,0-.6.61.626.626,0,0,0,.61.6.626.626,0,0,0,.6-.61A.625.625,0,0,0-872.057-68.073Zm8.911,1.209a.627.627,0,0,0,.608-.6.627.627,0,0,0-.6-.607.625.625,0,0,0-.607.6A.627.627,0,0,0-863.146-66.864Z" transform="translate(883.638 92.857)" fill="#0f2056"/>
      <path id="Path_13616" data-name="Path 13616" d="M-808.693-128.361q-2.209,0-4.418,0a1.425,1.425,0,0,1-.42-.046.556.556,0,0,1-.41-.576.555.555,0,0,1,.406-.549,1.3,1.3,0,0,1,.39-.047q4.449,0,8.9,0a1.434,1.434,0,0,1,.3.023.607.607,0,0,1,.487.585.6.6,0,0,1-.483.587,1.762,1.762,0,0,1-.363.025Q-806.5-128.36-808.693-128.361Z" transform="translate(831.028 139.351)" fill="#0f2056"/>
      <path id="Path_13617" data-name="Path 13617" d="M-808.75-108.393h-4.357a2.5,2.5,0,0,1-.3-.007.617.617,0,0,1-.568-.609.62.62,0,0,1,.581-.6,2.158,2.158,0,0,1,.244-.006h8.836a2.187,2.187,0,0,1,.243.006.62.62,0,0,1,.583.6.62.62,0,0,1-.6.615c-.091.009-.182,0-.274,0Z" transform="translate(831.062 121.824)" fill="#0f2056"/>
      <path id="Path_13618" data-name="Path 13618" d="M-827.133-178.29h-2.985a1.793,1.793,0,0,1-.333-.019.611.611,0,0,1-.5-.6.61.61,0,0,1,.494-.579,1.688,1.688,0,0,1,.333-.021h6.122c.443.008.727.243.731.605s-.281.611-.72.615c-.6,0-1.2,0-1.8,0Z" transform="translate(845.964 183.179)" fill="#0f2056"/>
      <path id="Path_13619" data-name="Path 13619" d="M-827.16-158.322c-1.025,0-2.051.012-3.076-.01a.963.963,0,0,1-.6-.224.569.569,0,0,1,.246-.936,1.334,1.334,0,0,1,.419-.049q3.015,0,6.031,0c.061,0,.122,0,.183,0a.628.628,0,0,1,.645.6.617.617,0,0,1-.654.618c-.7.01-1.4,0-2.1,0Z" transform="translate(845.996 165.651)" fill="#0f2056"/>
      <path id="Path_13620" data-name="Path 13620" d="M-832.742-128.928a.625.625,0,0,1-.61.594.626.626,0,0,1-.6-.633.626.626,0,0,1,.625-.579A.625.625,0,0,1-832.742-128.928Z" transform="translate(848.596 139.319)" fill="#0f2056"/>
      <path id="Path_13621" data-name="Path 13621" d="M-832.742-108.958a.625.625,0,0,1-.609.6.626.626,0,0,1-.6-.632.626.626,0,0,1,.624-.58A.625.625,0,0,1-832.742-108.958Z" transform="translate(848.596 121.788)" fill="#0f2056"/>
      <path id="Path_13622" data-name="Path 13622" d="M-929.741-124.671a4.288,4.288,0,0,1-4.081-4.147.636.636,0,0,1,.61-.725.631.631,0,0,1,.609.669,3.053,3.053,0,0,0,1.24,2.374,2.983,2.983,0,0,0,1.693.607.676.676,0,0,1,.67.384C-928.8-125.056-929.163-124.652-929.741-124.671Z" transform="translate(936.259 139.316)" fill="#0f2056"/>
    </g>
  </g>
</svg>
