<svg xmlns="http://www.w3.org/2000/svg" width="368.925" height="182.006" viewBox="0 0 368.925 182.006"><defs><style>.a{opacity:0.2;}.b,.d,.e{fill:#fff;}.c{opacity:0.7;}.d{opacity:0.5;}.e{opacity:0.1;}</style></defs><g transform="translate(4.297 -285.994)"><g transform="translate(-4.297 349.116)"><g class="a" transform="translate(0 34.206)"><path class="b" d="M24.988,402.027c15.514,4.745,27.42,14.905,38.678,26.177,10.836,10.849,21.572,22.278,35.68,28.878,29.084,13.607,63.255,6.707,91.742-4.959,31.832-13.035,61.735-32.651,96.158-38.373,16.881-2.806,34.942-1.458,49.644,7.969,12.18,7.811,18.783,20.182,21.534,34.087a168.633,168.633,0,0,1,2.52,23.959h3.683c-.117-2.278-.241-4.552-.4-6.815-.916-13.156-2.706-26.827-9.623-38.338-7.855-13.074-21.777-21.375-36.511-24.392-17.98-3.683-36.628-.173-53.795,5.532-16.541,5.5-32.2,13.252-47.874,20.8-29.914,14.4-63.067,29.019-97.1,22.944a72.017,72.017,0,0,1-22.743-8.01,96.766,96.766,0,0,1-18.862-14.559C66.43,426.19,56.2,413.992,42.712,405.869A76.231,76.231,0,0,0-4.225,395.5l-.072.009v3.771A72.835,72.835,0,0,1,24.988,402.027Z" transform="translate(4.297 -395.085)"/></g><g class="c" transform="translate(0 34.206)"><path class="b" d="M39.158,445.988c31.529,11.778,66.252.652,89.828-10.757,12.131-5.87,23.95-12.834,35.38-19.569,14.8-8.718,30.1-17.732,46.19-24.436,15.709-6.544,55.567-19.564,86.321.8,17.692,11.717,29.989,33.334,36.551,64.25.618,2.909,1.176,5.853,1.714,8.8h.67c-.545-2.993-1.112-5.983-1.739-8.938-6.6-31.092-18.99-52.847-36.831-64.663-31.022-20.545-71.133-7.448-86.939-.863-16.136,6.723-31.456,15.749-46.271,24.478-11.418,6.728-23.225,13.685-35.332,19.543-23.462,11.353-58,22.432-89.311,10.733C28.23,441.2,18.053,434.319,8.212,427.662c-4.1-2.775-8.256-5.578-12.509-8.207v.774c4.122,2.561,8.154,5.284,12.139,7.979C17.716,434.886,27.926,441.791,39.158,445.988Z" transform="translate(4.297 -380.404)"/></g><path class="d" d="M193.573,355.315h-6.2v-6.2h-3.985v6.2h-6.2V359.3h6.2v6.2h3.985v-6.2h6.2Z" transform="translate(-47.145 -331.292)"/></g><path class="e" d="M671.968-11.216A28.476,28.476,0,0,1,643.5,16.765a28.476,28.476,0,0,1-28.468-27.982H588.012a55.493,55.493,0,0,0,55.487,55,55.491,55.491,0,0,0,55.487-55Z" transform="translate(-449.283 297.211)"/></g></svg>