<svg xmlns="http://www.w3.org/2000/svg" width="475" height="179.692" viewBox="0 0 475 179.692"><defs><style>.a{opacity:0.2;}.b{fill:#fff;}.c{fill:none;stroke:#fff;stroke-miterlimit:10;stroke-width:0.5px;}</style></defs><g transform="translate(-65.938 25.124)"><g transform="translate(65.938 -25.124)"><g transform="translate(0)"><g class="a" transform="translate(315.89 0)"><g transform="translate(0 0)"><path class="b" d="M593.294,113.5c-15.466-2.8-30.774-8.829-41.641-20.568a46.564,46.564,0,0,1-10.771-18.611,50.325,50.325,0,0,1-1.314-19.489c1.512-13.5,6.8-26.294,10.863-39.153a114.493,114.493,0,0,0,5.055-21.805H551.9c-.1.86-.216,1.718-.35,2.571-2.163,13.76-7.7,26.7-11.634,40-3.757,12.7-6.259,26.421-2.334,39.406,4.328,14.317,15.536,25.686,28.587,32.5,15.056,7.861,32.347,10.387,49.14,10.912,18.525.578,36.99-1.428,55.453-2.592,7.859-.5,15.9-.8,23.948-.683v-3.679C660.91,111.826,626.923,119.586,593.294,113.5Z" transform="translate(-535.605 6.124)"/></g></g><path class="b" d="M506.163,40.116h-3.4v-3.4h-2.184v3.4h-3.4V42.3h3.4v3.4h2.184V42.3h3.4Z" transform="translate(-208.898 -5.937)"/><circle class="c" cx="69.841" cy="69.841" r="69.841" transform="translate(277.324 39.76)"/><g class="a" transform="translate(0 0)"><path class="b" d="M522.436,125.183q-4.97.486-9.991,1.005c-38.418,3.921-78.147,7.975-111.79-9.606-20.079-10.492-35.629-27.778-50.666-44.5-12.435-13.825-25.3-28.121-40.748-38.691C278.341,12.257,238.7,7.419,207.614,5.566c-7.885-.47-15.931-.8-23.713-1.124-27.217-1.125-55.36-2.288-81.954-9.547-1.208-.33-2.39-.671-3.558-1.019H95.938c1.887.595,3.822,1.167,5.819,1.712,26.673,7.281,54.858,8.445,82.115,9.572,7.778.321,15.822.654,23.7,1.123,30.992,1.848,70.511,6.667,101.265,27.705,15.381,10.522,28.211,24.786,40.619,38.579,15.08,16.765,30.673,34.1,50.867,44.653,33.837,17.68,73.672,13.616,112.2,9.684q5.017-.512,9.988-1.005c15.2-1.487,31.9-2.462,48.432-1.262v-.721C554.375,122.718,537.655,123.694,522.436,125.183Z" transform="translate(-95.938 6.124)"/></g></g></g></g></svg>