<svg xmlns="http://www.w3.org/2000/svg" width="100.528" height="100.62" viewBox="0 0 100.528 100.62">
  <g id="_0zSLdV.tif" data-name="0zSLdV.tif" transform="translate(-2921.565 697.236)">
    <g id="Group_3662" data-name="Group 3662" transform="translate(2921.565 -697.236)">
      <path id="Path_13454" data-name="Path 13454" d="M2991.566-648.3c2.4,1.743,4.72,3.611,7.222,5.19a7.484,7.484,0,0,0,6.537.578c2.388-.789,4.771-1.6,7.159-2.388,3.37-1.116,6.13.278,7.263,3.662.55,1.643,1.1,3.285,1.641,4.93a12.815,12.815,0,0,1,.525,6.29c-1.5,8.555-5.213,15.784-12.449,20.922a26.313,26.313,0,0,1-7.943,3.984,32.05,32.05,0,0,0-11.778,6.239c-3.5,2.9-7.532,2.99-11.341.471q-1.515-1-3.023-2.011c-.872-.58-1.757-1.14-2.61-1.746a4.413,4.413,0,0,0-5.223-.15c-2.845,1.676-5.7,3.341-8.608,4.9a5.9,5.9,0,0,1-8.762-4.174c-.507-2.632-.9-5.286-1.35-7.929-.231-1.353-.428-2.716-.738-4.051a7.52,7.52,0,0,0-3.4-4.864,12.806,12.806,0,0,1-6.144-9.435,13.324,13.324,0,0,0-5.678-8.747,17.2,17.2,0,0,1-7.25-11.891,35.284,35.284,0,0,0-3.253-11.044,6.738,6.738,0,0,1-.651-2.246,9.219,9.219,0,0,1,0-3.2,42.3,42.3,0,0,1,2.22-6.781,8.995,8.995,0,0,1,7.271-5.186q.63-.1,1.258-.207a3.417,3.417,0,0,0,2.865-2.486c1.536-4.629,6.089-5.99,9.913-3.008a39.228,39.228,0,0,1,8.943,9.954,25.51,25.51,0,0,0,11.75,9.9c.292.125.591.233.994.391V-663.7q0-14.732,0-29.463c0-2.91,1.146-4.069,4.019-4.07.785,0,1.571-.01,2.356,0a3.262,3.262,0,0,1,3.386,3.32c.032,1.009.005,2.021.005,3.16h41.37c2.888,0,4.032,1.149,4.032,4.046q0,17.138,0,34.276c0,2.667-1.222,3.881-3.915,3.881q-12.717,0-25.433,0h-1.074Zm-14.872-.246v3.132q0,7.954,0,15.907c0,2.357-1.286,3.621-3.651,3.634-.72,0-1.44,0-2.16,0-2.775,0-3.954-1.169-3.954-3.922,0-9.263-.016-18.526.024-27.789a1.575,1.575,0,0,0-1.158-1.786,29.82,29.82,0,0,1-14.938-12.469,31.662,31.662,0,0,0-7.6-8.272c-2.062-1.6-4.02-.993-4.851,1.495a6.477,6.477,0,0,1-5.151,4.582c-.673.137-1.354.231-2.026.371a6.114,6.114,0,0,0-4.788,4.172c-.386,1.076-.7,2.179-1.1,3.247a7.452,7.452,0,0,0,.374,6.253,29.18,29.18,0,0,1,2.906,9.825,15.367,15.367,0,0,0,6.548,11.241,16.081,16.081,0,0,1,6.6,10.653,9.807,9.807,0,0,0,4.686,7.1,10.789,10.789,0,0,1,4.944,7.476c.672,3.7,1.245,7.415,1.9,11.117.436,2.469,2.315,3.33,4.5,2.094q4.138-2.346,8.261-4.719a7.452,7.452,0,0,1,8.408.253c1.933,1.286,3.855,2.588,5.8,3.853a6.839,6.839,0,0,0,1.742.875,5.653,5.653,0,0,0,5.537-1.064,35.8,35.8,0,0,1,13.038-6.976,25.26,25.26,0,0,0,12.981-9.384c2.714-3.619,4.048-7.8,5-12.142a10.355,10.355,0,0,0-.277-5.61c-.538-1.611-1.073-3.223-1.622-4.83-.569-1.672-1.508-2.146-3.174-1.6-2.265.748-4.524,1.514-6.787,2.267a11.6,11.6,0,0,1-11.222-1.8q-4.475-3.357-8.956-6.706a1.989,1.989,0,0,0-1.029-.466C2982.616-648.561,2979.737-648.544,2976.694-648.544Zm-6.438-3.349h48.492v-35.526h-48.492Zm3.111,3.408h-3.094v19.343h3.094Zm-3.118-42.343h3.091V-693.9h-3.091Z" transform="translate(-2921.566 697.236)" fill="#9f814e"/>
      <path id="Path_13455" data-name="Path 13455" d="M3085.823-614.947h-3.232v-3.232h-1.249c-6.511,0-13.022.012-19.533,0a8.246,8.246,0,0,1-8.462-9.42c.006-.059.056-.112.146-.281h29.018v-3.2h3.244v3.139c.438.023.782.055,1.126.057,1.8.006,3.6-.021,5.4.013a3.178,3.178,0,0,1,3.229,3.242c.026,1.014.017,2.029,0,3.043a3.219,3.219,0,0,1-3.376,3.4c-2,.023-3.992.011-5.987.017a2.361,2.361,0,0,0-.325.071Zm-28.848-9.678a2.941,2.941,0,0,0,.171.576,4.9,4.9,0,0,0,4.591,2.645q9.962.008,19.926,0c.278,0,.556-.045.816-.067v-3.153Zm35.218.006h-6.354v3.13h6.354Z" transform="translate(-3001.472 657.108)" fill="#9f814e"/>
      <path id="Path_13456" data-name="Path 13456" d="M3065.938-655.814h3.133v3.111h-3.133Z" transform="translate(-3009.141 672.11)" fill="#9f814e"/>
      <path id="Path_13457" data-name="Path 13457" d="M3118.56-652.686h-3.141V-655.8h3.141Z" transform="translate(-3039.156 672.098)" fill="#9f814e"/>
      <path id="Path_13458" data-name="Path 13458" d="M3093.829-655.813v3.12h-3.1v-3.12Z" transform="translate(-3024.177 672.109)" fill="#9f814e"/>
      <path id="Path_13459" data-name="Path 13459" d="M3140.22-655.82h3.081v3.107h-3.081Z" transform="translate(-3054.2 672.113)" fill="#9f814e"/>
    </g>
  </g>
</svg>
