<svg xmlns="http://www.w3.org/2000/svg" width="20.906" height="16.986" viewBox="0 0 20.906 16.986"><defs><style>.a{fill:#fff;}</style></defs><g transform="translate(0 0)"><path class="a" d="M20.906,50.011a8.935,8.935,0,0,1-2.47.677,4.262,4.262,0,0,0,1.885-2.369A8.565,8.565,0,0,1,17.6,49.356a4.286,4.286,0,0,0-7.414,2.931,4.413,4.413,0,0,0,.1.977,12.131,12.131,0,0,1-8.834-4.483A4.287,4.287,0,0,0,2.773,54.51a4.233,4.233,0,0,1-1.936-.528v.047A4.306,4.306,0,0,0,4.27,58.24a4.278,4.278,0,0,1-1.124.141,3.789,3.789,0,0,1-.811-.073,4.327,4.327,0,0,0,4,2.986,8.612,8.612,0,0,1-5.314,1.828A8.026,8.026,0,0,1,0,63.063a12.066,12.066,0,0,0,6.575,1.923,12.114,12.114,0,0,0,12.2-12.2c0-.189-.007-.372-.016-.554A8.55,8.55,0,0,0,20.906,50.011Z" transform="translate(0 -48)"/></g></svg>