<svg id="Group_3758" data-name="Group 3758" xmlns="http://www.w3.org/2000/svg" xmlns:xlink="http://www.w3.org/1999/xlink" width="60.083" height="60.084" viewBox="0 0 60.083 60.084">
  <defs>
    <linearGradient id="linear-gradient" x1="0.604" y1="0.604" x2="0.134" y2="0.134" gradientUnits="objectBoundingBox">
      <stop offset="0" stop-color="#178ba4"/>
      <stop offset="1" stop-color="#3ec7e3"/>
    </linearGradient>
  </defs>
  <g id="Group_3391" data-name="Group 3391">
    <g id="Group_3390" data-name="Group 3390">
      <path id="Path_13174" data-name="Path 13174" d="M28.6-137.87l-38.2,38.2a30.694,30.694,0,0,1-21.886-29.4A30.681,30.681,0,0,1-.8-159.756,30.691,30.691,0,0,1,28.6-137.87Z" transform="translate(31.483 159.756)" fill="url(#linear-gradient)"/>
      <ellipse id="Ellipse_1961" data-name="Ellipse 1961" cx="28.613" cy="28.613" rx="28.613" ry="28.613" transform="translate(2.069 2.07)" fill="#fff"/>
    </g>
  </g>
  <path id="video-camera" d="M34.137,1.939a.731.731,0,0,0-.723-.013L25.5,6.247V3.654A3.658,3.658,0,0,0,21.845,0H3.654A3.658,3.658,0,0,0,0,3.654V18.082a3.658,3.658,0,0,0,3.654,3.654H21.845A3.658,3.658,0,0,0,25.5,18.082V15.536l7.915,4.322a.731.731,0,0,0,1.081-.641V2.567A.731.731,0,0,0,34.137,1.939Zm-10.1,16.144a2.195,2.195,0,0,1-2.192,2.192H3.654a2.195,2.195,0,0,1-2.192-2.192V3.654A2.2,2.2,0,0,1,3.654,1.462H21.845a2.2,2.2,0,0,1,2.192,2.192Zm9-.1L25.5,13.871V7.912L33.033,3.8Zm0,0" transform="translate(13.511 18.648)" fill="#0f2056" stroke="#0f2056" stroke-width="0.5"/>
</svg>
