<svg xmlns="http://www.w3.org/2000/svg" width="41.555" height="43.478" viewBox="0 0 41.555 43.478">
  <g id="_2zfcoR.tif" data-name="2zfcoR.tif" transform="translate(2428.612 -44.128)">
    <g id="Group_3675" data-name="Group 3675" transform="translate(-2428.461 44.278)">
      <path id="Path_13485" data-name="Path 13485" d="M-2414.495,45.293a3.225,3.225,0,0,1,2.7-1.014c2.676.024,5.352.008,8.027.008a3.059,3.059,0,0,1,2.574.943c.022,0,.056,0,.069-.01a3.338,3.338,0,0,1,2.614-.943c2.763.027,5.526.008,8.289.01a2.787,2.787,0,0,1,3.018,2.993q0,18.6,0,37.192a2.759,2.759,0,0,1-2.279,2.932,3.433,3.433,0,0,1-.632.039c-2.7,0-5.4-.016-8.1.01a3.364,3.364,0,0,1-2.937-.989,2.862,2.862,0,0,1-1.621.929,4.772,4.772,0,0,1-.705.049c-2.738,0-5.476-.016-8.214.011a3.262,3.262,0,0,1-2.793-.989,2.837,2.837,0,0,1-1.613.927,4.808,4.808,0,0,1-.7.051q-4.369,0-8.737,0a2.741,2.741,0,0,1-2.917-2.926q0-15.142,0-30.284,0-3.473,0-6.945a2.784,2.784,0,0,1,3.007-3c2.763,0,5.526.015,8.289-.009A3.239,3.239,0,0,1-2414.495,45.293Zm13.962,20.571c0,6.185.016,12.369-.014,18.554a1.646,1.646,0,0,0,1.8,1.781c2.861-.043,5.723-.014,8.585-.015a1.519,1.519,0,0,0,1.7-1.709q0-18.592,0-37.183a1.551,1.551,0,0,0-1.752-1.74h-8.474c-1.293,0-1.838.542-1.838,1.833Q-2400.533,56.624-2400.532,65.864Zm-14.6.019q0-7.354,0-14.709c0-1.356.009-2.713,0-4.069a1.48,1.48,0,0,0-1.552-1.551q-4.479-.01-8.958,0a1.491,1.491,0,0,0-1.542,1.531c0,.087,0,.174,0,.261v37.07c0,.1,0,.2,0,.3a1.462,1.462,0,0,0,1.484,1.463q4.554.013,9.108,0a1.432,1.432,0,0,0,1.394-1.041,3.02,3.02,0,0,0,.067-.776Q-2415.134,75.123-2415.137,65.884Zm1.267.005q0,9.3,0,18.592a1.514,1.514,0,0,0,1.7,1.7q4.349,0,8.7,0a1.506,1.506,0,0,0,1.67-1.658c0-.884,0-1.767,0-2.651q0-17.285,0-34.57a1.54,1.54,0,0,0-1.7-1.753q-4.33,0-8.66,0a2.409,2.409,0,0,0-.482.034,1.534,1.534,0,0,0-1.227,1.71Q-2413.871,56.593-2413.87,65.889Z" transform="translate(2428.462 -44.278)" fill="#fff" stroke="#9f814e" stroke-width="0.3"/>
      <path id="Path_13486" data-name="Path 13486" d="M-2221.975,72.761c0,2.5-.028,5,.013,7.5a1.678,1.678,0,0,1-1.818,1.825c-1.729-.03-3.459-.006-5.189-.009a1.592,1.592,0,0,1-1.776-1.773c0-.535,0-1.07,0-1.605,0-.437.228-.7.6-.711a.637.637,0,0,1,.663.692q.017.84,0,1.68c-.006.319.138.452.448.451q2.669,0,5.338,0c.334,0,.462-.144.461-.475q-.007-7.617,0-15.233c0-.345-.155-.46-.476-.459-1.767,0-3.534,0-5.3,0-.4,0-.467.086-.468.536q0,5.078,0,10.156a1.664,1.664,0,0,1-.052.515.577.577,0,0,1-.667.416.583.583,0,0,1-.536-.536,2.024,2.024,0,0,1-.007-.3q0-5.152,0-10.3a1.56,1.56,0,0,1,1.72-1.744q2.67-.015,5.339,0a1.555,1.555,0,0,1,1.711,1.751Q-2221.972,68.953-2221.975,72.761Z" transform="translate(2260.316 -60.529)" fill="#fff" stroke="#9f814e" stroke-width="0.3"/>
      <path id="Path_13488" data-name="Path 13488" d="M-2212.851,87.884c-.422,0-.845.005-1.267,0a.652.652,0,0,1-.717-.641.644.644,0,0,1,.728-.622q1.285-.006,2.571,0a.638.638,0,0,1,.715.634.649.649,0,0,1-.726.629C-2211.981,87.889-2212.416,87.884-2212.851,87.884Z" transform="translate(2246.783 -80.284)" fill="#fff" stroke="#9f814e" stroke-width="0.3"/>
      <path id="Path_13489" data-name="Path 13489" d="M-2212.836,110.393c-.41,0-.819,0-1.229,0-.473-.005-.761-.246-.766-.63s.289-.634.753-.636q1.266,0,2.533,0a.645.645,0,0,1,.727.623.643.643,0,0,1-.714.641C-2211.967,110.4-2212.4,110.392-2212.836,110.393Z" transform="translate(2246.781 -99.425)" fill="#fff" stroke="#9f814e" stroke-width="0.3"/>
      <path id="Path_13490" data-name="Path 13490" d="M-2400.284,72.764q0,3.771,0,7.541a1.6,1.6,0,0,1-1.775,1.777c-1.742,0-3.484-.018-5.226.008a1.674,1.674,0,0,1-1.786-1.781c.034-3.509.012-7.018.014-10.527,0-.148-.035-.345.043-.434a1.216,1.216,0,0,1,.566-.4.51.51,0,0,1,.594.4,1.735,1.735,0,0,1,.059.514q0,5.189,0,10.378c0,.527.05.578.573.579q2.557,0,5.114,0c.487,0,.561-.074.561-.565q0-7.522,0-15.045c0-.485-.07-.553-.571-.553q-2.557,0-5.114,0c-.515,0-.561.05-.563.549,0,.423.007.846,0,1.269a.665.665,0,0,1-.636.73c-.37,0-.62-.282-.624-.725-.005-.5-.007-1,0-1.493a1.511,1.511,0,0,1,1.572-1.583c1.157-.025,2.314-.009,3.471-.01.685,0,1.369-.009,2.053,0a1.56,1.56,0,0,1,1.675,1.718Q-2400.28,68.938-2400.284,72.764Z" transform="translate(2411.971 -60.528)" fill="#fff" stroke="#9f814e" stroke-width="0.3"/>
      <path id="Path_13492" data-name="Path 13492" d="M-2391.01,109.124c.435,0,.87-.006,1.3,0a.644.644,0,0,1,.678.6.637.637,0,0,1-.661.659q-1.342.02-2.684,0a.616.616,0,0,1-.669-.643.623.623,0,0,1,.689-.619C-2391.9,109.118-2391.457,109.124-2391.01,109.124Z" transform="translate(2398.338 -99.424)" fill="#fff" stroke="#9f814e" stroke-width="0.3"/>
      <path id="Path_13493" data-name="Path 13493" d="M-2391.074,87.882c-.422,0-.845.006-1.267,0a.63.63,0,0,1-.7-.651.619.619,0,0,1,.695-.612q1.3-.009,2.609,0a.645.645,0,0,1,.71.606.654.654,0,0,1-.7.656C-2390.179,87.888-2390.626,87.882-2391.074,87.882Z" transform="translate(2398.338 -80.282)" fill="#fff" stroke="#9f814e" stroke-width="0.3"/>
      <path id="Path_13494" data-name="Path 13494" d="M-2311.15,72.767q0,3.769,0,7.539a1.6,1.6,0,0,1-1.776,1.779q-2.613.007-5.224,0a1.611,1.611,0,0,1-1.793-1.8q0-7.557,0-15.115a1.584,1.584,0,0,1,1.742-1.77q2.65-.014,5.3,0a1.582,1.582,0,0,1,1.752,1.757Q-2311.149,68.96-2311.15,72.767Zm-1.268-.029q0-3.771,0-7.542c0-.466-.07-.539-.542-.54q-2.576,0-5.152,0c-.5,0-.566.072-.566.557q0,7.523,0,15.046c0,.485.073.559.564.56q2.557,0,5.115,0c.523,0,.581-.06.581-.576Q-2312.417,76.49-2312.418,72.738Z" transform="translate(2336.174 -60.531)" fill="#fff" stroke="#9f814e" stroke-width="0.3"/>
      <path id="Path_13495" data-name="Path 13495" d="M-2318.459,243.948a4.927,4.927,0,0,1,4.916,4.919,4.943,4.943,0,0,1-4.927,4.915,4.938,4.938,0,0,1-4.9-4.909A4.925,4.925,0,0,1-2318.459,243.948Zm3.648,4.9a3.65,3.65,0,0,0-3.674-3.636,3.653,3.653,0,0,0-3.616,3.656,3.664,3.664,0,0,0,3.636,3.642A3.664,3.664,0,0,0-2314.811,248.851Z" transform="translate(2339.083 -214.087)" fill="#fff" stroke="#9f814e" stroke-width="0.3"/>
      <path id="Path_13498" data-name="Path 13498" d="M-2301.983,86.62c.435,0,.87-.006,1.306,0a.638.638,0,0,1,.692.623.639.639,0,0,1-.682.638q-1.324.014-2.648,0a.65.65,0,0,1-.7-.628.651.651,0,0,1,.722-.634C-2302.854,86.615-2302.418,86.62-2301.983,86.62Z" transform="translate(2322.623 -80.286)" fill="#fff" stroke="#9f814e" stroke-width="0.3"/>
      <path id="Path_13499" data-name="Path 13499" d="M-2301.989,109.122c.435,0,.87,0,1.305,0a.645.645,0,0,1,.7.615.63.63,0,0,1-.673.647q-1.342.018-2.685,0a.635.635,0,0,1-.667-.655.645.645,0,0,1,.675-.606C-2302.884,109.116-2302.436,109.122-2301.989,109.122Z" transform="translate(2322.619 -99.422)" fill="#fff" stroke="#9f814e" stroke-width="0.3"/>
      <path id="Path_13500" data-name="Path 13500" d="M-2305.183,264.741a2.573,2.573,0,0,1-2.579-2.552,2.579,2.579,0,0,1,2.574-2.595,2.586,2.586,0,0,1,2.581,2.591A2.578,2.578,0,0,1-2305.183,264.741Zm-.01-1.264a1.326,1.326,0,0,0,1.321-1.293,1.327,1.327,0,0,0-1.325-1.327,1.328,1.328,0,0,0-1.3,1.312A1.323,1.323,0,0,0-2305.193,263.477Z" transform="translate(2325.813 -227.393)" fill="#fff" stroke="#9f814e" stroke-width="0.3"/>
    </g>
  </g>
</svg>
