<svg id="Group_3672" data-name="Group 3672" xmlns="http://www.w3.org/2000/svg" width="41.584" height="37.067" viewBox="0 0 41.584 37.067">
  <path id="Path_13469" data-name="Path 13469" d="M427.068-474.137v8.707c0,.113,0,.227,0,.34a1.082,1.082,0,0,1-1.179,1.14c-1.338,0-2.676,0-4.014,0h-6.484c-.884,0-1.284-.4-1.284-1.278q0-5.064,0-10.127a3.248,3.248,0,0,0-2.324-3.237,3.235,3.235,0,0,0-4.151,2.916c-.013.205-.011.411-.011.617q0,4.909,0,9.819c0,.9-.4,1.291-1.3,1.291H395.97c-.922,0-1.317-.392-1.317-1.313q0-8.908,0-17.816c0-.764.343-1.218.962-1.286a1.064,1.064,0,0,1,1.191.95,3.92,3.92,0,0,1,.012.432q0,8.228,0,16.457c0,.419,0,.42.419.42h7.812c.4,0,.406,0,.406-.408q0-4.415,0-8.831a5.307,5.307,0,0,1,2.418-4.64,5.4,5.4,0,0,1,8.362,4.041c.022.3.028.6.028.895,0,2.851.006,5.7-.006,8.553,0,.316.089.4.4.4q3.937-.018,7.874,0c.3,0,.377-.089.377-.383q-.012-8.275,0-16.55a2.146,2.146,0,0,1,.067-.608,1.034,1.034,0,0,1,1.12-.727,1.045,1.045,0,0,1,.951.905,3.529,3.529,0,0,1,.024.493Q427.069-478.552,427.068-474.137Z" transform="translate(-390.066 501.015)" fill="#fff"/>
  <path id="Path_13470" data-name="Path 13470" d="M398.049-602.291a5.371,5.371,0,0,1-.775-.4q-4.142-3.015-8.27-6.048-5.191-3.8-10.379-7.608a.36.36,0,0,0-.509-.01q-8.7,6.38-17.4,12.749c-.44.322-.879.646-1.321.964a1.1,1.1,0,0,1-1.612-.164,1.083,1.083,0,0,1,.339-1.582q6.834-5.006,13.67-10.009l5.753-4.209a1.138,1.138,0,0,1,1.647,0l9.138,6.691,10.186,7.454c.582.426.763.888.552,1.419A1.251,1.251,0,0,1,398.049-602.291Z" transform="translate(-357.566 618.955)" fill="#fff"/>
</svg>
