<svg xmlns="http://www.w3.org/2000/svg" width="39.753" height="40.422" viewBox="0 0 39.753 40.422">
  <g id="dqgZPQ.tif" transform="translate(3165.969 -719.862)">
    <g id="Group_3676" data-name="Group 3676" transform="translate(-3165.72 720.192)">
      <path id="Path_13501" data-name="Path 13501" d="M-3135.669,726.112c.338-.776.7-1.543,1.007-2.33a1.419,1.419,0,0,1,1.34-1.1c.077,0,.177-.127.221-.217.147-.3.262-.62.41-.921a2.4,2.4,0,0,1,3.063-1.171,2.4,2.4,0,0,1,1.309,3.036c-.141.386-.312.761-.478,1.161.385.153.676.36.631.827-.005.054.131.141.217.18.305.14.618.264.927.4.6.26.707.519.445,1.128q-1.984,4.614-3.969,9.228c-.21.487-.415.975-.63,1.46-.187.421-.523.579-.864.42a.638.638,0,0,1-.247-.9q2.112-4.918,4.23-9.833c.066-.154.13-.309.216-.513l-.833-.373c-.077.169-.142.3-.2.443q-5.6,12.979-11.215,25.955a2.179,2.179,0,0,1-.486.684c-1.095,1.05-2.212,2.078-3.309,3.125a1.362,1.362,0,0,1-1.583.392,1.385,1.385,0,0,1-.841-1.439c.012-1.5-.007-3.009.01-4.513a2.389,2.389,0,0,1,.18-.9q4.468-10.385,8.949-20.764a2.471,2.471,0,0,0,.191-.93c.018-1.751.011-3.5.008-5.252a1.838,1.838,0,0,0-1.91-1.988c-.168-.006-.337,0-.506,0q-11.439,0-22.878,0a3.846,3.846,0,0,0-.888.067,1.824,1.824,0,0,0-1.36,1.7c0,.091,0,.181,0,.272q0,16.672,0,33.344a1.846,1.846,0,0,0,1.335,1.952,2.957,2.957,0,0,0,.77.077q11.673.006,23.345,0a1.871,1.871,0,0,0,2.1-2.115q0-3.969,0-7.937a1.87,1.87,0,0,1,.008-.349.573.573,0,0,1,.592-.511.552.552,0,0,1,.578.475,1.905,1.905,0,0,1,.031.386c0,2.672.007,5.343,0,8.015a3.043,3.043,0,0,1-2.609,3.214,3.018,3.018,0,0,1-.542.034q-11.828,0-23.656,0a3.029,3.029,0,0,1-3.145-3.012c-.005-.116,0-.233,0-.35q0-16.555.012-33.111a4.068,4.068,0,0,1,.3-1.618,2.813,2.813,0,0,1,2.715-1.743q11.945-.02,23.89,0a3.046,3.046,0,0,1,3.04,3.163c.015.791,0,1.582,0,2.373,0,.122.01.244.016.366Zm-3.079,10.2-6.155,14.258,3.833,1.653,6.155-14.253Zm4.314.543,4.869-11.278-3.832-1.656-4.87,11.276Zm-7.4,16.357-3.213-1.383v4.229l.1.067Zm11.915-29.112c.158-.369.3-.7.441-1.03a1.193,1.193,0,0,0,.06-.182,1.177,1.177,0,0,0-.695-1.392,1.15,1.15,0,0,0-1.44.5c-.2.369-.347.766-.527,1.171Z" transform="translate(3165.72 -720.192)" fill="#fff" stroke="#fff" stroke-width="0.5"/>
      <path id="Path_13502" data-name="Path 13502" d="M-3103.648,744.725v-1.774h-12.174v1.774h.415q3.093,0,6.186,0c.3,0,.567.047.706.361a.578.578,0,0,1-.4.814,2.305,2.305,0,0,1-.465.029q-3.151,0-6.3,0c-1.042,0-1.394-.357-1.394-1.4,0-.558-.005-1.115,0-1.673a1.078,1.078,0,0,1,1.143-1.15q6.186-.009,12.372,0a1.049,1.049,0,0,1,1.123,1.119c.011.674.012,1.349,0,2.023a1,1,0,0,1-1.038,1.069c-.894.026-1.79.018-2.684.006a.583.583,0,0,1-.648-.613c.009-.357.26-.578.68-.581C-3105.316,744.722-3104.5,744.725-3103.648,744.725Z" transform="translate(3124.663 -738.346)" fill="#fff" stroke="#fff" stroke-width="0.5"/>
      <path id="Path_13503" data-name="Path 13503" d="M-3124.333,786.147h-9.142a3.8,3.8,0,0,1-.389-.007.582.582,0,0,1-.547-.6.565.565,0,0,1,.523-.578,3.438,3.438,0,0,1,.388-.014h18.362c.621,0,.912.187.921.588s-.289.609-.936.609Z" transform="translate(3139.292 -774.855)" fill="#fff" stroke="#fff" stroke-width="0.5"/>
      <path id="Path_13504" data-name="Path 13504" d="M-3124.328,810.6h-9.336c-.521,0-.833-.3-.736-.708a.556.556,0,0,1,.537-.477c.129-.008.259-.008.389-.008h18.323a3.4,3.4,0,0,1,.388.011.6.6,0,0,1,.542.6.6.6,0,0,1-.576.574c-.3.015-.6.005-.895.005Z" transform="translate(3139.297 -795.504)" fill="#fff" stroke="#fff" stroke-width="0.5"/>
      <path id="Path_13505" data-name="Path 13505" d="M-3126.49,834.96q-3.6,0-7.192,0c-.516,0-.856-.325-.7-.717a1.163,1.163,0,0,1,.5-.458c.106-.065.278-.026.42-.026q6.959,0,13.918,0a3.063,3.063,0,0,1,.465.022.547.547,0,0,1,.5.593.562.562,0,0,1-.522.579,2.732,2.732,0,0,1-.388.008Z" transform="translate(3139.3 -816.046)" fill="#fff" stroke="#fff" stroke-width="0.5"/>
      <path id="Path_13506" data-name="Path 13506" d="M-3134.718,923.664a2.056,2.056,0,0,0-2.089,1.317c-.217.509-.717.622-1.04.249a.665.665,0,0,1-.073-.728,3.279,3.279,0,0,1,4.854-1.515c.344.23.653.51.987.756a1.92,1.92,0,0,0,3.021-.556c.042-.065.079-.134.123-.2a.6.6,0,0,1,.838-.233.614.614,0,0,1,.2.849,3.139,3.139,0,0,1-4.64,1.291,12.045,12.045,0,0,1-.99-.75A1.866,1.866,0,0,0-3134.718,923.664Z" transform="translate(3142.315 -890.917)" fill="#fff" stroke="#fff" stroke-width="0.5"/>
      <path id="Path_13507" data-name="Path 13507" d="M-3130.057,859.472q-1.808,0-3.618,0c-.474,0-.754-.223-.759-.593s.278-.6.749-.605q3.638-.006,7.275,0c.485,0,.748.219.749.6,0,.393-.266.6-.777.6Z" transform="translate(3139.311 -836.747)" fill="#fff" stroke="#fff" stroke-width="0.5"/>
    </g>
  </g>
</svg>
