<svg id="Group_3673" data-name="Group 3673" xmlns="http://www.w3.org/2000/svg" width="41.602" height="36.713" viewBox="0 0 41.602 36.713">
  <path id="Path_13471" data-name="Path 13471" d="M1684.5-1416.531h2.553a1.93,1.93,0,0,1,2.155,2.154q0,12.468,0,24.936a4.713,4.713,0,0,1-4.9,4.913q-15.9,0-31.8,0a4.71,4.71,0,0,1-4.892-4.885q0-14.844,0-29.687a1.926,1.926,0,0,1,2.133-2.138q16.307,0,32.614,0a1.929,1.929,0,0,1,2.145,2.164C1684.5-1418.248,1684.5-1417.423,1684.5-1416.531Zm0,1.9v23.646c0,.649.034.691.67.845a.9.9,0,0,1,.727.939.878.878,0,0,1-.808.865,2.084,2.084,0,0,1-.719-.058,2.354,2.354,0,0,1-1.748-2.513q0-13.951,0-27.9v-.528h-33.117c-.007.155-.018.287-.018.418q0,14.7,0,29.405a2.872,2.872,0,0,0,3.085,3.1q15.841,0,31.682,0a3.7,3.7,0,0,0,.962-.115,2.831,2.831,0,0,0,2.115-2.99q0-12.326,0-24.653v-.456Z" transform="translate(-1647.609 1421.239)" fill="#9f814e"/>
  <path id="Path_13472" data-name="Path 13472" d="M1687.981-1357.6q2.232,0,4.464,0c.911,0,1.249.337,1.249,1.245q0,4.444,0,8.888c0,.909-.345,1.259-1.242,1.259q-4.464,0-8.929,0c-.877,0-1.224-.348-1.225-1.23q0-4.464,0-8.929c0-.916.326-1.232,1.258-1.234Q1685.769-1357.605,1687.981-1357.6Zm-3.773,9.481h7.568v-7.56h-7.568Z" transform="translate(-1676.652 1367.959)" fill="#9f814e"/>
  <path id="Path_13473" data-name="Path 13473" d="M1695.2-1386.48q5.726,0,11.452,0a3.861,3.861,0,0,1,.567.027.9.9,0,0,1,.773.862.893.893,0,0,1-.683.931,2,2,0,0,1-.48.061q-11.614,0-23.229,0c-.781,0-1.217-.386-1.171-1.019a.888.888,0,0,1,.753-.834,3.76,3.76,0,0,1,.566-.029Q1689.479-1386.481,1695.2-1386.48Z" transform="translate(-1676.764 1392.137)" fill="#9f814e"/>
  <path id="Path_13474" data-name="Path 13474" d="M1775.4-1326.813c-1.489,0-2.979,0-4.468,0-.694,0-1.088-.29-1.157-.826a.888.888,0,0,1,.753-1.024,2.794,2.794,0,0,1,.484-.04q4.427,0,8.855,0a2.126,2.126,0,0,1,.715.1.878.878,0,0,1,.531.916.877.877,0,0,1-.722.815,2.961,2.961,0,0,1-.563.051C1778.349-1326.811,1776.873-1326.813,1775.4-1326.813Z" transform="translate(-1749.884 1343.765)" fill="#9f814e"/>
  <path id="Path_13475" data-name="Path 13475" d="M1775.423-1297.927c-1.517,0-3.033.007-4.55,0-.783-.005-1.211-.453-1.1-1.113a.841.841,0,0,1,.677-.718,2.448,2.448,0,0,1,.563-.056q4.407-.005,8.815,0c.841,0,1.292.339,1.284.959s-.445.932-1.266.933Q1777.637-1297.925,1775.423-1297.927Z" transform="translate(-1749.88 1319.58)" fill="#9f814e"/>
  <path id="Path_13476" data-name="Path 13476" d="M1775.4-1357.605c1.516,0,3.033,0,4.549,0,.685,0,1.074.311,1.123.86a.89.89,0,0,1-.684.966,2.255,2.255,0,0,1-.521.061c-2.979,0-5.957.008-8.936-.007a1.774,1.774,0,0,1-.839-.219.8.8,0,0,1-.336-.961.841.841,0,0,1,.691-.659,2.991,2.991,0,0,1,.565-.041Q1773.206-1357.609,1775.4-1357.605Z" transform="translate(-1749.846 1367.962)" fill="#9f814e"/>
  <path id="Path_13477" data-name="Path 13477" d="M1775.423-1269.025c-1.517,0-3.033,0-4.549,0-.685,0-1.075-.312-1.124-.859a.888.888,0,0,1,.683-.967,2.246,2.246,0,0,1,.521-.061q4.468,0,8.936,0a1.126,1.126,0,0,1,1.04.418.9.9,0,0,1-.6,1.432,8.357,8.357,0,0,1-1.134.039C1777.941-1269.022,1776.682-1269.024,1775.423-1269.025Z" transform="translate(-1749.869 1295.38)" fill="#9f814e"/>
  <path id="Path_13478" data-name="Path 13478" d="M1688.044-1269.026c-1.5,0-3.006.005-4.509,0-.712,0-1.126-.366-1.121-.948a.886.886,0,0,1,.7-.879,2.316,2.316,0,0,1,.521-.059q4.468-.005,8.936,0c.71,0,1.092.262,1.182.8a.87.87,0,0,1-.753,1.053c-.482.05-.973.037-1.459.039C1690.373-1269.022,1689.208-1269.026,1688.044-1269.026Z" transform="translate(-1676.75 1295.381)" fill="#9f814e"/>
  <path id="Path_13479" data-name="Path 13479" d="M1688.044-1240.106c-1.516,0-3.033.005-4.549,0-.681,0-1.088-.368-1.086-.939a.888.888,0,0,1,.695-.881,2.082,2.082,0,0,1,.48-.059q4.509,0,9.017,0c.6,0,.98.222,1.117.63a.922.922,0,0,1-.882,1.24c-.771.029-1.543.011-2.315.012Z" transform="translate(-1676.745 1271.162)" fill="#9f814e"/>
  <path id="Path_13480" data-name="Path 13480" d="M1775.386-1240.129c-1.516,0-3.033.006-4.549,0-.769,0-1.2-.472-1.063-1.134a.943.943,0,0,1,.98-.743c.378-.017.758,0,1.137,0q3.981,0,7.961,0a2.445,2.445,0,0,1,.6.068.9.9,0,0,1,.653.915.907.907,0,0,1-.727.863,2.922,2.922,0,0,1-.525.034Q1777.62-1240.126,1775.386-1240.129Z" transform="translate(-1749.873 1271.184)" fill="#9f814e"/>
</svg>
