<svg xmlns="http://www.w3.org/2000/svg" width="41.267" height="37.811" viewBox="0 0 41.267 37.811">
  <g id="M6OrdE.tif" transform="translate(-1016.151 257.264)">
    <g id="Group_3540" data-name="Group 3540" transform="translate(1016.459 -257.014)">
      <path id="Path_13343" data-name="Path 13343" d="M1075.893-229.88c-4.281,0-8.562-.027-12.843.013a4.09,4.09,0,0,1-3.939-2.438,3.281,3.281,0,0,1-.2-1.434q-.018-9.7,0-19.4a3.8,3.8,0,0,1,3.958-3.878q13.022,0,26.043,0a3.807,3.807,0,0,1,3.936,3.938q.007,9.618,0,19.236a3.794,3.794,0,0,1-3.954,3.955C1084.561-229.873,1080.227-229.88,1075.893-229.88Zm-14.441-6.15.137.1a2.259,2.259,0,0,1,.24-.351q2.554-2.562,5.117-5.114a2.953,2.953,0,0,1,4.244-.048c.4.382.8.777,1.182,1.179.28.291.539.6.829.93l2.092-2.511q2.074-2.488,4.146-4.977a3.038,3.038,0,0,1,3.188-1.114,3.328,3.328,0,0,1,1.76,1.292q2.814,3.294,5.636,6.58a2.129,2.129,0,0,1,.177.289l.1-.084v-13.031c0-1.116-.453-1.574-1.557-1.574h-25.724c-1.112,0-1.57.456-1.57,1.566q0,8.247,0,16.493Zm.417,3.247a1.465,1.465,0,0,0,1.156.357q12.843,0,25.686,0c.106,0,.212,0,.318,0a1.254,1.254,0,0,0,1.273-1.293c.009-.53-.022-1.061.01-1.589a1.2,1.2,0,0,0-.345-.919q-3.8-4.41-7.585-8.837c-.476-.556-.629-.553-1.1.017q-3.42,4.108-6.843,8.214a1.3,1.3,0,0,1-2.145.088q-1.365-1.362-2.727-2.726c-.429-.428-.511-.429-.932-.009q-2.967,2.964-5.935,5.928C1062.436-233.3,1062.158-233.052,1061.868-232.783Z" transform="translate(-1052.141 257.014)" fill="#f7f7f7" stroke="#f7f7f7" stroke-width="0.5"/>
      <path id="Path_13344" data-name="Path 13344" d="M1046.146-148.484c-.4-.1-1.138-.253-1.864-.447q-12.4-3.316-24.807-6.643a3.844,3.844,0,0,1-2.865-4.884q1.386-5.38,2.8-10.751a1.291,1.291,0,0,1,1.2-1.091,1.185,1.185,0,0,1,1.255.835,1.776,1.776,0,0,1,0,.89q-1.364,5.324-2.763,10.638a1.351,1.351,0,0,0,1.11,1.923q12.883,3.45,25.766,6.9a1.289,1.289,0,0,0,1.783-1.051c.273-1.091.538-2.183.811-3.274a1.287,1.287,0,0,1,1.552-1.059,1.275,1.275,0,0,1,.923,1.63c-.284,1.183-.566,2.368-.88,3.543A3.9,3.9,0,0,1,1046.146-148.484Z" transform="translate(-1016.459 185.795)" fill="#f7f7f7" stroke="#f7f7f7" stroke-width="0.5"/>
      <path id="Path_13345" data-name="Path 13345" d="M1094.285-218.283a3.4,3.4,0,0,1-3.382-3.392,3.412,3.412,0,0,1,3.435-3.384,3.409,3.409,0,0,1,3.361,3.417A3.4,3.4,0,0,1,1094.285-218.283Zm.016-2.549a.837.837,0,0,0,.846-.815.851.851,0,0,0-.844-.863.851.851,0,0,0-.846.862A.839.839,0,0,0,1094.3-220.832Z" transform="translate(-1079.046 230.148)" fill="#f7f7f7" stroke="#f7f7f7" stroke-width="0.5"/>
    </g>
  </g>
</svg>
