<svg id="Group_3674" data-name="Group 3674" xmlns="http://www.w3.org/2000/svg" width="32.778" height="32.777" viewBox="0 0 32.778 32.777">
  <path id="Path_13481" data-name="Path 13481" d="M756.174-1394.544c1.581,0,3.162,0,4.744,0a3.655,3.655,0,0,1,3.8,3.8q0,3.566,0,7.132a3.657,3.657,0,0,1-3.828,3.813q-3.549,0-7.1,0a3.66,3.66,0,0,1-3.82-3.821q0-4.829,0-9.658a1.125,1.125,0,0,1,1.285-1.268Zm-4.013,2.186v.375q0,4.165,0,8.329a1.491,1.491,0,0,0,1.655,1.672h7.066a1.489,1.489,0,0,0,1.654-1.64q0-3.549,0-7.1a1.482,1.482,0,0,0-1.624-1.635q-4.2,0-8.4,0Z" transform="translate(-731.947 1412.57)" fill="#9f814e"/>
  <path id="Path_13482" data-name="Path 13482" d="M632.927-1517.792q0,2.474,0,4.948a1.117,1.117,0,0,1-1.262,1.258q-4.846,0-9.692,0a3.654,3.654,0,0,1-3.793-3.779q-.006-3.6,0-7.2a3.651,3.651,0,0,1,3.771-3.766q3.6-.008,7.2,0a3.649,3.649,0,0,1,3.774,3.763C632.931-1520.977,632.927-1519.385,632.927-1517.792Zm-2.186,4.02v-.352q0-4.195,0-8.39a1.482,1.482,0,0,0-1.623-1.633q-3.564,0-7.129,0a1.48,1.48,0,0,0-1.624,1.632q0,3.53,0,7.06a1.5,1.5,0,0,0,1.676,1.683h8.7Z" transform="translate(-618.175 1526.336)" fill="#9f814e"/>
  <path id="Path_13483" data-name="Path 13483" d="M749.974-1517.783q0-2.371,0-4.744a3.656,3.656,0,0,1,3.806-3.8q3.566,0,7.133,0a3.653,3.653,0,0,1,3.809,3.8q.005,3.583,0,7.166a3.653,3.653,0,0,1-3.79,3.783q-4.863.006-9.726,0a1.111,1.111,0,0,1-1.231-1.22Q749.972-1515.291,749.974-1517.783Zm2.186,4.017h.36q4.2,0,8.39,0a1.483,1.483,0,0,0,1.625-1.632q0-3.547,0-7.094a1.487,1.487,0,0,0-1.642-1.649H753.8a1.485,1.485,0,0,0-1.639,1.651q0,4.178,0,8.356Z" transform="translate(-731.946 1526.33)" fill="#9f814e"/>
  <path id="Path_13484" data-name="Path 13484" d="M626.721-1394.551q2.474,0,4.949,0a1.114,1.114,0,0,1,1.249,1.235q0,4.88,0,9.76a3.647,3.647,0,0,1-3.752,3.751q-3.618.01-7.235,0a3.652,3.652,0,0,1-3.758-3.745q-.01-3.634,0-7.269a3.648,3.648,0,0,1,3.736-3.731C623.513-1394.557,625.117-1394.551,626.721-1394.551Zm4.012,2.186H622a1.485,1.485,0,0,0-1.637,1.653q0,3.53,0,7.06a1.492,1.492,0,0,0,1.662,1.663h7.026a1.5,1.5,0,0,0,1.687-1.673q0-4.161,0-8.322Z" transform="translate(-618.168 1412.577)" fill="#9f814e"/>
</svg>
